<svg xmlns="http://www.w3.org/2000/svg" xmlns:xlink="http://www.w3.org/1999/xlink" width="1080" zoomAndPan="magnify" viewBox="0 0 810 809.999993" height="1080" preserveAspectRatio="xMidYMid meet" version="1.0"><defs><g/><clipPath id="9b3576e82b"><path d="M 68.75 131.136719 L 93.5 131.136719 L 93.5 206.136719 L 68.75 206.136719 Z M 68.75 131.136719 " clip-rule="nonzero"/></clipPath><clipPath id="777b142a19"><path d="M 101.378906 187.992188 L 114.128906 187.992188 L 114.128906 199.992188 L 101.378906 199.992188 Z M 101.378906 187.992188 " clip-rule="nonzero"/></clipPath></defs><path fill="#dfcfb0" d="M 424.425781 203.324219 C 407.625 188.894531 389.515625 175.324219 369.496094 165.632812 C 266.386719 115.742188 182.828125 206.921875 133.835938 287.453125 C 95.90625 349.804688 72.363281 435.042969 133.097656 492.421875 C 180.386719 537.101562 251.207031 498.789062 306.417969 518.6875 C 408.472656 555.457031 472.808594 743.21875 604.3125 705.464844 C 651.015625 692.054688 678.296875 653.09375 692.542969 608.449219 C 717.609375 529.9375 712.898438 444.648438 739.292969 367.035156 C 752.132812 329.257812 801.078125 263.941406 768.410156 224.253906 C 739.519531 189.167969 683.296875 201.941406 646.128906 214.699219 C 556.703125 245.375 506.484375 253.785156 424.425781 203.324219 Z M 424.425781 203.324219 " fill-opacity="1" fill-rule="evenodd"/><path fill="#000000" d="M 477.507812 209.675781 C 477.570312 209.800781 477.65625 209.914062 477.730469 210.011719 C 509.277344 247.628906 537.96875 268.25 570.847656 279.390625 C 603.140625 290.332031 639.523438 292.050781 686.933594 291.527344 C 709.78125 291.253906 738.894531 292.984375 762.140625 303.152344 C 777.394531 309.832031 790.109375 320.199219 796.390625 336.371094 C 803.632812 354.824219 796.953125 373.078125 785.410156 390.324219 C 767.863281 416.5625 739.019531 440.476562 724.988281 459.214844 C 715.015625 472.535156 706.152344 486.527344 697.964844 500.957031 C 665.773438 557.675781 644.109375 621.019531 605.710938 674.375 C 592.359375 692.929688 576.457031 709.214844 557.9375 720.652344 C 539.527344 732.027344 518.527344 738.59375 494.96875 737.773438 C 454.125 736.351562 425.597656 717.089844 403.199219 689.300781 C 351.089844 624.660156 331.148438 515.085938 271.632812 468.871094 C 239.128906 443.640625 190.605469 442.980469 153.550781 425.5 C 138.160156 418.234375 124.8125 407.941406 115.738281 391.296875 C 100.195312 362.800781 98.402344 334.226562 105.292969 307.253906 C 115.800781 266.058594 146.347656 228.566406 179.164062 200.355469 C 221.628906 163.863281 276.929688 127.476562 332.09375 121.199219 C 368.539062 117.050781 404.90625 126.15625 437.335938 157.28125 C 445.265625 164.894531 452.445312 173.269531 459.050781 182.066406 C 465.703125 190.925781 471.800781 200.207031 477.507812 209.601562 Z M 481.660156 206.613281 C 475.824219 197.203125 469.742188 187.910156 463.101562 179.039062 C 456.34375 169.992188 449.003906 161.40625 440.902344 153.582031 C 407.238281 121.136719 369.410156 111.605469 331.484375 115.839844 C 275.273438 122.109375 218.75 158.878906 175.402344 195.972656 C 141.613281 224.878906 110.304688 263.441406 99.410156 305.746094 C 92.082031 334.152344 93.914062 364.230469 110.230469 394.296875 C 119.960938 412.242188 134.257812 423.417969 150.824219 431.28125 C 187.402344 448.636719 235.464844 449.121094 267.546875 474.140625 C 326.636719 520.207031 345.902344 629.417969 397.601562 693.800781 C 421.246094 723.257812 451.484375 743.566406 494.695312 745.148438 C 519.820312 746.070312 542.21875 739.144531 561.886719 727.042969 C 581.242188 715.132812 597.933594 698.1875 611.902344 678.835938 C 650.527344 625.308594 672.425781 561.761719 704.820312 504.855469 C 712.871094 490.726562 721.558594 477.007812 731.34375 463.976562 C 747.882812 441.945312 784.625 412.765625 800.066406 381.089844 C 807.621094 365.613281 810.238281 349.566406 803.917969 333.417969 C 796.738281 315.214844 782.507812 303.414062 765.257812 295.976562 C 740.964844 285.507812 710.628906 283.777344 686.824219 284.214844 C 640.332031 285.121094 604.625 283.839844 572.855469 273.386719 C 540.785156 262.832031 512.78125 242.90625 481.660156 206.585938 Z M 481.660156 206.613281 " fill-opacity="1" fill-rule="evenodd"/><g fill="#000000" fill-opacity="1"><g transform="translate(195.672065, 375.000059)"><g><path d="M 11.28125 1.515625 C 11.28125 1.679688 11.09375 1.765625 10.71875 1.765625 C 10.394531 1.765625 10.035156 1.679688 9.640625 1.515625 C 9.242188 1.359375 8.910156 1.117188 8.640625 0.796875 C 8.265625 0.472656 7.984375 0.207031 7.796875 0 C 7.609375 -0.207031 7.515625 -0.472656 7.515625 -0.796875 C 7.515625 -1.222656 7.675781 -1.914062 8 -2.875 C 8.425781 -4.800781 9.210938 -7.550781 10.359375 -11.125 C 11.503906 -14.695312 12.53125 -17.390625 13.4375 -19.203125 C 13.8125 -19.835938 14.101562 -20.5 14.3125 -21.1875 C 14.53125 -21.882812 14.664062 -22.34375 14.71875 -22.5625 C 14.988281 -23.519531 15.148438 -24.078125 15.203125 -24.234375 L 15.125 -25.046875 C 15.125 -25.253906 15.175781 -25.460938 15.28125 -25.671875 C 15.382812 -25.890625 15.570312 -26.132812 15.84375 -26.40625 C 16.582031 -27.039062 17.378906 -28.289062 18.234375 -30.15625 L 21.28125 -38.875 L 22.234375 -41.59375 C 22.285156 -41.8125 22.390625 -42.1875 22.546875 -42.71875 C 22.710938 -43.25 22.796875 -43.617188 22.796875 -43.828125 C 22.796875 -44.046875 22.742188 -44.15625 22.640625 -44.15625 C 22.210938 -44.050781 21.359375 -43.972656 20.078125 -43.921875 C 19.441406 -43.816406 18.960938 -43.75 18.640625 -43.71875 C 18.316406 -43.695312 18.078125 -43.65625 17.921875 -43.59375 L 17.359375 -43.59375 C 16.347656 -43.59375 15.84375 -43.96875 15.84375 -44.71875 C 15.945312 -45.570312 16.25 -46.28125 16.75 -46.84375 C 17.257812 -47.40625 17.914062 -47.710938 18.71875 -47.765625 L 21.84375 -48.484375 C 22.320312 -48.585938 22.972656 -48.734375 23.796875 -48.921875 C 24.628906 -49.109375 25.203125 -49.148438 25.515625 -49.046875 C 26.210938 -49.523438 26.5625 -49.894531 26.5625 -50.15625 C 26.5625 -50.425781 26.691406 -50.640625 26.953125 -50.796875 C 27.222656 -50.960938 27.546875 -51.046875 27.921875 -51.046875 C 28.671875 -51.046875 29.203125 -50.800781 29.515625 -50.3125 C 29.734375 -50 30.1875 -49.84375 30.875 -49.84375 C 32 -49.84375 33.867188 -50.132812 36.484375 -50.71875 C 36.910156 -50.769531 37.640625 -50.835938 38.671875 -50.921875 C 39.710938 -51.003906 40.582031 -51.046875 41.28125 -51.046875 C 42.238281 -51.046875 43.007812 -50.960938 43.59375 -50.796875 C 44.070312 -50.898438 44.5 -50.953125 44.875 -50.953125 C 45.25 -50.953125 45.570312 -50.984375 45.84375 -51.046875 C 46.75 -51.046875 47.304688 -51.125 47.515625 -51.28125 C 47.992188 -51.175781 48.539062 -51.082031 49.15625 -51 C 49.769531 -50.914062 50.207031 -50.820312 50.46875 -50.71875 C 50.738281 -50.613281 50.984375 -50.476562 51.203125 -50.3125 C 51.359375 -50.101562 51.4375 -49.914062 51.4375 -49.75 C 51.4375 -49.59375 51.410156 -49.488281 51.359375 -49.4375 L 51.203125 -49.515625 C 51.253906 -49.515625 51.347656 -49.472656 51.484375 -49.390625 C 51.617188 -49.316406 51.765625 -49.203125 51.921875 -49.046875 C 52.722656 -48.617188 52.988281 -48.003906 52.71875 -47.203125 C 52.664062 -46.878906 52.546875 -46.648438 52.359375 -46.515625 C 52.171875 -46.378906 51.726562 -46.296875 51.03125 -46.265625 C 50.34375 -46.242188 49.4375 -46.257812 48.3125 -46.3125 C 46.289062 -46.582031 44.535156 -46.71875 43.046875 -46.71875 C 40.804688 -46.71875 37.738281 -46.453125 33.84375 -45.921875 C 32.882812 -45.867188 31.988281 -45.734375 31.15625 -45.515625 C 30.332031 -45.304688 29.8125 -45.175781 29.59375 -45.125 C 29.332031 -45.125 28.929688 -44.722656 28.390625 -43.921875 C 27.859375 -43.117188 27.378906 -42.101562 26.953125 -40.875 C 26.640625 -40.394531 26.082031 -39.128906 25.28125 -37.078125 C 24.476562 -35.023438 23.945312 -33.679688 23.6875 -33.046875 C 22.507812 -29.953125 21.84375 -28.269531 21.6875 -28 C 22.320312 -27.789062 23.597656 -27.6875 25.515625 -27.6875 C 28.296875 -27.6875 31.976562 -27.894531 36.5625 -28.3125 C 39.007812 -28.800781 40.421875 -28.960938 40.796875 -28.796875 C 41.117188 -28.585938 41.398438 -28.1875 41.640625 -27.59375 C 41.878906 -27.007812 42 -26.476562 42 -26 C 42 -25.726562 41.945312 -25.488281 41.84375 -25.28125 C 41.675781 -24.90625 41.097656 -24.609375 40.109375 -24.390625 C 39.128906 -24.179688 37.382812 -23.945312 34.875 -23.6875 C 32.53125 -23.46875 29.117188 -23.359375 24.640625 -23.359375 C 22.296875 -23.359375 20.910156 -23.410156 20.484375 -23.515625 C 20.367188 -23.460938 20.21875 -23.300781 20.03125 -23.03125 C 19.851562 -22.769531 19.765625 -22.453125 19.765625 -22.078125 C 18.796875 -20.367188 17.378906 -17.0625 15.515625 -12.15625 C 13.648438 -7.25 12.71875 -4.316406 12.71875 -3.359375 C 12.34375 -2.398438 12.050781 -1.304688 11.84375 -0.078125 C 11.789062 0.128906 11.707031 0.421875 11.59375 0.796875 C 11.488281 1.171875 11.382812 1.410156 11.28125 1.515625 Z M 11.28125 1.515625 "/></g></g></g><g fill="#000000" fill-opacity="1"><g transform="translate(232.948445, 375.000059)"><g><path d="M 16.640625 -35.046875 C 16.265625 -35.410156 15.941406 -36.046875 15.671875 -36.953125 C 15.410156 -37.859375 15.414062 -38.3125 15.6875 -38.3125 C 16.101562 -38.375 16.59375 -38.84375 17.15625 -39.71875 C 17.71875 -40.601562 17.972656 -41.335938 17.921875 -41.921875 C 17.921875 -42.128906 18 -42.328125 18.15625 -42.515625 C 18.320312 -42.703125 18.507812 -42.820312 18.71875 -42.875 C 19.144531 -43.144531 19.519531 -43.28125 19.84375 -43.28125 C 20.75 -43.28125 21.570312 -42.640625 22.3125 -41.359375 C 22.632812 -40.660156 22.796875 -40.046875 22.796875 -39.515625 C 22.796875 -39.035156 22.660156 -38.539062 22.390625 -38.03125 C 22.128906 -37.53125 21.648438 -36.878906 20.953125 -36.078125 C 20.046875 -34.847656 19.195312 -34.234375 18.40625 -34.234375 C 17.863281 -34.234375 17.273438 -34.503906 16.640625 -35.046875 Z M 8.875 -2.5625 C 8.132812 -3.3125 7.765625 -4.378906 7.765625 -5.765625 C 7.765625 -6.503906 7.894531 -7.144531 8.15625 -7.6875 C 8.15625 -7.945312 8.207031 -8.265625 8.3125 -8.640625 C 8.425781 -9.015625 8.484375 -9.253906 8.484375 -9.359375 C 8.429688 -9.679688 8.644531 -10.5625 9.125 -12 C 10.082031 -14.132812 11.359375 -17.894531 12.953125 -23.28125 C 12.953125 -23.550781 13.054688 -23.773438 13.265625 -23.953125 C 13.484375 -24.140625 13.804688 -24.257812 14.234375 -24.3125 C 14.660156 -24.425781 14.957031 -24.484375 15.125 -24.484375 C 15.4375 -24.484375 15.710938 -24.363281 15.953125 -24.125 C 16.191406 -23.882812 16.523438 -23.441406 16.953125 -22.796875 C 17.273438 -22.472656 17.4375 -21.992188 17.4375 -21.359375 C 17.4375 -20.347656 17.09375 -19.125 16.40625 -17.6875 C 15.707031 -16.132812 15.253906 -14.800781 15.046875 -13.6875 C 14.398438 -12.238281 13.890625 -10.90625 13.515625 -9.6875 C 13.410156 -9.363281 13.25 -8.71875 13.03125 -7.75 C 12.820312 -6.789062 12.53125 -6.019531 12.15625 -5.4375 C 11.84375 -3.945312 11.550781 -2.90625 11.28125 -2.3125 C 11.007812 -1.726562 10.71875 -1.4375 10.40625 -1.4375 C 10.03125 -1.4375 9.519531 -1.8125 8.875 -2.5625 Z M 8.875 -2.5625 "/></g></g></g><g fill="#000000" fill-opacity="1"><g transform="translate(247.906994, 375.000059)"><g><path d="M 36.3125 -3.6875 C 35.25 -3.6875 34.367188 -3.910156 33.671875 -4.359375 C 32.984375 -4.816406 32.398438 -5.578125 31.921875 -6.640625 C 31.441406 -8.347656 31.203125 -10.054688 31.203125 -11.765625 C 31.203125 -12.554688 31.28125 -13.113281 31.4375 -13.4375 C 31.65625 -13.65625 31.75 -14.125 31.71875 -14.84375 C 31.695312 -15.5625 31.6875 -16.082031 31.6875 -16.40625 C 31.625 -17.625 31.25 -18.234375 30.5625 -18.234375 C 30.082031 -18.234375 29.546875 -18.050781 28.953125 -17.6875 C 25.972656 -15.8125 23.46875 -14.207031 21.4375 -12.875 C 19.414062 -11.539062 17.46875 -10.050781 15.59375 -8.40625 C 14.851562 -7.550781 14.296875 -6.800781 13.921875 -6.15625 C 13.546875 -5.519531 13.273438 -5.082031 13.109375 -4.84375 C 12.953125 -4.601562 12.742188 -4.484375 12.484375 -4.484375 C 12.160156 -4.367188 11.945312 -4.3125 11.84375 -4.3125 C 11.570312 -4.3125 11.25 -4.457031 10.875 -4.75 C 10.5 -5.050781 10.257812 -5.253906 10.15625 -5.359375 C 9.945312 -5.578125 9.601562 -5.9375 9.125 -6.4375 C 8.644531 -6.945312 8.375 -7.304688 8.3125 -7.515625 C 8.3125 -7.941406 8.484375 -8.925781 8.828125 -10.46875 C 9.179688 -12.019531 9.46875 -13.007812 9.6875 -13.4375 C 9.84375 -13.4375 10.078125 -13.769531 10.390625 -14.4375 C 10.710938 -15.101562 11.007812 -15.625 11.28125 -16 C 11.4375 -16.800781 12.128906 -18.640625 13.359375 -21.515625 C 14.109375 -22.796875 14.628906 -23.863281 14.921875 -24.71875 C 15.210938 -25.570312 15.410156 -26.640625 15.515625 -27.921875 L 15.515625 -28.078125 C 15.515625 -28.296875 15.59375 -28.46875 15.75 -28.59375 C 15.914062 -28.726562 16.078125 -28.796875 16.234375 -28.796875 C 16.609375 -29.066406 16.957031 -29.203125 17.28125 -29.203125 C 17.96875 -29.203125 18.660156 -28.773438 19.359375 -27.921875 C 20.160156 -26.910156 20.5625 -25.84375 20.5625 -24.71875 C 20.5625 -23.332031 19.679688 -21.144531 17.921875 -18.15625 C 17.765625 -17.78125 17.535156 -17.242188 17.234375 -16.546875 C 16.941406 -15.859375 16.796875 -15.382812 16.796875 -15.125 L 21.28125 -18.15625 C 21.707031 -18.632812 22.851562 -19.488281 24.71875 -20.71875 C 26.582031 -21.945312 27.890625 -22.640625 28.640625 -22.796875 C 29.921875 -23.390625 30.722656 -23.6875 31.046875 -23.6875 C 31.679688 -23.6875 32.546875 -23.203125 33.640625 -22.234375 C 34.734375 -21.273438 35.382812 -20.476562 35.59375 -19.84375 C 35.59375 -19.25 35.648438 -18.820312 35.765625 -18.5625 C 36.023438 -17.488281 36.15625 -16.234375 36.15625 -14.796875 C 36.15625 -13.835938 36.085938 -12.972656 35.953125 -12.203125 C 35.828125 -11.429688 35.65625 -10.988281 35.4375 -10.875 C 35.4375 -10.820312 35.460938 -10.742188 35.515625 -10.640625 C 35.566406 -10.535156 35.675781 -10.484375 35.84375 -10.484375 L 35.84375 -10.078125 C 35.414062 -10.078125 35.359375 -9.625 35.671875 -8.71875 C 35.992188 -7.8125 36.421875 -7.117188 36.953125 -6.640625 C 37.492188 -6.109375 37.765625 -5.578125 37.765625 -5.046875 C 37.765625 -4.398438 37.28125 -3.945312 36.3125 -3.6875 Z M 36.3125 -3.6875 "/></g></g></g><g fill="#000000" fill-opacity="1"><g transform="translate(283.903502, 375.000059)"><g><path d="M 28.953125 1.515625 C 27.617188 1.835938 26.710938 1.253906 26.234375 -0.234375 C 25.492188 -2.316406 25.125 -4.503906 25.125 -6.796875 C 25.125 -7.441406 25.148438 -7.894531 25.203125 -8.15625 L 25.359375 -9.84375 L 22.234375 -7.359375 C 20.535156 -5.867188 18.84375 -4.75 17.15625 -4 C 15.476562 -3.25 13.945312 -2.875 12.5625 -2.875 C 11.65625 -3.039062 10.785156 -3.425781 9.953125 -4.03125 C 9.128906 -4.644531 8.53125 -5.378906 8.15625 -6.234375 C 7.945312 -6.660156 7.84375 -7.300781 7.84375 -8.15625 C 7.84375 -10.132812 8.375 -12.46875 9.4375 -15.15625 C 10.507812 -17.851562 11.84375 -20.082031 13.4375 -21.84375 C 15.726562 -25.3125 18.289062 -27.046875 21.125 -27.046875 C 22.457031 -27.046875 23.789062 -26.644531 25.125 -25.84375 C 26.457031 -25.3125 27.226562 -25.046875 27.4375 -25.046875 C 27.757812 -25.046875 28 -25.175781 28.15625 -25.4375 C 28.320312 -25.707031 28.484375 -26.1875 28.640625 -26.875 C 29.222656 -29.332031 29.78125 -31.390625 30.3125 -33.046875 C 31.488281 -36.554688 32.503906 -39.378906 33.359375 -41.515625 C 34.210938 -43.648438 35.253906 -46 36.484375 -48.5625 C 37.015625 -49.675781 37.476562 -50.40625 37.875 -50.75 C 38.28125 -51.101562 38.722656 -51.253906 39.203125 -51.203125 C 40.367188 -51.203125 41.273438 -50.398438 41.921875 -48.796875 C 42.078125 -48.421875 42.15625 -48.050781 42.15625 -47.6875 C 42.15625 -47.3125 42 -46.800781 41.6875 -46.15625 C 40.289062 -43.757812 38.578125 -39.835938 36.546875 -34.390625 C 34.523438 -28.953125 32.957031 -24.234375 31.84375 -20.234375 C 31.363281 -18.472656 30.945312 -15.941406 30.59375 -12.640625 C 30.25 -9.335938 30.078125 -6.59375 30.078125 -4.40625 C 30.078125 -3.4375 30.128906 -2.738281 30.234375 -2.3125 C 30.503906 -1.40625 30.640625 -0.609375 30.640625 0.078125 C 30.640625 0.609375 30.503906 0.96875 30.234375 1.15625 C 29.972656 1.34375 29.546875 1.460938 28.953125 1.515625 Z M 15.4375 -7.359375 C 16.664062 -7.628906 18.160156 -8.429688 19.921875 -9.765625 C 20.242188 -9.972656 21.015625 -10.53125 22.234375 -11.4375 C 23.460938 -12.34375 24.394531 -13.300781 25.03125 -14.3125 C 25.675781 -15.332031 26.132812 -16.484375 26.40625 -17.765625 C 26.457031 -18.722656 26.363281 -19.507812 26.125 -20.125 C 25.882812 -20.738281 25.414062 -21.335938 24.71875 -21.921875 C 24.1875 -22.296875 23.519531 -22.484375 22.71875 -22.484375 C 21.28125 -22.484375 19.945312 -21.894531 18.71875 -20.71875 C 17.28125 -19.4375 16 -17.78125 14.875 -15.75 C 13.757812 -13.726562 12.90625 -11.382812 12.3125 -8.71875 C 12.15625 -7.707031 12.691406 -7.203125 13.921875 -7.203125 C 14.554688 -7.203125 15.0625 -7.253906 15.4375 -7.359375 Z M 15.4375 -7.359375 "/></g></g></g><g fill="#000000" fill-opacity="1"><g transform="translate(334.698559, 375.000059)"><g><path d="M 31.359375 -29.515625 C 32.210938 -28.660156 32.640625 -27.78125 32.640625 -26.875 C 32.640625 -25.914062 32 -24.238281 30.71875 -21.84375 C 30.289062 -20.613281 29.820312 -19.460938 29.3125 -18.390625 C 28.8125 -17.328125 28.425781 -16.632812 28.15625 -16.3125 L 26.3125 -12.078125 C 25.519531 -10.316406 24.535156 -8.265625 23.359375 -5.921875 C 21.921875 -2.929688 20.90625 -0.71875 20.3125 0.71875 L 19.28125 2.40625 C 16.613281 6.664062 14.5625 9.648438 13.125 11.359375 C 10.1875 13.972656 7.914062 15.492188 6.3125 15.921875 C 5.625 16.128906 4.800781 16.234375 3.84375 16.234375 C 2.082031 16.234375 0.414062 15.847656 -1.15625 15.078125 C -2.726562 14.304688 -3.625 13.414062 -3.84375 12.40625 C -3.894531 12.03125 -3.757812 11.628906 -3.4375 11.203125 C -3.113281 10.773438 -2.769531 10.5625 -2.40625 10.5625 C -2.132812 10.5625 -1.921875 10.664062 -1.765625 10.875 C -1.335938 11.195312 -0.710938 11.503906 0.109375 11.796875 C 0.941406 12.085938 1.835938 12.234375 2.796875 12.234375 C 3.171875 12.234375 3.675781 12.179688 4.3125 12.078125 C 5.382812 11.867188 6.503906 11.226562 7.671875 10.15625 C 8.847656 9.09375 9.914062 7.921875 10.875 6.640625 C 12.6875 3.972656 14.632812 0.640625 16.71875 -3.359375 C 15.96875 -3.578125 15.242188 -4.097656 14.546875 -4.921875 C 13.859375 -5.742188 13.3125 -6.609375 12.90625 -7.515625 C 12.507812 -8.421875 12.367188 -9.085938 12.484375 -9.515625 L 12.484375 -10.40625 C 12.003906 -10.40625 11.613281 -11.3125 11.3125 -13.125 C 11.019531 -14.9375 10.875 -17.039062 10.875 -19.4375 C 10.875 -20.34375 10.929688 -21.488281 11.046875 -22.875 C 11.253906 -23.726562 11.367188 -24.78125 11.390625 -26.03125 C 11.421875 -27.289062 11.4375 -28.109375 11.4375 -28.484375 L 11.4375 -28.796875 C 11.4375 -29.441406 11.503906 -29.894531 11.640625 -30.15625 C 11.773438 -30.425781 12 -30.664062 12.3125 -30.875 C 12.738281 -31.09375 13.164062 -31.203125 13.59375 -31.203125 C 15.09375 -31.203125 15.84375 -29.226562 15.84375 -25.28125 C 15.84375 -24.695312 15.789062 -23.550781 15.6875 -21.84375 C 15.625 -21.09375 15.59375 -19.972656 15.59375 -18.484375 C 15.59375 -15.703125 15.832031 -13.242188 16.3125 -11.109375 C 16.800781 -8.984375 17.523438 -7.519531 18.484375 -6.71875 L 18.953125 -7.84375 C 19.546875 -9.382812 20 -10.367188 20.3125 -10.796875 C 21.0625 -12.347656 21.488281 -13.335938 21.59375 -13.765625 C 21.707031 -14.128906 22.003906 -14.738281 22.484375 -15.59375 L 23.515625 -17.765625 C 23.628906 -18.078125 23.976562 -19.097656 24.5625 -20.828125 C 25.144531 -22.566406 25.726562 -23.972656 26.3125 -25.046875 C 26.53125 -25.472656 26.851562 -26.097656 27.28125 -26.921875 C 27.707031 -27.742188 28.050781 -28.34375 28.3125 -28.71875 C 28.582031 -29.09375 28.878906 -29.332031 29.203125 -29.4375 C 29.628906 -29.8125 29.972656 -30 30.234375 -30 C 30.453125 -30 30.828125 -29.835938 31.359375 -29.515625 Z M 31.359375 -29.515625 "/></g></g></g><g fill="#000000" fill-opacity="1"><g transform="translate(361.975905, 375.000059)"><g><path d="M 13.515625 -1.203125 C 12.878906 -1.203125 12.375 -1.304688 12 -1.515625 C 11.625 -1.734375 11.09375 -2.132812 10.40625 -2.71875 C 8.644531 -4.582031 7.765625 -6.289062 7.765625 -7.84375 C 7.765625 -8.21875 7.789062 -8.484375 7.84375 -8.640625 C 8 -9.015625 8.0625 -9.382812 8.03125 -9.75 C 8.007812 -10.125 8 -10.367188 8 -10.484375 C 7.789062 -10.691406 7.6875 -10.835938 7.6875 -10.921875 C 7.6875 -11.003906 7.738281 -11.082031 7.84375 -11.15625 C 7.945312 -11.238281 8.023438 -11.332031 8.078125 -11.4375 C 8.398438 -11.4375 8.507812 -11.726562 8.40625 -12.3125 C 8.289062 -12.738281 8.5 -13.6875 9.03125 -15.15625 C 9.570312 -16.625 10.242188 -17.972656 11.046875 -19.203125 C 11.628906 -20.160156 12.492188 -21.359375 13.640625 -22.796875 C 14.785156 -24.234375 15.8125 -25.328125 16.71875 -26.078125 C 18 -27.203125 19.144531 -28.03125 20.15625 -28.5625 C 21.175781 -29.09375 22.296875 -29.492188 23.515625 -29.765625 C 24.585938 -30.023438 25.3125 -30.15625 25.6875 -30.15625 C 26.050781 -30.15625 26.378906 -30.0625 26.671875 -29.875 C 26.972656 -29.6875 27.363281 -29.351562 27.84375 -28.875 C 29.28125 -28.238281 30.28125 -27.425781 30.84375 -26.4375 C 31.40625 -25.445312 31.6875 -23.914062 31.6875 -21.84375 C 31.6875 -18.375 30.269531 -14.613281 27.4375 -10.5625 C 26.207031 -8.800781 25.0625 -7.453125 24 -6.515625 C 22.9375 -5.585938 21.523438 -4.585938 19.765625 -3.515625 C 18.640625 -2.710938 17.609375 -2.140625 16.671875 -1.796875 C 15.742188 -1.453125 14.691406 -1.253906 13.515625 -1.203125 Z M 21.203125 -9.6875 C 22.484375 -11.125 23.507812 -12.484375 24.28125 -13.765625 C 25.050781 -15.046875 25.785156 -16.671875 26.484375 -18.640625 C 26.742188 -19.546875 26.875 -20.640625 26.875 -21.921875 C 26.875 -23.515625 26.660156 -24.421875 26.234375 -24.640625 C 25.703125 -24.910156 25.171875 -25.046875 24.640625 -25.046875 C 23.460938 -25.046875 22.234375 -24.507812 20.953125 -23.4375 C 19.410156 -22.101562 18.023438 -20.460938 16.796875 -18.515625 C 15.566406 -16.566406 14.316406 -14.15625 13.046875 -11.28125 C 12.503906 -10.15625 12.234375 -9.0625 12.234375 -8 C 12.234375 -7.195312 12.429688 -6.554688 12.828125 -6.078125 C 13.234375 -5.597656 13.785156 -5.359375 14.484375 -5.359375 C 16.242188 -5.359375 18.484375 -6.800781 21.203125 -9.6875 Z M 21.203125 -9.6875 "/></g></g></g><g fill="#000000" fill-opacity="1"><g transform="translate(390.213147, 375.000059)"><g><path d="M 27.125 -0.15625 C 25.84375 -1.382812 24.878906 -3.195312 24.234375 -5.59375 C 24.128906 -5.914062 24.078125 -6.476562 24.078125 -7.28125 C 24.078125 -8.082031 24.078125 -8.640625 24.078125 -8.953125 C 23.753906 -8.160156 23.164062 -7.441406 22.3125 -6.796875 C 21.09375 -5.566406 19.867188 -4.660156 18.640625 -4.078125 C 16.773438 -2.847656 15.253906 -2.234375 14.078125 -2.234375 C 13.015625 -2.234375 12.003906 -2.820312 11.046875 -4 C 10.347656 -4.582031 9.820312 -5.164062 9.46875 -5.75 C 9.125 -6.34375 8.953125 -7.066406 8.953125 -7.921875 C 8.953125 -8.503906 9.035156 -9.144531 9.203125 -9.84375 C 9.304688 -11.8125 9.582031 -13.703125 10.03125 -15.515625 C 10.488281 -17.328125 11.359375 -19.648438 12.640625 -22.484375 C 14.347656 -25.835938 15.570312 -28.078125 16.3125 -29.203125 C 16.582031 -29.304688 16.929688 -29.359375 17.359375 -29.359375 C 17.890625 -29.359375 18.328125 -29.195312 18.671875 -28.875 C 19.023438 -28.5625 19.226562 -28.132812 19.28125 -27.59375 C 19.4375 -27.382812 19.515625 -27.09375 19.515625 -26.71875 C 19.515625 -25.382812 18.71875 -23.195312 17.125 -20.15625 C 15.039062 -15.144531 14 -11.679688 14 -9.765625 C 14 -8.640625 14.316406 -7.972656 14.953125 -7.765625 C 15.222656 -7.597656 15.519531 -7.515625 15.84375 -7.515625 C 17.175781 -7.515625 18.773438 -8.421875 20.640625 -10.234375 C 22.503906 -12.046875 24.289062 -14.953125 26 -18.953125 C 26.75 -20.773438 27.203125 -22.644531 27.359375 -24.5625 C 27.304688 -24.71875 27.28125 -24.957031 27.28125 -25.28125 C 27.28125 -26.238281 27.757812 -27.007812 28.71875 -27.59375 C 28.9375 -27.914062 29.226562 -28.171875 29.59375 -28.359375 C 29.96875 -28.546875 30.207031 -28.53125 30.3125 -28.3125 L 31.59375 -28.40625 C 31.757812 -28.457031 31.921875 -28.304688 32.078125 -27.953125 C 32.234375 -27.609375 32.394531 -27.382812 32.5625 -27.28125 C 32.9375 -26.957031 33.125 -26.367188 33.125 -25.515625 C 33.125 -23.753906 32.347656 -21.0625 30.796875 -17.4375 C 29.785156 -15.300781 29.101562 -13.660156 28.75 -12.515625 C 28.40625 -11.367188 28.207031 -10.265625 28.15625 -9.203125 C 28.15625 -7.171875 28.929688 -5.488281 30.484375 -4.15625 C 31.015625 -3.78125 31.332031 -3.378906 31.4375 -2.953125 C 31.539062 -2.523438 31.566406 -1.941406 31.515625 -1.203125 C 31.410156 -0.722656 31.101562 -0.332031 30.59375 -0.03125 C 30.09375 0.257812 29.546875 0.40625 28.953125 0.40625 C 28.265625 0.40625 27.65625 0.21875 27.125 -0.15625 Z M 27.125 -0.15625 "/></g></g></g><g fill="#000000" fill-opacity="1"><g transform="translate(419.810268, 375.000059)"><g><path d="M 9.515625 -2.796875 C 9.085938 -3.117188 8.796875 -3.410156 8.640625 -3.671875 C 8.484375 -3.941406 8.40625 -4.34375 8.40625 -4.875 C 8.40625 -5.351562 8.429688 -5.753906 8.484375 -6.078125 C 8.640625 -7.890625 9.039062 -10 9.6875 -12.40625 L 10.078125 -14 C 10.234375 -15.332031 11.164062 -18.128906 12.875 -22.390625 C 14.582031 -26.660156 15.972656 -29.570312 17.046875 -31.125 C 17.472656 -31.382812 17.925781 -31.515625 18.40625 -31.515625 C 19.09375 -31.515625 19.675781 -31.273438 20.15625 -30.796875 C 20.476562 -30.585938 20.640625 -30.1875 20.640625 -29.59375 C 20.640625 -29.0625 20.4375 -28.273438 20.03125 -27.234375 C 19.632812 -26.203125 18.957031 -24.671875 18 -22.640625 C 17.789062 -22.210938 17.429688 -21.410156 16.921875 -20.234375 C 16.410156 -19.066406 16.15625 -18.375 16.15625 -18.15625 C 16.15625 -18.050781 16.179688 -18 16.234375 -18 C 16.347656 -18 16.457031 -18.035156 16.5625 -18.109375 C 16.664062 -18.191406 16.769531 -18.257812 16.875 -18.3125 C 17.46875 -19.332031 18.894531 -20.722656 21.15625 -22.484375 C 23.425781 -24.242188 24.988281 -25.335938 25.84375 -25.765625 C 26.21875 -25.972656 26.695312 -26.179688 27.28125 -26.390625 C 27.863281 -26.609375 28.265625 -26.769531 28.484375 -26.875 C 29.335938 -27.300781 30.347656 -27.515625 31.515625 -27.515625 C 32.265625 -27.515625 32.914062 -27.394531 33.46875 -27.15625 C 34.03125 -26.914062 34.421875 -26.554688 34.640625 -26.078125 C 34.691406 -25.703125 34.835938 -25.40625 35.078125 -25.1875 C 35.316406 -24.976562 35.488281 -24.847656 35.59375 -24.796875 C 35.757812 -24.796875 35.867188 -24.726562 35.921875 -24.59375 C 35.972656 -24.46875 36 -24.375 36 -24.3125 C 36 -23.945312 35.785156 -23.722656 35.359375 -23.640625 C 34.929688 -23.554688 34.160156 -23.488281 33.046875 -23.4375 C 32.453125 -23.382812 31.832031 -23.25 31.1875 -23.03125 C 30.550781 -22.820312 29.914062 -22.554688 29.28125 -22.234375 C 26.289062 -20.535156 24.0625 -19.203125 22.59375 -18.234375 C 21.132812 -17.273438 19.65625 -15.96875 18.15625 -14.3125 C 17.570312 -13.675781 16.800781 -12.53125 15.84375 -10.875 C 15.46875 -10.5 15.078125 -9.523438 14.671875 -7.953125 C 14.273438 -6.378906 14.078125 -5.410156 14.078125 -5.046875 C 14.023438 -4.878906 13.914062 -4.566406 13.75 -4.109375 C 13.59375 -3.660156 13.359375 -3.222656 13.046875 -2.796875 C 12.398438 -1.941406 11.863281 -1.515625 11.4375 -1.515625 C 10.957031 -1.515625 10.316406 -1.941406 9.515625 -2.796875 Z M 9.515625 -2.796875 "/></g></g></g><g fill="#000000" fill-opacity="1"><g transform="translate(467.965586, 375.000059)"><g><path d="M 10.40625 0 C 10.238281 0.0507812 9.96875 0.078125 9.59375 0.078125 C 8.738281 0.078125 8.070312 -0.347656 7.59375 -1.203125 C 7.113281 -2.054688 6.875 -3.226562 6.875 -4.71875 C 6.875 -5.945312 7.035156 -7.359375 7.359375 -8.953125 C 7.941406 -10.503906 8.234375 -11.625 8.234375 -12.3125 C 8.398438 -13.332031 8.945312 -15.160156 9.875 -17.796875 C 10.8125 -20.441406 11.414062 -22.03125 11.6875 -22.5625 C 11.894531 -22.5625 12.078125 -22.734375 12.234375 -23.078125 C 12.398438 -23.421875 12.484375 -23.804688 12.484375 -24.234375 C 12.484375 -24.710938 12.578125 -25.207031 12.765625 -25.71875 C 12.953125 -26.226562 13.148438 -26.585938 13.359375 -26.796875 C 13.359375 -26.960938 13.425781 -27.253906 13.5625 -27.671875 C 13.695312 -28.097656 13.765625 -28.394531 13.765625 -28.5625 C 13.765625 -28.664062 13.828125 -28.863281 13.953125 -29.15625 C 14.085938 -29.445312 14.15625 -29.675781 14.15625 -29.84375 C 15.007812 -31.488281 16.503906 -35.207031 18.640625 -41 C 20.773438 -46.789062 21.84375 -50.003906 21.84375 -50.640625 C 21.84375 -51.492188 22.269531 -51.921875 23.125 -51.921875 C 23.382812 -52.179688 23.8125 -52.3125 24.40625 -52.3125 L 25.6875 -51.046875 C 26.050781 -50.671875 26.285156 -50.28125 26.390625 -49.875 C 26.503906 -49.476562 26.5625 -48.878906 26.5625 -48.078125 C 26.5625 -47.273438 26.453125 -46.582031 26.234375 -46 C 26.023438 -45.414062 25.492188 -44.21875 24.640625 -42.40625 C 24.484375 -42.03125 24.269531 -41.585938 24 -41.078125 C 23.726562 -40.566406 23.4375 -39.941406 23.125 -39.203125 C 23.007812 -38.929688 22.582031 -37.96875 21.84375 -36.3125 C 21.3125 -35.25 21.046875 -34.640625 21.046875 -34.484375 C 21.046875 -34.316406 20.9375 -33.976562 20.71875 -33.46875 C 20.507812 -32.96875 20.320312 -32.453125 20.15625 -31.921875 C 19.726562 -31.066406 19.046875 -29.554688 18.109375 -27.390625 C 17.179688 -25.234375 16.71875 -24.050781 16.71875 -23.84375 C 16.71875 -23.25 16.582031 -22.820312 16.3125 -22.5625 C 16.15625 -22.5625 16.050781 -22.441406 16 -22.203125 C 15.945312 -21.960938 15.921875 -21.789062 15.921875 -21.6875 C 15.921875 -21.144531 15.492188 -19.726562 14.640625 -17.4375 L 13.921875 -15.125 C 12.910156 -11.65625 12.203125 -9.117188 11.796875 -7.515625 C 11.398438 -5.921875 11.203125 -4.5625 11.203125 -3.4375 C 11.203125 -2.101562 11.160156 -1.25 11.078125 -0.875 C 10.992188 -0.5 10.769531 -0.207031 10.40625 0 Z M 10.40625 0 "/></g></g></g><g fill="#000000" fill-opacity="1"><g transform="translate(481.484262, 375.000059)"><g><path d="M 22.078125 -2.796875 C 20.742188 -1.628906 19.144531 -1.046875 17.28125 -1.046875 C 15.945312 -1.046875 14.679688 -1.363281 13.484375 -2 C 12.285156 -2.632812 11.285156 -3.515625 10.484375 -4.640625 C 9.785156 -5.492188 9.273438 -6.453125 8.953125 -7.515625 C 8.640625 -8.585938 8.484375 -9.894531 8.484375 -11.4375 C 8.484375 -11.96875 8.535156 -13.035156 8.640625 -14.640625 C 8.796875 -16.609375 9.445312 -18.660156 10.59375 -20.796875 C 11.738281 -22.929688 13.164062 -24.835938 14.875 -26.515625 C 16.582031 -28.203125 18.265625 -29.363281 19.921875 -30 C 20.773438 -30.53125 21.546875 -30.796875 22.234375 -30.796875 C 22.609375 -30.796875 22.984375 -30.769531 23.359375 -30.71875 C 23.734375 -30.664062 24.132812 -30.613281 24.5625 -30.5625 C 25.726562 -30.394531 26.617188 -30.164062 27.234375 -29.875 C 27.847656 -29.582031 28.367188 -29.144531 28.796875 -28.5625 C 30.128906 -27.226562 30.796875 -25.679688 30.796875 -23.921875 C 30.585938 -22.640625 29.757812 -21.171875 28.3125 -19.515625 C 26.875 -17.867188 25.144531 -16.535156 23.125 -15.515625 C 22.164062 -15.203125 21.070312 -15.046875 19.84375 -15.046875 C 18.1875 -15.046875 16.851562 -15.390625 15.84375 -16.078125 C 15.363281 -16.234375 14.988281 -16.3125 14.71875 -16.3125 C 14.238281 -16.3125 13.878906 -15.992188 13.640625 -15.359375 C 13.398438 -14.722656 13.171875 -13.550781 12.953125 -11.84375 C 12.898438 -11.46875 12.875 -10.929688 12.875 -10.234375 C 12.875 -7.515625 13.78125 -6.023438 15.59375 -5.765625 C 16.820312 -5.492188 17.703125 -5.359375 18.234375 -5.359375 C 18.878906 -5.359375 19.601562 -5.570312 20.40625 -6 L 21.921875 -6.875 C 22.242188 -7.039062 22.535156 -7.253906 22.796875 -7.515625 C 23.066406 -7.785156 23.304688 -8.023438 23.515625 -8.234375 C 23.628906 -8.347656 23.789062 -8.523438 24 -8.765625 C 24.207031 -9.003906 24.40625 -9.160156 24.59375 -9.234375 C 24.78125 -9.316406 24.957031 -9.359375 25.125 -9.359375 C 25.332031 -9.359375 25.566406 -9.238281 25.828125 -9 C 26.097656 -8.757812 26.316406 -8.585938 26.484375 -8.484375 C 26.960938 -8.484375 27.066406 -8.148438 26.796875 -7.484375 C 26.535156 -6.816406 25.960938 -6.039062 25.078125 -5.15625 C 24.203125 -4.28125 23.203125 -3.492188 22.078125 -2.796875 Z M 22 -19.765625 C 22.90625 -20.128906 23.820312 -20.789062 24.75 -21.75 C 25.6875 -22.71875 26.15625 -23.519531 26.15625 -24.15625 C 26.15625 -24.800781 25.914062 -25.335938 25.4375 -25.765625 C 24.957031 -26.191406 24.289062 -26.40625 23.4375 -26.40625 C 22.800781 -26.40625 22.320312 -26.347656 22 -26.234375 C 21.25 -26.023438 20.367188 -25.453125 19.359375 -24.515625 C 18.347656 -23.585938 17.46875 -22.640625 16.71875 -21.671875 C 15.96875 -20.710938 15.675781 -20.15625 15.84375 -20 C 16.101562 -19.519531 17.140625 -19.28125 18.953125 -19.28125 C 20.179688 -19.28125 21.195312 -19.441406 22 -19.765625 Z M 22 -19.765625 "/></g></g></g><g fill="#000000" fill-opacity="1"><g transform="translate(507.481735, 375.000059)"><g><path d="M 8.5625 -2.875 C 8.394531 -3.195312 8.140625 -3.53125 7.796875 -3.875 C 7.453125 -4.226562 7.28125 -4.457031 7.28125 -4.5625 C 7.28125 -5.144531 7.144531 -5.597656 6.875 -5.921875 C 6.769531 -6.023438 6.71875 -6.265625 6.71875 -6.640625 C 6.71875 -7.492188 7.128906 -8.945312 7.953125 -11 C 8.785156 -13.050781 9.867188 -15.28125 11.203125 -17.6875 C 11.523438 -18 11.9375 -18.554688 12.4375 -19.359375 C 12.945312 -20.160156 13.28125 -20.613281 13.4375 -20.71875 C 13.4375 -20.9375 13.515625 -21.132812 13.671875 -21.3125 C 13.835938 -21.5 14.023438 -21.59375 14.234375 -21.59375 L 14.234375 -22.078125 C 14.234375 -22.554688 15.113281 -23.710938 16.875 -25.546875 C 18.632812 -27.390625 20.078125 -28.660156 21.203125 -29.359375 C 22.535156 -30.265625 23.894531 -30.71875 25.28125 -30.71875 C 26.238281 -30.71875 27.066406 -30.453125 27.765625 -29.921875 C 28.023438 -29.597656 29.25 -28.453125 31.4375 -26.484375 L 34.40625 -23.84375 L 32.953125 -19.84375 C 32.472656 -18.40625 32.234375 -17.097656 32.234375 -15.921875 C 32.234375 -13.890625 32.820312 -11.941406 34 -10.078125 C 34.269531 -9.492188 34.800781 -8.929688 35.59375 -8.390625 C 36.394531 -7.859375 37.195312 -7.539062 38 -7.4375 C 39.175781 -7.226562 39.765625 -6.644531 39.765625 -5.6875 C 39.765625 -4.613281 39.28125 -3.972656 38.3125 -3.765625 C 38.101562 -3.710938 37.785156 -3.6875 37.359375 -3.6875 C 34.210938 -3.6875 31.492188 -5.894531 29.203125 -10.3125 C 28.984375 -10.632812 28.703125 -11.222656 28.359375 -12.078125 C 28.015625 -12.929688 27.816406 -13.519531 27.765625 -13.84375 C 27.441406 -13.414062 27.039062 -12.90625 26.5625 -12.3125 C 26.082031 -11.726562 25.628906 -11.222656 25.203125 -10.796875 C 19.390625 -4.984375 14.800781 -2.078125 11.4375 -2.078125 C 10.375 -2.078125 9.414062 -2.34375 8.5625 -2.875 Z M 11.4375 -7.359375 C 11.4375 -7.085938 11.71875 -7.003906 12.28125 -7.109375 C 12.84375 -7.222656 13.535156 -7.492188 14.359375 -7.921875 C 15.179688 -8.347656 16.019531 -8.90625 16.875 -9.59375 C 21.46875 -13.539062 24.773438 -16.984375 26.796875 -19.921875 L 28.5625 -22.796875 C 28.03125 -23.921875 27.46875 -24.734375 26.875 -25.234375 C 26.289062 -25.742188 25.757812 -26 25.28125 -26 C 24.15625 -26 22.394531 -24.597656 20 -21.796875 C 17.601562 -18.992188 15.414062 -15.703125 13.4375 -11.921875 C 12.957031 -11.015625 12.53125 -10.09375 12.15625 -9.15625 C 11.78125 -8.226562 11.539062 -7.628906 11.4375 -7.359375 Z M 11.4375 -7.359375 "/></g></g></g><g fill="#000000" fill-opacity="1"><g transform="translate(542.43833, 375.000059)"><g><path d="M 9.515625 -2.796875 C 9.085938 -3.117188 8.796875 -3.410156 8.640625 -3.671875 C 8.484375 -3.941406 8.40625 -4.34375 8.40625 -4.875 C 8.40625 -5.351562 8.429688 -5.753906 8.484375 -6.078125 C 8.640625 -7.890625 9.039062 -10 9.6875 -12.40625 L 10.078125 -14 C 10.234375 -15.332031 11.164062 -18.128906 12.875 -22.390625 C 14.582031 -26.660156 15.972656 -29.570312 17.046875 -31.125 C 17.472656 -31.382812 17.925781 -31.515625 18.40625 -31.515625 C 19.09375 -31.515625 19.675781 -31.273438 20.15625 -30.796875 C 20.476562 -30.585938 20.640625 -30.1875 20.640625 -29.59375 C 20.640625 -29.0625 20.4375 -28.273438 20.03125 -27.234375 C 19.632812 -26.203125 18.957031 -24.671875 18 -22.640625 C 17.789062 -22.210938 17.429688 -21.410156 16.921875 -20.234375 C 16.410156 -19.066406 16.15625 -18.375 16.15625 -18.15625 C 16.15625 -18.050781 16.179688 -18 16.234375 -18 C 16.347656 -18 16.457031 -18.035156 16.5625 -18.109375 C 16.664062 -18.191406 16.769531 -18.257812 16.875 -18.3125 C 17.46875 -19.332031 18.894531 -20.722656 21.15625 -22.484375 C 23.425781 -24.242188 24.988281 -25.335938 25.84375 -25.765625 C 26.21875 -25.972656 26.695312 -26.179688 27.28125 -26.390625 C 27.863281 -26.609375 28.265625 -26.769531 28.484375 -26.875 C 29.335938 -27.300781 30.347656 -27.515625 31.515625 -27.515625 C 32.265625 -27.515625 32.914062 -27.394531 33.46875 -27.15625 C 34.03125 -26.914062 34.421875 -26.554688 34.640625 -26.078125 C 34.691406 -25.703125 34.835938 -25.40625 35.078125 -25.1875 C 35.316406 -24.976562 35.488281 -24.847656 35.59375 -24.796875 C 35.757812 -24.796875 35.867188 -24.726562 35.921875 -24.59375 C 35.972656 -24.46875 36 -24.375 36 -24.3125 C 36 -23.945312 35.785156 -23.722656 35.359375 -23.640625 C 34.929688 -23.554688 34.160156 -23.488281 33.046875 -23.4375 C 32.453125 -23.382812 31.832031 -23.25 31.1875 -23.03125 C 30.550781 -22.820312 29.914062 -22.554688 29.28125 -22.234375 C 26.289062 -20.535156 24.0625 -19.203125 22.59375 -18.234375 C 21.132812 -17.273438 19.65625 -15.96875 18.15625 -14.3125 C 17.570312 -13.675781 16.800781 -12.53125 15.84375 -10.875 C 15.46875 -10.5 15.078125 -9.523438 14.671875 -7.953125 C 14.273438 -6.378906 14.078125 -5.410156 14.078125 -5.046875 C 14.023438 -4.878906 13.914062 -4.566406 13.75 -4.109375 C 13.59375 -3.660156 13.359375 -3.222656 13.046875 -2.796875 C 12.398438 -1.941406 11.863281 -1.515625 11.4375 -1.515625 C 10.957031 -1.515625 10.316406 -1.941406 9.515625 -2.796875 Z M 9.515625 -2.796875 "/></g></g></g><g fill="#000000" fill-opacity="1"><g transform="translate(571.235532, 375.000059)"><g><path d="M 36.3125 -3.6875 C 35.25 -3.6875 34.367188 -3.910156 33.671875 -4.359375 C 32.984375 -4.816406 32.398438 -5.578125 31.921875 -6.640625 C 31.441406 -8.347656 31.203125 -10.054688 31.203125 -11.765625 C 31.203125 -12.554688 31.28125 -13.113281 31.4375 -13.4375 C 31.65625 -13.65625 31.75 -14.125 31.71875 -14.84375 C 31.695312 -15.5625 31.6875 -16.082031 31.6875 -16.40625 C 31.625 -17.625 31.25 -18.234375 30.5625 -18.234375 C 30.082031 -18.234375 29.546875 -18.050781 28.953125 -17.6875 C 25.972656 -15.8125 23.46875 -14.207031 21.4375 -12.875 C 19.414062 -11.539062 17.46875 -10.050781 15.59375 -8.40625 C 14.851562 -7.550781 14.296875 -6.800781 13.921875 -6.15625 C 13.546875 -5.519531 13.273438 -5.082031 13.109375 -4.84375 C 12.953125 -4.601562 12.742188 -4.484375 12.484375 -4.484375 C 12.160156 -4.367188 11.945312 -4.3125 11.84375 -4.3125 C 11.570312 -4.3125 11.25 -4.457031 10.875 -4.75 C 10.5 -5.050781 10.257812 -5.253906 10.15625 -5.359375 C 9.945312 -5.578125 9.601562 -5.9375 9.125 -6.4375 C 8.644531 -6.945312 8.375 -7.304688 8.3125 -7.515625 C 8.3125 -7.941406 8.484375 -8.925781 8.828125 -10.46875 C 9.179688 -12.019531 9.46875 -13.007812 9.6875 -13.4375 C 9.84375 -13.4375 10.078125 -13.769531 10.390625 -14.4375 C 10.710938 -15.101562 11.007812 -15.625 11.28125 -16 C 11.4375 -16.800781 12.128906 -18.640625 13.359375 -21.515625 C 14.109375 -22.796875 14.628906 -23.863281 14.921875 -24.71875 C 15.210938 -25.570312 15.410156 -26.640625 15.515625 -27.921875 L 15.515625 -28.078125 C 15.515625 -28.296875 15.59375 -28.46875 15.75 -28.59375 C 15.914062 -28.726562 16.078125 -28.796875 16.234375 -28.796875 C 16.609375 -29.066406 16.957031 -29.203125 17.28125 -29.203125 C 17.96875 -29.203125 18.660156 -28.773438 19.359375 -27.921875 C 20.160156 -26.910156 20.5625 -25.84375 20.5625 -24.71875 C 20.5625 -23.332031 19.679688 -21.144531 17.921875 -18.15625 C 17.765625 -17.78125 17.535156 -17.242188 17.234375 -16.546875 C 16.941406 -15.859375 16.796875 -15.382812 16.796875 -15.125 L 21.28125 -18.15625 C 21.707031 -18.632812 22.851562 -19.488281 24.71875 -20.71875 C 26.582031 -21.945312 27.890625 -22.640625 28.640625 -22.796875 C 29.921875 -23.390625 30.722656 -23.6875 31.046875 -23.6875 C 31.679688 -23.6875 32.546875 -23.203125 33.640625 -22.234375 C 34.734375 -21.273438 35.382812 -20.476562 35.59375 -19.84375 C 35.59375 -19.25 35.648438 -18.820312 35.765625 -18.5625 C 36.023438 -17.488281 36.15625 -16.234375 36.15625 -14.796875 C 36.15625 -13.835938 36.085938 -12.972656 35.953125 -12.203125 C 35.828125 -11.429688 35.65625 -10.988281 35.4375 -10.875 C 35.4375 -10.820312 35.460938 -10.742188 35.515625 -10.640625 C 35.566406 -10.535156 35.675781 -10.484375 35.84375 -10.484375 L 35.84375 -10.078125 C 35.414062 -10.078125 35.359375 -9.625 35.671875 -8.71875 C 35.992188 -7.8125 36.421875 -7.117188 36.953125 -6.640625 C 37.492188 -6.109375 37.765625 -5.578125 37.765625 -5.046875 C 37.765625 -4.398438 37.28125 -3.945312 36.3125 -3.6875 Z M 36.3125 -3.6875 "/></g></g></g><g fill="#000000" fill-opacity="1"><g transform="translate(607.232028, 375.000059)"><g><path d="M 16.640625 -35.046875 C 16.265625 -35.410156 15.941406 -36.046875 15.671875 -36.953125 C 15.410156 -37.859375 15.414062 -38.3125 15.6875 -38.3125 C 16.101562 -38.375 16.59375 -38.84375 17.15625 -39.71875 C 17.71875 -40.601562 17.972656 -41.335938 17.921875 -41.921875 C 17.921875 -42.128906 18 -42.328125 18.15625 -42.515625 C 18.320312 -42.703125 18.507812 -42.820312 18.71875 -42.875 C 19.144531 -43.144531 19.519531 -43.28125 19.84375 -43.28125 C 20.75 -43.28125 21.570312 -42.640625 22.3125 -41.359375 C 22.632812 -40.660156 22.796875 -40.046875 22.796875 -39.515625 C 22.796875 -39.035156 22.660156 -38.539062 22.390625 -38.03125 C 22.128906 -37.53125 21.648438 -36.878906 20.953125 -36.078125 C 20.046875 -34.847656 19.195312 -34.234375 18.40625 -34.234375 C 17.863281 -34.234375 17.273438 -34.503906 16.640625 -35.046875 Z M 8.875 -2.5625 C 8.132812 -3.3125 7.765625 -4.378906 7.765625 -5.765625 C 7.765625 -6.503906 7.894531 -7.144531 8.15625 -7.6875 C 8.15625 -7.945312 8.207031 -8.265625 8.3125 -8.640625 C 8.425781 -9.015625 8.484375 -9.253906 8.484375 -9.359375 C 8.429688 -9.679688 8.644531 -10.5625 9.125 -12 C 10.082031 -14.132812 11.359375 -17.894531 12.953125 -23.28125 C 12.953125 -23.550781 13.054688 -23.773438 13.265625 -23.953125 C 13.484375 -24.140625 13.804688 -24.257812 14.234375 -24.3125 C 14.660156 -24.425781 14.957031 -24.484375 15.125 -24.484375 C 15.4375 -24.484375 15.710938 -24.363281 15.953125 -24.125 C 16.191406 -23.882812 16.523438 -23.441406 16.953125 -22.796875 C 17.273438 -22.472656 17.4375 -21.992188 17.4375 -21.359375 C 17.4375 -20.347656 17.09375 -19.125 16.40625 -17.6875 C 15.707031 -16.132812 15.253906 -14.800781 15.046875 -13.6875 C 14.398438 -12.238281 13.890625 -10.90625 13.515625 -9.6875 C 13.410156 -9.363281 13.25 -8.71875 13.03125 -7.75 C 12.820312 -6.789062 12.53125 -6.019531 12.15625 -5.4375 C 11.84375 -3.945312 11.550781 -2.90625 11.28125 -2.3125 C 11.007812 -1.726562 10.71875 -1.4375 10.40625 -1.4375 C 10.03125 -1.4375 9.519531 -1.8125 8.875 -2.5625 Z M 8.875 -2.5625 "/></g></g></g><g fill="#000000" fill-opacity="1"><g transform="translate(622.190599, 375.000059)"><g><path d="M 36.3125 -3.6875 C 35.25 -3.6875 34.367188 -3.910156 33.671875 -4.359375 C 32.984375 -4.816406 32.398438 -5.578125 31.921875 -6.640625 C 31.441406 -8.347656 31.203125 -10.054688 31.203125 -11.765625 C 31.203125 -12.554688 31.28125 -13.113281 31.4375 -13.4375 C 31.65625 -13.65625 31.75 -14.125 31.71875 -14.84375 C 31.695312 -15.5625 31.6875 -16.082031 31.6875 -16.40625 C 31.625 -17.625 31.25 -18.234375 30.5625 -18.234375 C 30.082031 -18.234375 29.546875 -18.050781 28.953125 -17.6875 C 25.972656 -15.8125 23.46875 -14.207031 21.4375 -12.875 C 19.414062 -11.539062 17.46875 -10.050781 15.59375 -8.40625 C 14.851562 -7.550781 14.296875 -6.800781 13.921875 -6.15625 C 13.546875 -5.519531 13.273438 -5.082031 13.109375 -4.84375 C 12.953125 -4.601562 12.742188 -4.484375 12.484375 -4.484375 C 12.160156 -4.367188 11.945312 -4.3125 11.84375 -4.3125 C 11.570312 -4.3125 11.25 -4.457031 10.875 -4.75 C 10.5 -5.050781 10.257812 -5.253906 10.15625 -5.359375 C 9.945312 -5.578125 9.601562 -5.9375 9.125 -6.4375 C 8.644531 -6.945312 8.375 -7.304688 8.3125 -7.515625 C 8.3125 -7.941406 8.484375 -8.925781 8.828125 -10.46875 C 9.179688 -12.019531 9.46875 -13.007812 9.6875 -13.4375 C 9.84375 -13.4375 10.078125 -13.769531 10.390625 -14.4375 C 10.710938 -15.101562 11.007812 -15.625 11.28125 -16 C 11.4375 -16.800781 12.128906 -18.640625 13.359375 -21.515625 C 14.109375 -22.796875 14.628906 -23.863281 14.921875 -24.71875 C 15.210938 -25.570312 15.410156 -26.640625 15.515625 -27.921875 L 15.515625 -28.078125 C 15.515625 -28.296875 15.59375 -28.46875 15.75 -28.59375 C 15.914062 -28.726562 16.078125 -28.796875 16.234375 -28.796875 C 16.609375 -29.066406 16.957031 -29.203125 17.28125 -29.203125 C 17.96875 -29.203125 18.660156 -28.773438 19.359375 -27.921875 C 20.160156 -26.910156 20.5625 -25.84375 20.5625 -24.71875 C 20.5625 -23.332031 19.679688 -21.144531 17.921875 -18.15625 C 17.765625 -17.78125 17.535156 -17.242188 17.234375 -16.546875 C 16.941406 -15.859375 16.796875 -15.382812 16.796875 -15.125 L 21.28125 -18.15625 C 21.707031 -18.632812 22.851562 -19.488281 24.71875 -20.71875 C 26.582031 -21.945312 27.890625 -22.640625 28.640625 -22.796875 C 29.921875 -23.390625 30.722656 -23.6875 31.046875 -23.6875 C 31.679688 -23.6875 32.546875 -23.203125 33.640625 -22.234375 C 34.734375 -21.273438 35.382812 -20.476562 35.59375 -19.84375 C 35.59375 -19.25 35.648438 -18.820312 35.765625 -18.5625 C 36.023438 -17.488281 36.15625 -16.234375 36.15625 -14.796875 C 36.15625 -13.835938 36.085938 -12.972656 35.953125 -12.203125 C 35.828125 -11.429688 35.65625 -10.988281 35.4375 -10.875 C 35.4375 -10.820312 35.460938 -10.742188 35.515625 -10.640625 C 35.566406 -10.535156 35.675781 -10.484375 35.84375 -10.484375 L 35.84375 -10.078125 C 35.414062 -10.078125 35.359375 -9.625 35.671875 -8.71875 C 35.992188 -7.8125 36.421875 -7.117188 36.953125 -6.640625 C 37.492188 -6.109375 37.765625 -5.578125 37.765625 -5.046875 C 37.765625 -4.398438 37.28125 -3.945312 36.3125 -3.6875 Z M 36.3125 -3.6875 "/></g></g></g><g fill="#000000" fill-opacity="1"><g transform="translate(658.187118, 375.000059)"><g><path d="M 30.875 -24.15625 C 31.195312 -23.519531 31.359375 -22.90625 31.359375 -22.3125 C 31.359375 -21.519531 31.039062 -20.722656 30.40625 -19.921875 C 30.238281 -19.648438 29.941406 -19.234375 29.515625 -18.671875 C 29.085938 -18.117188 28.710938 -17.546875 28.390625 -16.953125 C 28.078125 -16.367188 27.84375 -15.703125 27.6875 -14.953125 C 27.46875 -13.734375 26.828125 -11.125 25.765625 -7.125 L 24.875 -4 L 23.59375 0.953125 C 21.195312 9.222656 18.800781 14 16.40625 15.28125 C 15.707031 15.550781 15.039062 15.6875 14.40625 15.6875 C 13.226562 15.6875 12.007812 15.296875 10.75 14.515625 C 9.5 13.742188 8.421875 12.691406 7.515625 11.359375 C 6.984375 10.609375 6.460938 9.421875 5.953125 7.796875 C 5.453125 6.171875 5.363281 5.253906 5.6875 5.046875 C 5.789062 4.929688 5.972656 4.875 6.234375 4.875 C 6.609375 4.875 7.007812 4.992188 7.4375 5.234375 C 7.863281 5.472656 8.128906 5.753906 8.234375 6.078125 C 8.453125 6.660156 8.90625 7.429688 9.59375 8.390625 C 10.289062 9.359375 10.800781 9.867188 11.125 9.921875 C 11.976562 10.347656 12.695312 10.5625 13.28125 10.5625 C 13.757812 10.5625 14.210938 10.398438 14.640625 10.078125 C 15.492188 9.390625 16.226562 8.5 16.84375 7.40625 C 17.457031 6.3125 18.132812 4.5625 18.875 2.15625 L 19.515625 -0.15625 C 20.796875 -4.851562 21.726562 -7.894531 22.3125 -9.28125 C 22.582031 -10.132812 22.851562 -10.800781 23.125 -11.28125 L 21.6875 -10 C 21.039062 -9.414062 20.367188 -8.851562 19.671875 -8.3125 C 18.984375 -7.78125 18.265625 -7.359375 17.515625 -7.046875 C 17.140625 -6.554688 16.207031 -6.3125 14.71875 -6.3125 C 13.65625 -6.3125 12.585938 -6.472656 11.515625 -6.796875 C 10.398438 -7.390625 9.707031 -7.84375 9.4375 -8.15625 C 9.175781 -8.476562 8.800781 -9.226562 8.3125 -10.40625 C 8.101562 -10.832031 8 -11.5 8 -12.40625 C 8 -14.695312 8.53125 -17.148438 9.59375 -19.765625 C 10.613281 -21.835938 12.21875 -24.046875 14.40625 -26.390625 C 16.59375 -28.742188 18.484375 -30.160156 20.078125 -30.640625 C 20.722656 -30.960938 21.3125 -31.125 21.84375 -31.125 C 22.425781 -31.125 23.039062 -31.015625 23.6875 -30.796875 C 24.53125 -30.691406 25.191406 -30.503906 25.671875 -30.234375 C 26.160156 -29.972656 26.960938 -29.363281 28.078125 -28.40625 C 29.359375 -27.125 30.289062 -25.707031 30.875 -24.15625 Z M 22.078125 -16.234375 C 22.984375 -17.460938 23.625 -18.78125 24 -20.1875 C 24.375 -21.601562 24.507812 -23.007812 24.40625 -24.40625 C 24.34375 -25.144531 24.234375 -25.660156 24.078125 -25.953125 C 23.921875 -26.253906 23.628906 -26.40625 23.203125 -26.40625 C 22.191406 -26.40625 21.019531 -25.921875 19.6875 -24.953125 C 18.351562 -23.992188 17.070312 -22.742188 15.84375 -21.203125 C 15.039062 -20.128906 14.375 -18.847656 13.84375 -17.359375 C 13.195312 -15.546875 12.875 -13.863281 12.875 -12.3125 C 12.875 -11.144531 13.085938 -10.476562 13.515625 -10.3125 C 15.171875 -10.375 16.675781 -10.859375 18.03125 -11.765625 C 19.394531 -12.671875 20.742188 -14.160156 22.078125 -16.234375 Z M 22.078125 -16.234375 "/></g></g></g><g fill="#000000" fill-opacity="1"><g transform="translate(380.863462, 486.750053)"><g><path d="M 12.875 0.3125 C 11.914062 -0.0507812 10.984375 -0.59375 10.078125 -1.3125 C 9.171875 -2.039062 8.554688 -2.671875 8.234375 -3.203125 C 8.234375 -3.304688 8.234375 -3.488281 8.234375 -3.75 C 8.234375 -4.019531 8.3125 -4.195312 8.46875 -4.28125 C 8.632812 -4.363281 8.929688 -4.40625 9.359375 -4.40625 C 10.265625 -4.40625 11.707031 -4.296875 13.6875 -4.078125 C 14.851562 -4.078125 16.179688 -4.222656 17.671875 -4.515625 C 19.171875 -4.804688 20 -5.140625 20.15625 -5.515625 C 20.320312 -5.515625 20.40625 -5.539062 20.40625 -5.59375 C 20.40625 -5.707031 20.191406 -5.976562 19.765625 -6.40625 C 19.648438 -6.40625 19.40625 -6.492188 19.03125 -6.671875 C 18.664062 -6.859375 18.425781 -6.953125 18.3125 -6.953125 C 18.3125 -7.171875 18.070312 -7.453125 17.59375 -7.796875 C 17.113281 -8.140625 16.582031 -8.445312 16 -8.71875 C 14.457031 -10 13.363281 -10.945312 12.71875 -11.5625 C 12.082031 -12.175781 11.84375 -12.613281 12 -12.875 L 12 -13.28125 C 11.625 -13.28125 11.207031 -13.800781 10.75 -14.84375 C 10.300781 -15.882812 10.078125 -16.859375 10.078125 -17.765625 C 10.078125 -18.722656 10.488281 -20.050781 11.3125 -21.75 C 12.144531 -23.457031 13.09375 -24.847656 14.15625 -25.921875 C 15.65625 -27.304688 17.585938 -28.769531 19.953125 -30.3125 C 22.328125 -31.863281 24.207031 -32.851562 25.59375 -33.28125 C 26.5 -33.65625 27.40625 -33.84375 28.3125 -33.84375 C 29.164062 -33.84375 29.890625 -33.65625 30.484375 -33.28125 C 31.171875 -32.851562 31.847656 -32.238281 32.515625 -31.4375 C 33.179688 -30.632812 33.625 -29.914062 33.84375 -29.28125 C 33.84375 -28.101562 33.722656 -26.96875 33.484375 -25.875 C 33.242188 -24.78125 32.882812 -24.234375 32.40625 -24.234375 C 32.34375 -24.234375 32.257812 -24.207031 32.15625 -24.15625 C 32.050781 -24.101562 32 -23.972656 32 -23.765625 C 32 -23.546875 31.890625 -23.265625 31.671875 -22.921875 C 31.460938 -22.578125 31.171875 -22.242188 30.796875 -21.921875 C 29.628906 -21.066406 28.671875 -20.640625 27.921875 -20.640625 C 27.335938 -20.640625 26.960938 -20.929688 26.796875 -21.515625 C 26.691406 -21.628906 26.582031 -21.789062 26.46875 -22 C 26.363281 -22.207031 26.234375 -22.3125 26.078125 -22.3125 C 26.023438 -22.3125 25.929688 -22.40625 25.796875 -22.59375 C 25.660156 -22.78125 25.59375 -23.035156 25.59375 -23.359375 C 25.59375 -23.515625 25.660156 -23.6875 25.796875 -23.875 C 25.929688 -24.0625 26.023438 -24.179688 26.078125 -24.234375 C 26.398438 -24.234375 26.929688 -24.859375 27.671875 -26.109375 C 28.421875 -27.367188 28.796875 -28.210938 28.796875 -28.640625 C 28.796875 -28.960938 28.753906 -29.148438 28.671875 -29.203125 C 28.597656 -29.253906 28.347656 -29.28125 27.921875 -29.28125 C 23.765625 -27.414062 21.175781 -26.003906 20.15625 -25.046875 C 20 -24.722656 19.878906 -24.503906 19.796875 -24.390625 C 19.722656 -24.285156 19.578125 -24.234375 19.359375 -24.234375 C 19.359375 -24.710938 17.945312 -22.898438 15.125 -18.796875 C 15.007812 -18.691406 14.882812 -18.375 14.75 -17.84375 C 14.625 -17.3125 14.5625 -16.859375 14.5625 -16.484375 C 14.457031 -16.054688 14.40625 -15.816406 14.40625 -15.765625 C 14.40625 -15.546875 14.492188 -15.328125 14.671875 -15.109375 C 14.859375 -14.898438 15.113281 -14.675781 15.4375 -14.4375 C 15.757812 -14.195312 16.082031 -13.945312 16.40625 -13.6875 C 19.175781 -11.601562 21.109375 -10.039062 22.203125 -9 C 23.296875 -7.957031 23.945312 -7.09375 24.15625 -6.40625 C 24.851562 -5.332031 25.203125 -4.367188 25.203125 -3.515625 C 25.203125 -2.878906 24.960938 -2.320312 24.484375 -1.84375 C 24.003906 -1.363281 23.28125 -0.910156 22.3125 -0.484375 C 21.726562 -0.210938 20.742188 0.015625 19.359375 0.203125 C 17.972656 0.390625 16.613281 0.484375 15.28125 0.484375 C 14.53125 0.484375 13.726562 0.425781 12.875 0.3125 Z M 12.875 0.3125 "/></g></g></g><g fill="#000000" fill-opacity="1"><g transform="translate(408.140808, 486.750053)"><g><path d="M 14.3125 -0.5625 C 13.46875 -0.71875 12.601562 -1.289062 11.71875 -2.28125 C 10.84375 -3.269531 10.269531 -4.191406 10 -5.046875 C 10 -5.148438 9.945312 -5.265625 9.84375 -5.390625 C 9.738281 -5.523438 9.65625 -5.625 9.59375 -5.6875 C 9.382812 -5.84375 9.28125 -6.71875 9.28125 -8.3125 C 9.28125 -9.59375 9.347656 -10.925781 9.484375 -12.3125 C 9.617188 -13.707031 9.789062 -14.832031 10 -15.6875 L 11.4375 -19.921875 L 12.5625 -23.125 L 14.71875 -27.765625 L 11.515625 -28.640625 C 11.140625 -28.691406 10.832031 -28.878906 10.59375 -29.203125 C 10.351562 -29.523438 10.234375 -29.816406 10.234375 -30.078125 C 10.234375 -30.503906 10.457031 -31.023438 10.90625 -31.640625 C 11.363281 -32.253906 11.726562 -32.5625 12 -32.5625 C 12.15625 -32.507812 12.582031 -32.484375 13.28125 -32.484375 C 14.882812 -32.484375 16.082031 -32.5625 16.875 -32.71875 C 17.414062 -32.9375 17.789062 -33.363281 18 -34 C 18.207031 -34.425781 18.457031 -34.957031 18.75 -35.59375 C 19.050781 -36.238281 19.332031 -36.828125 19.59375 -37.359375 C 19.757812 -37.679688 20.015625 -38.175781 20.359375 -38.84375 C 20.703125 -39.507812 21.144531 -40.269531 21.6875 -41.125 C 21.789062 -41.28125 22.023438 -41.664062 22.390625 -42.28125 C 22.765625 -42.894531 23.222656 -43.414062 23.765625 -43.84375 C 24.128906 -44.21875 24.582031 -44.40625 25.125 -44.40625 C 25.65625 -44.40625 26.347656 -44.054688 27.203125 -43.359375 C 27.304688 -43.203125 27.453125 -42.988281 27.640625 -42.71875 C 27.828125 -42.445312 27.921875 -42.207031 27.921875 -42 C 27.921875 -41.789062 27.707031 -41.335938 27.28125 -40.640625 C 26.957031 -40.003906 26.648438 -39.429688 26.359375 -38.921875 C 26.066406 -38.410156 25.8125 -37.96875 25.59375 -37.59375 C 24.957031 -36.53125 24.503906 -35.734375 24.234375 -35.203125 C 23.703125 -34.503906 23.4375 -33.96875 23.4375 -33.59375 C 23.4375 -33.226562 23.785156 -33.046875 24.484375 -33.046875 C 25.222656 -33.046875 26.472656 -33.203125 28.234375 -33.515625 C 28.984375 -33.628906 29.492188 -33.6875 29.765625 -33.6875 C 31.628906 -33.6875 32.640625 -32.910156 32.796875 -31.359375 C 32.847656 -31.035156 32.875 -30.660156 32.875 -30.234375 C 32.875 -29.492188 32.617188 -29.039062 32.109375 -28.875 C 31.609375 -28.71875 30.476562 -28.640625 28.71875 -28.640625 C 27.007812 -28.367188 25.25 -28.234375 23.4375 -28.234375 C 23.113281 -28.234375 22.753906 -28.21875 22.359375 -28.1875 C 21.960938 -28.164062 21.550781 -28.101562 21.125 -28 C 20.695312 -27.894531 20.390625 -27.734375 20.203125 -27.515625 C 20.015625 -27.304688 19.8125 -26.960938 19.59375 -26.484375 C 19.4375 -26.316406 19.066406 -25.703125 18.484375 -24.640625 C 17.734375 -23.085938 17.253906 -22.15625 17.046875 -21.84375 C 15.597656 -17.570312 14.53125 -13.195312 13.84375 -8.71875 C 13.738281 -7.863281 13.6875 -7.332031 13.6875 -7.125 C 13.6875 -6.320312 13.953125 -5.757812 14.484375 -5.4375 C 15.015625 -5.113281 15.921875 -4.953125 17.203125 -4.953125 C 19.015625 -4.953125 20.585938 -5.140625 21.921875 -5.515625 C 23.515625 -6.210938 24.710938 -6.800781 25.515625 -7.28125 C 25.992188 -7.550781 26.429688 -7.804688 26.828125 -8.046875 C 27.234375 -8.285156 27.519531 -8.457031 27.6875 -8.5625 C 27.84375 -8.882812 28.023438 -9.046875 28.234375 -9.046875 C 28.660156 -9.046875 29.035156 -8.617188 29.359375 -7.765625 C 29.359375 -6.910156 29.171875 -6.160156 28.796875 -5.515625 C 28.421875 -4.878906 27.488281 -4.132812 26 -3.28125 C 22.90625 -1.300781 19.8125 -0.3125 16.71875 -0.3125 C 15.863281 -0.3125 15.0625 -0.394531 14.3125 -0.5625 Z M 14.3125 -0.5625 "/></g></g></g><g fill="#000000" fill-opacity="1"><g transform="translate(434.618235, 486.750053)"><g><path d="M 31.359375 -29.515625 C 32.210938 -28.660156 32.640625 -27.78125 32.640625 -26.875 C 32.640625 -25.914062 32 -24.238281 30.71875 -21.84375 C 30.289062 -20.613281 29.820312 -19.460938 29.3125 -18.390625 C 28.8125 -17.328125 28.425781 -16.632812 28.15625 -16.3125 L 26.3125 -12.078125 C 25.519531 -10.316406 24.535156 -8.265625 23.359375 -5.921875 C 21.921875 -2.929688 20.90625 -0.71875 20.3125 0.71875 L 19.28125 2.40625 C 16.613281 6.664062 14.5625 9.648438 13.125 11.359375 C 10.1875 13.972656 7.914062 15.492188 6.3125 15.921875 C 5.625 16.128906 4.800781 16.234375 3.84375 16.234375 C 2.082031 16.234375 0.414062 15.847656 -1.15625 15.078125 C -2.726562 14.304688 -3.625 13.414062 -3.84375 12.40625 C -3.894531 12.03125 -3.757812 11.628906 -3.4375 11.203125 C -3.113281 10.773438 -2.769531 10.5625 -2.40625 10.5625 C -2.132812 10.5625 -1.921875 10.664062 -1.765625 10.875 C -1.335938 11.195312 -0.710938 11.503906 0.109375 11.796875 C 0.941406 12.085938 1.835938 12.234375 2.796875 12.234375 C 3.171875 12.234375 3.675781 12.179688 4.3125 12.078125 C 5.382812 11.867188 6.503906 11.226562 7.671875 10.15625 C 8.847656 9.09375 9.914062 7.921875 10.875 6.640625 C 12.6875 3.972656 14.632812 0.640625 16.71875 -3.359375 C 15.96875 -3.578125 15.242188 -4.097656 14.546875 -4.921875 C 13.859375 -5.742188 13.3125 -6.609375 12.90625 -7.515625 C 12.507812 -8.421875 12.367188 -9.085938 12.484375 -9.515625 L 12.484375 -10.40625 C 12.003906 -10.40625 11.613281 -11.3125 11.3125 -13.125 C 11.019531 -14.9375 10.875 -17.039062 10.875 -19.4375 C 10.875 -20.34375 10.929688 -21.488281 11.046875 -22.875 C 11.253906 -23.726562 11.367188 -24.78125 11.390625 -26.03125 C 11.421875 -27.289062 11.4375 -28.109375 11.4375 -28.484375 L 11.4375 -28.796875 C 11.4375 -29.441406 11.503906 -29.894531 11.640625 -30.15625 C 11.773438 -30.425781 12 -30.664062 12.3125 -30.875 C 12.738281 -31.09375 13.164062 -31.203125 13.59375 -31.203125 C 15.09375 -31.203125 15.84375 -29.226562 15.84375 -25.28125 C 15.84375 -24.695312 15.789062 -23.550781 15.6875 -21.84375 C 15.625 -21.09375 15.59375 -19.972656 15.59375 -18.484375 C 15.59375 -15.703125 15.832031 -13.242188 16.3125 -11.109375 C 16.800781 -8.984375 17.523438 -7.519531 18.484375 -6.71875 L 18.953125 -7.84375 C 19.546875 -9.382812 20 -10.367188 20.3125 -10.796875 C 21.0625 -12.347656 21.488281 -13.335938 21.59375 -13.765625 C 21.707031 -14.128906 22.003906 -14.738281 22.484375 -15.59375 L 23.515625 -17.765625 C 23.628906 -18.078125 23.976562 -19.097656 24.5625 -20.828125 C 25.144531 -22.566406 25.726562 -23.972656 26.3125 -25.046875 C 26.53125 -25.472656 26.851562 -26.097656 27.28125 -26.921875 C 27.707031 -27.742188 28.050781 -28.34375 28.3125 -28.71875 C 28.582031 -29.09375 28.878906 -29.332031 29.203125 -29.4375 C 29.628906 -29.8125 29.972656 -30 30.234375 -30 C 30.453125 -30 30.828125 -29.835938 31.359375 -29.515625 Z M 31.359375 -29.515625 "/></g></g></g><g fill="#000000" fill-opacity="1"><g transform="translate(461.895582, 486.750053)"><g><path d="M 10.40625 0 C 10.238281 0.0507812 9.96875 0.078125 9.59375 0.078125 C 8.738281 0.078125 8.070312 -0.347656 7.59375 -1.203125 C 7.113281 -2.054688 6.875 -3.226562 6.875 -4.71875 C 6.875 -5.945312 7.035156 -7.359375 7.359375 -8.953125 C 7.941406 -10.503906 8.234375 -11.625 8.234375 -12.3125 C 8.398438 -13.332031 8.945312 -15.160156 9.875 -17.796875 C 10.8125 -20.441406 11.414062 -22.03125 11.6875 -22.5625 C 11.894531 -22.5625 12.078125 -22.734375 12.234375 -23.078125 C 12.398438 -23.421875 12.484375 -23.804688 12.484375 -24.234375 C 12.484375 -24.710938 12.578125 -25.207031 12.765625 -25.71875 C 12.953125 -26.226562 13.148438 -26.585938 13.359375 -26.796875 C 13.359375 -26.960938 13.425781 -27.253906 13.5625 -27.671875 C 13.695312 -28.097656 13.765625 -28.394531 13.765625 -28.5625 C 13.765625 -28.664062 13.828125 -28.863281 13.953125 -29.15625 C 14.085938 -29.445312 14.15625 -29.675781 14.15625 -29.84375 C 15.007812 -31.488281 16.503906 -35.207031 18.640625 -41 C 20.773438 -46.789062 21.84375 -50.003906 21.84375 -50.640625 C 21.84375 -51.492188 22.269531 -51.921875 23.125 -51.921875 C 23.382812 -52.179688 23.8125 -52.3125 24.40625 -52.3125 L 25.6875 -51.046875 C 26.050781 -50.671875 26.285156 -50.28125 26.390625 -49.875 C 26.503906 -49.476562 26.5625 -48.878906 26.5625 -48.078125 C 26.5625 -47.273438 26.453125 -46.582031 26.234375 -46 C 26.023438 -45.414062 25.492188 -44.21875 24.640625 -42.40625 C 24.484375 -42.03125 24.269531 -41.585938 24 -41.078125 C 23.726562 -40.566406 23.4375 -39.941406 23.125 -39.203125 C 23.007812 -38.929688 22.582031 -37.96875 21.84375 -36.3125 C 21.3125 -35.25 21.046875 -34.640625 21.046875 -34.484375 C 21.046875 -34.316406 20.9375 -33.976562 20.71875 -33.46875 C 20.507812 -32.96875 20.320312 -32.453125 20.15625 -31.921875 C 19.726562 -31.066406 19.046875 -29.554688 18.109375 -27.390625 C 17.179688 -25.234375 16.71875 -24.050781 16.71875 -23.84375 C 16.71875 -23.25 16.582031 -22.820312 16.3125 -22.5625 C 16.15625 -22.5625 16.050781 -22.441406 16 -22.203125 C 15.945312 -21.960938 15.921875 -21.789062 15.921875 -21.6875 C 15.921875 -21.144531 15.492188 -19.726562 14.640625 -17.4375 L 13.921875 -15.125 C 12.910156 -11.65625 12.203125 -9.117188 11.796875 -7.515625 C 11.398438 -5.921875 11.203125 -4.5625 11.203125 -3.4375 C 11.203125 -2.101562 11.160156 -1.25 11.078125 -0.875 C 10.992188 -0.5 10.769531 -0.207031 10.40625 0 Z M 10.40625 0 "/></g></g></g><g fill="#000000" fill-opacity="1"><g transform="translate(475.41427, 486.750053)"><g><path d="M 22.078125 -2.796875 C 20.742188 -1.628906 19.144531 -1.046875 17.28125 -1.046875 C 15.945312 -1.046875 14.679688 -1.363281 13.484375 -2 C 12.285156 -2.632812 11.285156 -3.515625 10.484375 -4.640625 C 9.785156 -5.492188 9.273438 -6.453125 8.953125 -7.515625 C 8.640625 -8.585938 8.484375 -9.894531 8.484375 -11.4375 C 8.484375 -11.96875 8.535156 -13.035156 8.640625 -14.640625 C 8.796875 -16.609375 9.445312 -18.660156 10.59375 -20.796875 C 11.738281 -22.929688 13.164062 -24.835938 14.875 -26.515625 C 16.582031 -28.203125 18.265625 -29.363281 19.921875 -30 C 20.773438 -30.53125 21.546875 -30.796875 22.234375 -30.796875 C 22.609375 -30.796875 22.984375 -30.769531 23.359375 -30.71875 C 23.734375 -30.664062 24.132812 -30.613281 24.5625 -30.5625 C 25.726562 -30.394531 26.617188 -30.164062 27.234375 -29.875 C 27.847656 -29.582031 28.367188 -29.144531 28.796875 -28.5625 C 30.128906 -27.226562 30.796875 -25.679688 30.796875 -23.921875 C 30.585938 -22.640625 29.757812 -21.171875 28.3125 -19.515625 C 26.875 -17.867188 25.144531 -16.535156 23.125 -15.515625 C 22.164062 -15.203125 21.070312 -15.046875 19.84375 -15.046875 C 18.1875 -15.046875 16.851562 -15.390625 15.84375 -16.078125 C 15.363281 -16.234375 14.988281 -16.3125 14.71875 -16.3125 C 14.238281 -16.3125 13.878906 -15.992188 13.640625 -15.359375 C 13.398438 -14.722656 13.171875 -13.550781 12.953125 -11.84375 C 12.898438 -11.46875 12.875 -10.929688 12.875 -10.234375 C 12.875 -7.515625 13.78125 -6.023438 15.59375 -5.765625 C 16.820312 -5.492188 17.703125 -5.359375 18.234375 -5.359375 C 18.878906 -5.359375 19.601562 -5.570312 20.40625 -6 L 21.921875 -6.875 C 22.242188 -7.039062 22.535156 -7.253906 22.796875 -7.515625 C 23.066406 -7.785156 23.304688 -8.023438 23.515625 -8.234375 C 23.628906 -8.347656 23.789062 -8.523438 24 -8.765625 C 24.207031 -9.003906 24.40625 -9.160156 24.59375 -9.234375 C 24.78125 -9.316406 24.957031 -9.359375 25.125 -9.359375 C 25.332031 -9.359375 25.566406 -9.238281 25.828125 -9 C 26.097656 -8.757812 26.316406 -8.585938 26.484375 -8.484375 C 26.960938 -8.484375 27.066406 -8.148438 26.796875 -7.484375 C 26.535156 -6.816406 25.960938 -6.039062 25.078125 -5.15625 C 24.203125 -4.28125 23.203125 -3.492188 22.078125 -2.796875 Z M 22 -19.765625 C 22.90625 -20.128906 23.820312 -20.789062 24.75 -21.75 C 25.6875 -22.71875 26.15625 -23.519531 26.15625 -24.15625 C 26.15625 -24.800781 25.914062 -25.335938 25.4375 -25.765625 C 24.957031 -26.191406 24.289062 -26.40625 23.4375 -26.40625 C 22.800781 -26.40625 22.320312 -26.347656 22 -26.234375 C 21.25 -26.023438 20.367188 -25.453125 19.359375 -24.515625 C 18.347656 -23.585938 17.46875 -22.640625 16.71875 -21.671875 C 15.96875 -20.710938 15.675781 -20.15625 15.84375 -20 C 16.101562 -19.519531 17.140625 -19.28125 18.953125 -19.28125 C 20.179688 -19.28125 21.195312 -19.441406 22 -19.765625 Z M 22 -19.765625 "/></g></g></g><g clip-path="url(#9b3576e82b)"><path fill="#000000" d="M 78.578125 150.410156 C 82.046875 145.070312 85.566406 139.765625 89.191406 134.53125 C 89.613281 133.925781 90.03125 133.316406 90.496094 132.742188 C 90.949219 132.179688 91.488281 131.488281 92.1875 131.226562 C 92.132812 131.25 92.070312 131.269531 92.015625 131.289062 C 92.035156 131.285156 92.0625 131.273438 92.082031 131.269531 C 88.921875 132.09375 85.761719 132.929688 82.605469 133.765625 C 82.625 133.761719 82.648438 133.757812 82.667969 133.75 C 82.609375 133.761719 82.554688 133.773438 82.492188 133.785156 C 84.371094 133.535156 83.179688 140.535156 83.019531 141.949219 C 82.675781 145.046875 82.328125 148.152344 81.988281 151.25 C 81.480469 155.832031 80.980469 160.40625 80.476562 164.988281 C 79.832031 170.832031 79.1875 176.667969 78.546875 182.511719 C 77.785156 189.445312 77.015625 196.378906 76.25 203.308594 C 76.148438 204.242188 76.042969 205.175781 75.941406 206.109375 C 75.941406 206.097656 77.609375 205.710938 77.386719 205.765625 C 78.550781 205.46875 79.707031 205.171875 80.867188 204.863281 C 82.023438 204.558594 83.183594 204.253906 84.335938 203.933594 C 84.503906 203.886719 85.753906 203.628906 85.769531 203.519531 C 86.773438 194.421875 87.773438 185.324219 88.78125 176.226562 C 89.566406 169.09375 90.347656 161.964844 91.136719 154.828125 C 91.660156 150.09375 92.183594 145.355469 92.707031 140.621094 C 92.863281 139.21875 93.027344 137.816406 93.179688 136.410156 C 93.324219 135.0625 93.5 133.621094 93.246094 132.28125 C 93.167969 131.882812 93.019531 131.273438 92.542969 131.1875 C 92.390625 131.164062 92.234375 131.207031 92.082031 131.238281 C 90.488281 131.570312 88.90625 132.039062 87.332031 132.453125 C 85.738281 132.875 84.105469 133.246094 82.539062 133.761719 C 82.355469 133.820312 82.183594 133.890625 82.019531 133.996094 C 81.359375 134.417969 80.851562 135.09375 80.382812 135.710938 C 79.957031 136.269531 79.5625 136.851562 79.164062 137.429688 C 78.445312 138.476562 77.722656 139.527344 77.007812 140.582031 C 74.863281 143.714844 72.761719 146.875 70.679688 150.042969 C 70.035156 151.027344 69.386719 152.015625 68.75 153 C 68.890625 152.976562 69.039062 152.945312 69.175781 152.90625 C 69.515625 152.828125 69.855469 152.742188 70.195312 152.65625 C 71.359375 152.359375 72.515625 152.0625 73.675781 151.753906 C 74.832031 151.449219 75.992188 151.144531 77.144531 150.824219 C 77.398438 150.753906 77.65625 150.683594 77.910156 150.613281 C 78.132812 150.554688 78.359375 150.488281 78.578125 150.410156 Z M 78.578125 150.410156 " fill-opacity="1" fill-rule="nonzero"/></g><g clip-path="url(#777b142a19)"><path fill="#000000" d="M 113.828125 191.464844 C 113.609375 190.8125 113.300781 190.25 112.910156 189.835938 C 112.710938 189.617188 112.472656 189.402344 112.210938 189.226562 C 111.992188 189.078125 111.730469 188.945312 111.488281 188.835938 C 111.3125 188.773438 111.140625 188.707031 110.988281 188.640625 C 110.878906 188.597656 110.769531 188.554688 110.660156 188.511719 L 110.527344 188.445312 C 110.332031 188.359375 110.113281 188.273438 109.894531 188.207031 C 109.566406 188.144531 109.238281 188.101562 108.933594 188.054688 C 108.648438 188.011719 108.367188 188.011719 108.039062 187.992188 C 107.972656 187.992188 107.886719 187.992188 107.820312 187.992188 C 107.339844 187.992188 106.835938 188.035156 106.246094 188.121094 C 105.746094 188.1875 105.21875 188.316406 104.71875 188.511719 C 104.457031 188.597656 104.195312 188.707031 103.976562 188.835938 C 103.734375 188.96875 103.496094 189.164062 103.277344 189.402344 C 103.058594 189.664062 102.859375 189.859375 102.707031 190.074219 C 102.644531 190.183594 102.554688 190.292969 102.488281 190.398438 C 102.445312 190.464844 102.402344 190.53125 102.359375 190.59375 C 102.25 190.769531 102.140625 190.921875 102.074219 191.09375 C 101.988281 191.269531 101.898438 191.484375 101.835938 191.722656 C 101.792969 191.898438 101.746094 192.070312 101.726562 192.246094 C 101.703125 192.289062 101.703125 192.351562 101.683594 192.398438 C 101.617188 192.679688 101.574219 192.960938 101.527344 193.351562 C 101.464844 193.894531 101.441406 194.457031 101.484375 195.085938 C 101.507812 195.371094 101.527344 195.714844 101.617188 196.042969 C 101.703125 196.347656 101.8125 196.648438 101.964844 196.933594 C 102.097656 197.171875 102.273438 197.429688 102.511719 197.714844 C 102.644531 197.886719 102.816406 198.039062 102.96875 198.191406 L 103.101562 198.320312 C 103.515625 198.734375 104.019531 199.078125 104.628906 199.382812 C 104.914062 199.515625 105.21875 199.621094 105.589844 199.730469 C 105.941406 199.816406 106.3125 199.882812 106.597656 199.925781 C 106.859375 199.96875 107.140625 199.96875 107.515625 199.992188 C 107.601562 199.992188 107.667969 199.992188 107.753906 199.992188 C 107.820312 199.992188 107.886719 199.992188 107.949219 199.992188 C 108.167969 199.992188 108.367188 199.949219 108.519531 199.925781 C 108.800781 199.882812 109.085938 199.816406 109.390625 199.710938 C 109.699219 199.621094 110.003906 199.46875 110.289062 199.339844 C 110.417969 199.273438 110.570312 199.210938 110.726562 199.125 C 110.832031 199.058594 110.941406 198.992188 111.03125 198.929688 L 111.097656 198.882812 C 111.335938 198.710938 111.578125 198.515625 111.882812 198.234375 C 112.144531 197.996094 112.339844 197.777344 112.515625 197.582031 C 112.757812 197.324219 112.929688 196.996094 113.105469 196.714844 C 113.28125 196.410156 113.410156 196.085938 113.542969 195.78125 C 113.652344 195.519531 113.761719 195.238281 113.828125 194.980469 C 113.914062 194.675781 113.957031 194.347656 114 194.046875 C 114.023438 193.785156 114.042969 193.503906 114.066406 193.175781 C 114.066406 192.832031 114.023438 192.484375 113.980469 192.203125 C 113.980469 191.984375 113.914062 191.746094 113.828125 191.464844 Z M 113.828125 191.464844 " fill-opacity="1" fill-rule="nonzero"/></g></svg>