<svg xmlns="http://www.w3.org/2000/svg" xmlns:xlink="http://www.w3.org/1999/xlink" width="1080" zoomAndPan="magnify" viewBox="0 0 810 809.999993" height="1080" preserveAspectRatio="xMidYMid meet" version="1.0"><defs><filter x="0%" y="0%" width="100%" height="100%" id="97ca244aad"><feColorMatrix values="0 0 0 0 1 0 0 0 0 1 0 0 0 0 1 0 0 0 1 0" color-interpolation-filters="sRGB"/></filter><g/><mask id="38ba679da2"><g filter="url(#97ca244aad)"><rect x="-81" width="972" fill="#000000" y="-80.999999" height="971.999992" fill-opacity="0.898"/></g></mask><clipPath id="38e1b8eb14"><path d="M 29 1 L 600 1 L 600 629.695312 L 29 629.695312 Z M 29 1 " clip-rule="nonzero"/></clipPath><clipPath id="071cb174db"><rect x="0" width="683" y="0" height="630"/></clipPath><clipPath id="9ab46943ca"><path d="M 47.039062 43.410156 L 101.789062 43.410156 L 101.789062 118.410156 L 47.039062 118.410156 Z M 47.039062 43.410156 " clip-rule="nonzero"/></clipPath><clipPath id="18bfba1e5b"><path d="M 109.539062 98.933594 L 122.289062 98.933594 L 122.289062 110.933594 L 109.539062 110.933594 Z M 109.539062 98.933594 " clip-rule="nonzero"/></clipPath></defs><g mask="url(#38ba679da2)"><g transform="matrix(1, 0, 0, 1, 91, 90)"><g clip-path="url(#071cb174db)"><path fill="#efcdb9" d="M 223.507812 35.882812 C 271.800781 29.710938 321.582031 43.246094 367.621094 59.664062 C 452.785156 90.019531 537.957031 136.152344 581.839844 218.527344 C 596.074219 245.25 602.765625 273.75 610.613281 302.746094 C 631.460938 379.820312 682.480469 463.050781 610.5625 528.621094 C 600.335938 537.9375 588.582031 545.8125 576.152344 551.886719 C 559.222656 560.148438 541.601562 566.035156 523.199219 569.980469 C 467.925781 581.8125 415.363281 575.9375 364.722656 550.828125 C 320.84375 529.0625 283.894531 496.222656 236.386719 481.214844 C 172.910156 461.179688 105.910156 464.050781 60.386719 407.042969 C 11.164062 345.40625 1.632812 265.34375 20.28125 190.6875 C 28.773438 156.6875 40.296875 121.660156 67.578125 97.980469 C 108.371094 62.550781 173.503906 42.273438 223.507812 35.882812 Z M 223.507812 35.882812 " fill-opacity="1" fill-rule="evenodd"/><g clip-path="url(#38e1b8eb14)"><path fill="#000000" d="M 330.800781 18.507812 C 349.542969 23.394531 367.320312 31.3125 384.242188 41.113281 C 409.460938 55.722656 432.769531 74.5 454.476562 93.722656 C 488.066406 123.460938 520.207031 156.816406 545.214844 194.234375 C 570.230469 231.675781 588.105469 273.179688 593.070312 319.222656 C 594.351562 331.101562 594.421875 342.789062 593.824219 354.425781 C 592.921875 372.074219 590.488281 389.609375 588.375 407.472656 C 582.78125 454.71875 586.433594 508.054688 570.722656 550.488281 C 560.414062 578.324219 541.617188 601.378906 505.96875 614.667969 C 499.617188 617.039062 493.046875 618.941406 486.378906 620.371094 C 479.703125 621.800781 472.925781 622.757812 466.160156 623.242188 C 456.886719 623.914062 447.675781 623.972656 438.492188 623.472656 C 429.300781 622.957031 420.136719 621.898438 410.976562 620.3125 C 383.464844 615.539062 358.199219 606.980469 335.171875 594.390625 C 312.125 581.796875 291.316406 565.179688 272.71875 544.3125 C 249.878906 518.6875 232.230469 489.292969 210.460938 463.109375 C 201.066406 451.804688 190.910156 441.101562 179.269531 431.539062 C 148.300781 406.074219 113.03125 387.863281 85.320312 362.097656 C 67.421875 345.449219 52.714844 325.613281 44.546875 298.417969 C 33.347656 261.144531 32.933594 223.300781 40.871094 187.101562 C 48.835938 150.757812 65.214844 116.074219 87.558594 85.21875 C 99.75 68.382812 113.0625 51.605469 129.058594 38.371094 C 139.59375 29.652344 151.296875 22.464844 164.628906 17.863281 C 189.582031 9.230469 218.636719 6.230469 247.457031 6.886719 C 277.019531 7.574219 306.34375 12.117188 330.800781 18.507812 Z M 332.242188 12.976562 C 307.402344 6.488281 277.617188 1.855469 247.585938 1.171875 C 218.070312 0.5 188.320312 3.628906 162.761719 12.460938 C 148.769531 17.292969 136.472656 24.808594 125.414062 33.957031 C 109.050781 47.503906 95.40625 64.636719 82.933594 81.859375 C 60.121094 113.359375 43.421875 148.785156 35.289062 185.871094 C 27.148438 223.015625 27.589844 261.832031 39.074219 300.058594 C 47.5625 328.328125 62.820312 348.980469 81.433594 366.285156 C 109.222656 392.125 144.582031 410.402344 175.644531 435.957031 C 187 445.289062 196.902344 455.734375 206.070312 466.765625 C 227.882812 492.992188 245.570312 522.445312 268.453125 548.113281 C 287.503906 569.492188 308.824219 586.515625 332.429688 599.40625 C 356 612.296875 381.847656 621.070312 410 625.945312 C 419.382812 627.558594 428.765625 628.660156 438.179688 629.175781 C 447.601562 629.6875 457.054688 629.632812 466.570312 628.945312 C 473.597656 628.445312 480.640625 627.445312 487.574219 625.957031 C 494.515625 624.472656 501.351562 622.5 507.964844 620.027344 C 545.476562 606.039062 565.230469 581.769531 576.078125 552.472656 C 591.9375 509.640625 588.402344 455.835938 594.046875 408.144531 C 596.175781 390.152344 598.621094 372.488281 599.53125 354.710938 C 600.144531 342.777344 600.0625 330.785156 598.75 318.625 C 594.699219 281.039062 582.25 246.410156 564.371094 214.511719 C 537.75 167.019531 499.078125 125.578125 458.265625 89.433594 C 436.277344 69.96875 412.652344 50.960938 387.101562 36.171875 C 369.734375 26.109375 351.480469 17.992188 332.242188 12.976562 Z M 332.242188 12.976562 " fill-opacity="1" fill-rule="evenodd"/></g></g></g></g><g fill="#000000" fill-opacity="1"><g transform="translate(148.105425, 372.462656)"><g><path d="M 18 7.59375 C 16.613281 7.8125 15.707031 7.921875 15.28125 7.921875 C 14.21875 7.921875 12.9375 7.707031 11.4375 7.28125 C 10.75 7.0625 10.242188 6.816406 9.921875 6.546875 C 9.597656 6.285156 9.234375 5.898438 8.828125 5.390625 C 8.429688 4.890625 8.128906 4.503906 7.921875 4.234375 C 6.960938 2.898438 6.484375 1.726562 6.484375 0.71875 C 6.484375 -0.0820312 6.851562 -0.375 7.59375 -0.15625 C 8.132812 0.101562 8.722656 0.632812 9.359375 1.4375 C 9.992188 2.082031 10.6875 2.550781 11.4375 2.84375 C 12.1875 3.132812 13.09375 3.28125 14.15625 3.28125 C 14.53125 3.28125 15.25 3.226562 16.3125 3.125 C 17.59375 2.90625 19.085938 2.503906 20.796875 1.921875 C 22.503906 1.335938 23.757812 0.722656 24.5625 0.078125 C 27.125 -1.679688 29.21875 -3.09375 30.84375 -4.15625 C 32.46875 -5.226562 33.492188 -5.894531 33.921875 -6.15625 C 34.023438 -6.425781 34.582031 -6.75 35.59375 -7.125 L 37.765625 -9.203125 C 39.148438 -10.691406 40.054688 -11.597656 40.484375 -11.921875 C 40.535156 -12.296875 40.625 -12.679688 40.75 -13.078125 C 40.882812 -13.484375 40.953125 -13.789062 40.953125 -14 C 41.597656 -14.695312 42.5625 -16.363281 43.84375 -19 C 45.125 -21.632812 46.003906 -23.914062 46.484375 -25.84375 C 46.960938 -28.34375 47.203125 -30.554688 47.203125 -32.484375 C 47.203125 -35.734375 46.628906 -38.460938 45.484375 -40.671875 C 44.335938 -42.890625 42.671875 -44.929688 40.484375 -46.796875 C 39.359375 -47.703125 37.503906 -48.703125 34.921875 -49.796875 C 32.335938 -50.890625 30.832031 -51.359375 30.40625 -51.203125 C 30.132812 -51.148438 29.410156 -49.613281 28.234375 -46.59375 C 27.066406 -43.582031 25.46875 -39.25 23.4375 -33.59375 L 20.875 -26.484375 C 20.664062 -25.628906 20.425781 -24.828125 20.15625 -24.078125 C 19.894531 -23.328125 19.679688 -22.660156 19.515625 -22.078125 C 18.828125 -20.109375 18.484375 -18.988281 18.484375 -18.71875 C 17.890625 -17.8125 17.421875 -16.625 17.078125 -15.15625 C 16.734375 -13.6875 16.347656 -11.195312 15.921875 -7.6875 C 15.441406 -5.925781 15.226562 -5.125 15.28125 -5.28125 C 15.0625 -4.375 14.875 -3.625 14.71875 -3.03125 C 14.5625 -2.445312 14.398438 -2.179688 14.234375 -2.234375 L 13.921875 -1.921875 C 13.921875 -1.597656 13.679688 -1.4375 13.203125 -1.4375 C 12.773438 -1.4375 12.289062 -1.554688 11.75 -1.796875 C 11.21875 -2.035156 10.796875 -2.316406 10.484375 -2.640625 C 10.265625 -3.390625 10.15625 -3.921875 10.15625 -4.234375 C 10.15625 -4.929688 10.367188 -6 10.796875 -7.4375 C 11.222656 -9.25 11.929688 -11.796875 12.921875 -15.078125 C 13.910156 -18.359375 14.75 -21.039062 15.4375 -23.125 C 15.8125 -24.03125 16.347656 -25.734375 17.046875 -28.234375 C 17.628906 -30.210938 18.28125 -32.238281 19 -34.3125 C 19.71875 -36.394531 20.238281 -37.703125 20.5625 -38.234375 C 20.664062 -38.609375 21.023438 -39.675781 21.640625 -41.4375 C 22.253906 -43.195312 22.988281 -45.144531 23.84375 -47.28125 L 24.40625 -49.921875 L 23.515625 -50.3125 C 23.035156 -50.15625 22.609375 -50.078125 22.234375 -50.078125 C 21.972656 -50.078125 21.679688 -50.15625 21.359375 -50.3125 C 20.828125 -50.15625 20.09375 -50.382812 19.15625 -51 C 18.226562 -51.613281 17.707031 -52.1875 17.59375 -52.71875 C 17.488281 -52.875 17.421875 -53.113281 17.390625 -53.4375 C 17.367188 -53.757812 17.359375 -53.972656 17.359375 -54.078125 C 17.460938 -54.609375 18.523438 -55.097656 20.546875 -55.546875 C 22.578125 -56.003906 24.796875 -56.234375 27.203125 -56.234375 C 28.210938 -56.234375 28.984375 -56.207031 29.515625 -56.15625 C 30.472656 -56.101562 31.390625 -55.941406 32.265625 -55.671875 C 33.148438 -55.410156 34.234375 -55.015625 35.515625 -54.484375 L 37.4375 -53.765625 C 39.144531 -53.117188 40.972656 -51.992188 42.921875 -50.390625 C 44.867188 -48.796875 46.601562 -46.914062 48.125 -44.75 C 49.644531 -42.59375 50.671875 -40.394531 51.203125 -38.15625 C 51.359375 -37.46875 51.515625 -36.507812 51.671875 -35.28125 C 51.835938 -34.050781 51.921875 -32.957031 51.921875 -32 C 51.921875 -30.875 51.8125 -30.179688 51.59375 -29.921875 C 51.4375 -29.703125 51.359375 -29.429688 51.359375 -29.109375 C 51.359375 -28.796875 51.46875 -28.613281 51.6875 -28.5625 C 51.570312 -28.238281 51.378906 -27.648438 51.109375 -26.796875 C 50.847656 -25.941406 50.554688 -25.035156 50.234375 -24.078125 C 49.921875 -20.722656 48.429688 -16.773438 45.765625 -12.234375 C 45.492188 -12.234375 45.273438 -12.191406 45.109375 -12.109375 C 44.953125 -12.035156 44.984375 -11.972656 45.203125 -11.921875 C 45.203125 -11.648438 44.90625 -11.144531 44.3125 -10.40625 C 44.15625 -10.289062 43.820312 -9.898438 43.3125 -9.234375 C 42.8125 -8.566406 42.453125 -8.15625 42.234375 -8 C 42.179688 -7.625 42.019531 -7.316406 41.75 -7.078125 C 41.488281 -6.835938 41.253906 -6.71875 41.046875 -6.71875 C 41.046875 -6.71875 41.003906 -6.703125 40.921875 -6.671875 C 40.835938 -6.648438 40.796875 -6.5625 40.796875 -6.40625 C 39.835938 -5.007812 38.09375 -3.296875 35.5625 -1.265625 C 33.03125 0.753906 30.773438 2.191406 28.796875 3.046875 C 28.265625 3.410156 27.640625 3.753906 26.921875 4.078125 C 26.203125 4.398438 25.707031 4.613281 25.4375 4.71875 C 25.007812 5.09375 23.925781 5.613281 22.1875 6.28125 C 20.457031 6.945312 19.0625 7.382812 18 7.59375 Z M 18 7.59375 "/></g></g></g><g fill="#000000" fill-opacity="1"><g transform="translate(194.340938, 372.462656)"><g><path d="M 13.515625 -1.203125 C 12.878906 -1.203125 12.375 -1.304688 12 -1.515625 C 11.625 -1.734375 11.09375 -2.132812 10.40625 -2.71875 C 8.644531 -4.582031 7.765625 -6.289062 7.765625 -7.84375 C 7.765625 -8.21875 7.789062 -8.484375 7.84375 -8.640625 C 8 -9.015625 8.0625 -9.382812 8.03125 -9.75 C 8.007812 -10.125 8 -10.367188 8 -10.484375 C 7.789062 -10.691406 7.6875 -10.835938 7.6875 -10.921875 C 7.6875 -11.003906 7.738281 -11.082031 7.84375 -11.15625 C 7.945312 -11.238281 8.023438 -11.332031 8.078125 -11.4375 C 8.398438 -11.4375 8.507812 -11.726562 8.40625 -12.3125 C 8.289062 -12.738281 8.5 -13.6875 9.03125 -15.15625 C 9.570312 -16.625 10.242188 -17.972656 11.046875 -19.203125 C 11.628906 -20.160156 12.492188 -21.359375 13.640625 -22.796875 C 14.785156 -24.234375 15.8125 -25.328125 16.71875 -26.078125 C 18 -27.203125 19.144531 -28.03125 20.15625 -28.5625 C 21.175781 -29.09375 22.296875 -29.492188 23.515625 -29.765625 C 24.585938 -30.023438 25.3125 -30.15625 25.6875 -30.15625 C 26.050781 -30.15625 26.378906 -30.0625 26.671875 -29.875 C 26.972656 -29.6875 27.363281 -29.351562 27.84375 -28.875 C 29.28125 -28.238281 30.28125 -27.425781 30.84375 -26.4375 C 31.40625 -25.445312 31.6875 -23.914062 31.6875 -21.84375 C 31.6875 -18.375 30.269531 -14.613281 27.4375 -10.5625 C 26.207031 -8.800781 25.0625 -7.453125 24 -6.515625 C 22.9375 -5.585938 21.523438 -4.585938 19.765625 -3.515625 C 18.640625 -2.710938 17.609375 -2.140625 16.671875 -1.796875 C 15.742188 -1.453125 14.691406 -1.253906 13.515625 -1.203125 Z M 21.203125 -9.6875 C 22.484375 -11.125 23.507812 -12.484375 24.28125 -13.765625 C 25.050781 -15.046875 25.785156 -16.671875 26.484375 -18.640625 C 26.742188 -19.546875 26.875 -20.640625 26.875 -21.921875 C 26.875 -23.515625 26.660156 -24.421875 26.234375 -24.640625 C 25.703125 -24.910156 25.171875 -25.046875 24.640625 -25.046875 C 23.460938 -25.046875 22.234375 -24.507812 20.953125 -23.4375 C 19.410156 -22.101562 18.023438 -20.460938 16.796875 -18.515625 C 15.566406 -16.566406 14.316406 -14.15625 13.046875 -11.28125 C 12.503906 -10.15625 12.234375 -9.0625 12.234375 -8 C 12.234375 -7.195312 12.429688 -6.554688 12.828125 -6.078125 C 13.234375 -5.597656 13.785156 -5.359375 14.484375 -5.359375 C 16.242188 -5.359375 18.484375 -6.800781 21.203125 -9.6875 Z M 21.203125 -9.6875 "/></g></g></g><g fill="#000000" fill-opacity="1"><g transform="translate(222.578191, 372.462656)"><g/></g></g><g fill="#000000" fill-opacity="1"><g transform="translate(241.936307, 372.462656)"><g><path d="M 31.359375 -29.515625 C 32.210938 -28.660156 32.640625 -27.78125 32.640625 -26.875 C 32.640625 -25.914062 32 -24.238281 30.71875 -21.84375 C 30.289062 -20.613281 29.820312 -19.460938 29.3125 -18.390625 C 28.8125 -17.328125 28.425781 -16.632812 28.15625 -16.3125 L 26.3125 -12.078125 C 25.519531 -10.316406 24.535156 -8.265625 23.359375 -5.921875 C 21.921875 -2.929688 20.90625 -0.71875 20.3125 0.71875 L 19.28125 2.40625 C 16.613281 6.664062 14.5625 9.648438 13.125 11.359375 C 10.1875 13.972656 7.914062 15.492188 6.3125 15.921875 C 5.625 16.128906 4.800781 16.234375 3.84375 16.234375 C 2.082031 16.234375 0.414062 15.847656 -1.15625 15.078125 C -2.726562 14.304688 -3.625 13.414062 -3.84375 12.40625 C -3.894531 12.03125 -3.757812 11.628906 -3.4375 11.203125 C -3.113281 10.773438 -2.769531 10.5625 -2.40625 10.5625 C -2.132812 10.5625 -1.921875 10.664062 -1.765625 10.875 C -1.335938 11.195312 -0.710938 11.503906 0.109375 11.796875 C 0.941406 12.085938 1.835938 12.234375 2.796875 12.234375 C 3.171875 12.234375 3.675781 12.179688 4.3125 12.078125 C 5.382812 11.867188 6.503906 11.226562 7.671875 10.15625 C 8.847656 9.09375 9.914062 7.921875 10.875 6.640625 C 12.6875 3.972656 14.632812 0.640625 16.71875 -3.359375 C 15.96875 -3.578125 15.242188 -4.097656 14.546875 -4.921875 C 13.859375 -5.742188 13.3125 -6.609375 12.90625 -7.515625 C 12.507812 -8.421875 12.367188 -9.085938 12.484375 -9.515625 L 12.484375 -10.40625 C 12.003906 -10.40625 11.613281 -11.3125 11.3125 -13.125 C 11.019531 -14.9375 10.875 -17.039062 10.875 -19.4375 C 10.875 -20.34375 10.929688 -21.488281 11.046875 -22.875 C 11.253906 -23.726562 11.367188 -24.78125 11.390625 -26.03125 C 11.421875 -27.289062 11.4375 -28.109375 11.4375 -28.484375 L 11.4375 -28.796875 C 11.4375 -29.441406 11.503906 -29.894531 11.640625 -30.15625 C 11.773438 -30.425781 12 -30.664062 12.3125 -30.875 C 12.738281 -31.09375 13.164062 -31.203125 13.59375 -31.203125 C 15.09375 -31.203125 15.84375 -29.226562 15.84375 -25.28125 C 15.84375 -24.695312 15.789062 -23.550781 15.6875 -21.84375 C 15.625 -21.09375 15.59375 -19.972656 15.59375 -18.484375 C 15.59375 -15.703125 15.832031 -13.242188 16.3125 -11.109375 C 16.800781 -8.984375 17.523438 -7.519531 18.484375 -6.71875 L 18.953125 -7.84375 C 19.546875 -9.382812 20 -10.367188 20.3125 -10.796875 C 21.0625 -12.347656 21.488281 -13.335938 21.59375 -13.765625 C 21.707031 -14.128906 22.003906 -14.738281 22.484375 -15.59375 L 23.515625 -17.765625 C 23.628906 -18.078125 23.976562 -19.097656 24.5625 -20.828125 C 25.144531 -22.566406 25.726562 -23.972656 26.3125 -25.046875 C 26.53125 -25.472656 26.851562 -26.097656 27.28125 -26.921875 C 27.707031 -27.742188 28.050781 -28.34375 28.3125 -28.71875 C 28.582031 -29.09375 28.878906 -29.332031 29.203125 -29.4375 C 29.628906 -29.8125 29.972656 -30 30.234375 -30 C 30.453125 -30 30.828125 -29.835938 31.359375 -29.515625 Z M 31.359375 -29.515625 "/></g></g></g><g fill="#000000" fill-opacity="1"><g transform="translate(269.213653, 372.462656)"><g><path d="M 13.515625 -1.203125 C 12.878906 -1.203125 12.375 -1.304688 12 -1.515625 C 11.625 -1.734375 11.09375 -2.132812 10.40625 -2.71875 C 8.644531 -4.582031 7.765625 -6.289062 7.765625 -7.84375 C 7.765625 -8.21875 7.789062 -8.484375 7.84375 -8.640625 C 8 -9.015625 8.0625 -9.382812 8.03125 -9.75 C 8.007812 -10.125 8 -10.367188 8 -10.484375 C 7.789062 -10.691406 7.6875 -10.835938 7.6875 -10.921875 C 7.6875 -11.003906 7.738281 -11.082031 7.84375 -11.15625 C 7.945312 -11.238281 8.023438 -11.332031 8.078125 -11.4375 C 8.398438 -11.4375 8.507812 -11.726562 8.40625 -12.3125 C 8.289062 -12.738281 8.5 -13.6875 9.03125 -15.15625 C 9.570312 -16.625 10.242188 -17.972656 11.046875 -19.203125 C 11.628906 -20.160156 12.492188 -21.359375 13.640625 -22.796875 C 14.785156 -24.234375 15.8125 -25.328125 16.71875 -26.078125 C 18 -27.203125 19.144531 -28.03125 20.15625 -28.5625 C 21.175781 -29.09375 22.296875 -29.492188 23.515625 -29.765625 C 24.585938 -30.023438 25.3125 -30.15625 25.6875 -30.15625 C 26.050781 -30.15625 26.378906 -30.0625 26.671875 -29.875 C 26.972656 -29.6875 27.363281 -29.351562 27.84375 -28.875 C 29.28125 -28.238281 30.28125 -27.425781 30.84375 -26.4375 C 31.40625 -25.445312 31.6875 -23.914062 31.6875 -21.84375 C 31.6875 -18.375 30.269531 -14.613281 27.4375 -10.5625 C 26.207031 -8.800781 25.0625 -7.453125 24 -6.515625 C 22.9375 -5.585938 21.523438 -4.585938 19.765625 -3.515625 C 18.640625 -2.710938 17.609375 -2.140625 16.671875 -1.796875 C 15.742188 -1.453125 14.691406 -1.253906 13.515625 -1.203125 Z M 21.203125 -9.6875 C 22.484375 -11.125 23.507812 -12.484375 24.28125 -13.765625 C 25.050781 -15.046875 25.785156 -16.671875 26.484375 -18.640625 C 26.742188 -19.546875 26.875 -20.640625 26.875 -21.921875 C 26.875 -23.515625 26.660156 -24.421875 26.234375 -24.640625 C 25.703125 -24.910156 25.171875 -25.046875 24.640625 -25.046875 C 23.460938 -25.046875 22.234375 -24.507812 20.953125 -23.4375 C 19.410156 -22.101562 18.023438 -20.460938 16.796875 -18.515625 C 15.566406 -16.566406 14.316406 -14.15625 13.046875 -11.28125 C 12.503906 -10.15625 12.234375 -9.0625 12.234375 -8 C 12.234375 -7.195312 12.429688 -6.554688 12.828125 -6.078125 C 13.234375 -5.597656 13.785156 -5.359375 14.484375 -5.359375 C 16.242188 -5.359375 18.484375 -6.800781 21.203125 -9.6875 Z M 21.203125 -9.6875 "/></g></g></g><g fill="#000000" fill-opacity="1"><g transform="translate(297.450906, 372.462656)"><g><path d="M 27.125 -0.15625 C 25.84375 -1.382812 24.878906 -3.195312 24.234375 -5.59375 C 24.128906 -5.914062 24.078125 -6.476562 24.078125 -7.28125 C 24.078125 -8.082031 24.078125 -8.640625 24.078125 -8.953125 C 23.753906 -8.160156 23.164062 -7.441406 22.3125 -6.796875 C 21.09375 -5.566406 19.867188 -4.660156 18.640625 -4.078125 C 16.773438 -2.847656 15.253906 -2.234375 14.078125 -2.234375 C 13.015625 -2.234375 12.003906 -2.820312 11.046875 -4 C 10.347656 -4.582031 9.820312 -5.164062 9.46875 -5.75 C 9.125 -6.34375 8.953125 -7.066406 8.953125 -7.921875 C 8.953125 -8.503906 9.035156 -9.144531 9.203125 -9.84375 C 9.304688 -11.8125 9.582031 -13.703125 10.03125 -15.515625 C 10.488281 -17.328125 11.359375 -19.648438 12.640625 -22.484375 C 14.347656 -25.835938 15.570312 -28.078125 16.3125 -29.203125 C 16.582031 -29.304688 16.929688 -29.359375 17.359375 -29.359375 C 17.890625 -29.359375 18.328125 -29.195312 18.671875 -28.875 C 19.023438 -28.5625 19.226562 -28.132812 19.28125 -27.59375 C 19.4375 -27.382812 19.515625 -27.09375 19.515625 -26.71875 C 19.515625 -25.382812 18.71875 -23.195312 17.125 -20.15625 C 15.039062 -15.144531 14 -11.679688 14 -9.765625 C 14 -8.640625 14.316406 -7.972656 14.953125 -7.765625 C 15.222656 -7.597656 15.519531 -7.515625 15.84375 -7.515625 C 17.175781 -7.515625 18.773438 -8.421875 20.640625 -10.234375 C 22.503906 -12.046875 24.289062 -14.953125 26 -18.953125 C 26.75 -20.773438 27.203125 -22.644531 27.359375 -24.5625 C 27.304688 -24.71875 27.28125 -24.957031 27.28125 -25.28125 C 27.28125 -26.238281 27.757812 -27.007812 28.71875 -27.59375 C 28.9375 -27.914062 29.226562 -28.171875 29.59375 -28.359375 C 29.96875 -28.546875 30.207031 -28.53125 30.3125 -28.3125 L 31.59375 -28.40625 C 31.757812 -28.457031 31.921875 -28.304688 32.078125 -27.953125 C 32.234375 -27.609375 32.394531 -27.382812 32.5625 -27.28125 C 32.9375 -26.957031 33.125 -26.367188 33.125 -25.515625 C 33.125 -23.753906 32.347656 -21.0625 30.796875 -17.4375 C 29.785156 -15.300781 29.101562 -13.660156 28.75 -12.515625 C 28.40625 -11.367188 28.207031 -10.265625 28.15625 -9.203125 C 28.15625 -7.171875 28.929688 -5.488281 30.484375 -4.15625 C 31.015625 -3.78125 31.332031 -3.378906 31.4375 -2.953125 C 31.539062 -2.523438 31.566406 -1.941406 31.515625 -1.203125 C 31.410156 -0.722656 31.101562 -0.332031 30.59375 -0.03125 C 30.09375 0.257812 29.546875 0.40625 28.953125 0.40625 C 28.265625 0.40625 27.65625 0.21875 27.125 -0.15625 Z M 27.125 -0.15625 "/></g></g></g><g fill="#000000" fill-opacity="1"><g transform="translate(327.048027, 372.462656)"><g><path d="M 9.515625 -2.796875 C 9.085938 -3.117188 8.796875 -3.410156 8.640625 -3.671875 C 8.484375 -3.941406 8.40625 -4.34375 8.40625 -4.875 C 8.40625 -5.351562 8.429688 -5.753906 8.484375 -6.078125 C 8.640625 -7.890625 9.039062 -10 9.6875 -12.40625 L 10.078125 -14 C 10.234375 -15.332031 11.164062 -18.128906 12.875 -22.390625 C 14.582031 -26.660156 15.972656 -29.570312 17.046875 -31.125 C 17.472656 -31.382812 17.925781 -31.515625 18.40625 -31.515625 C 19.09375 -31.515625 19.675781 -31.273438 20.15625 -30.796875 C 20.476562 -30.585938 20.640625 -30.1875 20.640625 -29.59375 C 20.640625 -29.0625 20.4375 -28.273438 20.03125 -27.234375 C 19.632812 -26.203125 18.957031 -24.671875 18 -22.640625 C 17.789062 -22.210938 17.429688 -21.410156 16.921875 -20.234375 C 16.410156 -19.066406 16.15625 -18.375 16.15625 -18.15625 C 16.15625 -18.050781 16.179688 -18 16.234375 -18 C 16.347656 -18 16.457031 -18.035156 16.5625 -18.109375 C 16.664062 -18.191406 16.769531 -18.257812 16.875 -18.3125 C 17.46875 -19.332031 18.894531 -20.722656 21.15625 -22.484375 C 23.425781 -24.242188 24.988281 -25.335938 25.84375 -25.765625 C 26.21875 -25.972656 26.695312 -26.179688 27.28125 -26.390625 C 27.863281 -26.609375 28.265625 -26.769531 28.484375 -26.875 C 29.335938 -27.300781 30.347656 -27.515625 31.515625 -27.515625 C 32.265625 -27.515625 32.914062 -27.394531 33.46875 -27.15625 C 34.03125 -26.914062 34.421875 -26.554688 34.640625 -26.078125 C 34.691406 -25.703125 34.835938 -25.40625 35.078125 -25.1875 C 35.316406 -24.976562 35.488281 -24.847656 35.59375 -24.796875 C 35.757812 -24.796875 35.867188 -24.726562 35.921875 -24.59375 C 35.972656 -24.46875 36 -24.375 36 -24.3125 C 36 -23.945312 35.785156 -23.722656 35.359375 -23.640625 C 34.929688 -23.554688 34.160156 -23.488281 33.046875 -23.4375 C 32.453125 -23.382812 31.832031 -23.25 31.1875 -23.03125 C 30.550781 -22.820312 29.914062 -22.554688 29.28125 -22.234375 C 26.289062 -20.535156 24.0625 -19.203125 22.59375 -18.234375 C 21.132812 -17.273438 19.65625 -15.96875 18.15625 -14.3125 C 17.570312 -13.675781 16.800781 -12.53125 15.84375 -10.875 C 15.46875 -10.5 15.078125 -9.523438 14.671875 -7.953125 C 14.273438 -6.378906 14.078125 -5.410156 14.078125 -5.046875 C 14.023438 -4.878906 13.914062 -4.566406 13.75 -4.109375 C 13.59375 -3.660156 13.359375 -3.222656 13.046875 -2.796875 C 12.398438 -1.941406 11.863281 -1.515625 11.4375 -1.515625 C 10.957031 -1.515625 10.316406 -1.941406 9.515625 -2.796875 Z M 9.515625 -2.796875 "/></g></g></g><g fill="#000000" fill-opacity="1"><g transform="translate(355.845229, 372.462656)"><g/></g></g><g fill="#000000" fill-opacity="1"><g transform="translate(375.203345, 372.462656)"><g><path d="M 10.40625 -4.3125 C 9.601562 -4.3125 8.988281 -4.5 8.5625 -4.875 C 8.132812 -5.25 7.851562 -5.539062 7.71875 -5.75 C 7.582031 -5.96875 7.515625 -6.238281 7.515625 -6.5625 C 7.515625 -6.769531 7.703125 -7.753906 8.078125 -9.515625 L 8.796875 -12.15625 C 9.328125 -14.34375 9.804688 -16.15625 10.234375 -17.59375 C 10.453125 -18.925781 10.867188 -20.335938 11.484375 -21.828125 C 12.097656 -23.328125 12.457031 -24.238281 12.5625 -24.5625 C 12.988281 -26.101562 13.816406 -28.503906 15.046875 -31.765625 L 17.4375 -38.234375 C 19.300781 -43.304688 20.421875 -46.398438 20.796875 -47.515625 L 22.078125 -51.046875 C 22.078125 -51.890625 22.503906 -52.3125 23.359375 -52.3125 C 24.109375 -52.3125 24.734375 -51.898438 25.234375 -51.078125 C 25.742188 -50.253906 26 -49.304688 26 -48.234375 C 26 -47.441406 25.835938 -46.671875 25.515625 -45.921875 C 24.773438 -44.316406 23.960938 -42.300781 23.078125 -39.875 C 22.203125 -37.445312 21.628906 -35.863281 21.359375 -35.125 C 19.546875 -30 18.238281 -26.582031 17.4375 -24.875 C 17.4375 -24.664062 17.351562 -24.289062 17.1875 -23.75 C 17.03125 -23.21875 16.847656 -22.738281 16.640625 -22.3125 L 15.765625 -20.5625 C 15.765625 -20.394531 15.46875 -19.273438 14.875 -17.203125 C 14.132812 -14.910156 13.679688 -13.226562 13.515625 -12.15625 C 13.785156 -12.632812 14.347656 -13.367188 15.203125 -14.359375 C 16.054688 -15.347656 16.851562 -16.160156 17.59375 -16.796875 C 20.53125 -19.304688 22.347656 -20.800781 23.046875 -21.28125 C 23.679688 -21.65625 24.210938 -22 24.640625 -22.3125 C 25.066406 -22.632812 25.359375 -22.847656 25.515625 -22.953125 C 25.515625 -23.222656 25.8125 -23.359375 26.40625 -23.359375 C 26.613281 -23.359375 26.726562 -23.382812 26.75 -23.4375 C 26.78125 -23.488281 26.796875 -23.625 26.796875 -23.84375 C 26.796875 -24.21875 27.410156 -24.550781 28.640625 -24.84375 C 29.867188 -25.132812 30.960938 -25.28125 31.921875 -25.28125 C 32.554688 -25.28125 33.0625 -25.144531 33.4375 -24.875 C 33.8125 -24.613281 34.289062 -24.03125 34.875 -23.125 C 35.78125 -21.84375 36.234375 -20.453125 36.234375 -18.953125 C 36.234375 -18.109375 36.078125 -17.226562 35.765625 -16.3125 C 35.765625 -15.894531 35.695312 -15.242188 35.5625 -14.359375 C 35.425781 -13.484375 35.359375 -12.722656 35.359375 -12.078125 L 34.875 -9.515625 L 36.15625 -9.515625 C 36.53125 -9.515625 36.890625 -9.460938 37.234375 -9.359375 C 37.585938 -9.253906 37.816406 -9.175781 37.921875 -9.125 C 38.398438 -8.53125 38.828125 -8.234375 39.203125 -8.234375 C 39.679688 -8.234375 39.921875 -8.050781 39.921875 -7.6875 C 39.921875 -7.46875 39.8125 -7.195312 39.59375 -6.875 C 39.382812 -6.5625 39.09375 -6.296875 38.71875 -6.078125 C 37.332031 -5.222656 36.160156 -4.796875 35.203125 -4.796875 C 34.296875 -4.796875 33.363281 -5.222656 32.40625 -6.078125 C 31.226562 -7.253906 30.640625 -8.664062 30.640625 -10.3125 C 30.640625 -11.164062 30.800781 -12.179688 31.125 -13.359375 L 31.359375 -15.921875 C 31.460938 -17.203125 31.515625 -18 31.515625 -18.3125 C 31.515625 -19.539062 31.222656 -20.15625 30.640625 -20.15625 C 29.890625 -20.15625 28.460938 -19.5 26.359375 -18.1875 C 24.253906 -16.882812 22.082031 -15.257812 19.84375 -13.3125 C 17.601562 -11.375 15.816406 -9.414062 14.484375 -7.4375 C 13.679688 -6.425781 13 -5.664062 12.4375 -5.15625 C 11.875 -4.65625 11.351562 -4.375 10.875 -4.3125 Z M 10.40625 -4.3125 "/></g></g></g><g fill="#000000" fill-opacity="1"><g transform="translate(412.319737, 372.462656)"><g><path d="M 13.515625 -1.203125 C 12.878906 -1.203125 12.375 -1.304688 12 -1.515625 C 11.625 -1.734375 11.09375 -2.132812 10.40625 -2.71875 C 8.644531 -4.582031 7.765625 -6.289062 7.765625 -7.84375 C 7.765625 -8.21875 7.789062 -8.484375 7.84375 -8.640625 C 8 -9.015625 8.0625 -9.382812 8.03125 -9.75 C 8.007812 -10.125 8 -10.367188 8 -10.484375 C 7.789062 -10.691406 7.6875 -10.835938 7.6875 -10.921875 C 7.6875 -11.003906 7.738281 -11.082031 7.84375 -11.15625 C 7.945312 -11.238281 8.023438 -11.332031 8.078125 -11.4375 C 8.398438 -11.4375 8.507812 -11.726562 8.40625 -12.3125 C 8.289062 -12.738281 8.5 -13.6875 9.03125 -15.15625 C 9.570312 -16.625 10.242188 -17.972656 11.046875 -19.203125 C 11.628906 -20.160156 12.492188 -21.359375 13.640625 -22.796875 C 14.785156 -24.234375 15.8125 -25.328125 16.71875 -26.078125 C 18 -27.203125 19.144531 -28.03125 20.15625 -28.5625 C 21.175781 -29.09375 22.296875 -29.492188 23.515625 -29.765625 C 24.585938 -30.023438 25.3125 -30.15625 25.6875 -30.15625 C 26.050781 -30.15625 26.378906 -30.0625 26.671875 -29.875 C 26.972656 -29.6875 27.363281 -29.351562 27.84375 -28.875 C 29.28125 -28.238281 30.28125 -27.425781 30.84375 -26.4375 C 31.40625 -25.445312 31.6875 -23.914062 31.6875 -21.84375 C 31.6875 -18.375 30.269531 -14.613281 27.4375 -10.5625 C 26.207031 -8.800781 25.0625 -7.453125 24 -6.515625 C 22.9375 -5.585938 21.523438 -4.585938 19.765625 -3.515625 C 18.640625 -2.710938 17.609375 -2.140625 16.671875 -1.796875 C 15.742188 -1.453125 14.691406 -1.253906 13.515625 -1.203125 Z M 21.203125 -9.6875 C 22.484375 -11.125 23.507812 -12.484375 24.28125 -13.765625 C 25.050781 -15.046875 25.785156 -16.671875 26.484375 -18.640625 C 26.742188 -19.546875 26.875 -20.640625 26.875 -21.921875 C 26.875 -23.515625 26.660156 -24.421875 26.234375 -24.640625 C 25.703125 -24.910156 25.171875 -25.046875 24.640625 -25.046875 C 23.460938 -25.046875 22.234375 -24.507812 20.953125 -23.4375 C 19.410156 -22.101562 18.023438 -20.460938 16.796875 -18.515625 C 15.566406 -16.566406 14.316406 -14.15625 13.046875 -11.28125 C 12.503906 -10.15625 12.234375 -9.0625 12.234375 -8 C 12.234375 -7.195312 12.429688 -6.554688 12.828125 -6.078125 C 13.234375 -5.597656 13.785156 -5.359375 14.484375 -5.359375 C 16.242188 -5.359375 18.484375 -6.800781 21.203125 -9.6875 Z M 21.203125 -9.6875 "/></g></g></g><g fill="#000000" fill-opacity="1"><g transform="translate(440.556979, 372.462656)"><g><path d="M 44.078125 -3.359375 C 43.328125 -3.628906 42.617188 -4.28125 41.953125 -5.3125 C 41.285156 -6.351562 40.953125 -8.050781 40.953125 -10.40625 L 41.046875 -14.078125 C 41.046875 -14.722656 41.003906 -15.175781 40.921875 -15.4375 C 40.835938 -15.707031 40.691406 -15.84375 40.484375 -15.84375 C 39.785156 -15.84375 38.300781 -14.9375 36.03125 -13.125 C 33.769531 -11.3125 31.492188 -9.148438 29.203125 -6.640625 C 28.929688 -6.367188 28.566406 -5.976562 28.109375 -5.46875 C 27.660156 -4.96875 27.25 -4.597656 26.875 -4.359375 C 26.5 -4.117188 26.15625 -4 25.84375 -4 C 25.363281 -4 24.910156 -4.1875 24.484375 -4.5625 L 23.59375 -5.28125 C 23.226562 -5.601562 23.046875 -5.976562 23.046875 -6.40625 L 23.203125 -7.125 L 25.046875 -12.40625 C 26.210938 -15.125 26.898438 -16.84375 27.109375 -17.5625 C 27.328125 -18.28125 27.304688 -18.613281 27.046875 -18.5625 C 26.554688 -18.507812 25.882812 -18.253906 25.03125 -17.796875 C 24.1875 -17.347656 23.65625 -16.910156 23.4375 -16.484375 C 23.332031 -16.484375 22.984375 -16.203125 22.390625 -15.640625 C 21.804688 -15.078125 21.300781 -14.664062 20.875 -14.40625 C 20.394531 -13.707031 19.222656 -12.453125 17.359375 -10.640625 L 15.4375 -8.796875 C 14.632812 -8.160156 13.515625 -6.851562 12.078125 -4.875 C 11.328125 -3.914062 10.898438 -3.4375 10.796875 -3.4375 C 9.140625 -3.4375 8.101562 -4.238281 7.6875 -5.84375 C 7.46875 -6.21875 7.359375 -6.722656 7.359375 -7.359375 C 7.359375 -8.210938 7.675781 -9.972656 8.3125 -12.640625 C 8.800781 -14.453125 9.070312 -15.570312 9.125 -16 L 9.515625 -17.59375 C 9.628906 -18.289062 9.867188 -19.117188 10.234375 -20.078125 C 10.609375 -21.035156 11.25 -22.554688 12.15625 -24.640625 C 12.6875 -26.128906 12.953125 -27.25 12.953125 -28 C 12.953125 -28.695312 13.191406 -29.242188 13.671875 -29.640625 C 14.160156 -30.035156 14.695312 -30.234375 15.28125 -30.234375 C 16.03125 -30.234375 16.671875 -29.941406 17.203125 -29.359375 C 17.734375 -28.773438 18 -28.003906 18 -27.046875 C 18 -26.140625 17.785156 -25.203125 17.359375 -24.234375 L 16.484375 -22.078125 C 16.054688 -21.222656 15.507812 -19.847656 14.84375 -17.953125 C 14.175781 -16.066406 13.84375 -15.015625 13.84375 -14.796875 C 13.894531 -14.640625 14.078125 -14.679688 14.390625 -14.921875 C 14.710938 -15.160156 15.085938 -15.46875 15.515625 -15.84375 C 15.992188 -16.320312 16.554688 -16.800781 17.203125 -17.28125 C 18.796875 -18.769531 20.695312 -20.207031 22.90625 -21.59375 C 25.125 -22.988281 26.820312 -23.867188 28 -24.234375 C 28.695312 -24.234375 29.21875 -24.140625 29.5625 -23.953125 C 29.90625 -23.773438 30.289062 -23.457031 30.71875 -23 C 31.144531 -22.539062 31.46875 -22.207031 31.6875 -22 C 32.164062 -21.519531 32.40625 -20.828125 32.40625 -19.921875 C 32.40625 -19.648438 32.347656 -19.300781 32.234375 -18.875 C 32.023438 -18.132812 31.742188 -17.226562 31.390625 -16.15625 C 31.046875 -15.09375 30.796875 -14.320312 30.640625 -13.84375 C 31.015625 -14.15625 31.679688 -14.710938 32.640625 -15.515625 C 33.597656 -16.316406 34.476562 -17.066406 35.28125 -17.765625 C 37.945312 -19.835938 40.050781 -20.875 41.59375 -20.875 C 42.71875 -20.875 43.679688 -20.289062 44.484375 -19.125 C 44.960938 -18.644531 45.253906 -18.148438 45.359375 -17.640625 C 45.460938 -17.128906 45.515625 -16.445312 45.515625 -15.59375 C 45.515625 -14.738281 45.515625 -14.070312 45.515625 -13.59375 C 45.566406 -13.226562 45.59375 -12.59375 45.59375 -11.6875 C 45.65625 -11.257812 45.722656 -10.429688 45.796875 -9.203125 C 45.878906 -7.972656 46 -7.28125 46.15625 -7.125 C 46.425781 -6.800781 47.332031 -6.503906 48.875 -6.234375 C 49.832031 -6.078125 50.3125 -5.648438 50.3125 -4.953125 C 50.3125 -4.472656 49.96875 -3.992188 49.28125 -3.515625 C 48.582031 -3.085938 47.726562 -2.875 46.71875 -2.875 C 45.757812 -2.875 44.878906 -3.035156 44.078125 -3.359375 Z M 44.078125 -3.359375 "/></g></g></g><g fill="#000000" fill-opacity="1"><g transform="translate(485.352631, 372.462656)"><g><path d="M 22.078125 -2.796875 C 20.742188 -1.628906 19.144531 -1.046875 17.28125 -1.046875 C 15.945312 -1.046875 14.679688 -1.363281 13.484375 -2 C 12.285156 -2.632812 11.285156 -3.515625 10.484375 -4.640625 C 9.785156 -5.492188 9.273438 -6.453125 8.953125 -7.515625 C 8.640625 -8.585938 8.484375 -9.894531 8.484375 -11.4375 C 8.484375 -11.96875 8.535156 -13.035156 8.640625 -14.640625 C 8.796875 -16.609375 9.445312 -18.660156 10.59375 -20.796875 C 11.738281 -22.929688 13.164062 -24.835938 14.875 -26.515625 C 16.582031 -28.203125 18.265625 -29.363281 19.921875 -30 C 20.773438 -30.53125 21.546875 -30.796875 22.234375 -30.796875 C 22.609375 -30.796875 22.984375 -30.769531 23.359375 -30.71875 C 23.734375 -30.664062 24.132812 -30.613281 24.5625 -30.5625 C 25.726562 -30.394531 26.617188 -30.164062 27.234375 -29.875 C 27.847656 -29.582031 28.367188 -29.144531 28.796875 -28.5625 C 30.128906 -27.226562 30.796875 -25.679688 30.796875 -23.921875 C 30.585938 -22.640625 29.757812 -21.171875 28.3125 -19.515625 C 26.875 -17.867188 25.144531 -16.535156 23.125 -15.515625 C 22.164062 -15.203125 21.070312 -15.046875 19.84375 -15.046875 C 18.1875 -15.046875 16.851562 -15.390625 15.84375 -16.078125 C 15.363281 -16.234375 14.988281 -16.3125 14.71875 -16.3125 C 14.238281 -16.3125 13.878906 -15.992188 13.640625 -15.359375 C 13.398438 -14.722656 13.171875 -13.550781 12.953125 -11.84375 C 12.898438 -11.46875 12.875 -10.929688 12.875 -10.234375 C 12.875 -7.515625 13.78125 -6.023438 15.59375 -5.765625 C 16.820312 -5.492188 17.703125 -5.359375 18.234375 -5.359375 C 18.878906 -5.359375 19.601562 -5.570312 20.40625 -6 L 21.921875 -6.875 C 22.242188 -7.039062 22.535156 -7.253906 22.796875 -7.515625 C 23.066406 -7.785156 23.304688 -8.023438 23.515625 -8.234375 C 23.628906 -8.347656 23.789062 -8.523438 24 -8.765625 C 24.207031 -9.003906 24.40625 -9.160156 24.59375 -9.234375 C 24.78125 -9.316406 24.957031 -9.359375 25.125 -9.359375 C 25.332031 -9.359375 25.566406 -9.238281 25.828125 -9 C 26.097656 -8.757812 26.316406 -8.585938 26.484375 -8.484375 C 26.960938 -8.484375 27.066406 -8.148438 26.796875 -7.484375 C 26.535156 -6.816406 25.960938 -6.039062 25.078125 -5.15625 C 24.203125 -4.28125 23.203125 -3.492188 22.078125 -2.796875 Z M 22 -19.765625 C 22.90625 -20.128906 23.820312 -20.789062 24.75 -21.75 C 25.6875 -22.71875 26.15625 -23.519531 26.15625 -24.15625 C 26.15625 -24.800781 25.914062 -25.335938 25.4375 -25.765625 C 24.957031 -26.191406 24.289062 -26.40625 23.4375 -26.40625 C 22.800781 -26.40625 22.320312 -26.347656 22 -26.234375 C 21.25 -26.023438 20.367188 -25.453125 19.359375 -24.515625 C 18.347656 -23.585938 17.46875 -22.640625 16.71875 -21.671875 C 15.96875 -20.710938 15.675781 -20.15625 15.84375 -20 C 16.101562 -19.519531 17.140625 -19.28125 18.953125 -19.28125 C 20.179688 -19.28125 21.195312 -19.441406 22 -19.765625 Z M 22 -19.765625 "/></g></g></g><g fill="#000000" fill-opacity="1"><g transform="translate(511.350104, 372.462656)"><g><path d="M 14.15625 -3.59375 C 13.039062 -3.59375 12.09375 -4.472656 11.3125 -6.234375 C 10.539062 -7.992188 10.15625 -10.050781 10.15625 -12.40625 L 10.234375 -13.84375 C 10.234375 -15.757812 10.367188 -17.359375 10.640625 -18.640625 C 10.910156 -19.921875 11.070312 -20.722656 11.125 -21.046875 C 11.226562 -21.304688 11.332031 -21.769531 11.4375 -22.4375 C 11.539062 -23.101562 11.753906 -24.050781 12.078125 -25.28125 C 12.503906 -27.144531 12.929688 -28.289062 13.359375 -28.71875 C 13.785156 -29.144531 14.289062 -29.359375 14.875 -29.359375 C 15.25 -29.359375 15.597656 -29.265625 15.921875 -29.078125 C 16.242188 -28.890625 16.507812 -28.632812 16.71875 -28.3125 C 17.039062 -28 17.203125 -27.226562 17.203125 -26 C 17.203125 -25.09375 17.117188 -24.210938 16.953125 -23.359375 C 16.796875 -22.503906 16.582031 -21.890625 16.3125 -21.515625 C 16.15625 -21.203125 15.914062 -19.65625 15.59375 -16.875 C 15.382812 -14.851562 15.226562 -13.546875 15.125 -12.953125 C 15.070312 -12.742188 15.046875 -12.425781 15.046875 -12 C 15.046875 -10.769531 15.414062 -10.15625 16.15625 -10.15625 C 17.382812 -10.15625 19.117188 -11.785156 21.359375 -15.046875 C 22.847656 -17.171875 23.898438 -18.832031 24.515625 -20.03125 C 25.128906 -21.238281 25.757812 -22.773438 26.40625 -24.640625 C 26.664062 -25.441406 26.914062 -26.132812 27.15625 -26.71875 C 27.394531 -27.300781 27.625 -27.675781 27.84375 -27.84375 C 28.101562 -28.050781 28.472656 -28.15625 28.953125 -28.15625 C 29.492188 -28.15625 30.132812 -27.914062 30.875 -27.4375 C 31.519531 -26.800781 31.84375 -26.054688 31.84375 -25.203125 C 31.84375 -24.296875 31.519531 -23.203125 30.875 -21.921875 C 30.238281 -20.640625 29.648438 -18.863281 29.109375 -16.59375 C 28.578125 -14.332031 28.3125 -12.5625 28.3125 -11.28125 C 28.3125 -10.320312 28.429688 -9.722656 28.671875 -9.484375 C 28.921875 -9.242188 29.3125 -9.125 29.84375 -9.125 C 31.332031 -9.125 33.117188 -10.1875 35.203125 -12.3125 C 36.160156 -13.28125 37.425781 -14.976562 39 -17.40625 C 40.570312 -19.832031 41.359375 -21.257812 41.359375 -21.6875 C 41.359375 -22 41.597656 -22.453125 42.078125 -23.046875 C 42.347656 -23.410156 42.601562 -23.726562 42.84375 -24 C 43.082031 -24.269531 43.441406 -24.535156 43.921875 -24.796875 L 44.5625 -24.953125 C 44.988281 -24.953125 45.492188 -24.660156 46.078125 -24.078125 C 46.296875 -23.867188 46.429688 -23.535156 46.484375 -23.078125 C 46.535156 -22.628906 46.5625 -22.109375 46.5625 -21.515625 C 46.289062 -20.554688 45.832031 -19.316406 45.1875 -17.796875 C 44.550781 -16.273438 44.050781 -15.300781 43.6875 -14.875 C 42.664062 -14.082031 41.8125 -13.097656 41.125 -11.921875 C 39.84375 -10.367188 38.84375 -9.285156 38.125 -8.671875 C 37.40625 -8.066406 36.9375 -7.65625 36.71875 -7.4375 C 35.65625 -6.375 34.492188 -5.546875 33.234375 -4.953125 C 31.984375 -4.367188 30.800781 -4.078125 29.6875 -4.078125 C 28.5625 -4.078125 27.648438 -4.34375 26.953125 -4.875 C 25.304688 -5.726562 24.484375 -7.171875 24.484375 -9.203125 C 24.484375 -9.578125 24.425781 -9.921875 24.3125 -10.234375 C 24.207031 -10.554688 24.128906 -10.769531 24.078125 -10.875 C 23.273438 -10.875 22.632812 -10.445312 22.15625 -9.59375 C 21.414062 -8.257812 20.132812 -6.925781 18.3125 -5.59375 C 16.5 -4.257812 15.113281 -3.59375 14.15625 -3.59375 Z M 14.15625 -3.59375 "/></g></g></g><g fill="#000000" fill-opacity="1"><g transform="translate(552.706098, 372.462656)"><g><path d="M 13.515625 -1.203125 C 12.878906 -1.203125 12.375 -1.304688 12 -1.515625 C 11.625 -1.734375 11.09375 -2.132812 10.40625 -2.71875 C 8.644531 -4.582031 7.765625 -6.289062 7.765625 -7.84375 C 7.765625 -8.21875 7.789062 -8.484375 7.84375 -8.640625 C 8 -9.015625 8.0625 -9.382812 8.03125 -9.75 C 8.007812 -10.125 8 -10.367188 8 -10.484375 C 7.789062 -10.691406 7.6875 -10.835938 7.6875 -10.921875 C 7.6875 -11.003906 7.738281 -11.082031 7.84375 -11.15625 C 7.945312 -11.238281 8.023438 -11.332031 8.078125 -11.4375 C 8.398438 -11.4375 8.507812 -11.726562 8.40625 -12.3125 C 8.289062 -12.738281 8.5 -13.6875 9.03125 -15.15625 C 9.570312 -16.625 10.242188 -17.972656 11.046875 -19.203125 C 11.628906 -20.160156 12.492188 -21.359375 13.640625 -22.796875 C 14.785156 -24.234375 15.8125 -25.328125 16.71875 -26.078125 C 18 -27.203125 19.144531 -28.03125 20.15625 -28.5625 C 21.175781 -29.09375 22.296875 -29.492188 23.515625 -29.765625 C 24.585938 -30.023438 25.3125 -30.15625 25.6875 -30.15625 C 26.050781 -30.15625 26.378906 -30.0625 26.671875 -29.875 C 26.972656 -29.6875 27.363281 -29.351562 27.84375 -28.875 C 29.28125 -28.238281 30.28125 -27.425781 30.84375 -26.4375 C 31.40625 -25.445312 31.6875 -23.914062 31.6875 -21.84375 C 31.6875 -18.375 30.269531 -14.613281 27.4375 -10.5625 C 26.207031 -8.800781 25.0625 -7.453125 24 -6.515625 C 22.9375 -5.585938 21.523438 -4.585938 19.765625 -3.515625 C 18.640625 -2.710938 17.609375 -2.140625 16.671875 -1.796875 C 15.742188 -1.453125 14.691406 -1.253906 13.515625 -1.203125 Z M 21.203125 -9.6875 C 22.484375 -11.125 23.507812 -12.484375 24.28125 -13.765625 C 25.050781 -15.046875 25.785156 -16.671875 26.484375 -18.640625 C 26.742188 -19.546875 26.875 -20.640625 26.875 -21.921875 C 26.875 -23.515625 26.660156 -24.421875 26.234375 -24.640625 C 25.703125 -24.910156 25.171875 -25.046875 24.640625 -25.046875 C 23.460938 -25.046875 22.234375 -24.507812 20.953125 -23.4375 C 19.410156 -22.101562 18.023438 -20.460938 16.796875 -18.515625 C 15.566406 -16.566406 14.316406 -14.15625 13.046875 -11.28125 C 12.503906 -10.15625 12.234375 -9.0625 12.234375 -8 C 12.234375 -7.195312 12.429688 -6.554688 12.828125 -6.078125 C 13.234375 -5.597656 13.785156 -5.359375 14.484375 -5.359375 C 16.242188 -5.359375 18.484375 -6.800781 21.203125 -9.6875 Z M 21.203125 -9.6875 "/></g></g></g><g fill="#000000" fill-opacity="1"><g transform="translate(580.94334, 372.462656)"><g><path d="M 9.515625 -2.796875 C 9.085938 -3.117188 8.796875 -3.410156 8.640625 -3.671875 C 8.484375 -3.941406 8.40625 -4.34375 8.40625 -4.875 C 8.40625 -5.351562 8.429688 -5.753906 8.484375 -6.078125 C 8.640625 -7.890625 9.039062 -10 9.6875 -12.40625 L 10.078125 -14 C 10.234375 -15.332031 11.164062 -18.128906 12.875 -22.390625 C 14.582031 -26.660156 15.972656 -29.570312 17.046875 -31.125 C 17.472656 -31.382812 17.925781 -31.515625 18.40625 -31.515625 C 19.09375 -31.515625 19.675781 -31.273438 20.15625 -30.796875 C 20.476562 -30.585938 20.640625 -30.1875 20.640625 -29.59375 C 20.640625 -29.0625 20.4375 -28.273438 20.03125 -27.234375 C 19.632812 -26.203125 18.957031 -24.671875 18 -22.640625 C 17.789062 -22.210938 17.429688 -21.410156 16.921875 -20.234375 C 16.410156 -19.066406 16.15625 -18.375 16.15625 -18.15625 C 16.15625 -18.050781 16.179688 -18 16.234375 -18 C 16.347656 -18 16.457031 -18.035156 16.5625 -18.109375 C 16.664062 -18.191406 16.769531 -18.257812 16.875 -18.3125 C 17.46875 -19.332031 18.894531 -20.722656 21.15625 -22.484375 C 23.425781 -24.242188 24.988281 -25.335938 25.84375 -25.765625 C 26.21875 -25.972656 26.695312 -26.179688 27.28125 -26.390625 C 27.863281 -26.609375 28.265625 -26.769531 28.484375 -26.875 C 29.335938 -27.300781 30.347656 -27.515625 31.515625 -27.515625 C 32.265625 -27.515625 32.914062 -27.394531 33.46875 -27.15625 C 34.03125 -26.914062 34.421875 -26.554688 34.640625 -26.078125 C 34.691406 -25.703125 34.835938 -25.40625 35.078125 -25.1875 C 35.316406 -24.976562 35.488281 -24.847656 35.59375 -24.796875 C 35.757812 -24.796875 35.867188 -24.726562 35.921875 -24.59375 C 35.972656 -24.46875 36 -24.375 36 -24.3125 C 36 -23.945312 35.785156 -23.722656 35.359375 -23.640625 C 34.929688 -23.554688 34.160156 -23.488281 33.046875 -23.4375 C 32.453125 -23.382812 31.832031 -23.25 31.1875 -23.03125 C 30.550781 -22.820312 29.914062 -22.554688 29.28125 -22.234375 C 26.289062 -20.535156 24.0625 -19.203125 22.59375 -18.234375 C 21.132812 -17.273438 19.65625 -15.96875 18.15625 -14.3125 C 17.570312 -13.675781 16.800781 -12.53125 15.84375 -10.875 C 15.46875 -10.5 15.078125 -9.523438 14.671875 -7.953125 C 14.273438 -6.378906 14.078125 -5.410156 14.078125 -5.046875 C 14.023438 -4.878906 13.914062 -4.566406 13.75 -4.109375 C 13.59375 -3.660156 13.359375 -3.222656 13.046875 -2.796875 C 12.398438 -1.941406 11.863281 -1.515625 11.4375 -1.515625 C 10.957031 -1.515625 10.316406 -1.941406 9.515625 -2.796875 Z M 9.515625 -2.796875 "/></g></g></g><g fill="#000000" fill-opacity="1"><g transform="translate(609.740564, 372.462656)"><g><path d="M 8.953125 -0.40625 C 8.316406 -0.613281 7.648438 -1.238281 6.953125 -2.28125 C 6.265625 -3.320312 5.921875 -4.269531 5.921875 -5.125 L 7.046875 -8.484375 L 8.5625 -13.28125 C 9.039062 -13.96875 9.425781 -14.804688 9.71875 -15.796875 C 10.007812 -16.785156 10.179688 -17.359375 10.234375 -17.515625 C 10.773438 -18.535156 11.84375 -20.988281 13.4375 -24.875 L 14.953125 -28.5625 C 16.453125 -31.757812 17.679688 -34.640625 18.640625 -37.203125 L 19.921875 -40.15625 L 21.4375 -43.6875 C 23.300781 -48.21875 24.34375 -50.851562 24.5625 -51.59375 C 24.5625 -52.019531 24.65625 -52.335938 24.84375 -52.546875 C 25.03125 -52.765625 25.226562 -52.875 25.4375 -52.875 C 25.707031 -53.144531 26.132812 -53.28125 26.71875 -53.28125 C 26.988281 -53.28125 27.414062 -52.863281 28 -52.03125 C 28.582031 -51.207031 28.875 -50.503906 28.875 -49.921875 C 28.875 -49.015625 28.445312 -47.375 27.59375 -45 C 26.738281 -42.625 25.59375 -40 24.15625 -37.125 C 18.925781 -25.863281 16.523438 -20.019531 16.953125 -19.59375 C 17.171875 -19.707031 17.625 -19.9375 18.3125 -20.28125 C 19.007812 -20.625 19.734375 -21.0625 20.484375 -21.59375 C 20.960938 -21.863281 21.414062 -22.144531 21.84375 -22.4375 C 22.269531 -22.726562 22.640625 -22.984375 22.953125 -23.203125 C 24.609375 -24.316406 25.625 -24.929688 26 -25.046875 C 26.320312 -25.253906 26.9375 -25.625 27.84375 -26.15625 C 28.800781 -26.800781 29.304688 -27.148438 29.359375 -27.203125 C 29.992188 -27.523438 30.523438 -27.6875 30.953125 -27.6875 C 31.273438 -27.6875 31.566406 -27.578125 31.828125 -27.359375 C 32.097656 -27.148438 32.421875 -26.832031 32.796875 -26.40625 C 33.117188 -26.03125 33.28125 -25.65625 33.28125 -25.28125 C 33.28125 -24.90625 33.066406 -24.515625 32.640625 -24.109375 C 32.210938 -23.710938 31.492188 -23.195312 30.484375 -22.5625 C 29.785156 -22.082031 29.0625 -21.628906 28.3125 -21.203125 C 27.570312 -20.773438 26.851562 -20.347656 26.15625 -19.921875 C 22.320312 -17.578125 20.347656 -16.320312 20.234375 -16.15625 C 20.347656 -15.945312 20.601562 -15.46875 21 -14.71875 C 21.394531 -13.96875 21.78125 -13.328125 22.15625 -12.796875 L 23.359375 -10.71875 C 23.992188 -9.8125 24.3125 -9.222656 24.3125 -8.953125 C 24.800781 -7.617188 25.457031 -6.578125 26.28125 -5.828125 C 27.101562 -5.085938 27.992188 -4.71875 28.953125 -4.71875 C 29.441406 -4.71875 30.003906 -4.851562 30.640625 -5.125 C 31.441406 -5.4375 32.082031 -5.59375 32.5625 -5.59375 C 33.3125 -5.59375 33.816406 -5.164062 34.078125 -4.3125 C 34.234375 -4 34.3125 -3.757812 34.3125 -3.59375 C 34.3125 -3.382812 33.941406 -2.90625 33.203125 -2.15625 C 31.816406 -0.769531 30.398438 -0.078125 28.953125 -0.078125 C 28.472656 -0.078125 27.914062 -0.210938 27.28125 -0.484375 C 26.476562 -0.429688 25.476562 -0.960938 24.28125 -2.078125 C 23.082031 -3.203125 21.414062 -5.148438 19.28125 -7.921875 C 19.28125 -8.128906 18.988281 -8.820312 18.40625 -10 C 18.1875 -10.476562 17.941406 -10.914062 17.671875 -11.3125 C 17.410156 -11.71875 17.226562 -12 17.125 -12.15625 C 17.125 -12.375 17.003906 -12.65625 16.765625 -13 C 16.523438 -13.34375 16.347656 -13.625 16.234375 -13.84375 C 15.648438 -14 15.179688 -13.941406 14.828125 -13.671875 C 14.484375 -13.410156 14.164062 -13.039062 13.875 -12.5625 C 13.582031 -12.082031 13.359375 -11.734375 13.203125 -11.515625 C 12.671875 -10.128906 12.132812 -8.4375 11.59375 -6.4375 C 11.0625 -4.4375 10.878906 -3.144531 11.046875 -2.5625 C 11.046875 -1.707031 10.910156 -1.132812 10.640625 -0.84375 C 10.367188 -0.550781 9.804688 -0.40625 8.953125 -0.40625 Z M 8.953125 -0.40625 "/></g></g></g><g clip-path="url(#9ab46943ca)"><path fill="#000000" d="M 56.753906 68.003906 C 57.210938 66.300781 57.785156 64.628906 58.472656 63 C 58.3125 63.386719 58.144531 63.773438 57.980469 64.160156 C 58.96875 61.832031 60.195312 59.597656 61.742188 57.59375 C 61.488281 57.921875 61.238281 58.25 60.980469 58.574219 C 61.964844 57.3125 63.078125 56.15625 64.34375 55.171875 C 64.015625 55.425781 63.6875 55.675781 63.363281 55.929688 C 64.492188 55.0625 65.730469 54.367188 67.042969 53.8125 C 66.65625 53.972656 66.269531 54.140625 65.878906 54.300781 C 67.09375 53.792969 68.359375 53.410156 69.664062 53.230469 C 69.234375 53.289062 68.804688 53.347656 68.371094 53.402344 C 69.21875 53.289062 70.074219 53.269531 70.917969 53.375 C 70.488281 53.316406 70.058594 53.257812 69.625 53.203125 C 70.28125 53.292969 70.914062 53.460938 71.519531 53.714844 C 71.132812 53.550781 70.742188 53.386719 70.355469 53.222656 C 70.875 53.449219 71.363281 53.734375 71.816406 54.070312 C 71.484375 53.816406 71.15625 53.566406 70.832031 53.3125 C 71.351562 53.714844 71.808594 54.183594 72.21875 54.699219 C 71.960938 54.371094 71.710938 54.042969 71.457031 53.71875 C 72 54.429688 72.4375 55.214844 72.789062 56.042969 C 72.625 55.65625 72.457031 55.269531 72.296875 54.882812 C 72.890625 56.304688 73.230469 57.8125 73.441406 59.332031 C 73.382812 58.902344 73.324219 58.476562 73.269531 58.042969 C 73.738281 61.519531 73.554688 65.058594 73.195312 68.535156 C 73.09375 69.519531 72.976562 70.5 72.84375 71.480469 C 72.902344 71.050781 72.960938 70.625 73.015625 70.191406 C 72.589844 73.320312 72.109375 76.449219 71.457031 79.535156 C 70.714844 83.0625 69.753906 86.539062 68.574219 89.945312 C 67.960938 91.71875 67.285156 93.476562 66.554688 95.210938 C 66.714844 94.824219 66.882812 94.4375 67.042969 94.050781 C 64.976562 98.933594 62.445312 103.625 59.480469 108.027344 C 58.792969 109.046875 58.082031 110.050781 57.347656 111.042969 C 56.90625 111.796875 56.683594 112.617188 56.683594 113.492188 C 56.6875 114.371094 56.910156 115.183594 57.347656 115.945312 C 58.195312 117.386719 59.851562 118.394531 61.550781 118.347656 C 66.148438 118.214844 70.742188 118.082031 75.339844 117.953125 C 79.9375 117.828125 84.53125 117.691406 89.128906 117.5625 C 91.71875 117.488281 94.3125 117.414062 96.898438 117.339844 C 98.167969 117.308594 99.429688 116.828125 100.339844 115.921875 C 100.816406 115.480469 101.152344 114.960938 101.347656 114.355469 C 101.652344 113.777344 101.789062 113.15625 101.765625 112.488281 C 101.710938 111.234375 101.292969 109.929688 100.339844 109.054688 C 99.402344 108.199219 98.203125 107.59375 96.898438 107.632812 C 92.300781 107.765625 87.707031 107.898438 83.109375 108.027344 C 78.511719 108.160156 73.917969 108.292969 69.320312 108.417969 C 66.730469 108.492188 64.136719 108.566406 61.550781 108.640625 C 62.953125 111.074219 64.355469 113.507812 65.757812 115.945312 C 67.59375 113.457031 69.296875 110.875 70.847656 108.199219 C 72.898438 104.652344 74.636719 100.957031 76.199219 97.175781 C 77.832031 93.226562 79.167969 89.144531 80.183594 85 C 81.152344 81.0625 81.8125 77.050781 82.363281 73.035156 C 82.921875 68.925781 83.425781 64.785156 83.226562 60.632812 C 83.164062 59.316406 83 58.023438 82.820312 56.71875 C 82.703125 55.871094 82.542969 55.027344 82.324219 54.195312 C 82.019531 53.046875 81.5625 51.960938 81.074219 50.875 C 80.765625 50.1875 80.390625 49.53125 79.9375 48.929688 C 79.441406 48.265625 78.941406 47.574219 78.335938 46.992188 C 77.753906 46.433594 77.097656 45.9375 76.4375 45.488281 C 76.113281 45.261719 75.761719 45.070312 75.40625 44.902344 C 74.703125 44.585938 73.957031 44.246094 73.203125 44.042969 C 70.933594 43.421875 68.636719 43.542969 66.355469 43.988281 C 64.699219 44.3125 63.117188 44.96875 61.582031 45.667969 C 60.84375 46.007812 60.125 46.390625 59.449219 46.832031 C 57.652344 48.003906 55.992188 49.417969 54.613281 51.0625 C 53.277344 52.65625 52.0625 54.351562 51.058594 56.175781 C 50.152344 57.835938 49.394531 59.582031 48.707031 61.34375 C 48.304688 62.371094 47.945312 63.421875 47.632812 64.480469 C 47.539062 64.792969 47.449219 65.113281 47.367188 65.425781 C 47.039062 66.652344 47.214844 68.070312 47.855469 69.167969 C 48.164062 69.730469 48.582031 70.1875 49.109375 70.53125 C 49.582031 70.960938 50.132812 71.25 50.769531 71.398438 C 52.011719 71.683594 53.414062 71.617188 54.519531 70.90625 C 55.578125 70.226562 56.421875 69.25 56.753906 68.003906 Z M 56.753906 68.003906 " fill-opacity="1" fill-rule="nonzero"/></g><g clip-path="url(#18bfba1e5b)"><path fill="#000000" d="M 121.984375 102.402344 C 121.765625 101.753906 121.460938 101.1875 121.066406 100.777344 C 120.871094 100.558594 120.628906 100.34375 120.367188 100.167969 C 120.148438 100.015625 119.886719 99.886719 119.648438 99.777344 C 119.472656 99.714844 119.296875 99.648438 119.144531 99.582031 C 119.035156 99.539062 118.925781 99.496094 118.816406 99.453125 L 118.6875 99.386719 C 118.488281 99.300781 118.269531 99.214844 118.054688 99.148438 C 117.726562 99.082031 117.398438 99.039062 117.09375 98.996094 C 116.808594 98.953125 116.523438 98.953125 116.195312 98.933594 C 116.128906 98.933594 116.042969 98.933594 115.976562 98.933594 C 115.496094 98.933594 114.996094 98.976562 114.40625 99.0625 C 113.902344 99.128906 113.378906 99.257812 112.875 99.453125 C 112.613281 99.539062 112.351562 99.648438 112.132812 99.777344 C 111.894531 99.910156 111.652344 100.105469 111.433594 100.34375 C 111.214844 100.601562 111.019531 100.796875 110.867188 101.015625 C 110.800781 101.125 110.714844 101.230469 110.648438 101.339844 C 110.605469 101.40625 110.5625 101.46875 110.515625 101.535156 C 110.40625 101.710938 110.296875 101.859375 110.234375 102.035156 C 110.144531 102.207031 110.058594 102.425781 109.992188 102.664062 C 109.949219 102.835938 109.90625 103.011719 109.882812 103.183594 C 109.863281 103.226562 109.863281 103.292969 109.839844 103.335938 C 109.773438 103.617188 109.730469 103.902344 109.6875 104.292969 C 109.621094 104.835938 109.601562 105.398438 109.644531 106.027344 C 109.664062 106.308594 109.6875 106.65625 109.773438 106.984375 C 109.863281 107.285156 109.972656 107.589844 110.125 107.871094 C 110.253906 108.109375 110.429688 108.371094 110.671875 108.652344 C 110.800781 108.828125 110.976562 108.980469 111.128906 109.128906 L 111.261719 109.261719 C 111.675781 109.671875 112.175781 110.019531 112.789062 110.324219 C 113.074219 110.453125 113.378906 110.5625 113.75 110.671875 C 114.097656 110.757812 114.46875 110.824219 114.753906 110.867188 C 115.015625 110.910156 115.300781 110.910156 115.671875 110.933594 C 115.757812 110.933594 115.824219 110.933594 115.914062 110.933594 C 115.976562 110.933594 116.042969 110.933594 116.109375 110.933594 C 116.328125 110.933594 116.523438 110.886719 116.675781 110.867188 C 116.960938 110.824219 117.246094 110.757812 117.550781 110.648438 C 117.855469 110.5625 118.160156 110.410156 118.445312 110.28125 C 118.578125 110.214844 118.730469 110.152344 118.882812 110.0625 C 118.992188 110 119.101562 109.933594 119.1875 109.867188 L 119.253906 109.824219 C 119.496094 109.652344 119.734375 109.457031 120.039062 109.175781 C 120.300781 108.933594 120.5 108.71875 120.675781 108.523438 C 120.914062 108.261719 121.089844 107.9375 121.265625 107.65625 C 121.4375 107.351562 121.570312 107.027344 121.699219 106.722656 C 121.808594 106.460938 121.917969 106.179688 121.984375 105.917969 C 122.070312 105.617188 122.117188 105.289062 122.160156 104.984375 C 122.179688 104.726562 122.203125 104.445312 122.226562 104.117188 C 122.226562 103.769531 122.179688 103.421875 122.136719 103.140625 C 122.136719 102.925781 122.070312 102.6875 121.984375 102.402344 Z M 121.984375 102.402344 " fill-opacity="1" fill-rule="nonzero"/></g></svg>