<svg xmlns="http://www.w3.org/2000/svg" xmlns:xlink="http://www.w3.org/1999/xlink" width="1080" zoomAndPan="magnify" viewBox="0 0 810 809.999993" height="1080" preserveAspectRatio="xMidYMid meet" version="1.0"><defs><g/><clipPath id="9cdfb3969c"><path d="M 120 91 L 691 91 L 691 719.695312 L 120 719.695312 Z M 120 91 " clip-rule="nonzero"/></clipPath><clipPath id="5e4ac66633"><path d="M 49.269531 73.496094 L 104 73.496094 L 104 148.496094 L 49.269531 148.496094 Z M 49.269531 73.496094 " clip-rule="nonzero"/></clipPath><clipPath id="7999344071"><path d="M 111.765625 129.015625 L 124.515625 129.015625 L 124.515625 141.015625 L 111.765625 141.015625 Z M 111.765625 129.015625 " clip-rule="nonzero"/></clipPath></defs><path fill="#efcdb9" d="M 314.507812 125.882812 C 362.800781 119.710938 412.582031 133.246094 458.621094 149.664062 C 543.785156 180.019531 628.957031 226.152344 672.839844 308.527344 C 687.074219 335.25 693.765625 363.75 701.613281 392.746094 C 722.460938 469.820312 773.480469 553.050781 701.5625 618.621094 C 691.335938 627.9375 679.582031 635.8125 667.152344 641.886719 C 650.222656 650.148438 632.601562 656.035156 614.199219 659.980469 C 558.925781 671.8125 506.363281 665.9375 455.722656 640.828125 C 411.84375 619.0625 374.894531 586.222656 327.386719 571.214844 C 263.910156 551.179688 196.910156 554.050781 151.386719 497.042969 C 102.164062 435.40625 92.632812 355.34375 111.28125 280.6875 C 119.773438 246.6875 131.296875 211.660156 158.578125 187.980469 C 199.371094 152.550781 264.503906 132.273438 314.507812 125.882812 Z M 314.507812 125.882812 " fill-opacity="1" fill-rule="evenodd"/><g clip-path="url(#9cdfb3969c)"><path fill="#000000" d="M 421.800781 108.507812 C 440.542969 113.394531 458.320312 121.3125 475.242188 131.113281 C 500.460938 145.722656 523.769531 164.5 545.476562 183.722656 C 579.066406 213.460938 611.207031 246.816406 636.214844 284.234375 C 661.230469 321.675781 679.105469 363.179688 684.070312 409.222656 C 685.351562 421.101562 685.421875 432.789062 684.824219 444.425781 C 683.921875 462.074219 681.488281 479.609375 679.375 497.472656 C 673.78125 544.71875 677.433594 598.054688 661.722656 640.488281 C 651.414062 668.324219 632.617188 691.378906 596.96875 704.667969 C 590.617188 707.039062 584.046875 708.941406 577.378906 710.371094 C 570.703125 711.800781 563.925781 712.757812 557.160156 713.242188 C 547.886719 713.914062 538.675781 713.972656 529.492188 713.472656 C 520.300781 712.957031 511.136719 711.898438 501.976562 710.3125 C 474.464844 705.539062 449.199219 696.980469 426.171875 684.390625 C 403.125 671.796875 382.316406 655.179688 363.71875 634.3125 C 340.878906 608.6875 323.230469 579.292969 301.460938 553.109375 C 292.066406 541.804688 281.910156 531.101562 270.269531 521.539062 C 239.300781 496.074219 204.03125 477.863281 176.320312 452.097656 C 158.421875 435.449219 143.714844 415.613281 135.546875 388.417969 C 124.347656 351.144531 123.933594 313.300781 131.871094 277.101562 C 139.835938 240.757812 156.214844 206.074219 178.558594 175.21875 C 190.75 158.382812 204.0625 141.605469 220.058594 128.371094 C 230.59375 119.652344 242.296875 112.464844 255.628906 107.863281 C 280.582031 99.230469 309.636719 96.230469 338.457031 96.886719 C 368.019531 97.574219 397.34375 102.117188 421.800781 108.507812 Z M 423.242188 102.976562 C 398.402344 96.488281 368.617188 91.855469 338.585938 91.171875 C 309.070312 90.5 279.320312 93.628906 253.761719 102.460938 C 239.769531 107.292969 227.472656 114.808594 216.414062 123.957031 C 200.050781 137.503906 186.40625 154.636719 173.933594 171.859375 C 151.121094 203.359375 134.421875 238.785156 126.289062 275.871094 C 118.148438 313.015625 118.589844 351.832031 130.074219 390.058594 C 138.5625 418.328125 153.820312 438.980469 172.433594 456.285156 C 200.222656 482.125 235.582031 500.402344 266.644531 525.957031 C 278 535.289062 287.902344 545.734375 297.070312 556.765625 C 318.882812 582.992188 336.570312 612.445312 359.453125 638.113281 C 378.503906 659.492188 399.824219 676.515625 423.429688 689.40625 C 447 702.296875 472.847656 711.070312 501 715.945312 C 510.382812 717.558594 519.765625 718.660156 529.179688 719.175781 C 538.601562 719.6875 548.054688 719.632812 557.570312 718.945312 C 564.597656 718.445312 571.640625 717.445312 578.574219 715.957031 C 585.515625 714.472656 592.351562 712.5 598.964844 710.027344 C 636.476562 696.039062 656.230469 671.769531 667.078125 642.472656 C 682.9375 599.640625 679.402344 545.835938 685.046875 498.144531 C 687.175781 480.152344 689.621094 462.488281 690.53125 444.710938 C 691.144531 432.777344 691.0625 420.785156 689.75 408.625 C 685.699219 371.039062 673.25 336.410156 655.371094 304.511719 C 628.75 257.019531 590.078125 215.578125 549.265625 179.433594 C 527.277344 159.96875 503.652344 140.960938 478.101562 126.171875 C 460.734375 116.109375 442.480469 107.992188 423.242188 102.976562 Z M 423.242188 102.976562 " fill-opacity="1" fill-rule="evenodd"/></g><g fill="#000000" fill-opacity="1"><g transform="translate(148.105425, 372.462656)"><g><path d="M 18 7.59375 C 16.613281 7.8125 15.707031 7.921875 15.28125 7.921875 C 14.21875 7.921875 12.9375 7.707031 11.4375 7.28125 C 10.75 7.0625 10.242188 6.816406 9.921875 6.546875 C 9.597656 6.285156 9.234375 5.898438 8.828125 5.390625 C 8.429688 4.890625 8.128906 4.503906 7.921875 4.234375 C 6.960938 2.898438 6.484375 1.726562 6.484375 0.71875 C 6.484375 -0.0820312 6.851562 -0.375 7.59375 -0.15625 C 8.132812 0.101562 8.722656 0.632812 9.359375 1.4375 C 9.992188 2.082031 10.6875 2.550781 11.4375 2.84375 C 12.1875 3.132812 13.09375 3.28125 14.15625 3.28125 C 14.53125 3.28125 15.25 3.226562 16.3125 3.125 C 17.59375 2.90625 19.085938 2.503906 20.796875 1.921875 C 22.503906 1.335938 23.757812 0.722656 24.5625 0.078125 C 27.125 -1.679688 29.21875 -3.09375 30.84375 -4.15625 C 32.46875 -5.226562 33.492188 -5.894531 33.921875 -6.15625 C 34.023438 -6.425781 34.582031 -6.75 35.59375 -7.125 L 37.765625 -9.203125 C 39.148438 -10.691406 40.054688 -11.597656 40.484375 -11.921875 C 40.535156 -12.296875 40.625 -12.679688 40.75 -13.078125 C 40.882812 -13.484375 40.953125 -13.789062 40.953125 -14 C 41.597656 -14.695312 42.5625 -16.363281 43.84375 -19 C 45.125 -21.632812 46.003906 -23.914062 46.484375 -25.84375 C 46.960938 -28.34375 47.203125 -30.554688 47.203125 -32.484375 C 47.203125 -35.734375 46.628906 -38.460938 45.484375 -40.671875 C 44.335938 -42.890625 42.671875 -44.929688 40.484375 -46.796875 C 39.359375 -47.703125 37.503906 -48.703125 34.921875 -49.796875 C 32.335938 -50.890625 30.832031 -51.359375 30.40625 -51.203125 C 30.132812 -51.148438 29.410156 -49.613281 28.234375 -46.59375 C 27.066406 -43.582031 25.46875 -39.25 23.4375 -33.59375 L 20.875 -26.484375 C 20.664062 -25.628906 20.425781 -24.828125 20.15625 -24.078125 C 19.894531 -23.328125 19.679688 -22.660156 19.515625 -22.078125 C 18.828125 -20.109375 18.484375 -18.988281 18.484375 -18.71875 C 17.890625 -17.8125 17.421875 -16.625 17.078125 -15.15625 C 16.734375 -13.6875 16.347656 -11.195312 15.921875 -7.6875 C 15.441406 -5.925781 15.226562 -5.125 15.28125 -5.28125 C 15.0625 -4.375 14.875 -3.625 14.71875 -3.03125 C 14.5625 -2.445312 14.398438 -2.179688 14.234375 -2.234375 L 13.921875 -1.921875 C 13.921875 -1.597656 13.679688 -1.4375 13.203125 -1.4375 C 12.773438 -1.4375 12.289062 -1.554688 11.75 -1.796875 C 11.21875 -2.035156 10.796875 -2.316406 10.484375 -2.640625 C 10.265625 -3.390625 10.15625 -3.921875 10.15625 -4.234375 C 10.15625 -4.929688 10.367188 -6 10.796875 -7.4375 C 11.222656 -9.25 11.929688 -11.796875 12.921875 -15.078125 C 13.910156 -18.359375 14.75 -21.039062 15.4375 -23.125 C 15.8125 -24.03125 16.347656 -25.734375 17.046875 -28.234375 C 17.628906 -30.210938 18.28125 -32.238281 19 -34.3125 C 19.71875 -36.394531 20.238281 -37.703125 20.5625 -38.234375 C 20.664062 -38.609375 21.023438 -39.675781 21.640625 -41.4375 C 22.253906 -43.195312 22.988281 -45.144531 23.84375 -47.28125 L 24.40625 -49.921875 L 23.515625 -50.3125 C 23.035156 -50.15625 22.609375 -50.078125 22.234375 -50.078125 C 21.972656 -50.078125 21.679688 -50.15625 21.359375 -50.3125 C 20.828125 -50.15625 20.09375 -50.382812 19.15625 -51 C 18.226562 -51.613281 17.707031 -52.1875 17.59375 -52.71875 C 17.488281 -52.875 17.421875 -53.113281 17.390625 -53.4375 C 17.367188 -53.757812 17.359375 -53.972656 17.359375 -54.078125 C 17.460938 -54.609375 18.523438 -55.097656 20.546875 -55.546875 C 22.578125 -56.003906 24.796875 -56.234375 27.203125 -56.234375 C 28.210938 -56.234375 28.984375 -56.207031 29.515625 -56.15625 C 30.472656 -56.101562 31.390625 -55.941406 32.265625 -55.671875 C 33.148438 -55.410156 34.234375 -55.015625 35.515625 -54.484375 L 37.4375 -53.765625 C 39.144531 -53.117188 40.972656 -51.992188 42.921875 -50.390625 C 44.867188 -48.796875 46.601562 -46.914062 48.125 -44.75 C 49.644531 -42.59375 50.671875 -40.394531 51.203125 -38.15625 C 51.359375 -37.46875 51.515625 -36.507812 51.671875 -35.28125 C 51.835938 -34.050781 51.921875 -32.957031 51.921875 -32 C 51.921875 -30.875 51.8125 -30.179688 51.59375 -29.921875 C 51.4375 -29.703125 51.359375 -29.429688 51.359375 -29.109375 C 51.359375 -28.796875 51.46875 -28.613281 51.6875 -28.5625 C 51.570312 -28.238281 51.378906 -27.648438 51.109375 -26.796875 C 50.847656 -25.941406 50.554688 -25.035156 50.234375 -24.078125 C 49.921875 -20.722656 48.429688 -16.773438 45.765625 -12.234375 C 45.492188 -12.234375 45.273438 -12.191406 45.109375 -12.109375 C 44.953125 -12.035156 44.984375 -11.972656 45.203125 -11.921875 C 45.203125 -11.648438 44.90625 -11.144531 44.3125 -10.40625 C 44.15625 -10.289062 43.820312 -9.898438 43.3125 -9.234375 C 42.8125 -8.566406 42.453125 -8.15625 42.234375 -8 C 42.179688 -7.625 42.019531 -7.316406 41.75 -7.078125 C 41.488281 -6.835938 41.253906 -6.71875 41.046875 -6.71875 C 41.046875 -6.71875 41.003906 -6.703125 40.921875 -6.671875 C 40.835938 -6.648438 40.796875 -6.5625 40.796875 -6.40625 C 39.835938 -5.007812 38.09375 -3.296875 35.5625 -1.265625 C 33.03125 0.753906 30.773438 2.191406 28.796875 3.046875 C 28.265625 3.410156 27.640625 3.753906 26.921875 4.078125 C 26.203125 4.398438 25.707031 4.613281 25.4375 4.71875 C 25.007812 5.09375 23.925781 5.613281 22.1875 6.28125 C 20.457031 6.945312 19.0625 7.382812 18 7.59375 Z M 18 7.59375 "/></g></g></g><g fill="#000000" fill-opacity="1"><g transform="translate(194.340938, 372.462656)"><g><path d="M 13.515625 -1.203125 C 12.878906 -1.203125 12.375 -1.304688 12 -1.515625 C 11.625 -1.734375 11.09375 -2.132812 10.40625 -2.71875 C 8.644531 -4.582031 7.765625 -6.289062 7.765625 -7.84375 C 7.765625 -8.21875 7.789062 -8.484375 7.84375 -8.640625 C 8 -9.015625 8.0625 -9.382812 8.03125 -9.75 C 8.007812 -10.125 8 -10.367188 8 -10.484375 C 7.789062 -10.691406 7.6875 -10.835938 7.6875 -10.921875 C 7.6875 -11.003906 7.738281 -11.082031 7.84375 -11.15625 C 7.945312 -11.238281 8.023438 -11.332031 8.078125 -11.4375 C 8.398438 -11.4375 8.507812 -11.726562 8.40625 -12.3125 C 8.289062 -12.738281 8.5 -13.6875 9.03125 -15.15625 C 9.570312 -16.625 10.242188 -17.972656 11.046875 -19.203125 C 11.628906 -20.160156 12.492188 -21.359375 13.640625 -22.796875 C 14.785156 -24.234375 15.8125 -25.328125 16.71875 -26.078125 C 18 -27.203125 19.144531 -28.03125 20.15625 -28.5625 C 21.175781 -29.09375 22.296875 -29.492188 23.515625 -29.765625 C 24.585938 -30.023438 25.3125 -30.15625 25.6875 -30.15625 C 26.050781 -30.15625 26.378906 -30.0625 26.671875 -29.875 C 26.972656 -29.6875 27.363281 -29.351562 27.84375 -28.875 C 29.28125 -28.238281 30.28125 -27.425781 30.84375 -26.4375 C 31.40625 -25.445312 31.6875 -23.914062 31.6875 -21.84375 C 31.6875 -18.375 30.269531 -14.613281 27.4375 -10.5625 C 26.207031 -8.800781 25.0625 -7.453125 24 -6.515625 C 22.9375 -5.585938 21.523438 -4.585938 19.765625 -3.515625 C 18.640625 -2.710938 17.609375 -2.140625 16.671875 -1.796875 C 15.742188 -1.453125 14.691406 -1.253906 13.515625 -1.203125 Z M 21.203125 -9.6875 C 22.484375 -11.125 23.507812 -12.484375 24.28125 -13.765625 C 25.050781 -15.046875 25.785156 -16.671875 26.484375 -18.640625 C 26.742188 -19.546875 26.875 -20.640625 26.875 -21.921875 C 26.875 -23.515625 26.660156 -24.421875 26.234375 -24.640625 C 25.703125 -24.910156 25.171875 -25.046875 24.640625 -25.046875 C 23.460938 -25.046875 22.234375 -24.507812 20.953125 -23.4375 C 19.410156 -22.101562 18.023438 -20.460938 16.796875 -18.515625 C 15.566406 -16.566406 14.316406 -14.15625 13.046875 -11.28125 C 12.503906 -10.15625 12.234375 -9.0625 12.234375 -8 C 12.234375 -7.195312 12.429688 -6.554688 12.828125 -6.078125 C 13.234375 -5.597656 13.785156 -5.359375 14.484375 -5.359375 C 16.242188 -5.359375 18.484375 -6.800781 21.203125 -9.6875 Z M 21.203125 -9.6875 "/></g></g></g><g fill="#000000" fill-opacity="1"><g transform="translate(222.578191, 372.462656)"><g/></g></g><g fill="#000000" fill-opacity="1"><g transform="translate(241.936307, 372.462656)"><g><path d="M 31.359375 -29.515625 C 32.210938 -28.660156 32.640625 -27.78125 32.640625 -26.875 C 32.640625 -25.914062 32 -24.238281 30.71875 -21.84375 C 30.289062 -20.613281 29.820312 -19.460938 29.3125 -18.390625 C 28.8125 -17.328125 28.425781 -16.632812 28.15625 -16.3125 L 26.3125 -12.078125 C 25.519531 -10.316406 24.535156 -8.265625 23.359375 -5.921875 C 21.921875 -2.929688 20.90625 -0.71875 20.3125 0.71875 L 19.28125 2.40625 C 16.613281 6.664062 14.5625 9.648438 13.125 11.359375 C 10.1875 13.972656 7.914062 15.492188 6.3125 15.921875 C 5.625 16.128906 4.800781 16.234375 3.84375 16.234375 C 2.082031 16.234375 0.414062 15.847656 -1.15625 15.078125 C -2.726562 14.304688 -3.625 13.414062 -3.84375 12.40625 C -3.894531 12.03125 -3.757812 11.628906 -3.4375 11.203125 C -3.113281 10.773438 -2.769531 10.5625 -2.40625 10.5625 C -2.132812 10.5625 -1.921875 10.664062 -1.765625 10.875 C -1.335938 11.195312 -0.710938 11.503906 0.109375 11.796875 C 0.941406 12.085938 1.835938 12.234375 2.796875 12.234375 C 3.171875 12.234375 3.675781 12.179688 4.3125 12.078125 C 5.382812 11.867188 6.503906 11.226562 7.671875 10.15625 C 8.847656 9.09375 9.914062 7.921875 10.875 6.640625 C 12.6875 3.972656 14.632812 0.640625 16.71875 -3.359375 C 15.96875 -3.578125 15.242188 -4.097656 14.546875 -4.921875 C 13.859375 -5.742188 13.3125 -6.609375 12.90625 -7.515625 C 12.507812 -8.421875 12.367188 -9.085938 12.484375 -9.515625 L 12.484375 -10.40625 C 12.003906 -10.40625 11.613281 -11.3125 11.3125 -13.125 C 11.019531 -14.9375 10.875 -17.039062 10.875 -19.4375 C 10.875 -20.34375 10.929688 -21.488281 11.046875 -22.875 C 11.253906 -23.726562 11.367188 -24.78125 11.390625 -26.03125 C 11.421875 -27.289062 11.4375 -28.109375 11.4375 -28.484375 L 11.4375 -28.796875 C 11.4375 -29.441406 11.503906 -29.894531 11.640625 -30.15625 C 11.773438 -30.425781 12 -30.664062 12.3125 -30.875 C 12.738281 -31.09375 13.164062 -31.203125 13.59375 -31.203125 C 15.09375 -31.203125 15.84375 -29.226562 15.84375 -25.28125 C 15.84375 -24.695312 15.789062 -23.550781 15.6875 -21.84375 C 15.625 -21.09375 15.59375 -19.972656 15.59375 -18.484375 C 15.59375 -15.703125 15.832031 -13.242188 16.3125 -11.109375 C 16.800781 -8.984375 17.523438 -7.519531 18.484375 -6.71875 L 18.953125 -7.84375 C 19.546875 -9.382812 20 -10.367188 20.3125 -10.796875 C 21.0625 -12.347656 21.488281 -13.335938 21.59375 -13.765625 C 21.707031 -14.128906 22.003906 -14.738281 22.484375 -15.59375 L 23.515625 -17.765625 C 23.628906 -18.078125 23.976562 -19.097656 24.5625 -20.828125 C 25.144531 -22.566406 25.726562 -23.972656 26.3125 -25.046875 C 26.53125 -25.472656 26.851562 -26.097656 27.28125 -26.921875 C 27.707031 -27.742188 28.050781 -28.34375 28.3125 -28.71875 C 28.582031 -29.09375 28.878906 -29.332031 29.203125 -29.4375 C 29.628906 -29.8125 29.972656 -30 30.234375 -30 C 30.453125 -30 30.828125 -29.835938 31.359375 -29.515625 Z M 31.359375 -29.515625 "/></g></g></g><g fill="#000000" fill-opacity="1"><g transform="translate(269.213653, 372.462656)"><g><path d="M 13.515625 -1.203125 C 12.878906 -1.203125 12.375 -1.304688 12 -1.515625 C 11.625 -1.734375 11.09375 -2.132812 10.40625 -2.71875 C 8.644531 -4.582031 7.765625 -6.289062 7.765625 -7.84375 C 7.765625 -8.21875 7.789062 -8.484375 7.84375 -8.640625 C 8 -9.015625 8.0625 -9.382812 8.03125 -9.75 C 8.007812 -10.125 8 -10.367188 8 -10.484375 C 7.789062 -10.691406 7.6875 -10.835938 7.6875 -10.921875 C 7.6875 -11.003906 7.738281 -11.082031 7.84375 -11.15625 C 7.945312 -11.238281 8.023438 -11.332031 8.078125 -11.4375 C 8.398438 -11.4375 8.507812 -11.726562 8.40625 -12.3125 C 8.289062 -12.738281 8.5 -13.6875 9.03125 -15.15625 C 9.570312 -16.625 10.242188 -17.972656 11.046875 -19.203125 C 11.628906 -20.160156 12.492188 -21.359375 13.640625 -22.796875 C 14.785156 -24.234375 15.8125 -25.328125 16.71875 -26.078125 C 18 -27.203125 19.144531 -28.03125 20.15625 -28.5625 C 21.175781 -29.09375 22.296875 -29.492188 23.515625 -29.765625 C 24.585938 -30.023438 25.3125 -30.15625 25.6875 -30.15625 C 26.050781 -30.15625 26.378906 -30.0625 26.671875 -29.875 C 26.972656 -29.6875 27.363281 -29.351562 27.84375 -28.875 C 29.28125 -28.238281 30.28125 -27.425781 30.84375 -26.4375 C 31.40625 -25.445312 31.6875 -23.914062 31.6875 -21.84375 C 31.6875 -18.375 30.269531 -14.613281 27.4375 -10.5625 C 26.207031 -8.800781 25.0625 -7.453125 24 -6.515625 C 22.9375 -5.585938 21.523438 -4.585938 19.765625 -3.515625 C 18.640625 -2.710938 17.609375 -2.140625 16.671875 -1.796875 C 15.742188 -1.453125 14.691406 -1.253906 13.515625 -1.203125 Z M 21.203125 -9.6875 C 22.484375 -11.125 23.507812 -12.484375 24.28125 -13.765625 C 25.050781 -15.046875 25.785156 -16.671875 26.484375 -18.640625 C 26.742188 -19.546875 26.875 -20.640625 26.875 -21.921875 C 26.875 -23.515625 26.660156 -24.421875 26.234375 -24.640625 C 25.703125 -24.910156 25.171875 -25.046875 24.640625 -25.046875 C 23.460938 -25.046875 22.234375 -24.507812 20.953125 -23.4375 C 19.410156 -22.101562 18.023438 -20.460938 16.796875 -18.515625 C 15.566406 -16.566406 14.316406 -14.15625 13.046875 -11.28125 C 12.503906 -10.15625 12.234375 -9.0625 12.234375 -8 C 12.234375 -7.195312 12.429688 -6.554688 12.828125 -6.078125 C 13.234375 -5.597656 13.785156 -5.359375 14.484375 -5.359375 C 16.242188 -5.359375 18.484375 -6.800781 21.203125 -9.6875 Z M 21.203125 -9.6875 "/></g></g></g><g fill="#000000" fill-opacity="1"><g transform="translate(297.450906, 372.462656)"><g><path d="M 27.125 -0.15625 C 25.84375 -1.382812 24.878906 -3.195312 24.234375 -5.59375 C 24.128906 -5.914062 24.078125 -6.476562 24.078125 -7.28125 C 24.078125 -8.082031 24.078125 -8.640625 24.078125 -8.953125 C 23.753906 -8.160156 23.164062 -7.441406 22.3125 -6.796875 C 21.09375 -5.566406 19.867188 -4.660156 18.640625 -4.078125 C 16.773438 -2.847656 15.253906 -2.234375 14.078125 -2.234375 C 13.015625 -2.234375 12.003906 -2.820312 11.046875 -4 C 10.347656 -4.582031 9.820312 -5.164062 9.46875 -5.75 C 9.125 -6.34375 8.953125 -7.066406 8.953125 -7.921875 C 8.953125 -8.503906 9.035156 -9.144531 9.203125 -9.84375 C 9.304688 -11.8125 9.582031 -13.703125 10.03125 -15.515625 C 10.488281 -17.328125 11.359375 -19.648438 12.640625 -22.484375 C 14.347656 -25.835938 15.570312 -28.078125 16.3125 -29.203125 C 16.582031 -29.304688 16.929688 -29.359375 17.359375 -29.359375 C 17.890625 -29.359375 18.328125 -29.195312 18.671875 -28.875 C 19.023438 -28.5625 19.226562 -28.132812 19.28125 -27.59375 C 19.4375 -27.382812 19.515625 -27.09375 19.515625 -26.71875 C 19.515625 -25.382812 18.71875 -23.195312 17.125 -20.15625 C 15.039062 -15.144531 14 -11.679688 14 -9.765625 C 14 -8.640625 14.316406 -7.972656 14.953125 -7.765625 C 15.222656 -7.597656 15.519531 -7.515625 15.84375 -7.515625 C 17.175781 -7.515625 18.773438 -8.421875 20.640625 -10.234375 C 22.503906 -12.046875 24.289062 -14.953125 26 -18.953125 C 26.75 -20.773438 27.203125 -22.644531 27.359375 -24.5625 C 27.304688 -24.71875 27.28125 -24.957031 27.28125 -25.28125 C 27.28125 -26.238281 27.757812 -27.007812 28.71875 -27.59375 C 28.9375 -27.914062 29.226562 -28.171875 29.59375 -28.359375 C 29.96875 -28.546875 30.207031 -28.53125 30.3125 -28.3125 L 31.59375 -28.40625 C 31.757812 -28.457031 31.921875 -28.304688 32.078125 -27.953125 C 32.234375 -27.609375 32.394531 -27.382812 32.5625 -27.28125 C 32.9375 -26.957031 33.125 -26.367188 33.125 -25.515625 C 33.125 -23.753906 32.347656 -21.0625 30.796875 -17.4375 C 29.785156 -15.300781 29.101562 -13.660156 28.75 -12.515625 C 28.40625 -11.367188 28.207031 -10.265625 28.15625 -9.203125 C 28.15625 -7.171875 28.929688 -5.488281 30.484375 -4.15625 C 31.015625 -3.78125 31.332031 -3.378906 31.4375 -2.953125 C 31.539062 -2.523438 31.566406 -1.941406 31.515625 -1.203125 C 31.410156 -0.722656 31.101562 -0.332031 30.59375 -0.03125 C 30.09375 0.257812 29.546875 0.40625 28.953125 0.40625 C 28.265625 0.40625 27.65625 0.21875 27.125 -0.15625 Z M 27.125 -0.15625 "/></g></g></g><g fill="#000000" fill-opacity="1"><g transform="translate(327.048027, 372.462656)"><g><path d="M 9.515625 -2.796875 C 9.085938 -3.117188 8.796875 -3.410156 8.640625 -3.671875 C 8.484375 -3.941406 8.40625 -4.34375 8.40625 -4.875 C 8.40625 -5.351562 8.429688 -5.753906 8.484375 -6.078125 C 8.640625 -7.890625 9.039062 -10 9.6875 -12.40625 L 10.078125 -14 C 10.234375 -15.332031 11.164062 -18.128906 12.875 -22.390625 C 14.582031 -26.660156 15.972656 -29.570312 17.046875 -31.125 C 17.472656 -31.382812 17.925781 -31.515625 18.40625 -31.515625 C 19.09375 -31.515625 19.675781 -31.273438 20.15625 -30.796875 C 20.476562 -30.585938 20.640625 -30.1875 20.640625 -29.59375 C 20.640625 -29.0625 20.4375 -28.273438 20.03125 -27.234375 C 19.632812 -26.203125 18.957031 -24.671875 18 -22.640625 C 17.789062 -22.210938 17.429688 -21.410156 16.921875 -20.234375 C 16.410156 -19.066406 16.15625 -18.375 16.15625 -18.15625 C 16.15625 -18.050781 16.179688 -18 16.234375 -18 C 16.347656 -18 16.457031 -18.035156 16.5625 -18.109375 C 16.664062 -18.191406 16.769531 -18.257812 16.875 -18.3125 C 17.46875 -19.332031 18.894531 -20.722656 21.15625 -22.484375 C 23.425781 -24.242188 24.988281 -25.335938 25.84375 -25.765625 C 26.21875 -25.972656 26.695312 -26.179688 27.28125 -26.390625 C 27.863281 -26.609375 28.265625 -26.769531 28.484375 -26.875 C 29.335938 -27.300781 30.347656 -27.515625 31.515625 -27.515625 C 32.265625 -27.515625 32.914062 -27.394531 33.46875 -27.15625 C 34.03125 -26.914062 34.421875 -26.554688 34.640625 -26.078125 C 34.691406 -25.703125 34.835938 -25.40625 35.078125 -25.1875 C 35.316406 -24.976562 35.488281 -24.847656 35.59375 -24.796875 C 35.757812 -24.796875 35.867188 -24.726562 35.921875 -24.59375 C 35.972656 -24.46875 36 -24.375 36 -24.3125 C 36 -23.945312 35.785156 -23.722656 35.359375 -23.640625 C 34.929688 -23.554688 34.160156 -23.488281 33.046875 -23.4375 C 32.453125 -23.382812 31.832031 -23.25 31.1875 -23.03125 C 30.550781 -22.820312 29.914062 -22.554688 29.28125 -22.234375 C 26.289062 -20.535156 24.0625 -19.203125 22.59375 -18.234375 C 21.132812 -17.273438 19.65625 -15.96875 18.15625 -14.3125 C 17.570312 -13.675781 16.800781 -12.53125 15.84375 -10.875 C 15.46875 -10.5 15.078125 -9.523438 14.671875 -7.953125 C 14.273438 -6.378906 14.078125 -5.410156 14.078125 -5.046875 C 14.023438 -4.878906 13.914062 -4.566406 13.75 -4.109375 C 13.59375 -3.660156 13.359375 -3.222656 13.046875 -2.796875 C 12.398438 -1.941406 11.863281 -1.515625 11.4375 -1.515625 C 10.957031 -1.515625 10.316406 -1.941406 9.515625 -2.796875 Z M 9.515625 -2.796875 "/></g></g></g><g fill="#000000" fill-opacity="1"><g transform="translate(355.845229, 372.462656)"><g/></g></g><g fill="#000000" fill-opacity="1"><g transform="translate(375.203345, 372.462656)"><g><path d="M 10.40625 -4.3125 C 9.601562 -4.3125 8.988281 -4.5 8.5625 -4.875 C 8.132812 -5.25 7.851562 -5.539062 7.71875 -5.75 C 7.582031 -5.96875 7.515625 -6.238281 7.515625 -6.5625 C 7.515625 -6.769531 7.703125 -7.753906 8.078125 -9.515625 L 8.796875 -12.15625 C 9.328125 -14.34375 9.804688 -16.15625 10.234375 -17.59375 C 10.453125 -18.925781 10.867188 -20.335938 11.484375 -21.828125 C 12.097656 -23.328125 12.457031 -24.238281 12.5625 -24.5625 C 12.988281 -26.101562 13.816406 -28.503906 15.046875 -31.765625 L 17.4375 -38.234375 C 19.300781 -43.304688 20.421875 -46.398438 20.796875 -47.515625 L 22.078125 -51.046875 C 22.078125 -51.890625 22.503906 -52.3125 23.359375 -52.3125 C 24.109375 -52.3125 24.734375 -51.898438 25.234375 -51.078125 C 25.742188 -50.253906 26 -49.304688 26 -48.234375 C 26 -47.441406 25.835938 -46.671875 25.515625 -45.921875 C 24.773438 -44.316406 23.960938 -42.300781 23.078125 -39.875 C 22.203125 -37.445312 21.628906 -35.863281 21.359375 -35.125 C 19.546875 -30 18.238281 -26.582031 17.4375 -24.875 C 17.4375 -24.664062 17.351562 -24.289062 17.1875 -23.75 C 17.03125 -23.21875 16.847656 -22.738281 16.640625 -22.3125 L 15.765625 -20.5625 C 15.765625 -20.394531 15.46875 -19.273438 14.875 -17.203125 C 14.132812 -14.910156 13.679688 -13.226562 13.515625 -12.15625 C 13.785156 -12.632812 14.347656 -13.367188 15.203125 -14.359375 C 16.054688 -15.347656 16.851562 -16.160156 17.59375 -16.796875 C 20.53125 -19.304688 22.347656 -20.800781 23.046875 -21.28125 C 23.679688 -21.65625 24.210938 -22 24.640625 -22.3125 C 25.066406 -22.632812 25.359375 -22.847656 25.515625 -22.953125 C 25.515625 -23.222656 25.8125 -23.359375 26.40625 -23.359375 C 26.613281 -23.359375 26.726562 -23.382812 26.75 -23.4375 C 26.78125 -23.488281 26.796875 -23.625 26.796875 -23.84375 C 26.796875 -24.21875 27.410156 -24.550781 28.640625 -24.84375 C 29.867188 -25.132812 30.960938 -25.28125 31.921875 -25.28125 C 32.554688 -25.28125 33.0625 -25.144531 33.4375 -24.875 C 33.8125 -24.613281 34.289062 -24.03125 34.875 -23.125 C 35.78125 -21.84375 36.234375 -20.453125 36.234375 -18.953125 C 36.234375 -18.109375 36.078125 -17.226562 35.765625 -16.3125 C 35.765625 -15.894531 35.695312 -15.242188 35.5625 -14.359375 C 35.425781 -13.484375 35.359375 -12.722656 35.359375 -12.078125 L 34.875 -9.515625 L 36.15625 -9.515625 C 36.53125 -9.515625 36.890625 -9.460938 37.234375 -9.359375 C 37.585938 -9.253906 37.816406 -9.175781 37.921875 -9.125 C 38.398438 -8.53125 38.828125 -8.234375 39.203125 -8.234375 C 39.679688 -8.234375 39.921875 -8.050781 39.921875 -7.6875 C 39.921875 -7.46875 39.8125 -7.195312 39.59375 -6.875 C 39.382812 -6.5625 39.09375 -6.296875 38.71875 -6.078125 C 37.332031 -5.222656 36.160156 -4.796875 35.203125 -4.796875 C 34.296875 -4.796875 33.363281 -5.222656 32.40625 -6.078125 C 31.226562 -7.253906 30.640625 -8.664062 30.640625 -10.3125 C 30.640625 -11.164062 30.800781 -12.179688 31.125 -13.359375 L 31.359375 -15.921875 C 31.460938 -17.203125 31.515625 -18 31.515625 -18.3125 C 31.515625 -19.539062 31.222656 -20.15625 30.640625 -20.15625 C 29.890625 -20.15625 28.460938 -19.5 26.359375 -18.1875 C 24.253906 -16.882812 22.082031 -15.257812 19.84375 -13.3125 C 17.601562 -11.375 15.816406 -9.414062 14.484375 -7.4375 C 13.679688 -6.425781 13 -5.664062 12.4375 -5.15625 C 11.875 -4.65625 11.351562 -4.375 10.875 -4.3125 Z M 10.40625 -4.3125 "/></g></g></g><g fill="#000000" fill-opacity="1"><g transform="translate(412.319737, 372.462656)"><g><path d="M 13.515625 -1.203125 C 12.878906 -1.203125 12.375 -1.304688 12 -1.515625 C 11.625 -1.734375 11.09375 -2.132812 10.40625 -2.71875 C 8.644531 -4.582031 7.765625 -6.289062 7.765625 -7.84375 C 7.765625 -8.21875 7.789062 -8.484375 7.84375 -8.640625 C 8 -9.015625 8.0625 -9.382812 8.03125 -9.75 C 8.007812 -10.125 8 -10.367188 8 -10.484375 C 7.789062 -10.691406 7.6875 -10.835938 7.6875 -10.921875 C 7.6875 -11.003906 7.738281 -11.082031 7.84375 -11.15625 C 7.945312 -11.238281 8.023438 -11.332031 8.078125 -11.4375 C 8.398438 -11.4375 8.507812 -11.726562 8.40625 -12.3125 C 8.289062 -12.738281 8.5 -13.6875 9.03125 -15.15625 C 9.570312 -16.625 10.242188 -17.972656 11.046875 -19.203125 C 11.628906 -20.160156 12.492188 -21.359375 13.640625 -22.796875 C 14.785156 -24.234375 15.8125 -25.328125 16.71875 -26.078125 C 18 -27.203125 19.144531 -28.03125 20.15625 -28.5625 C 21.175781 -29.09375 22.296875 -29.492188 23.515625 -29.765625 C 24.585938 -30.023438 25.3125 -30.15625 25.6875 -30.15625 C 26.050781 -30.15625 26.378906 -30.0625 26.671875 -29.875 C 26.972656 -29.6875 27.363281 -29.351562 27.84375 -28.875 C 29.28125 -28.238281 30.28125 -27.425781 30.84375 -26.4375 C 31.40625 -25.445312 31.6875 -23.914062 31.6875 -21.84375 C 31.6875 -18.375 30.269531 -14.613281 27.4375 -10.5625 C 26.207031 -8.800781 25.0625 -7.453125 24 -6.515625 C 22.9375 -5.585938 21.523438 -4.585938 19.765625 -3.515625 C 18.640625 -2.710938 17.609375 -2.140625 16.671875 -1.796875 C 15.742188 -1.453125 14.691406 -1.253906 13.515625 -1.203125 Z M 21.203125 -9.6875 C 22.484375 -11.125 23.507812 -12.484375 24.28125 -13.765625 C 25.050781 -15.046875 25.785156 -16.671875 26.484375 -18.640625 C 26.742188 -19.546875 26.875 -20.640625 26.875 -21.921875 C 26.875 -23.515625 26.660156 -24.421875 26.234375 -24.640625 C 25.703125 -24.910156 25.171875 -25.046875 24.640625 -25.046875 C 23.460938 -25.046875 22.234375 -24.507812 20.953125 -23.4375 C 19.410156 -22.101562 18.023438 -20.460938 16.796875 -18.515625 C 15.566406 -16.566406 14.316406 -14.15625 13.046875 -11.28125 C 12.503906 -10.15625 12.234375 -9.0625 12.234375 -8 C 12.234375 -7.195312 12.429688 -6.554688 12.828125 -6.078125 C 13.234375 -5.597656 13.785156 -5.359375 14.484375 -5.359375 C 16.242188 -5.359375 18.484375 -6.800781 21.203125 -9.6875 Z M 21.203125 -9.6875 "/></g></g></g><g fill="#000000" fill-opacity="1"><g transform="translate(440.556979, 372.462656)"><g><path d="M 44.078125 -3.359375 C 43.328125 -3.628906 42.617188 -4.28125 41.953125 -5.3125 C 41.285156 -6.351562 40.953125 -8.050781 40.953125 -10.40625 L 41.046875 -14.078125 C 41.046875 -14.722656 41.003906 -15.175781 40.921875 -15.4375 C 40.835938 -15.707031 40.691406 -15.84375 40.484375 -15.84375 C 39.785156 -15.84375 38.300781 -14.9375 36.03125 -13.125 C 33.769531 -11.3125 31.492188 -9.148438 29.203125 -6.640625 C 28.929688 -6.367188 28.566406 -5.976562 28.109375 -5.46875 C 27.660156 -4.96875 27.25 -4.597656 26.875 -4.359375 C 26.5 -4.117188 26.15625 -4 25.84375 -4 C 25.363281 -4 24.910156 -4.1875 24.484375 -4.5625 L 23.59375 -5.28125 C 23.226562 -5.601562 23.046875 -5.976562 23.046875 -6.40625 L 23.203125 -7.125 L 25.046875 -12.40625 C 26.210938 -15.125 26.898438 -16.84375 27.109375 -17.5625 C 27.328125 -18.28125 27.304688 -18.613281 27.046875 -18.5625 C 26.554688 -18.507812 25.882812 -18.253906 25.03125 -17.796875 C 24.1875 -17.347656 23.65625 -16.910156 23.4375 -16.484375 C 23.332031 -16.484375 22.984375 -16.203125 22.390625 -15.640625 C 21.804688 -15.078125 21.300781 -14.664062 20.875 -14.40625 C 20.394531 -13.707031 19.222656 -12.453125 17.359375 -10.640625 L 15.4375 -8.796875 C 14.632812 -8.160156 13.515625 -6.851562 12.078125 -4.875 C 11.328125 -3.914062 10.898438 -3.4375 10.796875 -3.4375 C 9.140625 -3.4375 8.101562 -4.238281 7.6875 -5.84375 C 7.46875 -6.21875 7.359375 -6.722656 7.359375 -7.359375 C 7.359375 -8.210938 7.675781 -9.972656 8.3125 -12.640625 C 8.800781 -14.453125 9.070312 -15.570312 9.125 -16 L 9.515625 -17.59375 C 9.628906 -18.289062 9.867188 -19.117188 10.234375 -20.078125 C 10.609375 -21.035156 11.25 -22.554688 12.15625 -24.640625 C 12.6875 -26.128906 12.953125 -27.25 12.953125 -28 C 12.953125 -28.695312 13.191406 -29.242188 13.671875 -29.640625 C 14.160156 -30.035156 14.695312 -30.234375 15.28125 -30.234375 C 16.03125 -30.234375 16.671875 -29.941406 17.203125 -29.359375 C 17.734375 -28.773438 18 -28.003906 18 -27.046875 C 18 -26.140625 17.785156 -25.203125 17.359375 -24.234375 L 16.484375 -22.078125 C 16.054688 -21.222656 15.507812 -19.847656 14.84375 -17.953125 C 14.175781 -16.066406 13.84375 -15.015625 13.84375 -14.796875 C 13.894531 -14.640625 14.078125 -14.679688 14.390625 -14.921875 C 14.710938 -15.160156 15.085938 -15.46875 15.515625 -15.84375 C 15.992188 -16.320312 16.554688 -16.800781 17.203125 -17.28125 C 18.796875 -18.769531 20.695312 -20.207031 22.90625 -21.59375 C 25.125 -22.988281 26.820312 -23.867188 28 -24.234375 C 28.695312 -24.234375 29.21875 -24.140625 29.5625 -23.953125 C 29.90625 -23.773438 30.289062 -23.457031 30.71875 -23 C 31.144531 -22.539062 31.46875 -22.207031 31.6875 -22 C 32.164062 -21.519531 32.40625 -20.828125 32.40625 -19.921875 C 32.40625 -19.648438 32.347656 -19.300781 32.234375 -18.875 C 32.023438 -18.132812 31.742188 -17.226562 31.390625 -16.15625 C 31.046875 -15.09375 30.796875 -14.320312 30.640625 -13.84375 C 31.015625 -14.15625 31.679688 -14.710938 32.640625 -15.515625 C 33.597656 -16.316406 34.476562 -17.066406 35.28125 -17.765625 C 37.945312 -19.835938 40.050781 -20.875 41.59375 -20.875 C 42.71875 -20.875 43.679688 -20.289062 44.484375 -19.125 C 44.960938 -18.644531 45.253906 -18.148438 45.359375 -17.640625 C 45.460938 -17.128906 45.515625 -16.445312 45.515625 -15.59375 C 45.515625 -14.738281 45.515625 -14.070312 45.515625 -13.59375 C 45.566406 -13.226562 45.59375 -12.59375 45.59375 -11.6875 C 45.65625 -11.257812 45.722656 -10.429688 45.796875 -9.203125 C 45.878906 -7.972656 46 -7.28125 46.15625 -7.125 C 46.425781 -6.800781 47.332031 -6.503906 48.875 -6.234375 C 49.832031 -6.078125 50.3125 -5.648438 50.3125 -4.953125 C 50.3125 -4.472656 49.96875 -3.992188 49.28125 -3.515625 C 48.582031 -3.085938 47.726562 -2.875 46.71875 -2.875 C 45.757812 -2.875 44.878906 -3.035156 44.078125 -3.359375 Z M 44.078125 -3.359375 "/></g></g></g><g fill="#000000" fill-opacity="1"><g transform="translate(485.352631, 372.462656)"><g><path d="M 22.078125 -2.796875 C 20.742188 -1.628906 19.144531 -1.046875 17.28125 -1.046875 C 15.945312 -1.046875 14.679688 -1.363281 13.484375 -2 C 12.285156 -2.632812 11.285156 -3.515625 10.484375 -4.640625 C 9.785156 -5.492188 9.273438 -6.453125 8.953125 -7.515625 C 8.640625 -8.585938 8.484375 -9.894531 8.484375 -11.4375 C 8.484375 -11.96875 8.535156 -13.035156 8.640625 -14.640625 C 8.796875 -16.609375 9.445312 -18.660156 10.59375 -20.796875 C 11.738281 -22.929688 13.164062 -24.835938 14.875 -26.515625 C 16.582031 -28.203125 18.265625 -29.363281 19.921875 -30 C 20.773438 -30.53125 21.546875 -30.796875 22.234375 -30.796875 C 22.609375 -30.796875 22.984375 -30.769531 23.359375 -30.71875 C 23.734375 -30.664062 24.132812 -30.613281 24.5625 -30.5625 C 25.726562 -30.394531 26.617188 -30.164062 27.234375 -29.875 C 27.847656 -29.582031 28.367188 -29.144531 28.796875 -28.5625 C 30.128906 -27.226562 30.796875 -25.679688 30.796875 -23.921875 C 30.585938 -22.640625 29.757812 -21.171875 28.3125 -19.515625 C 26.875 -17.867188 25.144531 -16.535156 23.125 -15.515625 C 22.164062 -15.203125 21.070312 -15.046875 19.84375 -15.046875 C 18.1875 -15.046875 16.851562 -15.390625 15.84375 -16.078125 C 15.363281 -16.234375 14.988281 -16.3125 14.71875 -16.3125 C 14.238281 -16.3125 13.878906 -15.992188 13.640625 -15.359375 C 13.398438 -14.722656 13.171875 -13.550781 12.953125 -11.84375 C 12.898438 -11.46875 12.875 -10.929688 12.875 -10.234375 C 12.875 -7.515625 13.78125 -6.023438 15.59375 -5.765625 C 16.820312 -5.492188 17.703125 -5.359375 18.234375 -5.359375 C 18.878906 -5.359375 19.601562 -5.570312 20.40625 -6 L 21.921875 -6.875 C 22.242188 -7.039062 22.535156 -7.253906 22.796875 -7.515625 C 23.066406 -7.785156 23.304688 -8.023438 23.515625 -8.234375 C 23.628906 -8.347656 23.789062 -8.523438 24 -8.765625 C 24.207031 -9.003906 24.40625 -9.160156 24.59375 -9.234375 C 24.78125 -9.316406 24.957031 -9.359375 25.125 -9.359375 C 25.332031 -9.359375 25.566406 -9.238281 25.828125 -9 C 26.097656 -8.757812 26.316406 -8.585938 26.484375 -8.484375 C 26.960938 -8.484375 27.066406 -8.148438 26.796875 -7.484375 C 26.535156 -6.816406 25.960938 -6.039062 25.078125 -5.15625 C 24.203125 -4.28125 23.203125 -3.492188 22.078125 -2.796875 Z M 22 -19.765625 C 22.90625 -20.128906 23.820312 -20.789062 24.75 -21.75 C 25.6875 -22.71875 26.15625 -23.519531 26.15625 -24.15625 C 26.15625 -24.800781 25.914062 -25.335938 25.4375 -25.765625 C 24.957031 -26.191406 24.289062 -26.40625 23.4375 -26.40625 C 22.800781 -26.40625 22.320312 -26.347656 22 -26.234375 C 21.25 -26.023438 20.367188 -25.453125 19.359375 -24.515625 C 18.347656 -23.585938 17.46875 -22.640625 16.71875 -21.671875 C 15.96875 -20.710938 15.675781 -20.15625 15.84375 -20 C 16.101562 -19.519531 17.140625 -19.28125 18.953125 -19.28125 C 20.179688 -19.28125 21.195312 -19.441406 22 -19.765625 Z M 22 -19.765625 "/></g></g></g><g fill="#000000" fill-opacity="1"><g transform="translate(511.350104, 372.462656)"><g><path d="M 14.15625 -3.59375 C 13.039062 -3.59375 12.09375 -4.472656 11.3125 -6.234375 C 10.539062 -7.992188 10.15625 -10.050781 10.15625 -12.40625 L 10.234375 -13.84375 C 10.234375 -15.757812 10.367188 -17.359375 10.640625 -18.640625 C 10.910156 -19.921875 11.070312 -20.722656 11.125 -21.046875 C 11.226562 -21.304688 11.332031 -21.769531 11.4375 -22.4375 C 11.539062 -23.101562 11.753906 -24.050781 12.078125 -25.28125 C 12.503906 -27.144531 12.929688 -28.289062 13.359375 -28.71875 C 13.785156 -29.144531 14.289062 -29.359375 14.875 -29.359375 C 15.25 -29.359375 15.597656 -29.265625 15.921875 -29.078125 C 16.242188 -28.890625 16.507812 -28.632812 16.71875 -28.3125 C 17.039062 -28 17.203125 -27.226562 17.203125 -26 C 17.203125 -25.09375 17.117188 -24.210938 16.953125 -23.359375 C 16.796875 -22.503906 16.582031 -21.890625 16.3125 -21.515625 C 16.15625 -21.203125 15.914062 -19.65625 15.59375 -16.875 C 15.382812 -14.851562 15.226562 -13.546875 15.125 -12.953125 C 15.070312 -12.742188 15.046875 -12.425781 15.046875 -12 C 15.046875 -10.769531 15.414062 -10.15625 16.15625 -10.15625 C 17.382812 -10.15625 19.117188 -11.785156 21.359375 -15.046875 C 22.847656 -17.171875 23.898438 -18.832031 24.515625 -20.03125 C 25.128906 -21.238281 25.757812 -22.773438 26.40625 -24.640625 C 26.664062 -25.441406 26.914062 -26.132812 27.15625 -26.71875 C 27.394531 -27.300781 27.625 -27.675781 27.84375 -27.84375 C 28.101562 -28.050781 28.472656 -28.15625 28.953125 -28.15625 C 29.492188 -28.15625 30.132812 -27.914062 30.875 -27.4375 C 31.519531 -26.800781 31.84375 -26.054688 31.84375 -25.203125 C 31.84375 -24.296875 31.519531 -23.203125 30.875 -21.921875 C 30.238281 -20.640625 29.648438 -18.863281 29.109375 -16.59375 C 28.578125 -14.332031 28.3125 -12.5625 28.3125 -11.28125 C 28.3125 -10.320312 28.429688 -9.722656 28.671875 -9.484375 C 28.921875 -9.242188 29.3125 -9.125 29.84375 -9.125 C 31.332031 -9.125 33.117188 -10.1875 35.203125 -12.3125 C 36.160156 -13.28125 37.425781 -14.976562 39 -17.40625 C 40.570312 -19.832031 41.359375 -21.257812 41.359375 -21.6875 C 41.359375 -22 41.597656 -22.453125 42.078125 -23.046875 C 42.347656 -23.410156 42.601562 -23.726562 42.84375 -24 C 43.082031 -24.269531 43.441406 -24.535156 43.921875 -24.796875 L 44.5625 -24.953125 C 44.988281 -24.953125 45.492188 -24.660156 46.078125 -24.078125 C 46.296875 -23.867188 46.429688 -23.535156 46.484375 -23.078125 C 46.535156 -22.628906 46.5625 -22.109375 46.5625 -21.515625 C 46.289062 -20.554688 45.832031 -19.316406 45.1875 -17.796875 C 44.550781 -16.273438 44.050781 -15.300781 43.6875 -14.875 C 42.664062 -14.082031 41.8125 -13.097656 41.125 -11.921875 C 39.84375 -10.367188 38.84375 -9.285156 38.125 -8.671875 C 37.40625 -8.066406 36.9375 -7.65625 36.71875 -7.4375 C 35.65625 -6.375 34.492188 -5.546875 33.234375 -4.953125 C 31.984375 -4.367188 30.800781 -4.078125 29.6875 -4.078125 C 28.5625 -4.078125 27.648438 -4.34375 26.953125 -4.875 C 25.304688 -5.726562 24.484375 -7.171875 24.484375 -9.203125 C 24.484375 -9.578125 24.425781 -9.921875 24.3125 -10.234375 C 24.207031 -10.554688 24.128906 -10.769531 24.078125 -10.875 C 23.273438 -10.875 22.632812 -10.445312 22.15625 -9.59375 C 21.414062 -8.257812 20.132812 -6.925781 18.3125 -5.59375 C 16.5 -4.257812 15.113281 -3.59375 14.15625 -3.59375 Z M 14.15625 -3.59375 "/></g></g></g><g fill="#000000" fill-opacity="1"><g transform="translate(552.706098, 372.462656)"><g><path d="M 13.515625 -1.203125 C 12.878906 -1.203125 12.375 -1.304688 12 -1.515625 C 11.625 -1.734375 11.09375 -2.132812 10.40625 -2.71875 C 8.644531 -4.582031 7.765625 -6.289062 7.765625 -7.84375 C 7.765625 -8.21875 7.789062 -8.484375 7.84375 -8.640625 C 8 -9.015625 8.0625 -9.382812 8.03125 -9.75 C 8.007812 -10.125 8 -10.367188 8 -10.484375 C 7.789062 -10.691406 7.6875 -10.835938 7.6875 -10.921875 C 7.6875 -11.003906 7.738281 -11.082031 7.84375 -11.15625 C 7.945312 -11.238281 8.023438 -11.332031 8.078125 -11.4375 C 8.398438 -11.4375 8.507812 -11.726562 8.40625 -12.3125 C 8.289062 -12.738281 8.5 -13.6875 9.03125 -15.15625 C 9.570312 -16.625 10.242188 -17.972656 11.046875 -19.203125 C 11.628906 -20.160156 12.492188 -21.359375 13.640625 -22.796875 C 14.785156 -24.234375 15.8125 -25.328125 16.71875 -26.078125 C 18 -27.203125 19.144531 -28.03125 20.15625 -28.5625 C 21.175781 -29.09375 22.296875 -29.492188 23.515625 -29.765625 C 24.585938 -30.023438 25.3125 -30.15625 25.6875 -30.15625 C 26.050781 -30.15625 26.378906 -30.0625 26.671875 -29.875 C 26.972656 -29.6875 27.363281 -29.351562 27.84375 -28.875 C 29.28125 -28.238281 30.28125 -27.425781 30.84375 -26.4375 C 31.40625 -25.445312 31.6875 -23.914062 31.6875 -21.84375 C 31.6875 -18.375 30.269531 -14.613281 27.4375 -10.5625 C 26.207031 -8.800781 25.0625 -7.453125 24 -6.515625 C 22.9375 -5.585938 21.523438 -4.585938 19.765625 -3.515625 C 18.640625 -2.710938 17.609375 -2.140625 16.671875 -1.796875 C 15.742188 -1.453125 14.691406 -1.253906 13.515625 -1.203125 Z M 21.203125 -9.6875 C 22.484375 -11.125 23.507812 -12.484375 24.28125 -13.765625 C 25.050781 -15.046875 25.785156 -16.671875 26.484375 -18.640625 C 26.742188 -19.546875 26.875 -20.640625 26.875 -21.921875 C 26.875 -23.515625 26.660156 -24.421875 26.234375 -24.640625 C 25.703125 -24.910156 25.171875 -25.046875 24.640625 -25.046875 C 23.460938 -25.046875 22.234375 -24.507812 20.953125 -23.4375 C 19.410156 -22.101562 18.023438 -20.460938 16.796875 -18.515625 C 15.566406 -16.566406 14.316406 -14.15625 13.046875 -11.28125 C 12.503906 -10.15625 12.234375 -9.0625 12.234375 -8 C 12.234375 -7.195312 12.429688 -6.554688 12.828125 -6.078125 C 13.234375 -5.597656 13.785156 -5.359375 14.484375 -5.359375 C 16.242188 -5.359375 18.484375 -6.800781 21.203125 -9.6875 Z M 21.203125 -9.6875 "/></g></g></g><g fill="#000000" fill-opacity="1"><g transform="translate(580.94334, 372.462656)"><g><path d="M 9.515625 -2.796875 C 9.085938 -3.117188 8.796875 -3.410156 8.640625 -3.671875 C 8.484375 -3.941406 8.40625 -4.34375 8.40625 -4.875 C 8.40625 -5.351562 8.429688 -5.753906 8.484375 -6.078125 C 8.640625 -7.890625 9.039062 -10 9.6875 -12.40625 L 10.078125 -14 C 10.234375 -15.332031 11.164062 -18.128906 12.875 -22.390625 C 14.582031 -26.660156 15.972656 -29.570312 17.046875 -31.125 C 17.472656 -31.382812 17.925781 -31.515625 18.40625 -31.515625 C 19.09375 -31.515625 19.675781 -31.273438 20.15625 -30.796875 C 20.476562 -30.585938 20.640625 -30.1875 20.640625 -29.59375 C 20.640625 -29.0625 20.4375 -28.273438 20.03125 -27.234375 C 19.632812 -26.203125 18.957031 -24.671875 18 -22.640625 C 17.789062 -22.210938 17.429688 -21.410156 16.921875 -20.234375 C 16.410156 -19.066406 16.15625 -18.375 16.15625 -18.15625 C 16.15625 -18.050781 16.179688 -18 16.234375 -18 C 16.347656 -18 16.457031 -18.035156 16.5625 -18.109375 C 16.664062 -18.191406 16.769531 -18.257812 16.875 -18.3125 C 17.46875 -19.332031 18.894531 -20.722656 21.15625 -22.484375 C 23.425781 -24.242188 24.988281 -25.335938 25.84375 -25.765625 C 26.21875 -25.972656 26.695312 -26.179688 27.28125 -26.390625 C 27.863281 -26.609375 28.265625 -26.769531 28.484375 -26.875 C 29.335938 -27.300781 30.347656 -27.515625 31.515625 -27.515625 C 32.265625 -27.515625 32.914062 -27.394531 33.46875 -27.15625 C 34.03125 -26.914062 34.421875 -26.554688 34.640625 -26.078125 C 34.691406 -25.703125 34.835938 -25.40625 35.078125 -25.1875 C 35.316406 -24.976562 35.488281 -24.847656 35.59375 -24.796875 C 35.757812 -24.796875 35.867188 -24.726562 35.921875 -24.59375 C 35.972656 -24.46875 36 -24.375 36 -24.3125 C 36 -23.945312 35.785156 -23.722656 35.359375 -23.640625 C 34.929688 -23.554688 34.160156 -23.488281 33.046875 -23.4375 C 32.453125 -23.382812 31.832031 -23.25 31.1875 -23.03125 C 30.550781 -22.820312 29.914062 -22.554688 29.28125 -22.234375 C 26.289062 -20.535156 24.0625 -19.203125 22.59375 -18.234375 C 21.132812 -17.273438 19.65625 -15.96875 18.15625 -14.3125 C 17.570312 -13.675781 16.800781 -12.53125 15.84375 -10.875 C 15.46875 -10.5 15.078125 -9.523438 14.671875 -7.953125 C 14.273438 -6.378906 14.078125 -5.410156 14.078125 -5.046875 C 14.023438 -4.878906 13.914062 -4.566406 13.75 -4.109375 C 13.59375 -3.660156 13.359375 -3.222656 13.046875 -2.796875 C 12.398438 -1.941406 11.863281 -1.515625 11.4375 -1.515625 C 10.957031 -1.515625 10.316406 -1.941406 9.515625 -2.796875 Z M 9.515625 -2.796875 "/></g></g></g><g fill="#000000" fill-opacity="1"><g transform="translate(609.740564, 372.462656)"><g><path d="M 8.953125 -0.40625 C 8.316406 -0.613281 7.648438 -1.238281 6.953125 -2.28125 C 6.265625 -3.320312 5.921875 -4.269531 5.921875 -5.125 L 7.046875 -8.484375 L 8.5625 -13.28125 C 9.039062 -13.96875 9.425781 -14.804688 9.71875 -15.796875 C 10.007812 -16.785156 10.179688 -17.359375 10.234375 -17.515625 C 10.773438 -18.535156 11.84375 -20.988281 13.4375 -24.875 L 14.953125 -28.5625 C 16.453125 -31.757812 17.679688 -34.640625 18.640625 -37.203125 L 19.921875 -40.15625 L 21.4375 -43.6875 C 23.300781 -48.21875 24.34375 -50.851562 24.5625 -51.59375 C 24.5625 -52.019531 24.65625 -52.335938 24.84375 -52.546875 C 25.03125 -52.765625 25.226562 -52.875 25.4375 -52.875 C 25.707031 -53.144531 26.132812 -53.28125 26.71875 -53.28125 C 26.988281 -53.28125 27.414062 -52.863281 28 -52.03125 C 28.582031 -51.207031 28.875 -50.503906 28.875 -49.921875 C 28.875 -49.015625 28.445312 -47.375 27.59375 -45 C 26.738281 -42.625 25.59375 -40 24.15625 -37.125 C 18.925781 -25.863281 16.523438 -20.019531 16.953125 -19.59375 C 17.171875 -19.707031 17.625 -19.9375 18.3125 -20.28125 C 19.007812 -20.625 19.734375 -21.0625 20.484375 -21.59375 C 20.960938 -21.863281 21.414062 -22.144531 21.84375 -22.4375 C 22.269531 -22.726562 22.640625 -22.984375 22.953125 -23.203125 C 24.609375 -24.316406 25.625 -24.929688 26 -25.046875 C 26.320312 -25.253906 26.9375 -25.625 27.84375 -26.15625 C 28.800781 -26.800781 29.304688 -27.148438 29.359375 -27.203125 C 29.992188 -27.523438 30.523438 -27.6875 30.953125 -27.6875 C 31.273438 -27.6875 31.566406 -27.578125 31.828125 -27.359375 C 32.097656 -27.148438 32.421875 -26.832031 32.796875 -26.40625 C 33.117188 -26.03125 33.28125 -25.65625 33.28125 -25.28125 C 33.28125 -24.90625 33.066406 -24.515625 32.640625 -24.109375 C 32.210938 -23.710938 31.492188 -23.195312 30.484375 -22.5625 C 29.785156 -22.082031 29.0625 -21.628906 28.3125 -21.203125 C 27.570312 -20.773438 26.851562 -20.347656 26.15625 -19.921875 C 22.320312 -17.578125 20.347656 -16.320312 20.234375 -16.15625 C 20.347656 -15.945312 20.601562 -15.46875 21 -14.71875 C 21.394531 -13.96875 21.78125 -13.328125 22.15625 -12.796875 L 23.359375 -10.71875 C 23.992188 -9.8125 24.3125 -9.222656 24.3125 -8.953125 C 24.800781 -7.617188 25.457031 -6.578125 26.28125 -5.828125 C 27.101562 -5.085938 27.992188 -4.71875 28.953125 -4.71875 C 29.441406 -4.71875 30.003906 -4.851562 30.640625 -5.125 C 31.441406 -5.4375 32.082031 -5.59375 32.5625 -5.59375 C 33.3125 -5.59375 33.816406 -5.164062 34.078125 -4.3125 C 34.234375 -4 34.3125 -3.757812 34.3125 -3.59375 C 34.3125 -3.382812 33.941406 -2.90625 33.203125 -2.15625 C 31.816406 -0.769531 30.398438 -0.078125 28.953125 -0.078125 C 28.472656 -0.078125 27.914062 -0.210938 27.28125 -0.484375 C 26.476562 -0.429688 25.476562 -0.960938 24.28125 -2.078125 C 23.082031 -3.203125 21.414062 -5.148438 19.28125 -7.921875 C 19.28125 -8.128906 18.988281 -8.820312 18.40625 -10 C 18.1875 -10.476562 17.941406 -10.914062 17.671875 -11.3125 C 17.410156 -11.71875 17.226562 -12 17.125 -12.15625 C 17.125 -12.375 17.003906 -12.65625 16.765625 -13 C 16.523438 -13.34375 16.347656 -13.625 16.234375 -13.84375 C 15.648438 -14 15.179688 -13.941406 14.828125 -13.671875 C 14.484375 -13.410156 14.164062 -13.039062 13.875 -12.5625 C 13.582031 -12.082031 13.359375 -11.734375 13.203125 -11.515625 C 12.671875 -10.128906 12.132812 -8.4375 11.59375 -6.4375 C 11.0625 -4.4375 10.878906 -3.144531 11.046875 -2.5625 C 11.046875 -1.707031 10.910156 -1.132812 10.640625 -0.84375 C 10.367188 -0.550781 9.804688 -0.40625 8.953125 -0.40625 Z M 8.953125 -0.40625 "/></g></g></g><g clip-path="url(#5e4ac66633)"><path fill="#000000" d="M 58.980469 98.089844 C 59.4375 96.386719 60.015625 94.714844 60.703125 93.085938 C 60.539062 93.472656 60.371094 93.859375 60.210938 94.246094 C 61.199219 91.917969 62.421875 89.683594 63.972656 87.675781 C 63.714844 88.007812 63.464844 88.335938 63.210938 88.65625 C 64.195312 87.398438 65.304688 86.242188 66.574219 85.253906 C 66.246094 85.511719 65.914062 85.761719 65.589844 86.015625 C 66.722656 85.148438 67.960938 84.453125 69.273438 83.898438 C 68.886719 84.058594 68.496094 84.226562 68.109375 84.386719 C 69.324219 83.878906 70.585938 83.496094 71.894531 83.3125 C 71.460938 83.371094 71.035156 83.433594 70.601562 83.484375 C 71.445312 83.371094 72.300781 83.351562 73.148438 83.460938 C 72.714844 83.402344 72.289062 83.34375 71.855469 83.289062 C 72.507812 83.378906 73.144531 83.542969 73.75 83.800781 C 73.359375 83.636719 72.972656 83.472656 72.582031 83.308594 C 73.105469 83.535156 73.589844 83.820312 74.042969 84.15625 C 73.714844 83.902344 73.382812 83.652344 73.058594 83.398438 C 73.582031 83.800781 74.039062 84.269531 74.445312 84.785156 C 74.191406 84.457031 73.941406 84.128906 73.683594 83.804688 C 74.230469 84.515625 74.667969 85.300781 75.015625 86.128906 C 74.855469 85.742188 74.6875 85.355469 74.523438 84.964844 C 75.121094 86.386719 75.460938 87.898438 75.671875 89.417969 C 75.613281 88.988281 75.554688 88.558594 75.5 88.128906 C 75.964844 91.605469 75.785156 95.144531 75.425781 98.621094 C 75.320312 99.605469 75.203125 100.585938 75.070312 101.566406 C 75.128906 101.136719 75.1875 100.710938 75.242188 100.277344 C 74.820312 103.40625 74.339844 106.535156 73.683594 109.621094 C 72.941406 113.148438 71.984375 116.625 70.800781 120.03125 C 70.1875 121.804688 69.515625 123.5625 68.78125 125.296875 C 68.945312 124.910156 69.109375 124.523438 69.273438 124.132812 C 67.203125 129.015625 64.675781 133.710938 61.710938 138.113281 C 61.023438 139.132812 60.308594 140.136719 59.578125 141.128906 C 59.132812 141.882812 58.914062 142.699219 58.914062 143.578125 C 58.917969 144.457031 59.136719 145.269531 59.578125 146.03125 C 60.421875 147.472656 62.078125 148.480469 63.78125 148.433594 C 68.378906 148.300781 72.972656 148.167969 77.570312 148.039062 C 82.167969 147.914062 86.757812 147.773438 91.355469 147.648438 C 93.949219 147.574219 96.539062 147.5 99.125 147.425781 C 100.394531 147.394531 101.660156 146.914062 102.570312 146.003906 C 103.046875 145.5625 103.378906 145.042969 103.578125 144.441406 C 103.882812 143.863281 104.019531 143.238281 103.996094 142.574219 C 103.941406 141.316406 103.523438 140.015625 102.570312 139.140625 C 101.628906 138.285156 100.429688 137.679688 99.125 137.71875 C 94.527344 137.851562 89.9375 137.984375 85.339844 138.113281 C 80.742188 138.246094 76.148438 138.375 71.550781 138.503906 C 68.957031 138.578125 66.367188 138.652344 63.78125 138.726562 C 65.183594 141.160156 66.582031 143.59375 67.984375 146.03125 C 69.824219 143.542969 71.527344 140.960938 73.074219 138.285156 C 75.125 134.738281 76.867188 131.042969 78.429688 127.261719 C 80.0625 123.3125 81.394531 119.230469 82.414062 115.082031 C 83.382812 111.148438 84.039062 107.136719 84.589844 103.121094 C 85.152344 99.011719 85.652344 94.871094 85.457031 90.71875 C 85.390625 89.402344 85.230469 88.109375 85.046875 86.804688 C 84.929688 85.957031 84.773438 85.113281 84.550781 84.28125 C 84.246094 83.132812 83.789062 82.042969 83.300781 80.960938 C 82.992188 80.273438 82.617188 79.617188 82.167969 79.015625 C 81.671875 78.351562 81.167969 77.660156 80.5625 77.078125 C 79.984375 76.519531 79.324219 76.023438 78.664062 75.574219 C 78.339844 75.347656 77.992188 75.15625 77.632812 74.988281 C 76.929688 74.671875 76.1875 74.332031 75.429688 74.125 C 73.164062 73.507812 70.867188 73.625 68.585938 74.074219 C 66.929688 74.394531 65.34375 75.054688 63.808594 75.753906 C 63.074219 76.09375 62.355469 76.476562 61.675781 76.917969 C 59.882812 78.089844 58.21875 79.503906 56.84375 81.148438 C 55.503906 82.742188 54.289062 84.4375 53.285156 86.261719 C 52.382812 87.921875 51.625 89.667969 50.9375 91.429688 C 50.535156 92.457031 50.175781 93.507812 49.859375 94.566406 C 49.765625 94.878906 49.675781 95.199219 49.59375 95.511719 C 49.269531 96.738281 49.441406 98.15625 50.085938 99.253906 C 50.390625 99.816406 50.808594 100.273438 51.339844 100.617188 C 51.8125 101.046875 52.363281 101.335938 52.996094 101.484375 C 54.242188 101.769531 55.640625 101.703125 56.75 100.992188 C 57.804688 100.3125 58.652344 99.335938 58.980469 98.089844 Z M 58.980469 98.089844 " fill-opacity="1" fill-rule="nonzero"/></g><g clip-path="url(#7999344071)"><path fill="#000000" d="M 124.214844 132.488281 C 123.996094 131.839844 123.6875 131.273438 123.296875 130.863281 C 123.097656 130.644531 122.859375 130.425781 122.597656 130.253906 C 122.378906 130.101562 122.117188 129.972656 121.875 129.863281 C 121.703125 129.796875 121.527344 129.734375 121.375 129.667969 C 121.265625 129.625 121.15625 129.582031 121.046875 129.539062 L 120.914062 129.472656 C 120.71875 129.386719 120.5 129.300781 120.28125 129.234375 C 119.953125 129.167969 119.625 129.125 119.320312 129.082031 C 119.035156 129.039062 118.753906 129.039062 118.425781 129.015625 C 118.359375 129.015625 118.273438 129.015625 118.207031 129.015625 C 117.726562 129.015625 117.222656 129.058594 116.632812 129.148438 C 116.132812 129.210938 115.605469 129.34375 115.105469 129.539062 C 114.84375 129.625 114.582031 129.734375 114.363281 129.863281 C 114.121094 129.992188 113.882812 130.1875 113.664062 130.425781 C 113.445312 130.6875 113.25 130.882812 113.09375 131.101562 C 113.03125 131.207031 112.941406 131.316406 112.875 131.425781 C 112.832031 131.492188 112.789062 131.554688 112.746094 131.621094 C 112.636719 131.792969 112.527344 131.945312 112.460938 132.121094 C 112.375 132.292969 112.285156 132.511719 112.222656 132.75 C 112.179688 132.921875 112.132812 133.097656 112.113281 133.269531 C 112.089844 133.3125 112.089844 133.378906 112.070312 133.421875 C 112.003906 133.703125 111.960938 133.984375 111.914062 134.375 C 111.851562 134.917969 111.828125 135.484375 111.871094 136.113281 C 111.894531 136.394531 111.914062 136.742188 112.003906 137.066406 C 112.089844 137.371094 112.199219 137.675781 112.351562 137.957031 C 112.484375 138.195312 112.660156 138.457031 112.898438 138.738281 C 113.03125 138.914062 113.203125 139.0625 113.355469 139.214844 L 113.488281 139.347656 C 113.902344 139.757812 114.40625 140.105469 115.015625 140.410156 C 115.300781 140.539062 115.605469 140.648438 115.976562 140.757812 C 116.328125 140.84375 116.699219 140.910156 116.984375 140.953125 C 117.246094 140.996094 117.527344 140.996094 117.902344 141.015625 C 117.988281 141.015625 118.054688 141.015625 118.140625 141.015625 C 118.207031 141.015625 118.273438 141.015625 118.335938 141.015625 C 118.554688 141.015625 118.753906 140.972656 118.90625 140.953125 C 119.1875 140.910156 119.472656 140.84375 119.777344 140.734375 C 120.085938 140.648438 120.390625 140.496094 120.675781 140.367188 C 120.804688 140.300781 120.957031 140.234375 121.113281 140.148438 C 121.21875 140.082031 121.328125 140.019531 121.417969 139.953125 L 121.484375 139.910156 C 121.722656 139.738281 121.964844 139.542969 122.269531 139.257812 C 122.53125 139.019531 122.726562 138.804688 122.902344 138.609375 C 123.144531 138.347656 123.316406 138.023438 123.492188 137.742188 C 123.667969 137.4375 123.796875 137.109375 123.929688 136.808594 C 124.039062 136.546875 124.148438 136.265625 124.214844 136.003906 C 124.300781 135.699219 124.34375 135.375 124.386719 135.070312 C 124.410156 134.8125 124.429688 134.527344 124.453125 134.203125 C 124.453125 133.855469 124.410156 133.507812 124.367188 133.226562 C 124.367188 133.011719 124.300781 132.769531 124.214844 132.488281 Z M 124.214844 132.488281 " fill-opacity="1" fill-rule="nonzero"/></g></svg>