<svg xmlns="http://www.w3.org/2000/svg" xmlns:xlink="http://www.w3.org/1999/xlink" width="1080" zoomAndPan="magnify" viewBox="0 0 810 809.999993" height="1080" preserveAspectRatio="xMidYMid meet" version="1.0"><defs><filter x="0%" y="0%" width="100%" height="100%" id="6e93be2d59"><feColorMatrix values="0 0 0 0 1 0 0 0 0 1 0 0 0 0 1 0 0 0 1 0" color-interpolation-filters="sRGB"/></filter><g/><mask id="f8d919d6ce"><g filter="url(#6e93be2d59)"><rect x="-81" width="972" fill="#000000" y="-80.999999" height="971.999992" fill-opacity="0.898"/></g></mask><clipPath id="0b931bf502"><path d="M 17 10 L 765 10 L 765 647.925781 L 17 647.925781 Z M 17 10 " clip-rule="nonzero"/></clipPath><clipPath id="277aaf035e"><rect x="0" width="785" y="0" height="648"/></clipPath><clipPath id="26f7a578b0"><path d="M 72.699219 122.886719 L 113.199219 122.886719 L 113.199219 197.886719 L 72.699219 197.886719 Z M 72.699219 122.886719 " clip-rule="nonzero"/></clipPath><clipPath id="36728a72a8"><path d="M 124.476562 181.207031 L 137.226562 181.207031 L 137.226562 193.207031 L 124.476562 193.207031 Z M 124.476562 181.207031 " clip-rule="nonzero"/></clipPath></defs><g mask="url(#f8d919d6ce)"><g transform="matrix(1, 0, 0, 1, 25, 55)"><g clip-path="url(#277aaf035e)"><path fill="#eba596" d="M 295.824219 25.988281 C 366.140625 9.558594 510.605469 51.082031 610.753906 90.355469 C 631.070312 98.339844 650.324219 107.320312 668 120.308594 C 786.46875 207.292969 692.984375 344.460938 654.863281 439.316406 C 640.488281 475.089844 634.457031 554.722656 596.265625 576.664062 C 522.886719 618.835938 405.429688 571.519531 321.46875 579.882812 C 235.417969 588.457031 94.984375 624.164062 57.5625 511.101562 C 37.652344 450.925781 53.179688 383.789062 80.933594 331.007812 C 108.753906 278.097656 153.03125 236.308594 188.847656 188.90625 C 226.789062 138.695312 230.089844 41.339844 295.824219 25.988281 Z M 295.824219 25.988281 " fill-opacity="1" fill-rule="evenodd"/><g clip-path="url(#0b931bf502)"><path fill="#000000" d="M 461.511719 647.617188 C 408.554688 647.617188 357.808594 610.171875 308.710938 573.929688 C 277.964844 551.238281 248.929688 529.808594 219.835938 517.332031 C 209.59375 512.9375 198.339844 508.503906 186.554688 503.867188 C 107.980469 472.910156 0.363281 430.507812 19.910156 325.710938 C 30.296875 269.992188 70.015625 215.796875 128.863281 177.019531 C 162.195312 155.066406 199.953125 140.765625 236.46875 126.925781 C 255.023438 119.898438 274.199219 112.636719 292.476562 104.46875 C 312.691406 95.464844 332.554688 78.59375 351.757812 62.285156 C 387.167969 32.222656 423.773438 1.019531 467.191406 13.347656 C 467.191406 13.347656 467.191406 13.347656 467.203125 13.347656 C 536.929688 33.019531 643.523438 138.609375 713.605469 223.03125 C 725.035156 236.800781 739.472656 255.441406 749.761719 277.679688 C 802.839844 392.425781 704.285156 464.867188 625.109375 523.054688 C 610.027344 534.132812 595.796875 544.609375 583.242188 554.847656 C 574.707031 561.824219 564.757812 572.613281 554.21875 584.035156 C 526.980469 613.5625 496.117188 647.027344 463.429688 647.605469 C 462.800781 647.617188 462.15625 647.617188 461.511719 647.617188 Z M 447.527344 17.617188 C 415.21875 17.617188 386.476562 42.023438 356.308594 67.636719 C 336.71875 84.277344 316.472656 101.476562 295.339844 110.894531 C 276.882812 119.128906 257.601562 126.433594 238.960938 133.503906 C 202.800781 147.1875 165.414062 161.355469 132.734375 182.894531 C 75.464844 220.617188 36.855469 273.148438 26.8125 327.003906 C 8.335938 426.101562 108.578125 465.59375 189.128906 497.332031 C 200.984375 502 212.304688 506.460938 222.609375 510.878906 C 252.449219 523.675781 281.800781 545.335938 312.882812 568.273438 C 361.636719 604.253906 411.929688 641.480469 463.320312 640.574219 C 492.988281 640.054688 524.070312 606.355469 549.046875 579.269531 C 559.761719 567.65625 569.875 556.6875 578.796875 549.414062 C 591.488281 539.046875 605.800781 528.535156 620.949219 517.402344 C 698.070312 460.71875 794.058594 390.175781 743.394531 280.632812 C 733.433594 259.132812 719.355469 240.960938 708.199219 227.535156 C 638.761719 143.867188 533.46875 39.347656 465.285156 20.101562 C 459.230469 18.398438 453.316406 17.617188 447.527344 17.617188 Z M 447.527344 17.617188 " fill-opacity="1" fill-rule="nonzero"/></g></g></g></g><g fill="#000000" fill-opacity="1"><g transform="translate(92.789465, 428.685937)"><g><path d="M 17.359375 3.046875 C 15.273438 2.503906 13.378906 1.445312 11.671875 -0.125 C 9.972656 -1.695312 8.882812 -3.363281 8.40625 -5.125 C 8.1875 -6.71875 8.078125 -8.503906 8.078125 -10.484375 C 8.078125 -11.765625 8.15625 -12.484375 8.3125 -12.640625 C 8.476562 -12.742188 8.5625 -13.0625 8.5625 -13.59375 C 8.507812 -13.914062 8.695312 -14.796875 9.125 -16.234375 C 9.5 -17.203125 9.601562 -18.03125 9.4375 -18.71875 C 9.488281 -18.820312 9.582031 -19.007812 9.71875 -19.28125 C 9.851562 -19.550781 10.023438 -19.816406 10.234375 -20.078125 C 10.503906 -20.347656 10.648438 -20.628906 10.671875 -20.921875 C 10.703125 -21.210938 10.691406 -21.410156 10.640625 -21.515625 L 10.640625 -21.59375 C 10.640625 -21.8125 10.707031 -22.09375 10.84375 -22.4375 C 10.976562 -22.78125 11.125 -23.0625 11.28125 -23.28125 C 11.4375 -23.4375 11.582031 -23.644531 11.71875 -23.90625 C 11.851562 -24.175781 11.945312 -24.367188 12 -24.484375 C 12.050781 -24.859375 12.460938 -26.046875 13.234375 -28.046875 C 14.015625 -30.046875 14.535156 -31.257812 14.796875 -31.6875 L 14.796875 -31.84375 C 15.015625 -32.375 15.3125 -32.929688 15.6875 -33.515625 C 15.789062 -34.265625 16.160156 -35.304688 16.796875 -36.640625 C 18.023438 -39.359375 19.742188 -42.488281 21.953125 -46.03125 C 24.171875 -49.582031 25.921875 -51.972656 27.203125 -53.203125 C 27.734375 -53.785156 28.171875 -54.195312 28.515625 -54.4375 C 28.867188 -54.675781 29.203125 -54.796875 29.515625 -54.796875 C 29.992188 -54.796875 30.609375 -54.425781 31.359375 -53.6875 C 31.992188 -53.039062 32.3125 -52.1875 32.3125 -51.125 C 32.3125 -50.53125 32.207031 -50.234375 32 -50.234375 C 31.300781 -49.753906 29.910156 -48.019531 27.828125 -45.03125 C 25.753906 -42.050781 24.078125 -39.390625 22.796875 -37.046875 C 22.109375 -35.546875 21.507812 -34.289062 21 -33.28125 C 20.488281 -32.269531 20.15625 -31.601562 20 -31.28125 L 19.6875 -30.5625 C 18.40625 -27.84375 17.203125 -24.910156 16.078125 -21.765625 C 15.816406 -21.441406 15.644531 -21.101562 15.5625 -20.75 C 15.476562 -20.40625 15.4375 -20.179688 15.4375 -20.078125 C 15.332031 -20.128906 15.238281 -19.984375 15.15625 -19.640625 C 15.082031 -19.296875 14.988281 -18.988281 14.875 -18.71875 C 14.5 -18.394531 14.3125 -17.625 14.3125 -16.40625 C 13.726562 -14.957031 13.25 -13.140625 12.875 -10.953125 C 12.5 -8.773438 12.367188 -7.148438 12.484375 -6.078125 C 12.691406 -4.316406 14.15625 -2.90625 16.875 -1.84375 C 18.101562 -1.363281 19.007812 -1.125 19.59375 -1.125 C 19.96875 -1.070312 20.539062 -1.097656 21.3125 -1.203125 C 22.09375 -1.304688 22.988281 -1.4375 24 -1.59375 L 23.921875 -1.59375 C 24.179688 -1.65625 25.644531 -1.976562 28.3125 -2.5625 C 29.59375 -2.71875 30.660156 -2.957031 31.515625 -3.28125 C 33.117188 -3.757812 34.160156 -4 34.640625 -4 C 34.960938 -4 35.175781 -3.945312 35.28125 -3.84375 C 35.707031 -3.519531 35.921875 -3.117188 35.921875 -2.640625 L 35.765625 -1.921875 C 35.597656 -1.492188 34.738281 -0.851562 33.1875 0 C 31.644531 0.851562 30.15625 1.492188 28.71875 1.921875 C 27.601562 2.398438 26.3125 2.769531 24.84375 3.03125 C 23.375 3.300781 21.945312 3.4375 20.5625 3.4375 C 19.125 3.4375 18.054688 3.304688 17.359375 3.046875 Z M 17.359375 3.046875 "/></g></g></g><g fill="#000000" fill-opacity="1"><g transform="translate(126.866158, 428.685937)"><g><path d="M 16.640625 -35.046875 C 16.265625 -35.410156 15.941406 -36.046875 15.671875 -36.953125 C 15.410156 -37.859375 15.414062 -38.3125 15.6875 -38.3125 C 16.101562 -38.375 16.59375 -38.84375 17.15625 -39.71875 C 17.71875 -40.601562 17.972656 -41.335938 17.921875 -41.921875 C 17.921875 -42.128906 18 -42.328125 18.15625 -42.515625 C 18.320312 -42.703125 18.507812 -42.820312 18.71875 -42.875 C 19.144531 -43.144531 19.519531 -43.28125 19.84375 -43.28125 C 20.75 -43.28125 21.570312 -42.640625 22.3125 -41.359375 C 22.632812 -40.660156 22.796875 -40.046875 22.796875 -39.515625 C 22.796875 -39.035156 22.660156 -38.539062 22.390625 -38.03125 C 22.128906 -37.53125 21.648438 -36.878906 20.953125 -36.078125 C 20.046875 -34.847656 19.195312 -34.234375 18.40625 -34.234375 C 17.863281 -34.234375 17.273438 -34.503906 16.640625 -35.046875 Z M 8.875 -2.5625 C 8.132812 -3.3125 7.765625 -4.378906 7.765625 -5.765625 C 7.765625 -6.503906 7.894531 -7.144531 8.15625 -7.6875 C 8.15625 -7.945312 8.207031 -8.265625 8.3125 -8.640625 C 8.425781 -9.015625 8.484375 -9.253906 8.484375 -9.359375 C 8.429688 -9.679688 8.644531 -10.5625 9.125 -12 C 10.082031 -14.132812 11.359375 -17.894531 12.953125 -23.28125 C 12.953125 -23.550781 13.054688 -23.773438 13.265625 -23.953125 C 13.484375 -24.140625 13.804688 -24.257812 14.234375 -24.3125 C 14.660156 -24.425781 14.957031 -24.484375 15.125 -24.484375 C 15.4375 -24.484375 15.710938 -24.363281 15.953125 -24.125 C 16.191406 -23.882812 16.523438 -23.441406 16.953125 -22.796875 C 17.273438 -22.472656 17.4375 -21.992188 17.4375 -21.359375 C 17.4375 -20.347656 17.09375 -19.125 16.40625 -17.6875 C 15.707031 -16.132812 15.253906 -14.800781 15.046875 -13.6875 C 14.398438 -12.238281 13.890625 -10.90625 13.515625 -9.6875 C 13.410156 -9.363281 13.25 -8.71875 13.03125 -7.75 C 12.820312 -6.789062 12.53125 -6.019531 12.15625 -5.4375 C 11.84375 -3.945312 11.550781 -2.90625 11.28125 -2.3125 C 11.007812 -1.726562 10.71875 -1.4375 10.40625 -1.4375 C 10.03125 -1.4375 9.519531 -1.8125 8.875 -2.5625 Z M 8.875 -2.5625 "/></g></g></g><g fill="#000000" fill-opacity="1"><g transform="translate(141.824707, 428.685937)"><g><path d="M 12.875 0.3125 C 11.914062 -0.0507812 10.984375 -0.59375 10.078125 -1.3125 C 9.171875 -2.039062 8.554688 -2.671875 8.234375 -3.203125 C 8.234375 -3.304688 8.234375 -3.488281 8.234375 -3.75 C 8.234375 -4.019531 8.3125 -4.195312 8.46875 -4.28125 C 8.632812 -4.363281 8.929688 -4.40625 9.359375 -4.40625 C 10.265625 -4.40625 11.707031 -4.296875 13.6875 -4.078125 C 14.851562 -4.078125 16.179688 -4.222656 17.671875 -4.515625 C 19.171875 -4.804688 20 -5.140625 20.15625 -5.515625 C 20.320312 -5.515625 20.40625 -5.539062 20.40625 -5.59375 C 20.40625 -5.707031 20.191406 -5.976562 19.765625 -6.40625 C 19.648438 -6.40625 19.40625 -6.492188 19.03125 -6.671875 C 18.664062 -6.859375 18.425781 -6.953125 18.3125 -6.953125 C 18.3125 -7.171875 18.070312 -7.453125 17.59375 -7.796875 C 17.113281 -8.140625 16.582031 -8.445312 16 -8.71875 C 14.457031 -10 13.363281 -10.945312 12.71875 -11.5625 C 12.082031 -12.175781 11.84375 -12.613281 12 -12.875 L 12 -13.28125 C 11.625 -13.28125 11.207031 -13.800781 10.75 -14.84375 C 10.300781 -15.882812 10.078125 -16.859375 10.078125 -17.765625 C 10.078125 -18.722656 10.488281 -20.050781 11.3125 -21.75 C 12.144531 -23.457031 13.09375 -24.847656 14.15625 -25.921875 C 15.65625 -27.304688 17.585938 -28.769531 19.953125 -30.3125 C 22.328125 -31.863281 24.207031 -32.851562 25.59375 -33.28125 C 26.5 -33.65625 27.40625 -33.84375 28.3125 -33.84375 C 29.164062 -33.84375 29.890625 -33.65625 30.484375 -33.28125 C 31.171875 -32.851562 31.847656 -32.238281 32.515625 -31.4375 C 33.179688 -30.632812 33.625 -29.914062 33.84375 -29.28125 C 33.84375 -28.101562 33.722656 -26.96875 33.484375 -25.875 C 33.242188 -24.78125 32.882812 -24.234375 32.40625 -24.234375 C 32.34375 -24.234375 32.257812 -24.207031 32.15625 -24.15625 C 32.050781 -24.101562 32 -23.972656 32 -23.765625 C 32 -23.546875 31.890625 -23.265625 31.671875 -22.921875 C 31.460938 -22.578125 31.171875 -22.242188 30.796875 -21.921875 C 29.628906 -21.066406 28.671875 -20.640625 27.921875 -20.640625 C 27.335938 -20.640625 26.960938 -20.929688 26.796875 -21.515625 C 26.691406 -21.628906 26.582031 -21.789062 26.46875 -22 C 26.363281 -22.207031 26.234375 -22.3125 26.078125 -22.3125 C 26.023438 -22.3125 25.929688 -22.40625 25.796875 -22.59375 C 25.660156 -22.78125 25.59375 -23.035156 25.59375 -23.359375 C 25.59375 -23.515625 25.660156 -23.6875 25.796875 -23.875 C 25.929688 -24.0625 26.023438 -24.179688 26.078125 -24.234375 C 26.398438 -24.234375 26.929688 -24.859375 27.671875 -26.109375 C 28.421875 -27.367188 28.796875 -28.210938 28.796875 -28.640625 C 28.796875 -28.960938 28.753906 -29.148438 28.671875 -29.203125 C 28.597656 -29.253906 28.347656 -29.28125 27.921875 -29.28125 C 23.765625 -27.414062 21.175781 -26.003906 20.15625 -25.046875 C 20 -24.722656 19.878906 -24.503906 19.796875 -24.390625 C 19.722656 -24.285156 19.578125 -24.234375 19.359375 -24.234375 C 19.359375 -24.710938 17.945312 -22.898438 15.125 -18.796875 C 15.007812 -18.691406 14.882812 -18.375 14.75 -17.84375 C 14.625 -17.3125 14.5625 -16.859375 14.5625 -16.484375 C 14.457031 -16.054688 14.40625 -15.816406 14.40625 -15.765625 C 14.40625 -15.546875 14.492188 -15.328125 14.671875 -15.109375 C 14.859375 -14.898438 15.113281 -14.675781 15.4375 -14.4375 C 15.757812 -14.195312 16.082031 -13.945312 16.40625 -13.6875 C 19.175781 -11.601562 21.109375 -10.039062 22.203125 -9 C 23.296875 -7.957031 23.945312 -7.09375 24.15625 -6.40625 C 24.851562 -5.332031 25.203125 -4.367188 25.203125 -3.515625 C 25.203125 -2.878906 24.960938 -2.320312 24.484375 -1.84375 C 24.003906 -1.363281 23.28125 -0.910156 22.3125 -0.484375 C 21.726562 -0.210938 20.742188 0.015625 19.359375 0.203125 C 17.972656 0.390625 16.613281 0.484375 15.28125 0.484375 C 14.53125 0.484375 13.726562 0.425781 12.875 0.3125 Z M 12.875 0.3125 "/></g></g></g><g fill="#000000" fill-opacity="1"><g transform="translate(169.102054, 428.685937)"><g><path d="M 14.3125 -0.5625 C 13.46875 -0.71875 12.601562 -1.289062 11.71875 -2.28125 C 10.84375 -3.269531 10.269531 -4.191406 10 -5.046875 C 10 -5.148438 9.945312 -5.265625 9.84375 -5.390625 C 9.738281 -5.523438 9.65625 -5.625 9.59375 -5.6875 C 9.382812 -5.84375 9.28125 -6.71875 9.28125 -8.3125 C 9.28125 -9.59375 9.347656 -10.925781 9.484375 -12.3125 C 9.617188 -13.707031 9.789062 -14.832031 10 -15.6875 L 11.4375 -19.921875 L 12.5625 -23.125 L 14.71875 -27.765625 L 11.515625 -28.640625 C 11.140625 -28.691406 10.832031 -28.878906 10.59375 -29.203125 C 10.351562 -29.523438 10.234375 -29.816406 10.234375 -30.078125 C 10.234375 -30.503906 10.457031 -31.023438 10.90625 -31.640625 C 11.363281 -32.253906 11.726562 -32.5625 12 -32.5625 C 12.15625 -32.507812 12.582031 -32.484375 13.28125 -32.484375 C 14.882812 -32.484375 16.082031 -32.5625 16.875 -32.71875 C 17.414062 -32.9375 17.789062 -33.363281 18 -34 C 18.207031 -34.425781 18.457031 -34.957031 18.75 -35.59375 C 19.050781 -36.238281 19.332031 -36.828125 19.59375 -37.359375 C 19.757812 -37.679688 20.015625 -38.175781 20.359375 -38.84375 C 20.703125 -39.507812 21.144531 -40.269531 21.6875 -41.125 C 21.789062 -41.28125 22.023438 -41.664062 22.390625 -42.28125 C 22.765625 -42.894531 23.222656 -43.414062 23.765625 -43.84375 C 24.128906 -44.21875 24.582031 -44.40625 25.125 -44.40625 C 25.65625 -44.40625 26.347656 -44.054688 27.203125 -43.359375 C 27.304688 -43.203125 27.453125 -42.988281 27.640625 -42.71875 C 27.828125 -42.445312 27.921875 -42.207031 27.921875 -42 C 27.921875 -41.789062 27.707031 -41.335938 27.28125 -40.640625 C 26.957031 -40.003906 26.648438 -39.429688 26.359375 -38.921875 C 26.066406 -38.410156 25.8125 -37.96875 25.59375 -37.59375 C 24.957031 -36.53125 24.503906 -35.734375 24.234375 -35.203125 C 23.703125 -34.503906 23.4375 -33.96875 23.4375 -33.59375 C 23.4375 -33.226562 23.785156 -33.046875 24.484375 -33.046875 C 25.222656 -33.046875 26.472656 -33.203125 28.234375 -33.515625 C 28.984375 -33.628906 29.492188 -33.6875 29.765625 -33.6875 C 31.628906 -33.6875 32.640625 -32.910156 32.796875 -31.359375 C 32.847656 -31.035156 32.875 -30.660156 32.875 -30.234375 C 32.875 -29.492188 32.617188 -29.039062 32.109375 -28.875 C 31.609375 -28.71875 30.476562 -28.640625 28.71875 -28.640625 C 27.007812 -28.367188 25.25 -28.234375 23.4375 -28.234375 C 23.113281 -28.234375 22.753906 -28.21875 22.359375 -28.1875 C 21.960938 -28.164062 21.550781 -28.101562 21.125 -28 C 20.695312 -27.894531 20.390625 -27.734375 20.203125 -27.515625 C 20.015625 -27.304688 19.8125 -26.960938 19.59375 -26.484375 C 19.4375 -26.316406 19.066406 -25.703125 18.484375 -24.640625 C 17.734375 -23.085938 17.253906 -22.15625 17.046875 -21.84375 C 15.597656 -17.570312 14.53125 -13.195312 13.84375 -8.71875 C 13.738281 -7.863281 13.6875 -7.332031 13.6875 -7.125 C 13.6875 -6.320312 13.953125 -5.757812 14.484375 -5.4375 C 15.015625 -5.113281 15.921875 -4.953125 17.203125 -4.953125 C 19.015625 -4.953125 20.585938 -5.140625 21.921875 -5.515625 C 23.515625 -6.210938 24.710938 -6.800781 25.515625 -7.28125 C 25.992188 -7.550781 26.429688 -7.804688 26.828125 -8.046875 C 27.234375 -8.285156 27.519531 -8.457031 27.6875 -8.5625 C 27.84375 -8.882812 28.023438 -9.046875 28.234375 -9.046875 C 28.660156 -9.046875 29.035156 -8.617188 29.359375 -7.765625 C 29.359375 -6.910156 29.171875 -6.160156 28.796875 -5.515625 C 28.421875 -4.878906 27.488281 -4.132812 26 -3.28125 C 22.90625 -1.300781 19.8125 -0.3125 16.71875 -0.3125 C 15.863281 -0.3125 15.0625 -0.394531 14.3125 -0.5625 Z M 14.3125 -0.5625 "/></g></g></g><g fill="#000000" fill-opacity="1"><g transform="translate(195.579481, 428.685937)"><g><path d="M 22.078125 -2.796875 C 20.742188 -1.628906 19.144531 -1.046875 17.28125 -1.046875 C 15.945312 -1.046875 14.679688 -1.363281 13.484375 -2 C 12.285156 -2.632812 11.285156 -3.515625 10.484375 -4.640625 C 9.785156 -5.492188 9.273438 -6.453125 8.953125 -7.515625 C 8.640625 -8.585938 8.484375 -9.894531 8.484375 -11.4375 C 8.484375 -11.96875 8.535156 -13.035156 8.640625 -14.640625 C 8.796875 -16.609375 9.445312 -18.660156 10.59375 -20.796875 C 11.738281 -22.929688 13.164062 -24.835938 14.875 -26.515625 C 16.582031 -28.203125 18.265625 -29.363281 19.921875 -30 C 20.773438 -30.53125 21.546875 -30.796875 22.234375 -30.796875 C 22.609375 -30.796875 22.984375 -30.769531 23.359375 -30.71875 C 23.734375 -30.664062 24.132812 -30.613281 24.5625 -30.5625 C 25.726562 -30.394531 26.617188 -30.164062 27.234375 -29.875 C 27.847656 -29.582031 28.367188 -29.144531 28.796875 -28.5625 C 30.128906 -27.226562 30.796875 -25.679688 30.796875 -23.921875 C 30.585938 -22.640625 29.757812 -21.171875 28.3125 -19.515625 C 26.875 -17.867188 25.144531 -16.535156 23.125 -15.515625 C 22.164062 -15.203125 21.070312 -15.046875 19.84375 -15.046875 C 18.1875 -15.046875 16.851562 -15.390625 15.84375 -16.078125 C 15.363281 -16.234375 14.988281 -16.3125 14.71875 -16.3125 C 14.238281 -16.3125 13.878906 -15.992188 13.640625 -15.359375 C 13.398438 -14.722656 13.171875 -13.550781 12.953125 -11.84375 C 12.898438 -11.46875 12.875 -10.929688 12.875 -10.234375 C 12.875 -7.515625 13.78125 -6.023438 15.59375 -5.765625 C 16.820312 -5.492188 17.703125 -5.359375 18.234375 -5.359375 C 18.878906 -5.359375 19.601562 -5.570312 20.40625 -6 L 21.921875 -6.875 C 22.242188 -7.039062 22.535156 -7.253906 22.796875 -7.515625 C 23.066406 -7.785156 23.304688 -8.023438 23.515625 -8.234375 C 23.628906 -8.347656 23.789062 -8.523438 24 -8.765625 C 24.207031 -9.003906 24.40625 -9.160156 24.59375 -9.234375 C 24.78125 -9.316406 24.957031 -9.359375 25.125 -9.359375 C 25.332031 -9.359375 25.566406 -9.238281 25.828125 -9 C 26.097656 -8.757812 26.316406 -8.585938 26.484375 -8.484375 C 26.960938 -8.484375 27.066406 -8.148438 26.796875 -7.484375 C 26.535156 -6.816406 25.960938 -6.039062 25.078125 -5.15625 C 24.203125 -4.28125 23.203125 -3.492188 22.078125 -2.796875 Z M 22 -19.765625 C 22.90625 -20.128906 23.820312 -20.789062 24.75 -21.75 C 25.6875 -22.71875 26.15625 -23.519531 26.15625 -24.15625 C 26.15625 -24.800781 25.914062 -25.335938 25.4375 -25.765625 C 24.957031 -26.191406 24.289062 -26.40625 23.4375 -26.40625 C 22.800781 -26.40625 22.320312 -26.347656 22 -26.234375 C 21.25 -26.023438 20.367188 -25.453125 19.359375 -24.515625 C 18.347656 -23.585938 17.46875 -22.640625 16.71875 -21.671875 C 15.96875 -20.710938 15.675781 -20.15625 15.84375 -20 C 16.101562 -19.519531 17.140625 -19.28125 18.953125 -19.28125 C 20.179688 -19.28125 21.195312 -19.441406 22 -19.765625 Z M 22 -19.765625 "/></g></g></g><g fill="#000000" fill-opacity="1"><g transform="translate(221.576954, 428.685937)"><g><path d="M 36.3125 -3.6875 C 35.25 -3.6875 34.367188 -3.910156 33.671875 -4.359375 C 32.984375 -4.816406 32.398438 -5.578125 31.921875 -6.640625 C 31.441406 -8.347656 31.203125 -10.054688 31.203125 -11.765625 C 31.203125 -12.554688 31.28125 -13.113281 31.4375 -13.4375 C 31.65625 -13.65625 31.75 -14.125 31.71875 -14.84375 C 31.695312 -15.5625 31.6875 -16.082031 31.6875 -16.40625 C 31.625 -17.625 31.25 -18.234375 30.5625 -18.234375 C 30.082031 -18.234375 29.546875 -18.050781 28.953125 -17.6875 C 25.972656 -15.8125 23.46875 -14.207031 21.4375 -12.875 C 19.414062 -11.539062 17.46875 -10.050781 15.59375 -8.40625 C 14.851562 -7.550781 14.296875 -6.800781 13.921875 -6.15625 C 13.546875 -5.519531 13.273438 -5.082031 13.109375 -4.84375 C 12.953125 -4.601562 12.742188 -4.484375 12.484375 -4.484375 C 12.160156 -4.367188 11.945312 -4.3125 11.84375 -4.3125 C 11.570312 -4.3125 11.25 -4.457031 10.875 -4.75 C 10.5 -5.050781 10.257812 -5.253906 10.15625 -5.359375 C 9.945312 -5.578125 9.601562 -5.9375 9.125 -6.4375 C 8.644531 -6.945312 8.375 -7.304688 8.3125 -7.515625 C 8.3125 -7.941406 8.484375 -8.925781 8.828125 -10.46875 C 9.179688 -12.019531 9.46875 -13.007812 9.6875 -13.4375 C 9.84375 -13.4375 10.078125 -13.769531 10.390625 -14.4375 C 10.710938 -15.101562 11.007812 -15.625 11.28125 -16 C 11.4375 -16.800781 12.128906 -18.640625 13.359375 -21.515625 C 14.109375 -22.796875 14.628906 -23.863281 14.921875 -24.71875 C 15.210938 -25.570312 15.410156 -26.640625 15.515625 -27.921875 L 15.515625 -28.078125 C 15.515625 -28.296875 15.59375 -28.46875 15.75 -28.59375 C 15.914062 -28.726562 16.078125 -28.796875 16.234375 -28.796875 C 16.609375 -29.066406 16.957031 -29.203125 17.28125 -29.203125 C 17.96875 -29.203125 18.660156 -28.773438 19.359375 -27.921875 C 20.160156 -26.910156 20.5625 -25.84375 20.5625 -24.71875 C 20.5625 -23.332031 19.679688 -21.144531 17.921875 -18.15625 C 17.765625 -17.78125 17.535156 -17.242188 17.234375 -16.546875 C 16.941406 -15.859375 16.796875 -15.382812 16.796875 -15.125 L 21.28125 -18.15625 C 21.707031 -18.632812 22.851562 -19.488281 24.71875 -20.71875 C 26.582031 -21.945312 27.890625 -22.640625 28.640625 -22.796875 C 29.921875 -23.390625 30.722656 -23.6875 31.046875 -23.6875 C 31.679688 -23.6875 32.546875 -23.203125 33.640625 -22.234375 C 34.734375 -21.273438 35.382812 -20.476562 35.59375 -19.84375 C 35.59375 -19.25 35.648438 -18.820312 35.765625 -18.5625 C 36.023438 -17.488281 36.15625 -16.234375 36.15625 -14.796875 C 36.15625 -13.835938 36.085938 -12.972656 35.953125 -12.203125 C 35.828125 -11.429688 35.65625 -10.988281 35.4375 -10.875 C 35.4375 -10.820312 35.460938 -10.742188 35.515625 -10.640625 C 35.566406 -10.535156 35.675781 -10.484375 35.84375 -10.484375 L 35.84375 -10.078125 C 35.414062 -10.078125 35.359375 -9.625 35.671875 -8.71875 C 35.992188 -7.8125 36.421875 -7.117188 36.953125 -6.640625 C 37.492188 -6.109375 37.765625 -5.578125 37.765625 -5.046875 C 37.765625 -4.398438 37.28125 -3.945312 36.3125 -3.6875 Z M 36.3125 -3.6875 "/></g></g></g><g fill="#000000" fill-opacity="1"><g transform="translate(257.573462, 428.685937)"><g/></g></g><g fill="#000000" fill-opacity="1"><g transform="translate(276.931578, 428.685937)"><g><path d="M 14.3125 -0.5625 C 13.46875 -0.71875 12.601562 -1.289062 11.71875 -2.28125 C 10.84375 -3.269531 10.269531 -4.191406 10 -5.046875 C 10 -5.148438 9.945312 -5.265625 9.84375 -5.390625 C 9.738281 -5.523438 9.65625 -5.625 9.59375 -5.6875 C 9.382812 -5.84375 9.28125 -6.71875 9.28125 -8.3125 C 9.28125 -9.59375 9.347656 -10.925781 9.484375 -12.3125 C 9.617188 -13.707031 9.789062 -14.832031 10 -15.6875 L 11.4375 -19.921875 L 12.5625 -23.125 L 14.71875 -27.765625 L 11.515625 -28.640625 C 11.140625 -28.691406 10.832031 -28.878906 10.59375 -29.203125 C 10.351562 -29.523438 10.234375 -29.816406 10.234375 -30.078125 C 10.234375 -30.503906 10.457031 -31.023438 10.90625 -31.640625 C 11.363281 -32.253906 11.726562 -32.5625 12 -32.5625 C 12.15625 -32.507812 12.582031 -32.484375 13.28125 -32.484375 C 14.882812 -32.484375 16.082031 -32.5625 16.875 -32.71875 C 17.414062 -32.9375 17.789062 -33.363281 18 -34 C 18.207031 -34.425781 18.457031 -34.957031 18.75 -35.59375 C 19.050781 -36.238281 19.332031 -36.828125 19.59375 -37.359375 C 19.757812 -37.679688 20.015625 -38.175781 20.359375 -38.84375 C 20.703125 -39.507812 21.144531 -40.269531 21.6875 -41.125 C 21.789062 -41.28125 22.023438 -41.664062 22.390625 -42.28125 C 22.765625 -42.894531 23.222656 -43.414062 23.765625 -43.84375 C 24.128906 -44.21875 24.582031 -44.40625 25.125 -44.40625 C 25.65625 -44.40625 26.347656 -44.054688 27.203125 -43.359375 C 27.304688 -43.203125 27.453125 -42.988281 27.640625 -42.71875 C 27.828125 -42.445312 27.921875 -42.207031 27.921875 -42 C 27.921875 -41.789062 27.707031 -41.335938 27.28125 -40.640625 C 26.957031 -40.003906 26.648438 -39.429688 26.359375 -38.921875 C 26.066406 -38.410156 25.8125 -37.96875 25.59375 -37.59375 C 24.957031 -36.53125 24.503906 -35.734375 24.234375 -35.203125 C 23.703125 -34.503906 23.4375 -33.96875 23.4375 -33.59375 C 23.4375 -33.226562 23.785156 -33.046875 24.484375 -33.046875 C 25.222656 -33.046875 26.472656 -33.203125 28.234375 -33.515625 C 28.984375 -33.628906 29.492188 -33.6875 29.765625 -33.6875 C 31.628906 -33.6875 32.640625 -32.910156 32.796875 -31.359375 C 32.847656 -31.035156 32.875 -30.660156 32.875 -30.234375 C 32.875 -29.492188 32.617188 -29.039062 32.109375 -28.875 C 31.609375 -28.71875 30.476562 -28.640625 28.71875 -28.640625 C 27.007812 -28.367188 25.25 -28.234375 23.4375 -28.234375 C 23.113281 -28.234375 22.753906 -28.21875 22.359375 -28.1875 C 21.960938 -28.164062 21.550781 -28.101562 21.125 -28 C 20.695312 -27.894531 20.390625 -27.734375 20.203125 -27.515625 C 20.015625 -27.304688 19.8125 -26.960938 19.59375 -26.484375 C 19.4375 -26.316406 19.066406 -25.703125 18.484375 -24.640625 C 17.734375 -23.085938 17.253906 -22.15625 17.046875 -21.84375 C 15.597656 -17.570312 14.53125 -13.195312 13.84375 -8.71875 C 13.738281 -7.863281 13.6875 -7.332031 13.6875 -7.125 C 13.6875 -6.320312 13.953125 -5.757812 14.484375 -5.4375 C 15.015625 -5.113281 15.921875 -4.953125 17.203125 -4.953125 C 19.015625 -4.953125 20.585938 -5.140625 21.921875 -5.515625 C 23.515625 -6.210938 24.710938 -6.800781 25.515625 -7.28125 C 25.992188 -7.550781 26.429688 -7.804688 26.828125 -8.046875 C 27.234375 -8.285156 27.519531 -8.457031 27.6875 -8.5625 C 27.84375 -8.882812 28.023438 -9.046875 28.234375 -9.046875 C 28.660156 -9.046875 29.035156 -8.617188 29.359375 -7.765625 C 29.359375 -6.910156 29.171875 -6.160156 28.796875 -5.515625 C 28.421875 -4.878906 27.488281 -4.132812 26 -3.28125 C 22.90625 -1.300781 19.8125 -0.3125 16.71875 -0.3125 C 15.863281 -0.3125 15.0625 -0.394531 14.3125 -0.5625 Z M 14.3125 -0.5625 "/></g></g></g><g fill="#000000" fill-opacity="1"><g transform="translate(303.408994, 428.685937)"><g><path d="M 13.515625 -1.203125 C 12.878906 -1.203125 12.375 -1.304688 12 -1.515625 C 11.625 -1.734375 11.09375 -2.132812 10.40625 -2.71875 C 8.644531 -4.582031 7.765625 -6.289062 7.765625 -7.84375 C 7.765625 -8.21875 7.789062 -8.484375 7.84375 -8.640625 C 8 -9.015625 8.0625 -9.382812 8.03125 -9.75 C 8.007812 -10.125 8 -10.367188 8 -10.484375 C 7.789062 -10.691406 7.6875 -10.835938 7.6875 -10.921875 C 7.6875 -11.003906 7.738281 -11.082031 7.84375 -11.15625 C 7.945312 -11.238281 8.023438 -11.332031 8.078125 -11.4375 C 8.398438 -11.4375 8.507812 -11.726562 8.40625 -12.3125 C 8.289062 -12.738281 8.5 -13.6875 9.03125 -15.15625 C 9.570312 -16.625 10.242188 -17.972656 11.046875 -19.203125 C 11.628906 -20.160156 12.492188 -21.359375 13.640625 -22.796875 C 14.785156 -24.234375 15.8125 -25.328125 16.71875 -26.078125 C 18 -27.203125 19.144531 -28.03125 20.15625 -28.5625 C 21.175781 -29.09375 22.296875 -29.492188 23.515625 -29.765625 C 24.585938 -30.023438 25.3125 -30.15625 25.6875 -30.15625 C 26.050781 -30.15625 26.378906 -30.0625 26.671875 -29.875 C 26.972656 -29.6875 27.363281 -29.351562 27.84375 -28.875 C 29.28125 -28.238281 30.28125 -27.425781 30.84375 -26.4375 C 31.40625 -25.445312 31.6875 -23.914062 31.6875 -21.84375 C 31.6875 -18.375 30.269531 -14.613281 27.4375 -10.5625 C 26.207031 -8.800781 25.0625 -7.453125 24 -6.515625 C 22.9375 -5.585938 21.523438 -4.585938 19.765625 -3.515625 C 18.640625 -2.710938 17.609375 -2.140625 16.671875 -1.796875 C 15.742188 -1.453125 14.691406 -1.253906 13.515625 -1.203125 Z M 21.203125 -9.6875 C 22.484375 -11.125 23.507812 -12.484375 24.28125 -13.765625 C 25.050781 -15.046875 25.785156 -16.671875 26.484375 -18.640625 C 26.742188 -19.546875 26.875 -20.640625 26.875 -21.921875 C 26.875 -23.515625 26.660156 -24.421875 26.234375 -24.640625 C 25.703125 -24.910156 25.171875 -25.046875 24.640625 -25.046875 C 23.460938 -25.046875 22.234375 -24.507812 20.953125 -23.4375 C 19.410156 -22.101562 18.023438 -20.460938 16.796875 -18.515625 C 15.566406 -16.566406 14.316406 -14.15625 13.046875 -11.28125 C 12.503906 -10.15625 12.234375 -9.0625 12.234375 -8 C 12.234375 -7.195312 12.429688 -6.554688 12.828125 -6.078125 C 13.234375 -5.597656 13.785156 -5.359375 14.484375 -5.359375 C 16.242188 -5.359375 18.484375 -6.800781 21.203125 -9.6875 Z M 21.203125 -9.6875 "/></g></g></g><g fill="#000000" fill-opacity="1"><g transform="translate(331.646236, 428.685937)"><g/></g></g><g fill="#000000" fill-opacity="1"><g transform="translate(351.004351, 428.685937)"><g><path d="M 11.28125 1.515625 C 11.28125 1.679688 11.09375 1.765625 10.71875 1.765625 C 10.394531 1.765625 10.035156 1.679688 9.640625 1.515625 C 9.242188 1.359375 8.910156 1.117188 8.640625 0.796875 C 8.265625 0.472656 7.984375 0.207031 7.796875 0 C 7.609375 -0.207031 7.515625 -0.472656 7.515625 -0.796875 C 7.515625 -1.222656 7.675781 -1.914062 8 -2.875 C 8.425781 -4.800781 9.210938 -7.550781 10.359375 -11.125 C 11.503906 -14.695312 12.53125 -17.390625 13.4375 -19.203125 C 13.8125 -19.835938 14.101562 -20.5 14.3125 -21.1875 C 14.53125 -21.882812 14.664062 -22.34375 14.71875 -22.5625 C 14.988281 -23.519531 15.148438 -24.078125 15.203125 -24.234375 L 15.125 -25.046875 C 15.125 -25.253906 15.175781 -25.460938 15.28125 -25.671875 C 15.382812 -25.890625 15.570312 -26.132812 15.84375 -26.40625 C 16.582031 -27.039062 17.378906 -28.289062 18.234375 -30.15625 L 21.28125 -38.875 L 22.234375 -41.59375 C 22.285156 -41.8125 22.390625 -42.1875 22.546875 -42.71875 C 22.710938 -43.25 22.796875 -43.617188 22.796875 -43.828125 C 22.796875 -44.046875 22.742188 -44.15625 22.640625 -44.15625 C 22.210938 -44.050781 21.359375 -43.972656 20.078125 -43.921875 C 19.441406 -43.816406 18.960938 -43.75 18.640625 -43.71875 C 18.316406 -43.695312 18.078125 -43.65625 17.921875 -43.59375 L 17.359375 -43.59375 C 16.347656 -43.59375 15.84375 -43.96875 15.84375 -44.71875 C 15.945312 -45.570312 16.25 -46.28125 16.75 -46.84375 C 17.257812 -47.40625 17.914062 -47.710938 18.71875 -47.765625 L 21.84375 -48.484375 C 22.320312 -48.585938 22.972656 -48.734375 23.796875 -48.921875 C 24.628906 -49.109375 25.203125 -49.148438 25.515625 -49.046875 C 26.210938 -49.523438 26.5625 -49.894531 26.5625 -50.15625 C 26.5625 -50.425781 26.691406 -50.640625 26.953125 -50.796875 C 27.222656 -50.960938 27.546875 -51.046875 27.921875 -51.046875 C 28.671875 -51.046875 29.203125 -50.800781 29.515625 -50.3125 C 29.734375 -50 30.1875 -49.84375 30.875 -49.84375 C 32 -49.84375 33.867188 -50.132812 36.484375 -50.71875 C 36.910156 -50.769531 37.640625 -50.835938 38.671875 -50.921875 C 39.710938 -51.003906 40.582031 -51.046875 41.28125 -51.046875 C 42.238281 -51.046875 43.007812 -50.960938 43.59375 -50.796875 C 44.070312 -50.898438 44.5 -50.953125 44.875 -50.953125 C 45.25 -50.953125 45.570312 -50.984375 45.84375 -51.046875 C 46.75 -51.046875 47.304688 -51.125 47.515625 -51.28125 C 47.992188 -51.175781 48.539062 -51.082031 49.15625 -51 C 49.769531 -50.914062 50.207031 -50.820312 50.46875 -50.71875 C 50.738281 -50.613281 50.984375 -50.476562 51.203125 -50.3125 C 51.359375 -50.101562 51.4375 -49.914062 51.4375 -49.75 C 51.4375 -49.59375 51.410156 -49.488281 51.359375 -49.4375 L 51.203125 -49.515625 C 51.253906 -49.515625 51.347656 -49.472656 51.484375 -49.390625 C 51.617188 -49.316406 51.765625 -49.203125 51.921875 -49.046875 C 52.722656 -48.617188 52.988281 -48.003906 52.71875 -47.203125 C 52.664062 -46.878906 52.546875 -46.648438 52.359375 -46.515625 C 52.171875 -46.378906 51.726562 -46.296875 51.03125 -46.265625 C 50.34375 -46.242188 49.4375 -46.257812 48.3125 -46.3125 C 46.289062 -46.582031 44.535156 -46.71875 43.046875 -46.71875 C 40.804688 -46.71875 37.738281 -46.453125 33.84375 -45.921875 C 32.882812 -45.867188 31.988281 -45.734375 31.15625 -45.515625 C 30.332031 -45.304688 29.8125 -45.175781 29.59375 -45.125 C 29.332031 -45.125 28.929688 -44.722656 28.390625 -43.921875 C 27.859375 -43.117188 27.378906 -42.101562 26.953125 -40.875 C 26.640625 -40.394531 26.082031 -39.128906 25.28125 -37.078125 C 24.476562 -35.023438 23.945312 -33.679688 23.6875 -33.046875 C 22.507812 -29.953125 21.84375 -28.269531 21.6875 -28 C 22.320312 -27.789062 23.597656 -27.6875 25.515625 -27.6875 C 28.296875 -27.6875 31.976562 -27.894531 36.5625 -28.3125 C 39.007812 -28.800781 40.421875 -28.960938 40.796875 -28.796875 C 41.117188 -28.585938 41.398438 -28.1875 41.640625 -27.59375 C 41.878906 -27.007812 42 -26.476562 42 -26 C 42 -25.726562 41.945312 -25.488281 41.84375 -25.28125 C 41.675781 -24.90625 41.097656 -24.609375 40.109375 -24.390625 C 39.128906 -24.179688 37.382812 -23.945312 34.875 -23.6875 C 32.53125 -23.46875 29.117188 -23.359375 24.640625 -23.359375 C 22.296875 -23.359375 20.910156 -23.410156 20.484375 -23.515625 C 20.367188 -23.460938 20.21875 -23.300781 20.03125 -23.03125 C 19.851562 -22.769531 19.765625 -22.453125 19.765625 -22.078125 C 18.796875 -20.367188 17.378906 -17.0625 15.515625 -12.15625 C 13.648438 -7.25 12.71875 -4.316406 12.71875 -3.359375 C 12.34375 -2.398438 12.050781 -1.304688 11.84375 -0.078125 C 11.789062 0.128906 11.707031 0.421875 11.59375 0.796875 C 11.488281 1.171875 11.382812 1.410156 11.28125 1.515625 Z M 11.28125 1.515625 "/></g></g></g><g fill="#000000" fill-opacity="1"><g transform="translate(388.280732, 428.685937)"><g><path d="M 9.515625 -2.796875 C 9.085938 -3.117188 8.796875 -3.410156 8.640625 -3.671875 C 8.484375 -3.941406 8.40625 -4.34375 8.40625 -4.875 C 8.40625 -5.351562 8.429688 -5.753906 8.484375 -6.078125 C 8.640625 -7.890625 9.039062 -10 9.6875 -12.40625 L 10.078125 -14 C 10.234375 -15.332031 11.164062 -18.128906 12.875 -22.390625 C 14.582031 -26.660156 15.972656 -29.570312 17.046875 -31.125 C 17.472656 -31.382812 17.925781 -31.515625 18.40625 -31.515625 C 19.09375 -31.515625 19.675781 -31.273438 20.15625 -30.796875 C 20.476562 -30.585938 20.640625 -30.1875 20.640625 -29.59375 C 20.640625 -29.0625 20.4375 -28.273438 20.03125 -27.234375 C 19.632812 -26.203125 18.957031 -24.671875 18 -22.640625 C 17.789062 -22.210938 17.429688 -21.410156 16.921875 -20.234375 C 16.410156 -19.066406 16.15625 -18.375 16.15625 -18.15625 C 16.15625 -18.050781 16.179688 -18 16.234375 -18 C 16.347656 -18 16.457031 -18.035156 16.5625 -18.109375 C 16.664062 -18.191406 16.769531 -18.257812 16.875 -18.3125 C 17.46875 -19.332031 18.894531 -20.722656 21.15625 -22.484375 C 23.425781 -24.242188 24.988281 -25.335938 25.84375 -25.765625 C 26.21875 -25.972656 26.695312 -26.179688 27.28125 -26.390625 C 27.863281 -26.609375 28.265625 -26.769531 28.484375 -26.875 C 29.335938 -27.300781 30.347656 -27.515625 31.515625 -27.515625 C 32.265625 -27.515625 32.914062 -27.394531 33.46875 -27.15625 C 34.03125 -26.914062 34.421875 -26.554688 34.640625 -26.078125 C 34.691406 -25.703125 34.835938 -25.40625 35.078125 -25.1875 C 35.316406 -24.976562 35.488281 -24.847656 35.59375 -24.796875 C 35.757812 -24.796875 35.867188 -24.726562 35.921875 -24.59375 C 35.972656 -24.46875 36 -24.375 36 -24.3125 C 36 -23.945312 35.785156 -23.722656 35.359375 -23.640625 C 34.929688 -23.554688 34.160156 -23.488281 33.046875 -23.4375 C 32.453125 -23.382812 31.832031 -23.25 31.1875 -23.03125 C 30.550781 -22.820312 29.914062 -22.554688 29.28125 -22.234375 C 26.289062 -20.535156 24.0625 -19.203125 22.59375 -18.234375 C 21.132812 -17.273438 19.65625 -15.96875 18.15625 -14.3125 C 17.570312 -13.675781 16.800781 -12.53125 15.84375 -10.875 C 15.46875 -10.5 15.078125 -9.523438 14.671875 -7.953125 C 14.273438 -6.378906 14.078125 -5.410156 14.078125 -5.046875 C 14.023438 -4.878906 13.914062 -4.566406 13.75 -4.109375 C 13.59375 -3.660156 13.359375 -3.222656 13.046875 -2.796875 C 12.398438 -1.941406 11.863281 -1.515625 11.4375 -1.515625 C 10.957031 -1.515625 10.316406 -1.941406 9.515625 -2.796875 Z M 9.515625 -2.796875 "/></g></g></g><g fill="#000000" fill-opacity="1"><g transform="translate(417.077933, 428.685937)"><g><path d="M 22.078125 -2.796875 C 20.742188 -1.628906 19.144531 -1.046875 17.28125 -1.046875 C 15.945312 -1.046875 14.679688 -1.363281 13.484375 -2 C 12.285156 -2.632812 11.285156 -3.515625 10.484375 -4.640625 C 9.785156 -5.492188 9.273438 -6.453125 8.953125 -7.515625 C 8.640625 -8.585938 8.484375 -9.894531 8.484375 -11.4375 C 8.484375 -11.96875 8.535156 -13.035156 8.640625 -14.640625 C 8.796875 -16.609375 9.445312 -18.660156 10.59375 -20.796875 C 11.738281 -22.929688 13.164062 -24.835938 14.875 -26.515625 C 16.582031 -28.203125 18.265625 -29.363281 19.921875 -30 C 20.773438 -30.53125 21.546875 -30.796875 22.234375 -30.796875 C 22.609375 -30.796875 22.984375 -30.769531 23.359375 -30.71875 C 23.734375 -30.664062 24.132812 -30.613281 24.5625 -30.5625 C 25.726562 -30.394531 26.617188 -30.164062 27.234375 -29.875 C 27.847656 -29.582031 28.367188 -29.144531 28.796875 -28.5625 C 30.128906 -27.226562 30.796875 -25.679688 30.796875 -23.921875 C 30.585938 -22.640625 29.757812 -21.171875 28.3125 -19.515625 C 26.875 -17.867188 25.144531 -16.535156 23.125 -15.515625 C 22.164062 -15.203125 21.070312 -15.046875 19.84375 -15.046875 C 18.1875 -15.046875 16.851562 -15.390625 15.84375 -16.078125 C 15.363281 -16.234375 14.988281 -16.3125 14.71875 -16.3125 C 14.238281 -16.3125 13.878906 -15.992188 13.640625 -15.359375 C 13.398438 -14.722656 13.171875 -13.550781 12.953125 -11.84375 C 12.898438 -11.46875 12.875 -10.929688 12.875 -10.234375 C 12.875 -7.515625 13.78125 -6.023438 15.59375 -5.765625 C 16.820312 -5.492188 17.703125 -5.359375 18.234375 -5.359375 C 18.878906 -5.359375 19.601562 -5.570312 20.40625 -6 L 21.921875 -6.875 C 22.242188 -7.039062 22.535156 -7.253906 22.796875 -7.515625 C 23.066406 -7.785156 23.304688 -8.023438 23.515625 -8.234375 C 23.628906 -8.347656 23.789062 -8.523438 24 -8.765625 C 24.207031 -9.003906 24.40625 -9.160156 24.59375 -9.234375 C 24.78125 -9.316406 24.957031 -9.359375 25.125 -9.359375 C 25.332031 -9.359375 25.566406 -9.238281 25.828125 -9 C 26.097656 -8.757812 26.316406 -8.585938 26.484375 -8.484375 C 26.960938 -8.484375 27.066406 -8.148438 26.796875 -7.484375 C 26.535156 -6.816406 25.960938 -6.039062 25.078125 -5.15625 C 24.203125 -4.28125 23.203125 -3.492188 22.078125 -2.796875 Z M 22 -19.765625 C 22.90625 -20.128906 23.820312 -20.789062 24.75 -21.75 C 25.6875 -22.71875 26.15625 -23.519531 26.15625 -24.15625 C 26.15625 -24.800781 25.914062 -25.335938 25.4375 -25.765625 C 24.957031 -26.191406 24.289062 -26.40625 23.4375 -26.40625 C 22.800781 -26.40625 22.320312 -26.347656 22 -26.234375 C 21.25 -26.023438 20.367188 -25.453125 19.359375 -24.515625 C 18.347656 -23.585938 17.46875 -22.640625 16.71875 -21.671875 C 15.96875 -20.710938 15.675781 -20.15625 15.84375 -20 C 16.101562 -19.519531 17.140625 -19.28125 18.953125 -19.28125 C 20.179688 -19.28125 21.195312 -19.441406 22 -19.765625 Z M 22 -19.765625 "/></g></g></g><g fill="#000000" fill-opacity="1"><g transform="translate(443.075407, 428.685937)"><g><path d="M 36.3125 -3.6875 C 35.25 -3.6875 34.367188 -3.910156 33.671875 -4.359375 C 32.984375 -4.816406 32.398438 -5.578125 31.921875 -6.640625 C 31.441406 -8.347656 31.203125 -10.054688 31.203125 -11.765625 C 31.203125 -12.554688 31.28125 -13.113281 31.4375 -13.4375 C 31.65625 -13.65625 31.75 -14.125 31.71875 -14.84375 C 31.695312 -15.5625 31.6875 -16.082031 31.6875 -16.40625 C 31.625 -17.625 31.25 -18.234375 30.5625 -18.234375 C 30.082031 -18.234375 29.546875 -18.050781 28.953125 -17.6875 C 25.972656 -15.8125 23.46875 -14.207031 21.4375 -12.875 C 19.414062 -11.539062 17.46875 -10.050781 15.59375 -8.40625 C 14.851562 -7.550781 14.296875 -6.800781 13.921875 -6.15625 C 13.546875 -5.519531 13.273438 -5.082031 13.109375 -4.84375 C 12.953125 -4.601562 12.742188 -4.484375 12.484375 -4.484375 C 12.160156 -4.367188 11.945312 -4.3125 11.84375 -4.3125 C 11.570312 -4.3125 11.25 -4.457031 10.875 -4.75 C 10.5 -5.050781 10.257812 -5.253906 10.15625 -5.359375 C 9.945312 -5.578125 9.601562 -5.9375 9.125 -6.4375 C 8.644531 -6.945312 8.375 -7.304688 8.3125 -7.515625 C 8.3125 -7.941406 8.484375 -8.925781 8.828125 -10.46875 C 9.179688 -12.019531 9.46875 -13.007812 9.6875 -13.4375 C 9.84375 -13.4375 10.078125 -13.769531 10.390625 -14.4375 C 10.710938 -15.101562 11.007812 -15.625 11.28125 -16 C 11.4375 -16.800781 12.128906 -18.640625 13.359375 -21.515625 C 14.109375 -22.796875 14.628906 -23.863281 14.921875 -24.71875 C 15.210938 -25.570312 15.410156 -26.640625 15.515625 -27.921875 L 15.515625 -28.078125 C 15.515625 -28.296875 15.59375 -28.46875 15.75 -28.59375 C 15.914062 -28.726562 16.078125 -28.796875 16.234375 -28.796875 C 16.609375 -29.066406 16.957031 -29.203125 17.28125 -29.203125 C 17.96875 -29.203125 18.660156 -28.773438 19.359375 -27.921875 C 20.160156 -26.910156 20.5625 -25.84375 20.5625 -24.71875 C 20.5625 -23.332031 19.679688 -21.144531 17.921875 -18.15625 C 17.765625 -17.78125 17.535156 -17.242188 17.234375 -16.546875 C 16.941406 -15.859375 16.796875 -15.382812 16.796875 -15.125 L 21.28125 -18.15625 C 21.707031 -18.632812 22.851562 -19.488281 24.71875 -20.71875 C 26.582031 -21.945312 27.890625 -22.640625 28.640625 -22.796875 C 29.921875 -23.390625 30.722656 -23.6875 31.046875 -23.6875 C 31.679688 -23.6875 32.546875 -23.203125 33.640625 -22.234375 C 34.734375 -21.273438 35.382812 -20.476562 35.59375 -19.84375 C 35.59375 -19.25 35.648438 -18.820312 35.765625 -18.5625 C 36.023438 -17.488281 36.15625 -16.234375 36.15625 -14.796875 C 36.15625 -13.835938 36.085938 -12.972656 35.953125 -12.203125 C 35.828125 -11.429688 35.65625 -10.988281 35.4375 -10.875 C 35.4375 -10.820312 35.460938 -10.742188 35.515625 -10.640625 C 35.566406 -10.535156 35.675781 -10.484375 35.84375 -10.484375 L 35.84375 -10.078125 C 35.414062 -10.078125 35.359375 -9.625 35.671875 -8.71875 C 35.992188 -7.8125 36.421875 -7.117188 36.953125 -6.640625 C 37.492188 -6.109375 37.765625 -5.578125 37.765625 -5.046875 C 37.765625 -4.398438 37.28125 -3.945312 36.3125 -3.6875 Z M 36.3125 -3.6875 "/></g></g></g><g fill="#000000" fill-opacity="1"><g transform="translate(479.071903, 428.685937)"><g><path d="M 16.71875 -0.875 C 15.96875 -0.769531 15.410156 -0.71875 15.046875 -0.71875 C 13.066406 -0.71875 11.4375 -1.332031 10.15625 -2.5625 C 8.875 -3.789062 8.234375 -5.5 8.234375 -7.6875 C 8.023438 -10.03125 8.546875 -12.929688 9.796875 -16.390625 C 11.054688 -19.859375 12.644531 -22.769531 14.5625 -25.125 C 15.894531 -26.664062 17.039062 -27.914062 18 -28.875 C 18.957031 -29.832031 19.835938 -30.472656 20.640625 -30.796875 C 21.753906 -31.273438 23.007812 -31.515625 24.40625 -31.515625 C 25.363281 -31.304688 26.304688 -30.90625 27.234375 -30.3125 C 28.171875 -29.726562 28.640625 -29.144531 28.640625 -28.5625 L 29.046875 -28.15625 C 29.359375 -28.15625 29.644531 -27.769531 29.90625 -27 C 30.175781 -26.226562 30.3125 -25.390625 30.3125 -24.484375 C 30.3125 -23.734375 30.179688 -23.09375 29.921875 -22.5625 C 29.703125 -21.550781 29.335938 -20.671875 28.828125 -19.921875 C 28.328125 -19.171875 27.835938 -18.796875 27.359375 -18.796875 C 26.773438 -18.796875 26.484375 -18.632812 26.484375 -18.3125 C 26.484375 -18.101562 26.375 -18 26.15625 -18 C 25.894531 -18 25.578125 -18.15625 25.203125 -18.46875 C 24.828125 -18.789062 24.5625 -19.164062 24.40625 -19.59375 C 24.40625 -19.757812 24.507812 -20.210938 24.71875 -20.953125 C 24.9375 -21.703125 25.148438 -22.53125 25.359375 -23.4375 C 25.515625 -24.082031 25.59375 -24.644531 25.59375 -25.125 C 25.59375 -26.1875 25.195312 -26.71875 24.40625 -26.71875 C 23.976562 -26.71875 23.550781 -26.613281 23.125 -26.40625 C 20.988281 -25.226562 19.09375 -23.359375 17.4375 -20.796875 C 15.78125 -18.234375 14.394531 -14.710938 13.28125 -10.234375 C 13.007812 -9.066406 12.875 -8.132812 12.875 -7.4375 C 12.875 -6.90625 12.914062 -6.476562 13 -6.15625 C 13.082031 -5.84375 13.175781 -5.65625 13.28125 -5.59375 C 13.550781 -5.488281 14.109375 -5.4375 14.953125 -5.4375 C 16.929688 -5.4375 18.320312 -5.675781 19.125 -6.15625 C 20.832031 -7.0625 22.722656 -8.289062 24.796875 -9.84375 C 25.015625 -10 25.335938 -10.273438 25.765625 -10.671875 C 26.191406 -11.078125 26.585938 -11.359375 26.953125 -11.515625 C 27.328125 -12.109375 27.675781 -12.46875 28 -12.59375 C 28.320312 -12.726562 28.828125 -12.796875 29.515625 -12.796875 C 30.210938 -12.585938 30.773438 -12.304688 31.203125 -11.953125 C 31.628906 -11.609375 31.628906 -11.332031 31.203125 -11.125 C 31.035156 -11.125 30.925781 -11.066406 30.875 -10.953125 C 30.820312 -10.847656 30.796875 -10.769531 30.796875 -10.71875 C 30.898438 -10.445312 30.472656 -9.78125 29.515625 -8.71875 C 28.554688 -7.65625 27.488281 -6.65625 26.3125 -5.71875 C 25.144531 -4.78125 24.347656 -4.3125 23.921875 -4.3125 C 23.703125 -4.3125 23.515625 -4.285156 23.359375 -4.234375 C 23.203125 -4.179688 23.125 -4.050781 23.125 -3.84375 C 23.125 -3.625 22.304688 -3.128906 20.671875 -2.359375 C 19.046875 -1.585938 17.726562 -1.09375 16.71875 -0.875 Z M 16.71875 -0.875 "/></g></g></g><g fill="#000000" fill-opacity="1"><g transform="translate(507.469134, 428.685937)"><g><path d="M 10.40625 -4.3125 C 9.601562 -4.3125 8.988281 -4.5 8.5625 -4.875 C 8.132812 -5.25 7.851562 -5.539062 7.71875 -5.75 C 7.582031 -5.96875 7.515625 -6.238281 7.515625 -6.5625 C 7.515625 -6.769531 7.703125 -7.753906 8.078125 -9.515625 L 8.796875 -12.15625 C 9.328125 -14.34375 9.804688 -16.15625 10.234375 -17.59375 C 10.453125 -18.925781 10.867188 -20.335938 11.484375 -21.828125 C 12.097656 -23.328125 12.457031 -24.238281 12.5625 -24.5625 C 12.988281 -26.101562 13.816406 -28.503906 15.046875 -31.765625 L 17.4375 -38.234375 C 19.300781 -43.304688 20.421875 -46.398438 20.796875 -47.515625 L 22.078125 -51.046875 C 22.078125 -51.890625 22.503906 -52.3125 23.359375 -52.3125 C 24.109375 -52.3125 24.734375 -51.898438 25.234375 -51.078125 C 25.742188 -50.253906 26 -49.304688 26 -48.234375 C 26 -47.441406 25.835938 -46.671875 25.515625 -45.921875 C 24.773438 -44.316406 23.960938 -42.300781 23.078125 -39.875 C 22.203125 -37.445312 21.628906 -35.863281 21.359375 -35.125 C 19.546875 -30 18.238281 -26.582031 17.4375 -24.875 C 17.4375 -24.664062 17.351562 -24.289062 17.1875 -23.75 C 17.03125 -23.21875 16.847656 -22.738281 16.640625 -22.3125 L 15.765625 -20.5625 C 15.765625 -20.394531 15.46875 -19.273438 14.875 -17.203125 C 14.132812 -14.910156 13.679688 -13.226562 13.515625 -12.15625 C 13.785156 -12.632812 14.347656 -13.367188 15.203125 -14.359375 C 16.054688 -15.347656 16.851562 -16.160156 17.59375 -16.796875 C 20.53125 -19.304688 22.347656 -20.800781 23.046875 -21.28125 C 23.679688 -21.65625 24.210938 -22 24.640625 -22.3125 C 25.066406 -22.632812 25.359375 -22.847656 25.515625 -22.953125 C 25.515625 -23.222656 25.8125 -23.359375 26.40625 -23.359375 C 26.613281 -23.359375 26.726562 -23.382812 26.75 -23.4375 C 26.78125 -23.488281 26.796875 -23.625 26.796875 -23.84375 C 26.796875 -24.21875 27.410156 -24.550781 28.640625 -24.84375 C 29.867188 -25.132812 30.960938 -25.28125 31.921875 -25.28125 C 32.554688 -25.28125 33.0625 -25.144531 33.4375 -24.875 C 33.8125 -24.613281 34.289062 -24.03125 34.875 -23.125 C 35.78125 -21.84375 36.234375 -20.453125 36.234375 -18.953125 C 36.234375 -18.109375 36.078125 -17.226562 35.765625 -16.3125 C 35.765625 -15.894531 35.695312 -15.242188 35.5625 -14.359375 C 35.425781 -13.484375 35.359375 -12.722656 35.359375 -12.078125 L 34.875 -9.515625 L 36.15625 -9.515625 C 36.53125 -9.515625 36.890625 -9.460938 37.234375 -9.359375 C 37.585938 -9.253906 37.816406 -9.175781 37.921875 -9.125 C 38.398438 -8.53125 38.828125 -8.234375 39.203125 -8.234375 C 39.679688 -8.234375 39.921875 -8.050781 39.921875 -7.6875 C 39.921875 -7.46875 39.8125 -7.195312 39.59375 -6.875 C 39.382812 -6.5625 39.09375 -6.296875 38.71875 -6.078125 C 37.332031 -5.222656 36.160156 -4.796875 35.203125 -4.796875 C 34.296875 -4.796875 33.363281 -5.222656 32.40625 -6.078125 C 31.226562 -7.253906 30.640625 -8.664062 30.640625 -10.3125 C 30.640625 -11.164062 30.800781 -12.179688 31.125 -13.359375 L 31.359375 -15.921875 C 31.460938 -17.203125 31.515625 -18 31.515625 -18.3125 C 31.515625 -19.539062 31.222656 -20.15625 30.640625 -20.15625 C 29.890625 -20.15625 28.460938 -19.5 26.359375 -18.1875 C 24.253906 -16.882812 22.082031 -15.257812 19.84375 -13.3125 C 17.601562 -11.375 15.816406 -9.414062 14.484375 -7.4375 C 13.679688 -6.425781 13 -5.664062 12.4375 -5.15625 C 11.875 -4.65625 11.351562 -4.375 10.875 -4.3125 Z M 10.40625 -4.3125 "/></g></g></g><g fill="#000000" fill-opacity="1"><g transform="translate(544.585526, 428.685937)"><g/></g></g><g fill="#000000" fill-opacity="1"><g transform="translate(563.943618, 428.685937)"><g><path d="M 44.078125 -3.359375 C 43.328125 -3.628906 42.617188 -4.28125 41.953125 -5.3125 C 41.285156 -6.351562 40.953125 -8.050781 40.953125 -10.40625 L 41.046875 -14.078125 C 41.046875 -14.722656 41.003906 -15.175781 40.921875 -15.4375 C 40.835938 -15.707031 40.691406 -15.84375 40.484375 -15.84375 C 39.785156 -15.84375 38.300781 -14.9375 36.03125 -13.125 C 33.769531 -11.3125 31.492188 -9.148438 29.203125 -6.640625 C 28.929688 -6.367188 28.566406 -5.976562 28.109375 -5.46875 C 27.660156 -4.96875 27.25 -4.597656 26.875 -4.359375 C 26.5 -4.117188 26.15625 -4 25.84375 -4 C 25.363281 -4 24.910156 -4.1875 24.484375 -4.5625 L 23.59375 -5.28125 C 23.226562 -5.601562 23.046875 -5.976562 23.046875 -6.40625 L 23.203125 -7.125 L 25.046875 -12.40625 C 26.210938 -15.125 26.898438 -16.84375 27.109375 -17.5625 C 27.328125 -18.28125 27.304688 -18.613281 27.046875 -18.5625 C 26.554688 -18.507812 25.882812 -18.253906 25.03125 -17.796875 C 24.1875 -17.347656 23.65625 -16.910156 23.4375 -16.484375 C 23.332031 -16.484375 22.984375 -16.203125 22.390625 -15.640625 C 21.804688 -15.078125 21.300781 -14.664062 20.875 -14.40625 C 20.394531 -13.707031 19.222656 -12.453125 17.359375 -10.640625 L 15.4375 -8.796875 C 14.632812 -8.160156 13.515625 -6.851562 12.078125 -4.875 C 11.328125 -3.914062 10.898438 -3.4375 10.796875 -3.4375 C 9.140625 -3.4375 8.101562 -4.238281 7.6875 -5.84375 C 7.46875 -6.21875 7.359375 -6.722656 7.359375 -7.359375 C 7.359375 -8.210938 7.675781 -9.972656 8.3125 -12.640625 C 8.800781 -14.453125 9.070312 -15.570312 9.125 -16 L 9.515625 -17.59375 C 9.628906 -18.289062 9.867188 -19.117188 10.234375 -20.078125 C 10.609375 -21.035156 11.25 -22.554688 12.15625 -24.640625 C 12.6875 -26.128906 12.953125 -27.25 12.953125 -28 C 12.953125 -28.695312 13.191406 -29.242188 13.671875 -29.640625 C 14.160156 -30.035156 14.695312 -30.234375 15.28125 -30.234375 C 16.03125 -30.234375 16.671875 -29.941406 17.203125 -29.359375 C 17.734375 -28.773438 18 -28.003906 18 -27.046875 C 18 -26.140625 17.785156 -25.203125 17.359375 -24.234375 L 16.484375 -22.078125 C 16.054688 -21.222656 15.507812 -19.847656 14.84375 -17.953125 C 14.175781 -16.066406 13.84375 -15.015625 13.84375 -14.796875 C 13.894531 -14.640625 14.078125 -14.679688 14.390625 -14.921875 C 14.710938 -15.160156 15.085938 -15.46875 15.515625 -15.84375 C 15.992188 -16.320312 16.554688 -16.800781 17.203125 -17.28125 C 18.796875 -18.769531 20.695312 -20.207031 22.90625 -21.59375 C 25.125 -22.988281 26.820312 -23.867188 28 -24.234375 C 28.695312 -24.234375 29.21875 -24.140625 29.5625 -23.953125 C 29.90625 -23.773438 30.289062 -23.457031 30.71875 -23 C 31.144531 -22.539062 31.46875 -22.207031 31.6875 -22 C 32.164062 -21.519531 32.40625 -20.828125 32.40625 -19.921875 C 32.40625 -19.648438 32.347656 -19.300781 32.234375 -18.875 C 32.023438 -18.132812 31.742188 -17.226562 31.390625 -16.15625 C 31.046875 -15.09375 30.796875 -14.320312 30.640625 -13.84375 C 31.015625 -14.15625 31.679688 -14.710938 32.640625 -15.515625 C 33.597656 -16.316406 34.476562 -17.066406 35.28125 -17.765625 C 37.945312 -19.835938 40.050781 -20.875 41.59375 -20.875 C 42.71875 -20.875 43.679688 -20.289062 44.484375 -19.125 C 44.960938 -18.644531 45.253906 -18.148438 45.359375 -17.640625 C 45.460938 -17.128906 45.515625 -16.445312 45.515625 -15.59375 C 45.515625 -14.738281 45.515625 -14.070312 45.515625 -13.59375 C 45.566406 -13.226562 45.59375 -12.59375 45.59375 -11.6875 C 45.65625 -11.257812 45.722656 -10.429688 45.796875 -9.203125 C 45.878906 -7.972656 46 -7.28125 46.15625 -7.125 C 46.425781 -6.800781 47.332031 -6.503906 48.875 -6.234375 C 49.832031 -6.078125 50.3125 -5.648438 50.3125 -4.953125 C 50.3125 -4.472656 49.96875 -3.992188 49.28125 -3.515625 C 48.582031 -3.085938 47.726562 -2.875 46.71875 -2.875 C 45.757812 -2.875 44.878906 -3.035156 44.078125 -3.359375 Z M 44.078125 -3.359375 "/></g></g></g><g fill="#000000" fill-opacity="1"><g transform="translate(608.73927, 428.685937)"><g><path d="M 27.125 -0.15625 C 25.84375 -1.382812 24.878906 -3.195312 24.234375 -5.59375 C 24.128906 -5.914062 24.078125 -6.476562 24.078125 -7.28125 C 24.078125 -8.082031 24.078125 -8.640625 24.078125 -8.953125 C 23.753906 -8.160156 23.164062 -7.441406 22.3125 -6.796875 C 21.09375 -5.566406 19.867188 -4.660156 18.640625 -4.078125 C 16.773438 -2.847656 15.253906 -2.234375 14.078125 -2.234375 C 13.015625 -2.234375 12.003906 -2.820312 11.046875 -4 C 10.347656 -4.582031 9.820312 -5.164062 9.46875 -5.75 C 9.125 -6.34375 8.953125 -7.066406 8.953125 -7.921875 C 8.953125 -8.503906 9.035156 -9.144531 9.203125 -9.84375 C 9.304688 -11.8125 9.582031 -13.703125 10.03125 -15.515625 C 10.488281 -17.328125 11.359375 -19.648438 12.640625 -22.484375 C 14.347656 -25.835938 15.570312 -28.078125 16.3125 -29.203125 C 16.582031 -29.304688 16.929688 -29.359375 17.359375 -29.359375 C 17.890625 -29.359375 18.328125 -29.195312 18.671875 -28.875 C 19.023438 -28.5625 19.226562 -28.132812 19.28125 -27.59375 C 19.4375 -27.382812 19.515625 -27.09375 19.515625 -26.71875 C 19.515625 -25.382812 18.71875 -23.195312 17.125 -20.15625 C 15.039062 -15.144531 14 -11.679688 14 -9.765625 C 14 -8.640625 14.316406 -7.972656 14.953125 -7.765625 C 15.222656 -7.597656 15.519531 -7.515625 15.84375 -7.515625 C 17.175781 -7.515625 18.773438 -8.421875 20.640625 -10.234375 C 22.503906 -12.046875 24.289062 -14.953125 26 -18.953125 C 26.75 -20.773438 27.203125 -22.644531 27.359375 -24.5625 C 27.304688 -24.71875 27.28125 -24.957031 27.28125 -25.28125 C 27.28125 -26.238281 27.757812 -27.007812 28.71875 -27.59375 C 28.9375 -27.914062 29.226562 -28.171875 29.59375 -28.359375 C 29.96875 -28.546875 30.207031 -28.53125 30.3125 -28.3125 L 31.59375 -28.40625 C 31.757812 -28.457031 31.921875 -28.304688 32.078125 -27.953125 C 32.234375 -27.609375 32.394531 -27.382812 32.5625 -27.28125 C 32.9375 -26.957031 33.125 -26.367188 33.125 -25.515625 C 33.125 -23.753906 32.347656 -21.0625 30.796875 -17.4375 C 29.785156 -15.300781 29.101562 -13.660156 28.75 -12.515625 C 28.40625 -11.367188 28.207031 -10.265625 28.15625 -9.203125 C 28.15625 -7.171875 28.929688 -5.488281 30.484375 -4.15625 C 31.015625 -3.78125 31.332031 -3.378906 31.4375 -2.953125 C 31.539062 -2.523438 31.566406 -1.941406 31.515625 -1.203125 C 31.410156 -0.722656 31.101562 -0.332031 30.59375 -0.03125 C 30.09375 0.257812 29.546875 0.40625 28.953125 0.40625 C 28.265625 0.40625 27.65625 0.21875 27.125 -0.15625 Z M 27.125 -0.15625 "/></g></g></g><g fill="#000000" fill-opacity="1"><g transform="translate(638.336391, 428.685937)"><g><path d="M 12.875 0.3125 C 11.914062 -0.0507812 10.984375 -0.59375 10.078125 -1.3125 C 9.171875 -2.039062 8.554688 -2.671875 8.234375 -3.203125 C 8.234375 -3.304688 8.234375 -3.488281 8.234375 -3.75 C 8.234375 -4.019531 8.3125 -4.195312 8.46875 -4.28125 C 8.632812 -4.363281 8.929688 -4.40625 9.359375 -4.40625 C 10.265625 -4.40625 11.707031 -4.296875 13.6875 -4.078125 C 14.851562 -4.078125 16.179688 -4.222656 17.671875 -4.515625 C 19.171875 -4.804688 20 -5.140625 20.15625 -5.515625 C 20.320312 -5.515625 20.40625 -5.539062 20.40625 -5.59375 C 20.40625 -5.707031 20.191406 -5.976562 19.765625 -6.40625 C 19.648438 -6.40625 19.40625 -6.492188 19.03125 -6.671875 C 18.664062 -6.859375 18.425781 -6.953125 18.3125 -6.953125 C 18.3125 -7.171875 18.070312 -7.453125 17.59375 -7.796875 C 17.113281 -8.140625 16.582031 -8.445312 16 -8.71875 C 14.457031 -10 13.363281 -10.945312 12.71875 -11.5625 C 12.082031 -12.175781 11.84375 -12.613281 12 -12.875 L 12 -13.28125 C 11.625 -13.28125 11.207031 -13.800781 10.75 -14.84375 C 10.300781 -15.882812 10.078125 -16.859375 10.078125 -17.765625 C 10.078125 -18.722656 10.488281 -20.050781 11.3125 -21.75 C 12.144531 -23.457031 13.09375 -24.847656 14.15625 -25.921875 C 15.65625 -27.304688 17.585938 -28.769531 19.953125 -30.3125 C 22.328125 -31.863281 24.207031 -32.851562 25.59375 -33.28125 C 26.5 -33.65625 27.40625 -33.84375 28.3125 -33.84375 C 29.164062 -33.84375 29.890625 -33.65625 30.484375 -33.28125 C 31.171875 -32.851562 31.847656 -32.238281 32.515625 -31.4375 C 33.179688 -30.632812 33.625 -29.914062 33.84375 -29.28125 C 33.84375 -28.101562 33.722656 -26.96875 33.484375 -25.875 C 33.242188 -24.78125 32.882812 -24.234375 32.40625 -24.234375 C 32.34375 -24.234375 32.257812 -24.207031 32.15625 -24.15625 C 32.050781 -24.101562 32 -23.972656 32 -23.765625 C 32 -23.546875 31.890625 -23.265625 31.671875 -22.921875 C 31.460938 -22.578125 31.171875 -22.242188 30.796875 -21.921875 C 29.628906 -21.066406 28.671875 -20.640625 27.921875 -20.640625 C 27.335938 -20.640625 26.960938 -20.929688 26.796875 -21.515625 C 26.691406 -21.628906 26.582031 -21.789062 26.46875 -22 C 26.363281 -22.207031 26.234375 -22.3125 26.078125 -22.3125 C 26.023438 -22.3125 25.929688 -22.40625 25.796875 -22.59375 C 25.660156 -22.78125 25.59375 -23.035156 25.59375 -23.359375 C 25.59375 -23.515625 25.660156 -23.6875 25.796875 -23.875 C 25.929688 -24.0625 26.023438 -24.179688 26.078125 -24.234375 C 26.398438 -24.234375 26.929688 -24.859375 27.671875 -26.109375 C 28.421875 -27.367188 28.796875 -28.210938 28.796875 -28.640625 C 28.796875 -28.960938 28.753906 -29.148438 28.671875 -29.203125 C 28.597656 -29.253906 28.347656 -29.28125 27.921875 -29.28125 C 23.765625 -27.414062 21.175781 -26.003906 20.15625 -25.046875 C 20 -24.722656 19.878906 -24.503906 19.796875 -24.390625 C 19.722656 -24.285156 19.578125 -24.234375 19.359375 -24.234375 C 19.359375 -24.710938 17.945312 -22.898438 15.125 -18.796875 C 15.007812 -18.691406 14.882812 -18.375 14.75 -17.84375 C 14.625 -17.3125 14.5625 -16.859375 14.5625 -16.484375 C 14.457031 -16.054688 14.40625 -15.816406 14.40625 -15.765625 C 14.40625 -15.546875 14.492188 -15.328125 14.671875 -15.109375 C 14.859375 -14.898438 15.113281 -14.675781 15.4375 -14.4375 C 15.757812 -14.195312 16.082031 -13.945312 16.40625 -13.6875 C 19.175781 -11.601562 21.109375 -10.039062 22.203125 -9 C 23.296875 -7.957031 23.945312 -7.09375 24.15625 -6.40625 C 24.851562 -5.332031 25.203125 -4.367188 25.203125 -3.515625 C 25.203125 -2.878906 24.960938 -2.320312 24.484375 -1.84375 C 24.003906 -1.363281 23.28125 -0.910156 22.3125 -0.484375 C 21.726562 -0.210938 20.742188 0.015625 19.359375 0.203125 C 17.972656 0.390625 16.613281 0.484375 15.28125 0.484375 C 14.53125 0.484375 13.726562 0.425781 12.875 0.3125 Z M 12.875 0.3125 "/></g></g></g><g fill="#000000" fill-opacity="1"><g transform="translate(665.613749, 428.685937)"><g><path d="M 16.640625 -35.046875 C 16.265625 -35.410156 15.941406 -36.046875 15.671875 -36.953125 C 15.410156 -37.859375 15.414062 -38.3125 15.6875 -38.3125 C 16.101562 -38.375 16.59375 -38.84375 17.15625 -39.71875 C 17.71875 -40.601562 17.972656 -41.335938 17.921875 -41.921875 C 17.921875 -42.128906 18 -42.328125 18.15625 -42.515625 C 18.320312 -42.703125 18.507812 -42.820312 18.71875 -42.875 C 19.144531 -43.144531 19.519531 -43.28125 19.84375 -43.28125 C 20.75 -43.28125 21.570312 -42.640625 22.3125 -41.359375 C 22.632812 -40.660156 22.796875 -40.046875 22.796875 -39.515625 C 22.796875 -39.035156 22.660156 -38.539062 22.390625 -38.03125 C 22.128906 -37.53125 21.648438 -36.878906 20.953125 -36.078125 C 20.046875 -34.847656 19.195312 -34.234375 18.40625 -34.234375 C 17.863281 -34.234375 17.273438 -34.503906 16.640625 -35.046875 Z M 8.875 -2.5625 C 8.132812 -3.3125 7.765625 -4.378906 7.765625 -5.765625 C 7.765625 -6.503906 7.894531 -7.144531 8.15625 -7.6875 C 8.15625 -7.945312 8.207031 -8.265625 8.3125 -8.640625 C 8.425781 -9.015625 8.484375 -9.253906 8.484375 -9.359375 C 8.429688 -9.679688 8.644531 -10.5625 9.125 -12 C 10.082031 -14.132812 11.359375 -17.894531 12.953125 -23.28125 C 12.953125 -23.550781 13.054688 -23.773438 13.265625 -23.953125 C 13.484375 -24.140625 13.804688 -24.257812 14.234375 -24.3125 C 14.660156 -24.425781 14.957031 -24.484375 15.125 -24.484375 C 15.4375 -24.484375 15.710938 -24.363281 15.953125 -24.125 C 16.191406 -23.882812 16.523438 -23.441406 16.953125 -22.796875 C 17.273438 -22.472656 17.4375 -21.992188 17.4375 -21.359375 C 17.4375 -20.347656 17.09375 -19.125 16.40625 -17.6875 C 15.707031 -16.132812 15.253906 -14.800781 15.046875 -13.6875 C 14.398438 -12.238281 13.890625 -10.90625 13.515625 -9.6875 C 13.410156 -9.363281 13.25 -8.71875 13.03125 -7.75 C 12.820312 -6.789062 12.53125 -6.019531 12.15625 -5.4375 C 11.84375 -3.945312 11.550781 -2.90625 11.28125 -2.3125 C 11.007812 -1.726562 10.71875 -1.4375 10.40625 -1.4375 C 10.03125 -1.4375 9.519531 -1.8125 8.875 -2.5625 Z M 8.875 -2.5625 "/></g></g></g><g fill="#000000" fill-opacity="1"><g transform="translate(680.572275, 428.685937)"><g><path d="M 16.71875 -0.875 C 15.96875 -0.769531 15.410156 -0.71875 15.046875 -0.71875 C 13.066406 -0.71875 11.4375 -1.332031 10.15625 -2.5625 C 8.875 -3.789062 8.234375 -5.5 8.234375 -7.6875 C 8.023438 -10.03125 8.546875 -12.929688 9.796875 -16.390625 C 11.054688 -19.859375 12.644531 -22.769531 14.5625 -25.125 C 15.894531 -26.664062 17.039062 -27.914062 18 -28.875 C 18.957031 -29.832031 19.835938 -30.472656 20.640625 -30.796875 C 21.753906 -31.273438 23.007812 -31.515625 24.40625 -31.515625 C 25.363281 -31.304688 26.304688 -30.90625 27.234375 -30.3125 C 28.171875 -29.726562 28.640625 -29.144531 28.640625 -28.5625 L 29.046875 -28.15625 C 29.359375 -28.15625 29.644531 -27.769531 29.90625 -27 C 30.175781 -26.226562 30.3125 -25.390625 30.3125 -24.484375 C 30.3125 -23.734375 30.179688 -23.09375 29.921875 -22.5625 C 29.703125 -21.550781 29.335938 -20.671875 28.828125 -19.921875 C 28.328125 -19.171875 27.835938 -18.796875 27.359375 -18.796875 C 26.773438 -18.796875 26.484375 -18.632812 26.484375 -18.3125 C 26.484375 -18.101562 26.375 -18 26.15625 -18 C 25.894531 -18 25.578125 -18.15625 25.203125 -18.46875 C 24.828125 -18.789062 24.5625 -19.164062 24.40625 -19.59375 C 24.40625 -19.757812 24.507812 -20.210938 24.71875 -20.953125 C 24.9375 -21.703125 25.148438 -22.53125 25.359375 -23.4375 C 25.515625 -24.082031 25.59375 -24.644531 25.59375 -25.125 C 25.59375 -26.1875 25.195312 -26.71875 24.40625 -26.71875 C 23.976562 -26.71875 23.550781 -26.613281 23.125 -26.40625 C 20.988281 -25.226562 19.09375 -23.359375 17.4375 -20.796875 C 15.78125 -18.234375 14.394531 -14.710938 13.28125 -10.234375 C 13.007812 -9.066406 12.875 -8.132812 12.875 -7.4375 C 12.875 -6.90625 12.914062 -6.476562 13 -6.15625 C 13.082031 -5.84375 13.175781 -5.65625 13.28125 -5.59375 C 13.550781 -5.488281 14.109375 -5.4375 14.953125 -5.4375 C 16.929688 -5.4375 18.320312 -5.675781 19.125 -6.15625 C 20.832031 -7.0625 22.722656 -8.289062 24.796875 -9.84375 C 25.015625 -10 25.335938 -10.273438 25.765625 -10.671875 C 26.191406 -11.078125 26.585938 -11.359375 26.953125 -11.515625 C 27.328125 -12.109375 27.675781 -12.46875 28 -12.59375 C 28.320312 -12.726562 28.828125 -12.796875 29.515625 -12.796875 C 30.210938 -12.585938 30.773438 -12.304688 31.203125 -11.953125 C 31.628906 -11.609375 31.628906 -11.332031 31.203125 -11.125 C 31.035156 -11.125 30.925781 -11.066406 30.875 -10.953125 C 30.820312 -10.847656 30.796875 -10.769531 30.796875 -10.71875 C 30.898438 -10.445312 30.472656 -9.78125 29.515625 -8.71875 C 28.554688 -7.65625 27.488281 -6.65625 26.3125 -5.71875 C 25.144531 -4.78125 24.347656 -4.3125 23.921875 -4.3125 C 23.703125 -4.3125 23.515625 -4.285156 23.359375 -4.234375 C 23.203125 -4.179688 23.125 -4.050781 23.125 -3.84375 C 23.125 -3.625 22.304688 -3.128906 20.671875 -2.359375 C 19.046875 -1.585938 17.726562 -1.09375 16.71875 -0.875 Z M 16.71875 -0.875 "/></g></g></g><g clip-path="url(#26f7a578b0)"><path fill="#000000" d="M 81.554688 140.121094 C 81.886719 139.632812 82.226562 139.160156 82.589844 138.699219 C 82.34375 139.011719 82.09375 139.332031 81.851562 139.644531 C 83.101562 138.039062 84.542969 136.578125 86.15625 135.339844 C 85.839844 135.585938 85.519531 135.828125 85.203125 136.070312 C 86.59375 135.015625 88.101562 134.132812 89.710938 133.457031 C 89.335938 133.613281 88.960938 133.769531 88.585938 133.925781 C 90.472656 133.148438 92.464844 132.628906 94.492188 132.355469 C 94.070312 132.410156 93.65625 132.46875 93.234375 132.523438 C 94.992188 132.296875 96.78125 132.25 98.539062 132.480469 C 98.117188 132.425781 97.703125 132.367188 97.285156 132.3125 C 98.351562 132.457031 99.410156 132.699219 100.402344 133.113281 C 100.027344 132.957031 99.652344 132.796875 99.277344 132.640625 C 99.867188 132.890625 100.425781 133.199219 100.9375 133.589844 C 100.621094 133.34375 100.296875 133.097656 99.980469 132.859375 C 100.339844 133.132812 100.660156 133.445312 100.9375 133.800781 C 100.6875 133.484375 100.441406 133.167969 100.199219 132.851562 C 100.4375 133.160156 100.632812 133.488281 100.789062 133.847656 C 100.628906 133.476562 100.472656 133.101562 100.3125 132.730469 C 100.445312 133.054688 100.535156 133.390625 100.585938 133.734375 C 100.53125 133.320312 100.472656 132.90625 100.417969 132.488281 C 100.488281 133.046875 100.460938 133.613281 100.386719 134.167969 C 100.441406 133.75 100.5 133.339844 100.554688 132.921875 C 100.359375 134.324219 99.875 135.671875 99.324219 136.972656 C 99.484375 136.597656 99.640625 136.226562 99.800781 135.855469 C 98.746094 138.316406 97.417969 140.664062 95.890625 142.867188 C 95.425781 143.539062 94.945312 144.191406 94.445312 144.832031 C 94.695312 144.519531 94.941406 144.199219 95.183594 143.886719 C 93.308594 146.289062 91.195312 148.496094 88.890625 150.492188 C 88.125 151.152344 87.34375 151.789062 86.542969 152.402344 C 86.859375 152.160156 87.179688 151.914062 87.496094 151.671875 C 85.328125 153.332031 83.027344 154.816406 80.640625 156.144531 C 79.617188 156.714844 78.777344 157.832031 78.472656 158.945312 C 78.273438 159.566406 78.246094 160.191406 78.386719 160.8125 C 78.417969 161.4375 78.605469 162.019531 78.945312 162.554688 C 79.597656 163.554688 80.566406 164.4375 81.769531 164.707031 C 82.1875 164.761719 82.605469 164.820312 83.023438 164.875 C 83.878906 164.871094 84.671875 164.660156 85.40625 164.238281 C 85.660156 164.117188 85.914062 164.007812 86.171875 163.898438 C 85.796875 164.054688 85.421875 164.210938 85.046875 164.371094 C 86.734375 163.667969 88.503906 163.171875 90.324219 162.925781 C 89.902344 162.980469 89.488281 163.039062 89.070312 163.09375 C 90.734375 162.875 92.421875 162.867188 94.089844 163.089844 C 93.671875 163.035156 93.253906 162.976562 92.835938 162.921875 C 94.335938 163.128906 95.8125 163.527344 97.210938 164.109375 C 96.832031 163.953125 96.457031 163.796875 96.082031 163.636719 C 97.367188 164.183594 98.578125 164.878906 99.691406 165.726562 C 99.375 165.480469 99.054688 165.238281 98.738281 164.996094 C 99.773438 165.796875 100.703125 166.71875 101.515625 167.742188 C 101.265625 167.429688 101.019531 167.109375 100.777344 166.796875 C 101.648438 167.910156 102.355469 169.136719 102.910156 170.429688 C 102.75 170.058594 102.59375 169.683594 102.433594 169.3125 C 103.078125 170.835938 103.507812 172.445312 103.730469 174.082031 C 103.675781 173.667969 103.613281 173.253906 103.5625 172.839844 C 103.773438 174.464844 103.777344 176.109375 103.566406 177.738281 C 103.621094 177.320312 103.679688 176.90625 103.734375 176.492188 C 103.535156 177.933594 103.164062 179.34375 102.597656 180.683594 C 102.753906 180.3125 102.914062 179.9375 103.070312 179.566406 C 102.523438 180.839844 101.816406 182.039062 100.964844 183.136719 C 101.214844 182.820312 101.460938 182.503906 101.703125 182.1875 C 100.761719 183.390625 99.675781 184.464844 98.464844 185.398438 C 98.78125 185.152344 99.101562 184.90625 99.417969 184.664062 C 98.042969 185.71875 96.539062 186.578125 94.941406 187.253906 C 95.316406 187.097656 95.691406 186.941406 96.066406 186.785156 C 94.234375 187.550781 92.304688 188.054688 90.339844 188.320312 C 90.757812 188.265625 91.175781 188.207031 91.59375 188.152344 C 89.441406 188.433594 87.253906 188.417969 85.101562 188.136719 C 85.519531 188.191406 85.933594 188.25 86.355469 188.304688 C 85.515625 188.191406 84.679688 188.039062 83.847656 187.851562 C 82.625 187.574219 81.3125 187.6875 80.207031 188.324219 C 79.65625 188.617188 79.214844 189.019531 78.882812 189.53125 C 78.46875 189.980469 78.179688 190.515625 78.035156 191.125 C 77.761719 192.324219 77.820312 193.667969 78.511719 194.738281 C 79.164062 195.738281 80.128906 196.621094 81.332031 196.890625 C 84.191406 197.539062 87.179688 197.871094 90.113281 197.671875 C 92.824219 197.484375 95.558594 197.007812 98.09375 196.019531 C 99.472656 195.480469 100.847656 194.890625 102.128906 194.144531 C 103.371094 193.417969 104.539062 192.542969 105.648438 191.625 C 106.453125 190.960938 107.199219 190.226562 107.875 189.4375 C 108.78125 188.378906 109.644531 187.253906 110.34375 186.054688 C 111.039062 184.851562 111.601562 183.546875 112.0625 182.238281 C 112.601562 180.703125 112.839844 179.109375 113.03125 177.5 C 113.183594 176.207031 113.199219 174.898438 113.082031 173.597656 C 112.921875 171.910156 112.671875 170.210938 112.171875 168.582031 C 111.222656 165.476562 109.640625 162.664062 107.449219 160.253906 C 106.4375 159.140625 105.257812 158.210938 104.035156 157.332031 C 103.117188 156.675781 102.128906 156.109375 101.089844 155.660156 C 99.679688 155.042969 98.273438 154.484375 96.765625 154.148438 C 95.234375 153.8125 93.644531 153.609375 92.078125 153.570312 C 90.457031 153.53125 88.835938 153.726562 87.238281 153.988281 C 85.964844 154.199219 84.710938 154.527344 83.492188 154.96875 C 82.523438 155.320312 81.574219 155.722656 80.636719 156.15625 C 82.226562 158.851562 83.816406 161.550781 85.40625 164.25 C 88.558594 162.5 91.515625 160.449219 94.3125 158.183594 C 96.390625 156.503906 98.332031 154.660156 100.101562 152.652344 C 102.867188 149.519531 105.316406 146.066406 107.164062 142.320312 C 107.972656 140.679688 108.734375 138.976562 109.257812 137.21875 C 109.402344 136.742188 109.523438 136.253906 109.609375 135.765625 C 109.75 134.980469 109.878906 134.175781 109.902344 133.378906 C 109.933594 132.460938 109.824219 131.496094 109.554688 130.617188 C 109.132812 129.210938 108.425781 128.109375 107.46875 126.996094 C 106.921875 126.355469 106.183594 125.839844 105.507812 125.359375 C 105.113281 125.082031 104.683594 124.84375 104.238281 124.648438 C 102.839844 124.027344 101.476562 123.53125 99.957031 123.316406 C 98.285156 123.066406 96.671875 122.902344 94.996094 122.992188 C 93.265625 123.085938 91.527344 123.324219 89.839844 123.703125 C 88.34375 124.035156 86.914062 124.535156 85.5 125.128906 C 83.933594 125.785156 82.445312 126.535156 81.058594 127.515625 C 79.628906 128.527344 78.253906 129.625 77.035156 130.875 C 75.980469 131.949219 75.046875 133.136719 74.148438 134.339844 C 73.890625 134.683594 73.636719 135.035156 73.394531 135.386719 C 73.050781 135.925781 72.863281 136.507812 72.835938 137.128906 C 72.699219 137.75 72.722656 138.375 72.921875 138.996094 C 73.070312 139.605469 73.351562 140.140625 73.765625 140.589844 C 74.097656 141.101562 74.542969 141.503906 75.089844 141.796875 C 76.1875 142.371094 77.519531 142.660156 78.734375 142.269531 C 79.109375 142.109375 79.484375 141.953125 79.859375 141.796875 C 80.574219 141.386719 81.136719 140.820312 81.554688 140.121094 Z M 81.554688 140.121094 " fill-opacity="1" fill-rule="nonzero"/></g><g clip-path="url(#36728a72a8)"><path fill="#000000" d="M 136.921875 184.679688 C 136.703125 184.027344 136.398438 183.464844 136.003906 183.050781 C 135.808594 182.835938 135.570312 182.617188 135.304688 182.445312 C 135.085938 182.292969 134.824219 182.164062 134.585938 182.054688 C 134.410156 181.988281 134.234375 181.925781 134.082031 181.859375 C 133.972656 181.816406 133.863281 181.773438 133.753906 181.730469 L 133.625 181.664062 C 133.429688 181.578125 133.210938 181.488281 132.992188 181.425781 C 132.664062 181.359375 132.335938 181.316406 132.03125 181.273438 C 131.746094 181.230469 131.460938 181.230469 131.132812 181.207031 C 131.070312 181.207031 130.980469 181.207031 130.914062 181.207031 C 130.433594 181.207031 129.933594 181.25 129.34375 181.339844 C 128.839844 181.402344 128.316406 181.535156 127.8125 181.730469 C 127.550781 181.816406 127.289062 181.925781 127.070312 182.054688 C 126.832031 182.183594 126.589844 182.378906 126.371094 182.617188 C 126.152344 182.878906 125.957031 183.074219 125.804688 183.289062 C 125.738281 183.398438 125.652344 183.507812 125.585938 183.617188 C 125.542969 183.679688 125.5 183.746094 125.457031 183.8125 C 125.347656 183.984375 125.238281 184.136719 125.171875 184.3125 C 125.082031 184.484375 124.996094 184.703125 124.929688 184.941406 C 124.886719 185.113281 124.84375 185.289062 124.820312 185.460938 C 124.800781 185.503906 124.800781 185.570312 124.777344 185.613281 C 124.710938 185.894531 124.667969 186.175781 124.625 186.566406 C 124.558594 187.109375 124.539062 187.675781 124.582031 188.304688 C 124.601562 188.585938 124.625 188.933594 124.710938 189.257812 C 124.800781 189.5625 124.910156 189.867188 125.0625 190.148438 C 125.191406 190.386719 125.367188 190.648438 125.609375 190.929688 C 125.738281 191.101562 125.914062 191.253906 126.066406 191.40625 L 126.199219 191.535156 C 126.613281 191.949219 127.117188 192.296875 127.726562 192.601562 C 128.011719 192.730469 128.316406 192.839844 128.6875 192.949219 C 129.039062 193.035156 129.410156 193.097656 129.691406 193.144531 C 129.953125 193.1875 130.238281 193.1875 130.609375 193.207031 C 130.699219 193.207031 130.761719 193.207031 130.851562 193.207031 C 130.914062 193.207031 130.980469 193.207031 131.046875 193.207031 C 131.265625 193.207031 131.460938 193.164062 131.613281 193.144531 C 131.898438 193.097656 132.183594 193.035156 132.488281 192.925781 C 132.792969 192.839844 133.101562 192.6875 133.382812 192.558594 C 133.515625 192.492188 133.667969 192.425781 133.820312 192.339844 C 133.929688 192.273438 134.039062 192.210938 134.125 192.144531 L 134.191406 192.101562 C 134.433594 191.925781 134.671875 191.730469 134.980469 191.449219 C 135.242188 191.210938 135.4375 190.996094 135.613281 190.800781 C 135.851562 190.539062 136.027344 190.214844 136.203125 189.929688 C 136.375 189.628906 136.507812 189.300781 136.636719 188.996094 C 136.746094 188.738281 136.855469 188.457031 136.921875 188.195312 C 137.011719 187.890625 137.054688 187.566406 137.097656 187.261719 C 137.121094 187 137.140625 186.71875 137.164062 186.394531 C 137.164062 186.046875 137.121094 185.699219 137.074219 185.417969 C 137.074219 185.199219 137.011719 184.960938 136.921875 184.679688 Z M 136.921875 184.679688 " fill-opacity="1" fill-rule="nonzero"/></g></svg>