<svg xmlns="http://www.w3.org/2000/svg" xmlns:xlink="http://www.w3.org/1999/xlink" width="1080" zoomAndPan="magnify" viewBox="0 0 810 809.999993" height="1080" preserveAspectRatio="xMidYMid meet" version="1.0"><defs><g/><clipPath id="08d5e9d898"><path d="M 45 135.839844 L 84.730469 135.839844 L 84.730469 213.089844 L 45 213.089844 Z M 45 135.839844 " clip-rule="nonzero"/></clipPath><clipPath id="6d7e5fc57f"><path d="M 95.121094 190.015625 L 107.871094 190.015625 L 107.871094 202.015625 L 95.121094 202.015625 Z M 95.121094 190.015625 " clip-rule="nonzero"/></clipPath></defs><path fill="#eba596" d="M 303.164062 182.527344 C 400.0625 126.089844 595.988281 141.765625 636.949219 270.691406 C 654.832031 326.9375 627.558594 386.933594 645.679688 444.226562 C 665.375 506.484375 807.570312 608.15625 720 674.214844 C 641.433594 733.476562 494.621094 604.085938 406.488281 592.144531 C 327.554688 581.421875 251.777344 629.957031 173.464844 607.917969 C 71.265625 579.160156 19.425781 343.191406 91.535156 269.503906 C 140.472656 219.507812 237.257812 220.902344 303.164062 182.527344 Z M 303.164062 182.527344 " fill-opacity="1" fill-rule="evenodd"/><path fill="#000000" d="M 414.714844 117.203125 C 377.421875 123.472656 336.476562 117.734375 296.980469 114.140625 C 256.386719 110.457031 217.304688 109.089844 184.996094 124.113281 C 165.65625 133.101562 148.6875 150.097656 134.722656 172.167969 C 114.175781 204.671875 100.070312 248.210938 94.167969 292.65625 C 88.25 337.144531 90.546875 382.507812 102.667969 418.597656 C 110.914062 443.167969 123.722656 463.460938 141.417969 476.519531 C 174.699219 501.070312 213.65625 508.710938 253.238281 514.941406 C 291.738281 520.988281 330.839844 525.667969 365.472656 544.40625 C 412.195312 569.695312 463.65625 641.910156 517.734375 689.585938 C 555.101562 722.546875 593.8125 743.734375 632.8125 732.304688 C 650.625 727.089844 662.914062 718.675781 671.070312 708.101562 C 683.234375 692.34375 686.289062 671.597656 684.222656 648.578125 C 681.277344 615.457031 667.75 577.550781 657.855469 544.015625 C 651.460938 522.34375 646.527344 502.554688 647.367188 487.265625 C 648.972656 457.78125 661.351562 431.667969 673.613281 405.628906 C 686.308594 378.675781 698.894531 351.816406 700.507812 321.824219 C 703.460938 266.5 676.242188 219.496094 635.109375 184.304688 C 573.964844 131.976562 482.046875 105.90625 414.714844 117.203125 Z M 416.039062 125.125 C 481.398438 114.15625 570.558594 139.597656 629.902344 190.390625 C 669.113281 223.949219 695.316406 268.648438 692.496094 321.402344 C 690.957031 350.34375 678.609375 376.195312 666.355469 402.21875 C 653.660156 429.175781 641.042969 456.292969 639.363281 486.828125 C 638.488281 502.84375 643.46875 523.589844 650.175781 546.292969 C 659.9375 579.328125 673.339844 616.65625 676.25 649.28125 C 678.101562 670.097656 675.726562 688.957031 664.730469 703.207031 C 657.457031 712.625 646.414062 719.964844 630.558594 724.617188 C 594.003906 735.328125 558.058594 714.484375 523.015625 683.578125 C 468.496094 635.480469 416.402344 562.855469 369.28125 537.363281 C 333.835938 518.179688 293.882812 513.214844 254.480469 507.015625 C 216.171875 501.007812 178.375 493.824219 146.179688 470.078125 C 129.699219 457.921875 117.945312 438.917969 110.257812 416.050781 C 98.5 380.992188 96.351562 336.914062 102.09375 293.710938 C 107.851562 250.464844 121.507812 208.074219 141.496094 176.457031 C 154.566406 155.8125 170.292969 139.789062 188.367188 131.382812 C 219.484375 116.921875 257.160156 118.578125 296.246094 122.121094 C 336.4375 125.773438 378.101562 131.472656 416.039062 125.125 Z M 416.039062 125.125 " fill-opacity="1" fill-rule="evenodd"/><path fill="#000000" d="M 49.929688 146.59375 C 53.300781 146.613281 56.664062 146.644531 60.03125 146.691406 C 63.371094 146.734375 66.703125 146.792969 70.042969 146.863281 C 71.902344 146.902344 73.757812 146.945312 75.621094 146.988281 C 75.183594 143.761719 74.746094 140.527344 74.308594 137.296875 C 74.257812 137.308594 74.207031 137.3125 74.15625 137.324219 C 74.59375 137.261719 75.035156 137.207031 75.46875 137.144531 C 74.539062 137.265625 73.542969 137.261719 72.605469 137.160156 C 71.925781 137.136719 71.296875 137.277344 70.703125 137.585938 C 70.101562 137.789062 69.570312 138.128906 69.125 138.609375 C 68.644531 139.054688 68.304688 139.585938 68.105469 140.199219 C 67.796875 140.785156 67.652344 141.417969 67.679688 142.101562 C 67.738281 142.535156 67.796875 142.976562 67.855469 143.410156 C 68.089844 144.246094 68.511719 144.976562 69.125 145.585938 C 69.460938 145.84375 69.792969 146.105469 70.121094 146.355469 C 70.890625 146.800781 71.71875 147.03125 72.609375 147.03125 C 74.03125 147.1875 75.539062 147.074219 76.933594 146.8125 C 77.578125 146.660156 78.132812 146.367188 78.613281 145.929688 C 79.148438 145.582031 79.574219 145.121094 79.882812 144.542969 C 80.050781 144.148438 80.21875 143.761719 80.378906 143.367188 C 80.585938 142.707031 80.613281 142.054688 80.464844 141.398438 C 80.464844 140.953125 80.355469 140.535156 80.125 140.152344 C 79.929688 139.539062 79.585938 139.011719 79.105469 138.5625 C 78.769531 138.304688 78.4375 138.046875 78.109375 137.792969 C 77.339844 137.347656 76.511719 137.121094 75.621094 137.121094 C 72.308594 137.035156 68.992188 136.964844 65.679688 136.90625 C 62.328125 136.847656 58.980469 136.800781 55.625 136.769531 C 53.730469 136.75 51.828125 136.734375 49.929688 136.726562 C 49.253906 136.699219 48.621094 136.839844 48.027344 137.152344 C 47.417969 137.347656 46.890625 137.691406 46.441406 138.171875 C 45.964844 138.617188 45.625 139.148438 45.429688 139.761719 C 45.121094 140.347656 44.980469 140.980469 45.003906 141.664062 C 45.066406 142.101562 45.121094 142.539062 45.179688 142.976562 C 45.414062 143.8125 45.839844 144.539062 46.449219 145.152344 C 46.785156 145.410156 47.117188 145.667969 47.449219 145.921875 C 48.210938 146.367188 49.039062 146.59375 49.929688 146.59375 Z M 49.929688 146.59375 " fill-opacity="1" fill-rule="nonzero"/><g clip-path="url(#08d5e9d898)"><path fill="#000000" d="M 45.160156 140.800781 C 45.8125 148.371094 46.222656 155.960938 46.386719 163.5625 C 46.429688 165.710938 46.457031 167.855469 46.460938 170 C 46.523438 170.4375 46.578125 170.878906 46.636719 171.3125 C 46.804688 171.707031 46.972656 172.097656 47.132812 172.492188 C 47.390625 172.824219 47.648438 173.160156 47.902344 173.488281 C 48.347656 173.96875 48.878906 174.308594 49.492188 174.511719 C 49.875 174.734375 50.289062 174.84375 50.734375 174.851562 C 51.171875 174.964844 51.609375 174.964844 52.046875 174.851562 C 52.488281 174.851562 52.90625 174.738281 53.289062 174.511719 C 53.902344 174.3125 54.425781 173.96875 54.878906 173.488281 C 55.546875 172.761719 56.3125 172.117188 57.09375 171.515625 C 56.757812 171.773438 56.425781 172.03125 56.097656 172.285156 C 57.597656 171.125 59.230469 170.136719 60.976562 169.398438 C 60.582031 169.566406 60.191406 169.734375 59.800781 169.894531 C 61.210938 169.304688 62.683594 168.878906 64.199219 168.675781 C 63.765625 168.738281 63.324219 168.792969 62.890625 168.851562 C 64.167969 168.6875 65.464844 168.679688 66.742188 168.847656 C 66.308594 168.789062 65.867188 168.730469 65.433594 168.671875 C 66.769531 168.851562 68.058594 169.207031 69.296875 169.730469 C 68.902344 169.5625 68.511719 169.394531 68.117188 169.234375 C 69.347656 169.753906 70.5 170.417969 71.5625 171.226562 C 71.230469 170.96875 70.894531 170.710938 70.566406 170.457031 C 71.53125 171.203125 72.398438 172.0625 73.148438 173.023438 C 72.886719 172.6875 72.628906 172.355469 72.378906 172.027344 C 73.105469 172.976562 73.714844 174.011719 74.183594 175.113281 C 74.015625 174.71875 73.851562 174.328125 73.6875 173.933594 C 74.25 175.265625 74.609375 176.664062 74.804688 178.089844 C 74.746094 177.652344 74.6875 177.214844 74.628906 176.777344 C 74.886719 178.742188 74.835938 180.730469 74.574219 182.695312 C 74.632812 182.257812 74.6875 181.820312 74.75 181.382812 C 74.410156 183.859375 73.765625 186.34375 72.796875 188.652344 C 72.964844 188.257812 73.132812 187.867188 73.292969 187.472656 C 72.503906 189.328125 71.472656 191.074219 70.242188 192.675781 C 70.5 192.339844 70.757812 192.007812 71.011719 191.679688 C 69.535156 193.585938 67.796875 195.273438 65.894531 196.75 C 66.226562 196.492188 66.5625 196.234375 66.890625 195.980469 C 64.703125 197.671875 62.324219 199.082031 59.835938 200.273438 C 59.191406 200.582031 58.539062 200.871094 57.882812 201.148438 C 58.277344 200.980469 58.664062 200.8125 59.058594 200.652344 C 56.578125 201.695312 54.007812 202.558594 51.382812 203.160156 C 51.121094 203.222656 50.851562 203.277344 50.589844 203.332031 C 49.945312 203.484375 49.390625 203.78125 48.910156 204.214844 C 48.375 204.5625 47.949219 205.023438 47.640625 205.601562 C 47.28125 206.167969 47.082031 206.78125 47.054688 207.433594 C 46.90625 208.089844 46.9375 208.746094 47.140625 209.402344 C 47.523438 210.597656 48.265625 211.746094 49.40625 212.351562 C 49.800781 212.519531 50.1875 212.6875 50.582031 212.847656 C 51.457031 213.082031 52.332031 213.082031 53.203125 212.847656 C 54.238281 212.644531 55.273438 212.371094 56.289062 212.078125 C 58.765625 211.359375 61.164062 210.417969 63.527344 209.382812 C 66.089844 208.253906 68.558594 206.898438 70.839844 205.265625 C 72.386719 204.160156 73.898438 202.972656 75.277344 201.660156 C 76.691406 200.300781 77.929688 198.792969 79.089844 197.214844 C 81.027344 194.582031 82.382812 191.546875 83.304688 188.417969 C 83.65625 187.222656 83.941406 186.011719 84.140625 184.78125 C 84.480469 182.714844 84.730469 180.621094 84.636719 178.523438 C 84.582031 177.207031 84.410156 175.886719 84.167969 174.597656 C 83.992188 173.652344 83.738281 172.71875 83.394531 171.824219 C 82.902344 170.539062 82.355469 169.253906 81.613281 168.089844 C 80.828125 166.859375 79.902344 165.675781 78.863281 164.648438 C 77.875 163.675781 76.753906 162.808594 75.59375 162.054688 C 74.898438 161.601562 74.15625 161.199219 73.398438 160.863281 C 71.941406 160.214844 70.480469 159.617188 68.914062 159.3125 C 67.558594 159.050781 66.15625 158.867188 64.769531 158.871094 C 63.429688 158.878906 62.074219 159.066406 60.761719 159.308594 C 58.703125 159.691406 56.707031 160.492188 54.84375 161.421875 C 53.578125 162.054688 52.378906 162.816406 51.257812 163.671875 C 50.214844 164.464844 49.171875 165.257812 48.238281 166.179688 C 48.121094 166.292969 48.007812 166.410156 47.898438 166.523438 C 50.703125 167.6875 53.507812 168.851562 56.3125 170.011719 C 56.292969 162.292969 56.019531 154.574219 55.488281 146.871094 C 55.347656 144.847656 55.191406 142.828125 55.019531 140.808594 C 55.042969 140.132812 54.902344 139.5 54.59375 138.90625 C 54.398438 138.292969 54.054688 137.769531 53.574219 137.316406 C 53.128906 136.835938 52.597656 136.496094 51.984375 136.296875 C 51.398438 135.988281 50.765625 135.84375 50.082031 135.871094 C 48.816406 135.925781 47.492188 136.347656 46.601562 137.3125 C 45.761719 138.230469 45.050781 139.515625 45.160156 140.800781 Z M 45.160156 140.800781 " fill-opacity="1" fill-rule="nonzero"/></g><g fill="#000000" fill-opacity="1"><g transform="translate(144.753336, 336.365393)"><g><path d="M 10.40625 6.640625 C 10.289062 6.585938 10.070312 6.503906 9.75 6.390625 C 9.4375 6.285156 9.09375 6.234375 8.71875 6.234375 C 8.082031 6.078125 7.5625 5.734375 7.15625 5.203125 C 6.757812 4.671875 6.5625 4.054688 6.5625 3.359375 C 6.5625 2.984375 6.585938 2.691406 6.640625 2.484375 C 6.796875 2.316406 6.941406 1.898438 7.078125 1.234375 C 7.210938 0.566406 7.28125 -0.03125 7.28125 -0.5625 C 7.4375 -0.882812 7.566406 -1.21875 7.671875 -1.5625 C 7.785156 -1.90625 7.921875 -2.398438 8.078125 -3.046875 C 8.503906 -5.390625 9.488281 -9.332031 11.03125 -14.875 C 12.582031 -20.425781 13.546875 -23.390625 13.921875 -23.765625 L 13.921875 -24.640625 C 13.921875 -24.796875 13.972656 -25.113281 14.078125 -25.59375 C 14.179688 -26.070312 14.421875 -26.582031 14.796875 -27.125 C 15.015625 -27.757812 15.1875 -28.382812 15.3125 -29 C 15.445312 -29.613281 15.539062 -30.082031 15.59375 -30.40625 C 15.8125 -30.664062 16.171875 -31.460938 16.671875 -32.796875 C 17.179688 -34.128906 17.519531 -35.007812 17.6875 -35.4375 C 18.050781 -36.445312 18.515625 -37.632812 19.078125 -39 C 19.640625 -40.363281 20.023438 -41.257812 20.234375 -41.6875 L 20.234375 -42.078125 C 20.347656 -42.179688 20.628906 -42.726562 21.078125 -43.71875 C 21.535156 -44.707031 21.921875 -45.546875 22.234375 -46.234375 C 22.609375 -47.085938 23.597656 -49.300781 25.203125 -52.875 C 25.359375 -53.25 25.609375 -53.71875 25.953125 -54.28125 C 26.304688 -54.84375 26.484375 -55.226562 26.484375 -55.4375 C 26.691406 -55.8125 27.0625 -56 27.59375 -56 C 28.070312 -56 28.566406 -55.820312 29.078125 -55.46875 C 29.585938 -55.125 29.972656 -54.6875 30.234375 -54.15625 L 31.046875 -52.875 L 28.15625 -47.125 C 27.351562 -45.738281 26.660156 -44.40625 26.078125 -43.125 C 25.492188 -41.84375 25.203125 -41.09375 25.203125 -40.875 C 24.984375 -40.34375 24.566406 -39.25 23.953125 -37.59375 C 23.347656 -35.945312 22.859375 -34.535156 22.484375 -33.359375 C 22.210938 -32.554688 21.890625 -31.710938 21.515625 -30.828125 C 21.140625 -29.953125 20.875 -29.328125 20.71875 -28.953125 C 20.289062 -27.992188 20.078125 -27.460938 20.078125 -27.359375 C 20.078125 -27.578125 23.28125 -27.6875 29.6875 -27.6875 C 30.695312 -27.6875 32.492188 -27.710938 35.078125 -27.765625 C 37.660156 -27.816406 39.273438 -27.894531 39.921875 -28 L 44.078125 -28.40625 L 46.796875 -36.640625 C 47.328125 -38.503906 48.5 -42.128906 50.3125 -47.515625 C 51.113281 -49.804688 51.753906 -51.285156 52.234375 -51.953125 C 52.710938 -52.617188 53.300781 -52.953125 54 -52.953125 C 54.269531 -52.953125 54.65625 -52.832031 55.15625 -52.59375 C 55.664062 -52.351562 56 -52.050781 56.15625 -51.6875 C 56.75 -51.09375 57.046875 -50.476562 57.046875 -49.84375 C 57.046875 -49.09375 56.617188 -48.050781 55.765625 -46.71875 C 55.117188 -45.601562 54.210938 -43.5 53.046875 -40.40625 C 52.554688 -38.957031 52.257812 -38.128906 52.15625 -37.921875 C 52.15625 -36.796875 51.890625 -35.96875 51.359375 -35.4375 C 51.148438 -35.226562 50.773438 -34.46875 50.234375 -33.15625 C 49.703125 -31.851562 49.4375 -31.09375 49.4375 -30.875 C 49.4375 -30.445312 49.351562 -29.976562 49.1875 -29.46875 C 49.03125 -28.96875 48.847656 -28.613281 48.640625 -28.40625 L 48.078125 -26.484375 C 46.210938 -19.703125 44.75 -15.007812 43.6875 -12.40625 C 43.6875 -12.132812 43.550781 -11.648438 43.28125 -10.953125 C 43.007812 -10.265625 42.875 -9.785156 42.875 -9.515625 C 42.769531 -9.140625 42.53125 -8.390625 42.15625 -7.265625 C 41.78125 -6.148438 41.59375 -5.488281 41.59375 -5.28125 C 41.488281 -4.695312 41.273438 -3.765625 40.953125 -2.484375 C 40.160156 1.140625 39.765625 3.113281 39.765625 3.4375 C 39.648438 3.539062 39.488281 3.59375 39.28125 3.59375 C 39.0625 3.59375 38.722656 3.515625 38.265625 3.359375 C 37.816406 3.203125 37.488281 3.066406 37.28125 2.953125 C 36 2.265625 35.359375 1.46875 35.359375 0.5625 C 35.359375 -0.0195312 35.597656 -0.796875 36.078125 -1.765625 C 36.234375 -2.023438 36.738281 -3.753906 37.59375 -6.953125 L 38.3125 -9.921875 C 38.632812 -10.773438 39.359375 -13.304688 40.484375 -17.515625 C 41.390625 -20.773438 41.894531 -22.457031 42 -22.5625 L 42 -23.359375 C 41.84375 -23.628906 39.894531 -23.765625 36.15625 -23.765625 C 31.945312 -23.765625 28.082031 -23.550781 24.5625 -23.125 L 18.71875 -23.125 C 18.445312 -22.53125 17.628906 -20.0625 16.265625 -15.71875 C 14.910156 -11.375 14.15625 -8.640625 14 -7.515625 C 13.625 -5.753906 13.035156 -3.3125 12.234375 -0.1875 C 11.441406 2.925781 10.832031 5.203125 10.40625 6.640625 Z M 10.40625 6.640625 "/></g></g></g><g fill="#000000" fill-opacity="1"><g transform="translate(189.868953, 336.365393)"><g><path d="M 8.5625 -2.875 C 8.394531 -3.195312 8.140625 -3.53125 7.796875 -3.875 C 7.453125 -4.226562 7.28125 -4.457031 7.28125 -4.5625 C 7.28125 -5.144531 7.144531 -5.597656 6.875 -5.921875 C 6.769531 -6.023438 6.71875 -6.265625 6.71875 -6.640625 C 6.71875 -7.492188 7.128906 -8.945312 7.953125 -11 C 8.785156 -13.050781 9.867188 -15.28125 11.203125 -17.6875 C 11.523438 -18 11.9375 -18.554688 12.4375 -19.359375 C 12.945312 -20.160156 13.28125 -20.613281 13.4375 -20.71875 C 13.4375 -20.9375 13.515625 -21.132812 13.671875 -21.3125 C 13.835938 -21.5 14.023438 -21.59375 14.234375 -21.59375 L 14.234375 -22.078125 C 14.234375 -22.554688 15.113281 -23.710938 16.875 -25.546875 C 18.632812 -27.390625 20.078125 -28.660156 21.203125 -29.359375 C 22.535156 -30.265625 23.894531 -30.71875 25.28125 -30.71875 C 26.238281 -30.71875 27.066406 -30.453125 27.765625 -29.921875 C 28.023438 -29.597656 29.25 -28.453125 31.4375 -26.484375 L 34.40625 -23.84375 L 32.953125 -19.84375 C 32.472656 -18.40625 32.234375 -17.097656 32.234375 -15.921875 C 32.234375 -13.890625 32.820312 -11.941406 34 -10.078125 C 34.269531 -9.492188 34.800781 -8.929688 35.59375 -8.390625 C 36.394531 -7.859375 37.195312 -7.539062 38 -7.4375 C 39.175781 -7.226562 39.765625 -6.644531 39.765625 -5.6875 C 39.765625 -4.613281 39.28125 -3.972656 38.3125 -3.765625 C 38.101562 -3.710938 37.785156 -3.6875 37.359375 -3.6875 C 34.210938 -3.6875 31.492188 -5.894531 29.203125 -10.3125 C 28.984375 -10.632812 28.703125 -11.222656 28.359375 -12.078125 C 28.015625 -12.929688 27.816406 -13.519531 27.765625 -13.84375 C 27.441406 -13.414062 27.039062 -12.90625 26.5625 -12.3125 C 26.082031 -11.726562 25.628906 -11.222656 25.203125 -10.796875 C 19.390625 -4.984375 14.800781 -2.078125 11.4375 -2.078125 C 10.375 -2.078125 9.414062 -2.34375 8.5625 -2.875 Z M 11.4375 -7.359375 C 11.4375 -7.085938 11.71875 -7.003906 12.28125 -7.109375 C 12.84375 -7.222656 13.535156 -7.492188 14.359375 -7.921875 C 15.179688 -8.347656 16.019531 -8.90625 16.875 -9.59375 C 21.46875 -13.539062 24.773438 -16.984375 26.796875 -19.921875 L 28.5625 -22.796875 C 28.03125 -23.921875 27.46875 -24.734375 26.875 -25.234375 C 26.289062 -25.742188 25.757812 -26 25.28125 -26 C 24.15625 -26 22.394531 -24.597656 20 -21.796875 C 17.601562 -18.992188 15.414062 -15.703125 13.4375 -11.921875 C 12.957031 -11.015625 12.53125 -10.09375 12.15625 -9.15625 C 11.78125 -8.226562 11.539062 -7.628906 11.4375 -7.359375 Z M 11.4375 -7.359375 "/></g></g></g><g fill="#000000" fill-opacity="1"><g transform="translate(224.825559, 336.365393)"><g><path d="M 14.640625 -4.875 C 14.054688 -5.300781 13.320312 -7.085938 12.4375 -10.234375 C 11.5625 -13.378906 10.882812 -16.421875 10.40625 -19.359375 C 10.1875 -20.484375 9.757812 -22.003906 9.125 -23.921875 C 8.90625 -24.773438 8.796875 -25.363281 8.796875 -25.6875 C 8.796875 -26.644531 9.195312 -27.363281 10 -27.84375 C 10.207031 -28 10.507812 -28.113281 10.90625 -28.1875 C 11.3125 -28.269531 11.648438 -28.285156 11.921875 -28.234375 C 13.097656 -27.804688 14.164062 -24.554688 15.125 -18.484375 C 15.28125 -16.929688 15.515625 -15.539062 15.828125 -14.3125 C 16.148438 -13.09375 16.34375 -12.375 16.40625 -12.15625 C 16.5625 -11.84375 16.742188 -11.507812 16.953125 -11.15625 C 17.171875 -10.8125 17.414062 -10.640625 17.6875 -10.640625 C 17.84375 -10.640625 18.023438 -10.742188 18.234375 -10.953125 C 19.253906 -11.972656 20.347656 -13.253906 21.515625 -14.796875 C 22.796875 -16.554688 23.675781 -17.726562 24.15625 -18.3125 C 24.75 -19.226562 25.523438 -20.296875 26.484375 -21.515625 C 26.640625 -21.734375 27.007812 -22.238281 27.59375 -23.03125 C 28.1875 -23.832031 28.75 -24.515625 29.28125 -25.078125 C 29.8125 -25.640625 30.265625 -25.972656 30.640625 -26.078125 C 30.796875 -26.128906 31.035156 -26.15625 31.359375 -26.15625 C 32.265625 -26.15625 32.71875 -25.785156 32.71875 -25.046875 C 32.71875 -24.347656 32.238281 -23.304688 31.28125 -21.921875 C 30.957031 -21.492188 30.625 -20.921875 30.28125 -20.203125 C 29.9375 -19.484375 29.707031 -19.066406 29.59375 -18.953125 C 29.007812 -17.785156 27.929688 -16.132812 26.359375 -14 C 24.785156 -11.863281 23.734375 -10.53125 23.203125 -10 C 23.097656 -9.894531 22.65625 -9.519531 21.875 -8.875 C 21.101562 -8.238281 20.398438 -7.46875 19.765625 -6.5625 C 18.054688 -4.957031 16.828125 -4.15625 16.078125 -4.15625 C 15.597656 -4.15625 15.117188 -4.394531 14.640625 -4.875 Z M 14.640625 -4.875 "/></g></g></g><g fill="#000000" fill-opacity="1"><g transform="translate(251.302986, 336.365393)"><g><path d="M 22.078125 -2.796875 C 20.742188 -1.628906 19.144531 -1.046875 17.28125 -1.046875 C 15.945312 -1.046875 14.679688 -1.363281 13.484375 -2 C 12.285156 -2.632812 11.285156 -3.515625 10.484375 -4.640625 C 9.785156 -5.492188 9.273438 -6.453125 8.953125 -7.515625 C 8.640625 -8.585938 8.484375 -9.894531 8.484375 -11.4375 C 8.484375 -11.96875 8.535156 -13.035156 8.640625 -14.640625 C 8.796875 -16.609375 9.445312 -18.660156 10.59375 -20.796875 C 11.738281 -22.929688 13.164062 -24.835938 14.875 -26.515625 C 16.582031 -28.203125 18.265625 -29.363281 19.921875 -30 C 20.773438 -30.53125 21.546875 -30.796875 22.234375 -30.796875 C 22.609375 -30.796875 22.984375 -30.769531 23.359375 -30.71875 C 23.734375 -30.664062 24.132812 -30.613281 24.5625 -30.5625 C 25.726562 -30.394531 26.617188 -30.164062 27.234375 -29.875 C 27.847656 -29.582031 28.367188 -29.144531 28.796875 -28.5625 C 30.128906 -27.226562 30.796875 -25.679688 30.796875 -23.921875 C 30.585938 -22.640625 29.757812 -21.171875 28.3125 -19.515625 C 26.875 -17.867188 25.144531 -16.535156 23.125 -15.515625 C 22.164062 -15.203125 21.070312 -15.046875 19.84375 -15.046875 C 18.1875 -15.046875 16.851562 -15.390625 15.84375 -16.078125 C 15.363281 -16.234375 14.988281 -16.3125 14.71875 -16.3125 C 14.238281 -16.3125 13.878906 -15.992188 13.640625 -15.359375 C 13.398438 -14.722656 13.171875 -13.550781 12.953125 -11.84375 C 12.898438 -11.46875 12.875 -10.929688 12.875 -10.234375 C 12.875 -7.515625 13.78125 -6.023438 15.59375 -5.765625 C 16.820312 -5.492188 17.703125 -5.359375 18.234375 -5.359375 C 18.878906 -5.359375 19.601562 -5.570312 20.40625 -6 L 21.921875 -6.875 C 22.242188 -7.039062 22.535156 -7.253906 22.796875 -7.515625 C 23.066406 -7.785156 23.304688 -8.023438 23.515625 -8.234375 C 23.628906 -8.347656 23.789062 -8.523438 24 -8.765625 C 24.207031 -9.003906 24.40625 -9.160156 24.59375 -9.234375 C 24.78125 -9.316406 24.957031 -9.359375 25.125 -9.359375 C 25.332031 -9.359375 25.566406 -9.238281 25.828125 -9 C 26.097656 -8.757812 26.316406 -8.585938 26.484375 -8.484375 C 26.960938 -8.484375 27.066406 -8.148438 26.796875 -7.484375 C 26.535156 -6.816406 25.960938 -6.039062 25.078125 -5.15625 C 24.203125 -4.28125 23.203125 -3.492188 22.078125 -2.796875 Z M 22 -19.765625 C 22.90625 -20.128906 23.820312 -20.789062 24.75 -21.75 C 25.6875 -22.71875 26.15625 -23.519531 26.15625 -24.15625 C 26.15625 -24.800781 25.914062 -25.335938 25.4375 -25.765625 C 24.957031 -26.191406 24.289062 -26.40625 23.4375 -26.40625 C 22.800781 -26.40625 22.320312 -26.347656 22 -26.234375 C 21.25 -26.023438 20.367188 -25.453125 19.359375 -24.515625 C 18.347656 -23.585938 17.46875 -22.640625 16.71875 -21.671875 C 15.96875 -20.710938 15.675781 -20.15625 15.84375 -20 C 16.101562 -19.519531 17.140625 -19.28125 18.953125 -19.28125 C 20.179688 -19.28125 21.195312 -19.441406 22 -19.765625 Z M 22 -19.765625 "/></g></g></g><g fill="#000000" fill-opacity="1"><g transform="translate(277.30046, 336.365393)"><g/></g></g><g fill="#000000" fill-opacity="1"><g transform="translate(296.658575, 336.365393)"><g><path d="M 9.84375 8.484375 C 9.519531 8.691406 9.171875 8.648438 8.796875 8.359375 C 8.421875 8.066406 7.835938 7.46875 7.046875 6.5625 C 6.722656 6.238281 6.503906 5.929688 6.390625 5.640625 C 6.285156 5.347656 6.234375 4.960938 6.234375 4.484375 L 6.40625 2.484375 C 6.664062 1.679688 6.796875 0.75 6.796875 -0.3125 C 6.796875 -0.738281 6.984375 -2.085938 7.359375 -4.359375 C 7.734375 -6.628906 8.023438 -8.269531 8.234375 -9.28125 L 8.484375 -10.234375 C 8.910156 -11.992188 9.226562 -13.625 9.4375 -15.125 C 9.863281 -16.457031 10.222656 -17.773438 10.515625 -19.078125 C 10.804688 -20.390625 10.953125 -21.285156 10.953125 -21.765625 C 10.953125 -22.722656 11.328125 -23.414062 12.078125 -23.84375 C 12.128906 -24.269531 12.53125 -25.148438 13.28125 -26.484375 C 14.5625 -30.109375 15.507812 -32.707031 16.125 -34.28125 C 16.738281 -35.851562 17.390625 -37.226562 18.078125 -38.40625 C 19.035156 -41.070312 19.8125 -42.75 20.40625 -43.4375 C 20.769531 -44.34375 21.78125 -45.675781 23.4375 -47.4375 C 25.09375 -49.195312 26.5625 -50.613281 27.84375 -51.6875 C 29.007812 -52.320312 29.953125 -52.734375 30.671875 -52.921875 C 31.398438 -53.109375 32.296875 -53.203125 33.359375 -53.203125 C 34.265625 -53.203125 34.890625 -53.109375 35.234375 -52.921875 C 35.585938 -52.734375 36.160156 -52.265625 36.953125 -51.515625 C 37.648438 -50.710938 38.066406 -50.175781 38.203125 -49.90625 C 38.335938 -49.644531 38.40625 -49.144531 38.40625 -48.40625 C 38.1875 -47.28125 37.648438 -45.835938 36.796875 -44.078125 C 35.941406 -42.316406 35.300781 -41.410156 34.875 -41.359375 C 34.71875 -41.304688 34.503906 -41.28125 34.234375 -41.28125 C 33.441406 -41.28125 33.046875 -41.945312 33.046875 -43.28125 C 33.046875 -43.601562 32.960938 -43.921875 32.796875 -44.234375 C 32.640625 -44.554688 32.535156 -44.769531 32.484375 -44.875 C 32.484375 -45.675781 32.671875 -46.34375 33.046875 -46.875 C 33.203125 -47.195312 33.28125 -47.492188 33.28125 -47.765625 C 33.28125 -48.023438 33.1875 -48.195312 33 -48.28125 C 32.8125 -48.363281 32.53125 -48.347656 32.15625 -48.234375 C 31.675781 -47.972656 30.488281 -47.023438 28.59375 -45.390625 C 26.707031 -43.765625 25.765625 -42.796875 25.765625 -42.484375 C 25.710938 -42.367188 25.5625 -42.082031 25.3125 -41.625 C 25.070312 -41.175781 24.710938 -40.660156 24.234375 -40.078125 C 23.273438 -38.742188 22.796875 -37.914062 22.796875 -37.59375 C 22.796875 -36.90625 22.632812 -36.5625 22.3125 -36.5625 C 22.257812 -36.457031 22.140625 -36.148438 21.953125 -35.640625 C 21.773438 -35.128906 21.523438 -34.582031 21.203125 -34 C 20.984375 -33.519531 20.710938 -32.984375 20.390625 -32.390625 C 20.078125 -31.804688 19.8125 -31.410156 19.59375 -31.203125 L 19.6875 -31.203125 C 19.519531 -30.773438 19.222656 -29.988281 18.796875 -28.84375 C 18.367188 -27.695312 18.15625 -27.039062 18.15625 -26.875 C 18.15625 -26.664062 18.53125 -26.5625 19.28125 -26.5625 C 20.9375 -26.5625 22.828125 -26.851562 24.953125 -27.4375 C 25.648438 -27.65625 26.160156 -27.765625 26.484375 -27.765625 C 26.859375 -27.765625 27.390625 -27.65625 28.078125 -27.4375 C 28.660156 -27.0625 29.140625 -26.445312 29.515625 -25.59375 C 29.890625 -24.738281 29.972656 -24.15625 29.765625 -23.84375 C 29.710938 -23.625 29.140625 -23.328125 28.046875 -22.953125 C 26.953125 -22.585938 25.816406 -22.296875 24.640625 -22.078125 C 22.984375 -21.703125 21.625 -21.4375 20.5625 -21.28125 C 20.289062 -21.226562 19.445312 -21.066406 18.03125 -20.796875 C 16.625 -20.535156 15.921875 -20.296875 15.921875 -20.078125 C 15.703125 -20.078125 15.515625 -19.96875 15.359375 -19.75 C 15.203125 -19.539062 15.125 -19.332031 15.125 -19.125 C 15.125 -18.375 15.015625 -17.8125 14.796875 -17.4375 C 14.535156 -16.632812 14.070312 -14.882812 13.40625 -12.1875 C 12.738281 -9.5 12.40625 -7.835938 12.40625 -7.203125 C 11.976562 -6.671875 11.765625 -5.707031 11.765625 -4.3125 C 11.441406 -3.726562 11.28125 -3.0625 11.28125 -2.3125 C 11.28125 -2 11.253906 -1.734375 11.203125 -1.515625 C 11.203125 -1.253906 11.144531 -0.617188 11.03125 0.390625 C 10.925781 1.410156 10.875 2.347656 10.875 3.203125 L 10.640625 5.515625 C 10.585938 6.160156 10.503906 6.75 10.390625 7.28125 C 10.285156 7.8125 10.101562 8.210938 9.84375 8.484375 Z M 9.84375 8.484375 "/></g></g></g><g fill="#000000" fill-opacity="1"><g transform="translate(319.936314, 336.365393)"><g><path d="M 27.125 -0.15625 C 25.84375 -1.382812 24.878906 -3.195312 24.234375 -5.59375 C 24.128906 -5.914062 24.078125 -6.476562 24.078125 -7.28125 C 24.078125 -8.082031 24.078125 -8.640625 24.078125 -8.953125 C 23.753906 -8.160156 23.164062 -7.441406 22.3125 -6.796875 C 21.09375 -5.566406 19.867188 -4.660156 18.640625 -4.078125 C 16.773438 -2.847656 15.253906 -2.234375 14.078125 -2.234375 C 13.015625 -2.234375 12.003906 -2.820312 11.046875 -4 C 10.347656 -4.582031 9.820312 -5.164062 9.46875 -5.75 C 9.125 -6.34375 8.953125 -7.066406 8.953125 -7.921875 C 8.953125 -8.503906 9.035156 -9.144531 9.203125 -9.84375 C 9.304688 -11.8125 9.582031 -13.703125 10.03125 -15.515625 C 10.488281 -17.328125 11.359375 -19.648438 12.640625 -22.484375 C 14.347656 -25.835938 15.570312 -28.078125 16.3125 -29.203125 C 16.582031 -29.304688 16.929688 -29.359375 17.359375 -29.359375 C 17.890625 -29.359375 18.328125 -29.195312 18.671875 -28.875 C 19.023438 -28.5625 19.226562 -28.132812 19.28125 -27.59375 C 19.4375 -27.382812 19.515625 -27.09375 19.515625 -26.71875 C 19.515625 -25.382812 18.71875 -23.195312 17.125 -20.15625 C 15.039062 -15.144531 14 -11.679688 14 -9.765625 C 14 -8.640625 14.316406 -7.972656 14.953125 -7.765625 C 15.222656 -7.597656 15.519531 -7.515625 15.84375 -7.515625 C 17.175781 -7.515625 18.773438 -8.421875 20.640625 -10.234375 C 22.503906 -12.046875 24.289062 -14.953125 26 -18.953125 C 26.75 -20.773438 27.203125 -22.644531 27.359375 -24.5625 C 27.304688 -24.71875 27.28125 -24.957031 27.28125 -25.28125 C 27.28125 -26.238281 27.757812 -27.007812 28.71875 -27.59375 C 28.9375 -27.914062 29.226562 -28.171875 29.59375 -28.359375 C 29.96875 -28.546875 30.207031 -28.53125 30.3125 -28.3125 L 31.59375 -28.40625 C 31.757812 -28.457031 31.921875 -28.304688 32.078125 -27.953125 C 32.234375 -27.609375 32.394531 -27.382812 32.5625 -27.28125 C 32.9375 -26.957031 33.125 -26.367188 33.125 -25.515625 C 33.125 -23.753906 32.347656 -21.0625 30.796875 -17.4375 C 29.785156 -15.300781 29.101562 -13.660156 28.75 -12.515625 C 28.40625 -11.367188 28.207031 -10.265625 28.15625 -9.203125 C 28.15625 -7.171875 28.929688 -5.488281 30.484375 -4.15625 C 31.015625 -3.78125 31.332031 -3.378906 31.4375 -2.953125 C 31.539062 -2.523438 31.566406 -1.941406 31.515625 -1.203125 C 31.410156 -0.722656 31.101562 -0.332031 30.59375 -0.03125 C 30.09375 0.257812 29.546875 0.40625 28.953125 0.40625 C 28.265625 0.40625 27.65625 0.21875 27.125 -0.15625 Z M 27.125 -0.15625 "/></g></g></g><g fill="#000000" fill-opacity="1"><g transform="translate(349.533447, 336.365393)"><g><path d="M 36.3125 -3.6875 C 35.25 -3.6875 34.367188 -3.910156 33.671875 -4.359375 C 32.984375 -4.816406 32.398438 -5.578125 31.921875 -6.640625 C 31.441406 -8.347656 31.203125 -10.054688 31.203125 -11.765625 C 31.203125 -12.554688 31.28125 -13.113281 31.4375 -13.4375 C 31.65625 -13.65625 31.75 -14.125 31.71875 -14.84375 C 31.695312 -15.5625 31.6875 -16.082031 31.6875 -16.40625 C 31.625 -17.625 31.25 -18.234375 30.5625 -18.234375 C 30.082031 -18.234375 29.546875 -18.050781 28.953125 -17.6875 C 25.972656 -15.8125 23.46875 -14.207031 21.4375 -12.875 C 19.414062 -11.539062 17.46875 -10.050781 15.59375 -8.40625 C 14.851562 -7.550781 14.296875 -6.800781 13.921875 -6.15625 C 13.546875 -5.519531 13.273438 -5.082031 13.109375 -4.84375 C 12.953125 -4.601562 12.742188 -4.484375 12.484375 -4.484375 C 12.160156 -4.367188 11.945312 -4.3125 11.84375 -4.3125 C 11.570312 -4.3125 11.25 -4.457031 10.875 -4.75 C 10.5 -5.050781 10.257812 -5.253906 10.15625 -5.359375 C 9.945312 -5.578125 9.601562 -5.9375 9.125 -6.4375 C 8.644531 -6.945312 8.375 -7.304688 8.3125 -7.515625 C 8.3125 -7.941406 8.484375 -8.925781 8.828125 -10.46875 C 9.179688 -12.019531 9.46875 -13.007812 9.6875 -13.4375 C 9.84375 -13.4375 10.078125 -13.769531 10.390625 -14.4375 C 10.710938 -15.101562 11.007812 -15.625 11.28125 -16 C 11.4375 -16.800781 12.128906 -18.640625 13.359375 -21.515625 C 14.109375 -22.796875 14.628906 -23.863281 14.921875 -24.71875 C 15.210938 -25.570312 15.410156 -26.640625 15.515625 -27.921875 L 15.515625 -28.078125 C 15.515625 -28.296875 15.59375 -28.46875 15.75 -28.59375 C 15.914062 -28.726562 16.078125 -28.796875 16.234375 -28.796875 C 16.609375 -29.066406 16.957031 -29.203125 17.28125 -29.203125 C 17.96875 -29.203125 18.660156 -28.773438 19.359375 -27.921875 C 20.160156 -26.910156 20.5625 -25.84375 20.5625 -24.71875 C 20.5625 -23.332031 19.679688 -21.144531 17.921875 -18.15625 C 17.765625 -17.78125 17.535156 -17.242188 17.234375 -16.546875 C 16.941406 -15.859375 16.796875 -15.382812 16.796875 -15.125 L 21.28125 -18.15625 C 21.707031 -18.632812 22.851562 -19.488281 24.71875 -20.71875 C 26.582031 -21.945312 27.890625 -22.640625 28.640625 -22.796875 C 29.921875 -23.390625 30.722656 -23.6875 31.046875 -23.6875 C 31.679688 -23.6875 32.546875 -23.203125 33.640625 -22.234375 C 34.734375 -21.273438 35.382812 -20.476562 35.59375 -19.84375 C 35.59375 -19.25 35.648438 -18.820312 35.765625 -18.5625 C 36.023438 -17.488281 36.15625 -16.234375 36.15625 -14.796875 C 36.15625 -13.835938 36.085938 -12.972656 35.953125 -12.203125 C 35.828125 -11.429688 35.65625 -10.988281 35.4375 -10.875 C 35.4375 -10.820312 35.460938 -10.742188 35.515625 -10.640625 C 35.566406 -10.535156 35.675781 -10.484375 35.84375 -10.484375 L 35.84375 -10.078125 C 35.414062 -10.078125 35.359375 -9.625 35.671875 -8.71875 C 35.992188 -7.8125 36.421875 -7.117188 36.953125 -6.640625 C 37.492188 -6.109375 37.765625 -5.578125 37.765625 -5.046875 C 37.765625 -4.398438 37.28125 -3.945312 36.3125 -3.6875 Z M 36.3125 -3.6875 "/></g></g></g><g fill="#000000" fill-opacity="1"><g transform="translate(385.529966, 336.365393)"><g/></g></g><g fill="#000000" fill-opacity="1"><g transform="translate(404.888081, 336.365393)"><g><path d="M 4.234375 18 C 3.804688 18 3.460938 17.757812 3.203125 17.28125 C 2.929688 16.90625 2.796875 16.453125 2.796875 15.921875 C 2.796875 15.546875 2.929688 14.640625 3.203125 13.203125 C 3.785156 10.960938 4.078125 9.414062 4.078125 8.5625 C 4.078125 8.289062 4.128906 7.898438 4.234375 7.390625 C 4.347656 6.890625 4.429688 6.425781 4.484375 6 C 4.691406 5.625 4.890625 5.050781 5.078125 4.28125 C 5.265625 3.507812 5.359375 2.828125 5.359375 2.234375 C 5.359375 1.972656 5.453125 1.664062 5.640625 1.3125 C 5.828125 0.96875 6.050781 0.691406 6.3125 0.484375 C 6.3125 0.160156 6.390625 -0.332031 6.546875 -1 C 6.710938 -1.664062 6.820312 -2.132812 6.875 -2.40625 C 7.144531 -3.84375 8.1875 -7.253906 10 -12.640625 C 11.8125 -18.023438 13.359375 -22.375 14.640625 -25.6875 C 15.222656 -27.019531 15.644531 -28.242188 15.90625 -29.359375 C 16.175781 -30.484375 16.3125 -31.363281 16.3125 -32 C 16.3125 -32.207031 16.378906 -32.40625 16.515625 -32.59375 C 16.648438 -32.78125 16.878906 -33.035156 17.203125 -33.359375 C 17.578125 -33.734375 17.921875 -33.921875 18.234375 -33.921875 C 18.503906 -33.921875 18.796875 -33.8125 19.109375 -33.59375 C 19.429688 -33.382812 19.753906 -33.144531 20.078125 -32.875 C 20.398438 -32.394531 20.65625 -31.941406 20.84375 -31.515625 C 21.03125 -31.085938 21.125 -30.632812 21.125 -30.15625 C 21.125 -30 21.066406 -29.492188 20.953125 -28.640625 C 20.953125 -27.515625 20.710938 -26.59375 20.234375 -25.875 C 19.753906 -25.15625 19.570312 -24.820312 19.6875 -24.875 C 22.082031 -26 24.210938 -26.5625 26.078125 -26.5625 C 28.316406 -26.5625 30.0625 -25.835938 31.3125 -24.390625 C 32.570312 -22.953125 33.203125 -21.085938 33.203125 -18.796875 C 33.203125 -17.835938 32.921875 -16.675781 32.359375 -15.3125 C 31.796875 -13.957031 31.25 -13.039062 30.71875 -12.5625 C 30.394531 -12.5625 29.96875 -12 29.4375 -10.875 C 28.75 -10.019531 27.601562 -9.125 26 -8.1875 C 24.394531 -7.257812 23.273438 -6.90625 22.640625 -7.125 C 22.585938 -7.125 22.503906 -7.09375 22.390625 -7.03125 C 22.285156 -6.976562 22.234375 -6.847656 22.234375 -6.640625 C 22.234375 -6.421875 21.328125 -6.019531 19.515625 -5.4375 C 17.703125 -4.851562 16.210938 -4.5625 15.046875 -4.5625 C 14.398438 -4.5625 13.914062 -4.597656 13.59375 -4.671875 C 13.28125 -4.753906 12.960938 -4.929688 12.640625 -5.203125 C 12.265625 -4.828125 12.078125 -4.476562 12.078125 -4.15625 C 12.078125 -3.570312 11.8125 -2.503906 11.28125 -0.953125 C 10.75 0.585938 10.320312 1.359375 10 1.359375 C 9.945312 1.410156 9.878906 1.515625 9.796875 1.671875 C 9.722656 1.835938 9.789062 2.023438 10 2.234375 C 10 2.398438 9.972656 2.773438 9.921875 3.359375 C 9.867188 3.941406 9.734375 4.394531 9.515625 4.71875 C 9.515625 5.195312 9.4375 5.847656 9.28125 6.671875 C 9.125 7.503906 8.9375 8.132812 8.71875 8.5625 C 8.71875 9.195312 8.625 9.820312 8.4375 10.4375 C 8.25 11.050781 8.050781 11.359375 7.84375 11.359375 C 7.519531 11.460938 7.359375 12.238281 7.359375 13.6875 C 7.304688 15.019531 7.039062 16.054688 6.5625 16.796875 C 6.082031 17.546875 5.519531 17.921875 4.875 17.921875 Z M 14.5625 -8.796875 C 15.363281 -8.796875 16.976562 -9.207031 19.40625 -10.03125 C 21.832031 -10.863281 23.523438 -11.679688 24.484375 -12.484375 C 25.597656 -13.441406 26.5 -14.46875 27.1875 -15.5625 C 27.882812 -16.65625 28.234375 -17.757812 28.234375 -18.875 C 28.234375 -19.726562 27.992188 -20.503906 27.515625 -21.203125 C 27.140625 -21.785156 26.5 -22.078125 25.59375 -22.078125 C 24.53125 -22.078125 23.265625 -21.703125 21.796875 -20.953125 C 20.328125 -20.210938 18.984375 -19.226562 17.765625 -18 C 16.796875 -17.039062 15.9375 -15.664062 15.1875 -13.875 C 14.445312 -12.09375 14.078125 -10.695312 14.078125 -9.6875 C 14.078125 -9.09375 14.238281 -8.796875 14.5625 -8.796875 Z M 14.5625 -8.796875 "/></g></g></g><g fill="#000000" fill-opacity="1"><g transform="translate(435.125133, 336.365393)"><g><path d="M 27.125 -0.15625 C 25.84375 -1.382812 24.878906 -3.195312 24.234375 -5.59375 C 24.128906 -5.914062 24.078125 -6.476562 24.078125 -7.28125 C 24.078125 -8.082031 24.078125 -8.640625 24.078125 -8.953125 C 23.753906 -8.160156 23.164062 -7.441406 22.3125 -6.796875 C 21.09375 -5.566406 19.867188 -4.660156 18.640625 -4.078125 C 16.773438 -2.847656 15.253906 -2.234375 14.078125 -2.234375 C 13.015625 -2.234375 12.003906 -2.820312 11.046875 -4 C 10.347656 -4.582031 9.820312 -5.164062 9.46875 -5.75 C 9.125 -6.34375 8.953125 -7.066406 8.953125 -7.921875 C 8.953125 -8.503906 9.035156 -9.144531 9.203125 -9.84375 C 9.304688 -11.8125 9.582031 -13.703125 10.03125 -15.515625 C 10.488281 -17.328125 11.359375 -19.648438 12.640625 -22.484375 C 14.347656 -25.835938 15.570312 -28.078125 16.3125 -29.203125 C 16.582031 -29.304688 16.929688 -29.359375 17.359375 -29.359375 C 17.890625 -29.359375 18.328125 -29.195312 18.671875 -28.875 C 19.023438 -28.5625 19.226562 -28.132812 19.28125 -27.59375 C 19.4375 -27.382812 19.515625 -27.09375 19.515625 -26.71875 C 19.515625 -25.382812 18.71875 -23.195312 17.125 -20.15625 C 15.039062 -15.144531 14 -11.679688 14 -9.765625 C 14 -8.640625 14.316406 -7.972656 14.953125 -7.765625 C 15.222656 -7.597656 15.519531 -7.515625 15.84375 -7.515625 C 17.175781 -7.515625 18.773438 -8.421875 20.640625 -10.234375 C 22.503906 -12.046875 24.289062 -14.953125 26 -18.953125 C 26.75 -20.773438 27.203125 -22.644531 27.359375 -24.5625 C 27.304688 -24.71875 27.28125 -24.957031 27.28125 -25.28125 C 27.28125 -26.238281 27.757812 -27.007812 28.71875 -27.59375 C 28.9375 -27.914062 29.226562 -28.171875 29.59375 -28.359375 C 29.96875 -28.546875 30.207031 -28.53125 30.3125 -28.3125 L 31.59375 -28.40625 C 31.757812 -28.457031 31.921875 -28.304688 32.078125 -27.953125 C 32.234375 -27.609375 32.394531 -27.382812 32.5625 -27.28125 C 32.9375 -26.957031 33.125 -26.367188 33.125 -25.515625 C 33.125 -23.753906 32.347656 -21.0625 30.796875 -17.4375 C 29.785156 -15.300781 29.101562 -13.660156 28.75 -12.515625 C 28.40625 -11.367188 28.207031 -10.265625 28.15625 -9.203125 C 28.15625 -7.171875 28.929688 -5.488281 30.484375 -4.15625 C 31.015625 -3.78125 31.332031 -3.378906 31.4375 -2.953125 C 31.539062 -2.523438 31.566406 -1.941406 31.515625 -1.203125 C 31.410156 -0.722656 31.101562 -0.332031 30.59375 -0.03125 C 30.09375 0.257812 29.546875 0.40625 28.953125 0.40625 C 28.265625 0.40625 27.65625 0.21875 27.125 -0.15625 Z M 27.125 -0.15625 "/></g></g></g><g fill="#000000" fill-opacity="1"><g transform="translate(464.722254, 336.365393)"><g><path d="M 14.3125 -0.5625 C 13.46875 -0.71875 12.601562 -1.289062 11.71875 -2.28125 C 10.84375 -3.269531 10.269531 -4.191406 10 -5.046875 C 10 -5.148438 9.945312 -5.265625 9.84375 -5.390625 C 9.738281 -5.523438 9.65625 -5.625 9.59375 -5.6875 C 9.382812 -5.84375 9.28125 -6.71875 9.28125 -8.3125 C 9.28125 -9.59375 9.347656 -10.925781 9.484375 -12.3125 C 9.617188 -13.707031 9.789062 -14.832031 10 -15.6875 L 11.4375 -19.921875 L 12.5625 -23.125 L 14.71875 -27.765625 L 11.515625 -28.640625 C 11.140625 -28.691406 10.832031 -28.878906 10.59375 -29.203125 C 10.351562 -29.523438 10.234375 -29.816406 10.234375 -30.078125 C 10.234375 -30.503906 10.457031 -31.023438 10.90625 -31.640625 C 11.363281 -32.253906 11.726562 -32.5625 12 -32.5625 C 12.15625 -32.507812 12.582031 -32.484375 13.28125 -32.484375 C 14.882812 -32.484375 16.082031 -32.5625 16.875 -32.71875 C 17.414062 -32.9375 17.789062 -33.363281 18 -34 C 18.207031 -34.425781 18.457031 -34.957031 18.75 -35.59375 C 19.050781 -36.238281 19.332031 -36.828125 19.59375 -37.359375 C 19.757812 -37.679688 20.015625 -38.175781 20.359375 -38.84375 C 20.703125 -39.507812 21.144531 -40.269531 21.6875 -41.125 C 21.789062 -41.28125 22.023438 -41.664062 22.390625 -42.28125 C 22.765625 -42.894531 23.222656 -43.414062 23.765625 -43.84375 C 24.128906 -44.21875 24.582031 -44.40625 25.125 -44.40625 C 25.65625 -44.40625 26.347656 -44.054688 27.203125 -43.359375 C 27.304688 -43.203125 27.453125 -42.988281 27.640625 -42.71875 C 27.828125 -42.445312 27.921875 -42.207031 27.921875 -42 C 27.921875 -41.789062 27.707031 -41.335938 27.28125 -40.640625 C 26.957031 -40.003906 26.648438 -39.429688 26.359375 -38.921875 C 26.066406 -38.410156 25.8125 -37.96875 25.59375 -37.59375 C 24.957031 -36.53125 24.503906 -35.734375 24.234375 -35.203125 C 23.703125 -34.503906 23.4375 -33.96875 23.4375 -33.59375 C 23.4375 -33.226562 23.785156 -33.046875 24.484375 -33.046875 C 25.222656 -33.046875 26.472656 -33.203125 28.234375 -33.515625 C 28.984375 -33.628906 29.492188 -33.6875 29.765625 -33.6875 C 31.628906 -33.6875 32.640625 -32.910156 32.796875 -31.359375 C 32.847656 -31.035156 32.875 -30.660156 32.875 -30.234375 C 32.875 -29.492188 32.617188 -29.039062 32.109375 -28.875 C 31.609375 -28.71875 30.476562 -28.640625 28.71875 -28.640625 C 27.007812 -28.367188 25.25 -28.234375 23.4375 -28.234375 C 23.113281 -28.234375 22.753906 -28.21875 22.359375 -28.1875 C 21.960938 -28.164062 21.550781 -28.101562 21.125 -28 C 20.695312 -27.894531 20.390625 -27.734375 20.203125 -27.515625 C 20.015625 -27.304688 19.8125 -26.960938 19.59375 -26.484375 C 19.4375 -26.316406 19.066406 -25.703125 18.484375 -24.640625 C 17.734375 -23.085938 17.253906 -22.15625 17.046875 -21.84375 C 15.597656 -17.570312 14.53125 -13.195312 13.84375 -8.71875 C 13.738281 -7.863281 13.6875 -7.332031 13.6875 -7.125 C 13.6875 -6.320312 13.953125 -5.757812 14.484375 -5.4375 C 15.015625 -5.113281 15.921875 -4.953125 17.203125 -4.953125 C 19.015625 -4.953125 20.585938 -5.140625 21.921875 -5.515625 C 23.515625 -6.210938 24.710938 -6.800781 25.515625 -7.28125 C 25.992188 -7.550781 26.429688 -7.804688 26.828125 -8.046875 C 27.234375 -8.285156 27.519531 -8.457031 27.6875 -8.5625 C 27.84375 -8.882812 28.023438 -9.046875 28.234375 -9.046875 C 28.660156 -9.046875 29.035156 -8.617188 29.359375 -7.765625 C 29.359375 -6.910156 29.171875 -6.160156 28.796875 -5.515625 C 28.421875 -4.878906 27.488281 -4.132812 26 -3.28125 C 22.90625 -1.300781 19.8125 -0.3125 16.71875 -0.3125 C 15.863281 -0.3125 15.0625 -0.394531 14.3125 -0.5625 Z M 14.3125 -0.5625 "/></g></g></g><g fill="#000000" fill-opacity="1"><g transform="translate(491.19967, 336.365393)"><g><path d="M 14.3125 -0.5625 C 13.46875 -0.71875 12.601562 -1.289062 11.71875 -2.28125 C 10.84375 -3.269531 10.269531 -4.191406 10 -5.046875 C 10 -5.148438 9.945312 -5.265625 9.84375 -5.390625 C 9.738281 -5.523438 9.65625 -5.625 9.59375 -5.6875 C 9.382812 -5.84375 9.28125 -6.71875 9.28125 -8.3125 C 9.28125 -9.59375 9.347656 -10.925781 9.484375 -12.3125 C 9.617188 -13.707031 9.789062 -14.832031 10 -15.6875 L 11.4375 -19.921875 L 12.5625 -23.125 L 14.71875 -27.765625 L 11.515625 -28.640625 C 11.140625 -28.691406 10.832031 -28.878906 10.59375 -29.203125 C 10.351562 -29.523438 10.234375 -29.816406 10.234375 -30.078125 C 10.234375 -30.503906 10.457031 -31.023438 10.90625 -31.640625 C 11.363281 -32.253906 11.726562 -32.5625 12 -32.5625 C 12.15625 -32.507812 12.582031 -32.484375 13.28125 -32.484375 C 14.882812 -32.484375 16.082031 -32.5625 16.875 -32.71875 C 17.414062 -32.9375 17.789062 -33.363281 18 -34 C 18.207031 -34.425781 18.457031 -34.957031 18.75 -35.59375 C 19.050781 -36.238281 19.332031 -36.828125 19.59375 -37.359375 C 19.757812 -37.679688 20.015625 -38.175781 20.359375 -38.84375 C 20.703125 -39.507812 21.144531 -40.269531 21.6875 -41.125 C 21.789062 -41.28125 22.023438 -41.664062 22.390625 -42.28125 C 22.765625 -42.894531 23.222656 -43.414062 23.765625 -43.84375 C 24.128906 -44.21875 24.582031 -44.40625 25.125 -44.40625 C 25.65625 -44.40625 26.347656 -44.054688 27.203125 -43.359375 C 27.304688 -43.203125 27.453125 -42.988281 27.640625 -42.71875 C 27.828125 -42.445312 27.921875 -42.207031 27.921875 -42 C 27.921875 -41.789062 27.707031 -41.335938 27.28125 -40.640625 C 26.957031 -40.003906 26.648438 -39.429688 26.359375 -38.921875 C 26.066406 -38.410156 25.8125 -37.96875 25.59375 -37.59375 C 24.957031 -36.53125 24.503906 -35.734375 24.234375 -35.203125 C 23.703125 -34.503906 23.4375 -33.96875 23.4375 -33.59375 C 23.4375 -33.226562 23.785156 -33.046875 24.484375 -33.046875 C 25.222656 -33.046875 26.472656 -33.203125 28.234375 -33.515625 C 28.984375 -33.628906 29.492188 -33.6875 29.765625 -33.6875 C 31.628906 -33.6875 32.640625 -32.910156 32.796875 -31.359375 C 32.847656 -31.035156 32.875 -30.660156 32.875 -30.234375 C 32.875 -29.492188 32.617188 -29.039062 32.109375 -28.875 C 31.609375 -28.71875 30.476562 -28.640625 28.71875 -28.640625 C 27.007812 -28.367188 25.25 -28.234375 23.4375 -28.234375 C 23.113281 -28.234375 22.753906 -28.21875 22.359375 -28.1875 C 21.960938 -28.164062 21.550781 -28.101562 21.125 -28 C 20.695312 -27.894531 20.390625 -27.734375 20.203125 -27.515625 C 20.015625 -27.304688 19.8125 -26.960938 19.59375 -26.484375 C 19.4375 -26.316406 19.066406 -25.703125 18.484375 -24.640625 C 17.734375 -23.085938 17.253906 -22.15625 17.046875 -21.84375 C 15.597656 -17.570312 14.53125 -13.195312 13.84375 -8.71875 C 13.738281 -7.863281 13.6875 -7.332031 13.6875 -7.125 C 13.6875 -6.320312 13.953125 -5.757812 14.484375 -5.4375 C 15.015625 -5.113281 15.921875 -4.953125 17.203125 -4.953125 C 19.015625 -4.953125 20.585938 -5.140625 21.921875 -5.515625 C 23.515625 -6.210938 24.710938 -6.800781 25.515625 -7.28125 C 25.992188 -7.550781 26.429688 -7.804688 26.828125 -8.046875 C 27.234375 -8.285156 27.519531 -8.457031 27.6875 -8.5625 C 27.84375 -8.882812 28.023438 -9.046875 28.234375 -9.046875 C 28.660156 -9.046875 29.035156 -8.617188 29.359375 -7.765625 C 29.359375 -6.910156 29.171875 -6.160156 28.796875 -5.515625 C 28.421875 -4.878906 27.488281 -4.132812 26 -3.28125 C 22.90625 -1.300781 19.8125 -0.3125 16.71875 -0.3125 C 15.863281 -0.3125 15.0625 -0.394531 14.3125 -0.5625 Z M 14.3125 -0.5625 "/></g></g></g><g fill="#000000" fill-opacity="1"><g transform="translate(517.677086, 336.365393)"><g><path d="M 16.640625 -35.046875 C 16.265625 -35.410156 15.941406 -36.046875 15.671875 -36.953125 C 15.410156 -37.859375 15.414062 -38.3125 15.6875 -38.3125 C 16.101562 -38.375 16.59375 -38.84375 17.15625 -39.71875 C 17.71875 -40.601562 17.972656 -41.335938 17.921875 -41.921875 C 17.921875 -42.128906 18 -42.328125 18.15625 -42.515625 C 18.320312 -42.703125 18.507812 -42.820312 18.71875 -42.875 C 19.144531 -43.144531 19.519531 -43.28125 19.84375 -43.28125 C 20.75 -43.28125 21.570312 -42.640625 22.3125 -41.359375 C 22.632812 -40.660156 22.796875 -40.046875 22.796875 -39.515625 C 22.796875 -39.035156 22.660156 -38.539062 22.390625 -38.03125 C 22.128906 -37.53125 21.648438 -36.878906 20.953125 -36.078125 C 20.046875 -34.847656 19.195312 -34.234375 18.40625 -34.234375 C 17.863281 -34.234375 17.273438 -34.503906 16.640625 -35.046875 Z M 8.875 -2.5625 C 8.132812 -3.3125 7.765625 -4.378906 7.765625 -5.765625 C 7.765625 -6.503906 7.894531 -7.144531 8.15625 -7.6875 C 8.15625 -7.945312 8.207031 -8.265625 8.3125 -8.640625 C 8.425781 -9.015625 8.484375 -9.253906 8.484375 -9.359375 C 8.429688 -9.679688 8.644531 -10.5625 9.125 -12 C 10.082031 -14.132812 11.359375 -17.894531 12.953125 -23.28125 C 12.953125 -23.550781 13.054688 -23.773438 13.265625 -23.953125 C 13.484375 -24.140625 13.804688 -24.257812 14.234375 -24.3125 C 14.660156 -24.425781 14.957031 -24.484375 15.125 -24.484375 C 15.4375 -24.484375 15.710938 -24.363281 15.953125 -24.125 C 16.191406 -23.882812 16.523438 -23.441406 16.953125 -22.796875 C 17.273438 -22.472656 17.4375 -21.992188 17.4375 -21.359375 C 17.4375 -20.347656 17.09375 -19.125 16.40625 -17.6875 C 15.707031 -16.132812 15.253906 -14.800781 15.046875 -13.6875 C 14.398438 -12.238281 13.890625 -10.90625 13.515625 -9.6875 C 13.410156 -9.363281 13.25 -8.71875 13.03125 -7.75 C 12.820312 -6.789062 12.53125 -6.019531 12.15625 -5.4375 C 11.84375 -3.945312 11.550781 -2.90625 11.28125 -2.3125 C 11.007812 -1.726562 10.71875 -1.4375 10.40625 -1.4375 C 10.03125 -1.4375 9.519531 -1.8125 8.875 -2.5625 Z M 8.875 -2.5625 "/></g></g></g><g fill="#000000" fill-opacity="1"><g transform="translate(532.635612, 336.365393)"><g><path d="M 36.3125 -3.6875 C 35.25 -3.6875 34.367188 -3.910156 33.671875 -4.359375 C 32.984375 -4.816406 32.398438 -5.578125 31.921875 -6.640625 C 31.441406 -8.347656 31.203125 -10.054688 31.203125 -11.765625 C 31.203125 -12.554688 31.28125 -13.113281 31.4375 -13.4375 C 31.65625 -13.65625 31.75 -14.125 31.71875 -14.84375 C 31.695312 -15.5625 31.6875 -16.082031 31.6875 -16.40625 C 31.625 -17.625 31.25 -18.234375 30.5625 -18.234375 C 30.082031 -18.234375 29.546875 -18.050781 28.953125 -17.6875 C 25.972656 -15.8125 23.46875 -14.207031 21.4375 -12.875 C 19.414062 -11.539062 17.46875 -10.050781 15.59375 -8.40625 C 14.851562 -7.550781 14.296875 -6.800781 13.921875 -6.15625 C 13.546875 -5.519531 13.273438 -5.082031 13.109375 -4.84375 C 12.953125 -4.601562 12.742188 -4.484375 12.484375 -4.484375 C 12.160156 -4.367188 11.945312 -4.3125 11.84375 -4.3125 C 11.570312 -4.3125 11.25 -4.457031 10.875 -4.75 C 10.5 -5.050781 10.257812 -5.253906 10.15625 -5.359375 C 9.945312 -5.578125 9.601562 -5.9375 9.125 -6.4375 C 8.644531 -6.945312 8.375 -7.304688 8.3125 -7.515625 C 8.3125 -7.941406 8.484375 -8.925781 8.828125 -10.46875 C 9.179688 -12.019531 9.46875 -13.007812 9.6875 -13.4375 C 9.84375 -13.4375 10.078125 -13.769531 10.390625 -14.4375 C 10.710938 -15.101562 11.007812 -15.625 11.28125 -16 C 11.4375 -16.800781 12.128906 -18.640625 13.359375 -21.515625 C 14.109375 -22.796875 14.628906 -23.863281 14.921875 -24.71875 C 15.210938 -25.570312 15.410156 -26.640625 15.515625 -27.921875 L 15.515625 -28.078125 C 15.515625 -28.296875 15.59375 -28.46875 15.75 -28.59375 C 15.914062 -28.726562 16.078125 -28.796875 16.234375 -28.796875 C 16.609375 -29.066406 16.957031 -29.203125 17.28125 -29.203125 C 17.96875 -29.203125 18.660156 -28.773438 19.359375 -27.921875 C 20.160156 -26.910156 20.5625 -25.84375 20.5625 -24.71875 C 20.5625 -23.332031 19.679688 -21.144531 17.921875 -18.15625 C 17.765625 -17.78125 17.535156 -17.242188 17.234375 -16.546875 C 16.941406 -15.859375 16.796875 -15.382812 16.796875 -15.125 L 21.28125 -18.15625 C 21.707031 -18.632812 22.851562 -19.488281 24.71875 -20.71875 C 26.582031 -21.945312 27.890625 -22.640625 28.640625 -22.796875 C 29.921875 -23.390625 30.722656 -23.6875 31.046875 -23.6875 C 31.679688 -23.6875 32.546875 -23.203125 33.640625 -22.234375 C 34.734375 -21.273438 35.382812 -20.476562 35.59375 -19.84375 C 35.59375 -19.25 35.648438 -18.820312 35.765625 -18.5625 C 36.023438 -17.488281 36.15625 -16.234375 36.15625 -14.796875 C 36.15625 -13.835938 36.085938 -12.972656 35.953125 -12.203125 C 35.828125 -11.429688 35.65625 -10.988281 35.4375 -10.875 C 35.4375 -10.820312 35.460938 -10.742188 35.515625 -10.640625 C 35.566406 -10.535156 35.675781 -10.484375 35.84375 -10.484375 L 35.84375 -10.078125 C 35.414062 -10.078125 35.359375 -9.625 35.671875 -8.71875 C 35.992188 -7.8125 36.421875 -7.117188 36.953125 -6.640625 C 37.492188 -6.109375 37.765625 -5.578125 37.765625 -5.046875 C 37.765625 -4.398438 37.28125 -3.945312 36.3125 -3.6875 Z M 36.3125 -3.6875 "/></g></g></g><g fill="#000000" fill-opacity="1"><g transform="translate(568.63213, 336.365393)"><g><path d="M 30.875 -24.15625 C 31.195312 -23.519531 31.359375 -22.90625 31.359375 -22.3125 C 31.359375 -21.519531 31.039062 -20.722656 30.40625 -19.921875 C 30.238281 -19.648438 29.941406 -19.234375 29.515625 -18.671875 C 29.085938 -18.117188 28.710938 -17.546875 28.390625 -16.953125 C 28.078125 -16.367188 27.84375 -15.703125 27.6875 -14.953125 C 27.46875 -13.734375 26.828125 -11.125 25.765625 -7.125 L 24.875 -4 L 23.59375 0.953125 C 21.195312 9.222656 18.800781 14 16.40625 15.28125 C 15.707031 15.550781 15.039062 15.6875 14.40625 15.6875 C 13.226562 15.6875 12.007812 15.296875 10.75 14.515625 C 9.5 13.742188 8.421875 12.691406 7.515625 11.359375 C 6.984375 10.609375 6.460938 9.421875 5.953125 7.796875 C 5.453125 6.171875 5.363281 5.253906 5.6875 5.046875 C 5.789062 4.929688 5.972656 4.875 6.234375 4.875 C 6.609375 4.875 7.007812 4.992188 7.4375 5.234375 C 7.863281 5.472656 8.128906 5.753906 8.234375 6.078125 C 8.453125 6.660156 8.90625 7.429688 9.59375 8.390625 C 10.289062 9.359375 10.800781 9.867188 11.125 9.921875 C 11.976562 10.347656 12.695312 10.5625 13.28125 10.5625 C 13.757812 10.5625 14.210938 10.398438 14.640625 10.078125 C 15.492188 9.390625 16.226562 8.5 16.84375 7.40625 C 17.457031 6.3125 18.132812 4.5625 18.875 2.15625 L 19.515625 -0.15625 C 20.796875 -4.851562 21.726562 -7.894531 22.3125 -9.28125 C 22.582031 -10.132812 22.851562 -10.800781 23.125 -11.28125 L 21.6875 -10 C 21.039062 -9.414062 20.367188 -8.851562 19.671875 -8.3125 C 18.984375 -7.78125 18.265625 -7.359375 17.515625 -7.046875 C 17.140625 -6.554688 16.207031 -6.3125 14.71875 -6.3125 C 13.65625 -6.3125 12.585938 -6.472656 11.515625 -6.796875 C 10.398438 -7.390625 9.707031 -7.84375 9.4375 -8.15625 C 9.175781 -8.476562 8.800781 -9.226562 8.3125 -10.40625 C 8.101562 -10.832031 8 -11.5 8 -12.40625 C 8 -14.695312 8.53125 -17.148438 9.59375 -19.765625 C 10.613281 -21.835938 12.21875 -24.046875 14.40625 -26.390625 C 16.59375 -28.742188 18.484375 -30.160156 20.078125 -30.640625 C 20.722656 -30.960938 21.3125 -31.125 21.84375 -31.125 C 22.425781 -31.125 23.039062 -31.015625 23.6875 -30.796875 C 24.53125 -30.691406 25.191406 -30.503906 25.671875 -30.234375 C 26.160156 -29.972656 26.960938 -29.363281 28.078125 -28.40625 C 29.359375 -27.125 30.289062 -25.707031 30.875 -24.15625 Z M 22.078125 -16.234375 C 22.984375 -17.460938 23.625 -18.78125 24 -20.1875 C 24.375 -21.601562 24.507812 -23.007812 24.40625 -24.40625 C 24.34375 -25.144531 24.234375 -25.660156 24.078125 -25.953125 C 23.921875 -26.253906 23.628906 -26.40625 23.203125 -26.40625 C 22.191406 -26.40625 21.019531 -25.921875 19.6875 -24.953125 C 18.351562 -23.992188 17.070312 -22.742188 15.84375 -21.203125 C 15.039062 -20.128906 14.375 -18.847656 13.84375 -17.359375 C 13.195312 -15.546875 12.875 -13.863281 12.875 -12.3125 C 12.875 -11.144531 13.085938 -10.476562 13.515625 -10.3125 C 15.171875 -10.375 16.675781 -10.859375 18.03125 -11.765625 C 19.394531 -12.671875 20.742188 -14.160156 22.078125 -16.234375 Z M 22.078125 -16.234375 "/></g></g></g><g fill="#000000" fill-opacity="1"><g transform="translate(193.268958, 448.115388)"><g/></g></g><g fill="#000000" fill-opacity="1"><g transform="translate(212.616617, 448.115388)"><g><path d="M 4.234375 18 C 3.804688 18 3.460938 17.757812 3.203125 17.28125 C 2.929688 16.90625 2.796875 16.453125 2.796875 15.921875 C 2.796875 15.546875 2.929688 14.640625 3.203125 13.203125 C 3.785156 10.960938 4.078125 9.414062 4.078125 8.5625 C 4.078125 8.289062 4.128906 7.898438 4.234375 7.390625 C 4.347656 6.890625 4.429688 6.425781 4.484375 6 C 4.691406 5.625 4.890625 5.050781 5.078125 4.28125 C 5.265625 3.507812 5.359375 2.828125 5.359375 2.234375 C 5.359375 1.972656 5.453125 1.664062 5.640625 1.3125 C 5.828125 0.96875 6.050781 0.691406 6.3125 0.484375 C 6.3125 0.160156 6.390625 -0.332031 6.546875 -1 C 6.710938 -1.664062 6.820312 -2.132812 6.875 -2.40625 C 7.144531 -3.84375 8.1875 -7.253906 10 -12.640625 C 11.8125 -18.023438 13.359375 -22.375 14.640625 -25.6875 C 15.222656 -27.019531 15.644531 -28.242188 15.90625 -29.359375 C 16.175781 -30.484375 16.3125 -31.363281 16.3125 -32 C 16.3125 -32.207031 16.378906 -32.40625 16.515625 -32.59375 C 16.648438 -32.78125 16.878906 -33.035156 17.203125 -33.359375 C 17.578125 -33.734375 17.921875 -33.921875 18.234375 -33.921875 C 18.503906 -33.921875 18.796875 -33.8125 19.109375 -33.59375 C 19.429688 -33.382812 19.753906 -33.144531 20.078125 -32.875 C 20.398438 -32.394531 20.65625 -31.941406 20.84375 -31.515625 C 21.03125 -31.085938 21.125 -30.632812 21.125 -30.15625 C 21.125 -30 21.066406 -29.492188 20.953125 -28.640625 C 20.953125 -27.515625 20.710938 -26.59375 20.234375 -25.875 C 19.753906 -25.15625 19.570312 -24.820312 19.6875 -24.875 C 22.082031 -26 24.210938 -26.5625 26.078125 -26.5625 C 28.316406 -26.5625 30.0625 -25.835938 31.3125 -24.390625 C 32.570312 -22.953125 33.203125 -21.085938 33.203125 -18.796875 C 33.203125 -17.835938 32.921875 -16.675781 32.359375 -15.3125 C 31.796875 -13.957031 31.25 -13.039062 30.71875 -12.5625 C 30.394531 -12.5625 29.96875 -12 29.4375 -10.875 C 28.75 -10.019531 27.601562 -9.125 26 -8.1875 C 24.394531 -7.257812 23.273438 -6.90625 22.640625 -7.125 C 22.585938 -7.125 22.503906 -7.09375 22.390625 -7.03125 C 22.285156 -6.976562 22.234375 -6.847656 22.234375 -6.640625 C 22.234375 -6.421875 21.328125 -6.019531 19.515625 -5.4375 C 17.703125 -4.851562 16.210938 -4.5625 15.046875 -4.5625 C 14.398438 -4.5625 13.914062 -4.597656 13.59375 -4.671875 C 13.28125 -4.753906 12.960938 -4.929688 12.640625 -5.203125 C 12.265625 -4.828125 12.078125 -4.476562 12.078125 -4.15625 C 12.078125 -3.570312 11.8125 -2.503906 11.28125 -0.953125 C 10.75 0.585938 10.320312 1.359375 10 1.359375 C 9.945312 1.410156 9.878906 1.515625 9.796875 1.671875 C 9.722656 1.835938 9.789062 2.023438 10 2.234375 C 10 2.398438 9.972656 2.773438 9.921875 3.359375 C 9.867188 3.941406 9.734375 4.394531 9.515625 4.71875 C 9.515625 5.195312 9.4375 5.847656 9.28125 6.671875 C 9.125 7.503906 8.9375 8.132812 8.71875 8.5625 C 8.71875 9.195312 8.625 9.820312 8.4375 10.4375 C 8.25 11.050781 8.050781 11.359375 7.84375 11.359375 C 7.519531 11.460938 7.359375 12.238281 7.359375 13.6875 C 7.304688 15.019531 7.039062 16.054688 6.5625 16.796875 C 6.082031 17.546875 5.519531 17.921875 4.875 17.921875 Z M 14.5625 -8.796875 C 15.363281 -8.796875 16.976562 -9.207031 19.40625 -10.03125 C 21.832031 -10.863281 23.523438 -11.679688 24.484375 -12.484375 C 25.597656 -13.441406 26.5 -14.46875 27.1875 -15.5625 C 27.882812 -16.65625 28.234375 -17.757812 28.234375 -18.875 C 28.234375 -19.726562 27.992188 -20.503906 27.515625 -21.203125 C 27.140625 -21.785156 26.5 -22.078125 25.59375 -22.078125 C 24.53125 -22.078125 23.265625 -21.703125 21.796875 -20.953125 C 20.328125 -20.210938 18.984375 -19.226562 17.765625 -18 C 16.796875 -17.039062 15.9375 -15.664062 15.1875 -13.875 C 14.445312 -12.09375 14.078125 -10.695312 14.078125 -9.6875 C 14.078125 -9.09375 14.238281 -8.796875 14.5625 -8.796875 Z M 14.5625 -8.796875 "/></g></g></g><g fill="#000000" fill-opacity="1"><g transform="translate(242.85368, 448.115388)"><g><path d="M 22.078125 -2.796875 C 20.742188 -1.628906 19.144531 -1.046875 17.28125 -1.046875 C 15.945312 -1.046875 14.679688 -1.363281 13.484375 -2 C 12.285156 -2.632812 11.285156 -3.515625 10.484375 -4.640625 C 9.785156 -5.492188 9.273438 -6.453125 8.953125 -7.515625 C 8.640625 -8.585938 8.484375 -9.894531 8.484375 -11.4375 C 8.484375 -11.96875 8.535156 -13.035156 8.640625 -14.640625 C 8.796875 -16.609375 9.445312 -18.660156 10.59375 -20.796875 C 11.738281 -22.929688 13.164062 -24.835938 14.875 -26.515625 C 16.582031 -28.203125 18.265625 -29.363281 19.921875 -30 C 20.773438 -30.53125 21.546875 -30.796875 22.234375 -30.796875 C 22.609375 -30.796875 22.984375 -30.769531 23.359375 -30.71875 C 23.734375 -30.664062 24.132812 -30.613281 24.5625 -30.5625 C 25.726562 -30.394531 26.617188 -30.164062 27.234375 -29.875 C 27.847656 -29.582031 28.367188 -29.144531 28.796875 -28.5625 C 30.128906 -27.226562 30.796875 -25.679688 30.796875 -23.921875 C 30.585938 -22.640625 29.757812 -21.171875 28.3125 -19.515625 C 26.875 -17.867188 25.144531 -16.535156 23.125 -15.515625 C 22.164062 -15.203125 21.070312 -15.046875 19.84375 -15.046875 C 18.1875 -15.046875 16.851562 -15.390625 15.84375 -16.078125 C 15.363281 -16.234375 14.988281 -16.3125 14.71875 -16.3125 C 14.238281 -16.3125 13.878906 -15.992188 13.640625 -15.359375 C 13.398438 -14.722656 13.171875 -13.550781 12.953125 -11.84375 C 12.898438 -11.46875 12.875 -10.929688 12.875 -10.234375 C 12.875 -7.515625 13.78125 -6.023438 15.59375 -5.765625 C 16.820312 -5.492188 17.703125 -5.359375 18.234375 -5.359375 C 18.878906 -5.359375 19.601562 -5.570312 20.40625 -6 L 21.921875 -6.875 C 22.242188 -7.039062 22.535156 -7.253906 22.796875 -7.515625 C 23.066406 -7.785156 23.304688 -8.023438 23.515625 -8.234375 C 23.628906 -8.347656 23.789062 -8.523438 24 -8.765625 C 24.207031 -9.003906 24.40625 -9.160156 24.59375 -9.234375 C 24.78125 -9.316406 24.957031 -9.359375 25.125 -9.359375 C 25.332031 -9.359375 25.566406 -9.238281 25.828125 -9 C 26.097656 -8.757812 26.316406 -8.585938 26.484375 -8.484375 C 26.960938 -8.484375 27.066406 -8.148438 26.796875 -7.484375 C 26.535156 -6.816406 25.960938 -6.039062 25.078125 -5.15625 C 24.203125 -4.28125 23.203125 -3.492188 22.078125 -2.796875 Z M 22 -19.765625 C 22.90625 -20.128906 23.820312 -20.789062 24.75 -21.75 C 25.6875 -22.71875 26.15625 -23.519531 26.15625 -24.15625 C 26.15625 -24.800781 25.914062 -25.335938 25.4375 -25.765625 C 24.957031 -26.191406 24.289062 -26.40625 23.4375 -26.40625 C 22.800781 -26.40625 22.320312 -26.347656 22 -26.234375 C 21.25 -26.023438 20.367188 -25.453125 19.359375 -24.515625 C 18.347656 -23.585938 17.46875 -22.640625 16.71875 -21.671875 C 15.96875 -20.710938 15.675781 -20.15625 15.84375 -20 C 16.101562 -19.519531 17.140625 -19.28125 18.953125 -19.28125 C 20.179688 -19.28125 21.195312 -19.441406 22 -19.765625 Z M 22 -19.765625 "/></g></g></g><g fill="#000000" fill-opacity="1"><g transform="translate(268.851154, 448.115388)"><g><path d="M 36.3125 -3.6875 C 35.25 -3.6875 34.367188 -3.910156 33.671875 -4.359375 C 32.984375 -4.816406 32.398438 -5.578125 31.921875 -6.640625 C 31.441406 -8.347656 31.203125 -10.054688 31.203125 -11.765625 C 31.203125 -12.554688 31.28125 -13.113281 31.4375 -13.4375 C 31.65625 -13.65625 31.75 -14.125 31.71875 -14.84375 C 31.695312 -15.5625 31.6875 -16.082031 31.6875 -16.40625 C 31.625 -17.625 31.25 -18.234375 30.5625 -18.234375 C 30.082031 -18.234375 29.546875 -18.050781 28.953125 -17.6875 C 25.972656 -15.8125 23.46875 -14.207031 21.4375 -12.875 C 19.414062 -11.539062 17.46875 -10.050781 15.59375 -8.40625 C 14.851562 -7.550781 14.296875 -6.800781 13.921875 -6.15625 C 13.546875 -5.519531 13.273438 -5.082031 13.109375 -4.84375 C 12.953125 -4.601562 12.742188 -4.484375 12.484375 -4.484375 C 12.160156 -4.367188 11.945312 -4.3125 11.84375 -4.3125 C 11.570312 -4.3125 11.25 -4.457031 10.875 -4.75 C 10.5 -5.050781 10.257812 -5.253906 10.15625 -5.359375 C 9.945312 -5.578125 9.601562 -5.9375 9.125 -6.4375 C 8.644531 -6.945312 8.375 -7.304688 8.3125 -7.515625 C 8.3125 -7.941406 8.484375 -8.925781 8.828125 -10.46875 C 9.179688 -12.019531 9.46875 -13.007812 9.6875 -13.4375 C 9.84375 -13.4375 10.078125 -13.769531 10.390625 -14.4375 C 10.710938 -15.101562 11.007812 -15.625 11.28125 -16 C 11.4375 -16.800781 12.128906 -18.640625 13.359375 -21.515625 C 14.109375 -22.796875 14.628906 -23.863281 14.921875 -24.71875 C 15.210938 -25.570312 15.410156 -26.640625 15.515625 -27.921875 L 15.515625 -28.078125 C 15.515625 -28.296875 15.59375 -28.46875 15.75 -28.59375 C 15.914062 -28.726562 16.078125 -28.796875 16.234375 -28.796875 C 16.609375 -29.066406 16.957031 -29.203125 17.28125 -29.203125 C 17.96875 -29.203125 18.660156 -28.773438 19.359375 -27.921875 C 20.160156 -26.910156 20.5625 -25.84375 20.5625 -24.71875 C 20.5625 -23.332031 19.679688 -21.144531 17.921875 -18.15625 C 17.765625 -17.78125 17.535156 -17.242188 17.234375 -16.546875 C 16.941406 -15.859375 16.796875 -15.382812 16.796875 -15.125 L 21.28125 -18.15625 C 21.707031 -18.632812 22.851562 -19.488281 24.71875 -20.71875 C 26.582031 -21.945312 27.890625 -22.640625 28.640625 -22.796875 C 29.921875 -23.390625 30.722656 -23.6875 31.046875 -23.6875 C 31.679688 -23.6875 32.546875 -23.203125 33.640625 -22.234375 C 34.734375 -21.273438 35.382812 -20.476562 35.59375 -19.84375 C 35.59375 -19.25 35.648438 -18.820312 35.765625 -18.5625 C 36.023438 -17.488281 36.15625 -16.234375 36.15625 -14.796875 C 36.15625 -13.835938 36.085938 -12.972656 35.953125 -12.203125 C 35.828125 -11.429688 35.65625 -10.988281 35.4375 -10.875 C 35.4375 -10.820312 35.460938 -10.742188 35.515625 -10.640625 C 35.566406 -10.535156 35.675781 -10.484375 35.84375 -10.484375 L 35.84375 -10.078125 C 35.414062 -10.078125 35.359375 -9.625 35.671875 -8.71875 C 35.992188 -7.8125 36.421875 -7.117188 36.953125 -6.640625 C 37.492188 -6.109375 37.765625 -5.578125 37.765625 -5.046875 C 37.765625 -4.398438 37.28125 -3.945312 36.3125 -3.6875 Z M 36.3125 -3.6875 "/></g></g></g><g fill="#000000" fill-opacity="1"><g transform="translate(304.847661, 448.115388)"><g/></g></g><g fill="#000000" fill-opacity="1"><g transform="translate(324.205777, 448.115388)"><g><path d="M 14.3125 -0.5625 C 13.46875 -0.71875 12.601562 -1.289062 11.71875 -2.28125 C 10.84375 -3.269531 10.269531 -4.191406 10 -5.046875 C 10 -5.148438 9.945312 -5.265625 9.84375 -5.390625 C 9.738281 -5.523438 9.65625 -5.625 9.59375 -5.6875 C 9.382812 -5.84375 9.28125 -6.71875 9.28125 -8.3125 C 9.28125 -9.59375 9.347656 -10.925781 9.484375 -12.3125 C 9.617188 -13.707031 9.789062 -14.832031 10 -15.6875 L 11.4375 -19.921875 L 12.5625 -23.125 L 14.71875 -27.765625 L 11.515625 -28.640625 C 11.140625 -28.691406 10.832031 -28.878906 10.59375 -29.203125 C 10.351562 -29.523438 10.234375 -29.816406 10.234375 -30.078125 C 10.234375 -30.503906 10.457031 -31.023438 10.90625 -31.640625 C 11.363281 -32.253906 11.726562 -32.5625 12 -32.5625 C 12.15625 -32.507812 12.582031 -32.484375 13.28125 -32.484375 C 14.882812 -32.484375 16.082031 -32.5625 16.875 -32.71875 C 17.414062 -32.9375 17.789062 -33.363281 18 -34 C 18.207031 -34.425781 18.457031 -34.957031 18.75 -35.59375 C 19.050781 -36.238281 19.332031 -36.828125 19.59375 -37.359375 C 19.757812 -37.679688 20.015625 -38.175781 20.359375 -38.84375 C 20.703125 -39.507812 21.144531 -40.269531 21.6875 -41.125 C 21.789062 -41.28125 22.023438 -41.664062 22.390625 -42.28125 C 22.765625 -42.894531 23.222656 -43.414062 23.765625 -43.84375 C 24.128906 -44.21875 24.582031 -44.40625 25.125 -44.40625 C 25.65625 -44.40625 26.347656 -44.054688 27.203125 -43.359375 C 27.304688 -43.203125 27.453125 -42.988281 27.640625 -42.71875 C 27.828125 -42.445312 27.921875 -42.207031 27.921875 -42 C 27.921875 -41.789062 27.707031 -41.335938 27.28125 -40.640625 C 26.957031 -40.003906 26.648438 -39.429688 26.359375 -38.921875 C 26.066406 -38.410156 25.8125 -37.96875 25.59375 -37.59375 C 24.957031 -36.53125 24.503906 -35.734375 24.234375 -35.203125 C 23.703125 -34.503906 23.4375 -33.96875 23.4375 -33.59375 C 23.4375 -33.226562 23.785156 -33.046875 24.484375 -33.046875 C 25.222656 -33.046875 26.472656 -33.203125 28.234375 -33.515625 C 28.984375 -33.628906 29.492188 -33.6875 29.765625 -33.6875 C 31.628906 -33.6875 32.640625 -32.910156 32.796875 -31.359375 C 32.847656 -31.035156 32.875 -30.660156 32.875 -30.234375 C 32.875 -29.492188 32.617188 -29.039062 32.109375 -28.875 C 31.609375 -28.71875 30.476562 -28.640625 28.71875 -28.640625 C 27.007812 -28.367188 25.25 -28.234375 23.4375 -28.234375 C 23.113281 -28.234375 22.753906 -28.21875 22.359375 -28.1875 C 21.960938 -28.164062 21.550781 -28.101562 21.125 -28 C 20.695312 -27.894531 20.390625 -27.734375 20.203125 -27.515625 C 20.015625 -27.304688 19.8125 -26.960938 19.59375 -26.484375 C 19.4375 -26.316406 19.066406 -25.703125 18.484375 -24.640625 C 17.734375 -23.085938 17.253906 -22.15625 17.046875 -21.84375 C 15.597656 -17.570312 14.53125 -13.195312 13.84375 -8.71875 C 13.738281 -7.863281 13.6875 -7.332031 13.6875 -7.125 C 13.6875 -6.320312 13.953125 -5.757812 14.484375 -5.4375 C 15.015625 -5.113281 15.921875 -4.953125 17.203125 -4.953125 C 19.015625 -4.953125 20.585938 -5.140625 21.921875 -5.515625 C 23.515625 -6.210938 24.710938 -6.800781 25.515625 -7.28125 C 25.992188 -7.550781 26.429688 -7.804688 26.828125 -8.046875 C 27.234375 -8.285156 27.519531 -8.457031 27.6875 -8.5625 C 27.84375 -8.882812 28.023438 -9.046875 28.234375 -9.046875 C 28.660156 -9.046875 29.035156 -8.617188 29.359375 -7.765625 C 29.359375 -6.910156 29.171875 -6.160156 28.796875 -5.515625 C 28.421875 -4.878906 27.488281 -4.132812 26 -3.28125 C 22.90625 -1.300781 19.8125 -0.3125 16.71875 -0.3125 C 15.863281 -0.3125 15.0625 -0.394531 14.3125 -0.5625 Z M 14.3125 -0.5625 "/></g></g></g><g fill="#000000" fill-opacity="1"><g transform="translate(350.683204, 448.115388)"><g><path d="M 13.515625 -1.203125 C 12.878906 -1.203125 12.375 -1.304688 12 -1.515625 C 11.625 -1.734375 11.09375 -2.132812 10.40625 -2.71875 C 8.644531 -4.582031 7.765625 -6.289062 7.765625 -7.84375 C 7.765625 -8.21875 7.789062 -8.484375 7.84375 -8.640625 C 8 -9.015625 8.0625 -9.382812 8.03125 -9.75 C 8.007812 -10.125 8 -10.367188 8 -10.484375 C 7.789062 -10.691406 7.6875 -10.835938 7.6875 -10.921875 C 7.6875 -11.003906 7.738281 -11.082031 7.84375 -11.15625 C 7.945312 -11.238281 8.023438 -11.332031 8.078125 -11.4375 C 8.398438 -11.4375 8.507812 -11.726562 8.40625 -12.3125 C 8.289062 -12.738281 8.5 -13.6875 9.03125 -15.15625 C 9.570312 -16.625 10.242188 -17.972656 11.046875 -19.203125 C 11.628906 -20.160156 12.492188 -21.359375 13.640625 -22.796875 C 14.785156 -24.234375 15.8125 -25.328125 16.71875 -26.078125 C 18 -27.203125 19.144531 -28.03125 20.15625 -28.5625 C 21.175781 -29.09375 22.296875 -29.492188 23.515625 -29.765625 C 24.585938 -30.023438 25.3125 -30.15625 25.6875 -30.15625 C 26.050781 -30.15625 26.378906 -30.0625 26.671875 -29.875 C 26.972656 -29.6875 27.363281 -29.351562 27.84375 -28.875 C 29.28125 -28.238281 30.28125 -27.425781 30.84375 -26.4375 C 31.40625 -25.445312 31.6875 -23.914062 31.6875 -21.84375 C 31.6875 -18.375 30.269531 -14.613281 27.4375 -10.5625 C 26.207031 -8.800781 25.0625 -7.453125 24 -6.515625 C 22.9375 -5.585938 21.523438 -4.585938 19.765625 -3.515625 C 18.640625 -2.710938 17.609375 -2.140625 16.671875 -1.796875 C 15.742188 -1.453125 14.691406 -1.253906 13.515625 -1.203125 Z M 21.203125 -9.6875 C 22.484375 -11.125 23.507812 -12.484375 24.28125 -13.765625 C 25.050781 -15.046875 25.785156 -16.671875 26.484375 -18.640625 C 26.742188 -19.546875 26.875 -20.640625 26.875 -21.921875 C 26.875 -23.515625 26.660156 -24.421875 26.234375 -24.640625 C 25.703125 -24.910156 25.171875 -25.046875 24.640625 -25.046875 C 23.460938 -25.046875 22.234375 -24.507812 20.953125 -23.4375 C 19.410156 -22.101562 18.023438 -20.460938 16.796875 -18.515625 C 15.566406 -16.566406 14.316406 -14.15625 13.046875 -11.28125 C 12.503906 -10.15625 12.234375 -9.0625 12.234375 -8 C 12.234375 -7.195312 12.429688 -6.554688 12.828125 -6.078125 C 13.234375 -5.597656 13.785156 -5.359375 14.484375 -5.359375 C 16.242188 -5.359375 18.484375 -6.800781 21.203125 -9.6875 Z M 21.203125 -9.6875 "/></g></g></g><g fill="#000000" fill-opacity="1"><g transform="translate(378.920457, 448.115388)"><g/></g></g><g fill="#000000" fill-opacity="1"><g transform="translate(398.278573, 448.115388)"><g><path d="M 4.234375 18 C 3.804688 18 3.460938 17.757812 3.203125 17.28125 C 2.929688 16.90625 2.796875 16.453125 2.796875 15.921875 C 2.796875 15.546875 2.929688 14.640625 3.203125 13.203125 C 3.785156 10.960938 4.078125 9.414062 4.078125 8.5625 C 4.078125 8.289062 4.128906 7.898438 4.234375 7.390625 C 4.347656 6.890625 4.429688 6.425781 4.484375 6 C 4.691406 5.625 4.890625 5.050781 5.078125 4.28125 C 5.265625 3.507812 5.359375 2.828125 5.359375 2.234375 C 5.359375 1.972656 5.453125 1.664062 5.640625 1.3125 C 5.828125 0.96875 6.050781 0.691406 6.3125 0.484375 C 6.3125 0.160156 6.390625 -0.332031 6.546875 -1 C 6.710938 -1.664062 6.820312 -2.132812 6.875 -2.40625 C 7.144531 -3.84375 8.1875 -7.253906 10 -12.640625 C 11.8125 -18.023438 13.359375 -22.375 14.640625 -25.6875 C 15.222656 -27.019531 15.644531 -28.242188 15.90625 -29.359375 C 16.175781 -30.484375 16.3125 -31.363281 16.3125 -32 C 16.3125 -32.207031 16.378906 -32.40625 16.515625 -32.59375 C 16.648438 -32.78125 16.878906 -33.035156 17.203125 -33.359375 C 17.578125 -33.734375 17.921875 -33.921875 18.234375 -33.921875 C 18.503906 -33.921875 18.796875 -33.8125 19.109375 -33.59375 C 19.429688 -33.382812 19.753906 -33.144531 20.078125 -32.875 C 20.398438 -32.394531 20.65625 -31.941406 20.84375 -31.515625 C 21.03125 -31.085938 21.125 -30.632812 21.125 -30.15625 C 21.125 -30 21.066406 -29.492188 20.953125 -28.640625 C 20.953125 -27.515625 20.710938 -26.59375 20.234375 -25.875 C 19.753906 -25.15625 19.570312 -24.820312 19.6875 -24.875 C 22.082031 -26 24.210938 -26.5625 26.078125 -26.5625 C 28.316406 -26.5625 30.0625 -25.835938 31.3125 -24.390625 C 32.570312 -22.953125 33.203125 -21.085938 33.203125 -18.796875 C 33.203125 -17.835938 32.921875 -16.675781 32.359375 -15.3125 C 31.796875 -13.957031 31.25 -13.039062 30.71875 -12.5625 C 30.394531 -12.5625 29.96875 -12 29.4375 -10.875 C 28.75 -10.019531 27.601562 -9.125 26 -8.1875 C 24.394531 -7.257812 23.273438 -6.90625 22.640625 -7.125 C 22.585938 -7.125 22.503906 -7.09375 22.390625 -7.03125 C 22.285156 -6.976562 22.234375 -6.847656 22.234375 -6.640625 C 22.234375 -6.421875 21.328125 -6.019531 19.515625 -5.4375 C 17.703125 -4.851562 16.210938 -4.5625 15.046875 -4.5625 C 14.398438 -4.5625 13.914062 -4.597656 13.59375 -4.671875 C 13.28125 -4.753906 12.960938 -4.929688 12.640625 -5.203125 C 12.265625 -4.828125 12.078125 -4.476562 12.078125 -4.15625 C 12.078125 -3.570312 11.8125 -2.503906 11.28125 -0.953125 C 10.75 0.585938 10.320312 1.359375 10 1.359375 C 9.945312 1.410156 9.878906 1.515625 9.796875 1.671875 C 9.722656 1.835938 9.789062 2.023438 10 2.234375 C 10 2.398438 9.972656 2.773438 9.921875 3.359375 C 9.867188 3.941406 9.734375 4.394531 9.515625 4.71875 C 9.515625 5.195312 9.4375 5.847656 9.28125 6.671875 C 9.125 7.503906 8.9375 8.132812 8.71875 8.5625 C 8.71875 9.195312 8.625 9.820312 8.4375 10.4375 C 8.25 11.050781 8.050781 11.359375 7.84375 11.359375 C 7.519531 11.460938 7.359375 12.238281 7.359375 13.6875 C 7.304688 15.019531 7.039062 16.054688 6.5625 16.796875 C 6.082031 17.546875 5.519531 17.921875 4.875 17.921875 Z M 14.5625 -8.796875 C 15.363281 -8.796875 16.976562 -9.207031 19.40625 -10.03125 C 21.832031 -10.863281 23.523438 -11.679688 24.484375 -12.484375 C 25.597656 -13.441406 26.5 -14.46875 27.1875 -15.5625 C 27.882812 -16.65625 28.234375 -17.757812 28.234375 -18.875 C 28.234375 -19.726562 27.992188 -20.503906 27.515625 -21.203125 C 27.140625 -21.785156 26.5 -22.078125 25.59375 -22.078125 C 24.53125 -22.078125 23.265625 -21.703125 21.796875 -20.953125 C 20.328125 -20.210938 18.984375 -19.226562 17.765625 -18 C 16.796875 -17.039062 15.9375 -15.664062 15.1875 -13.875 C 14.445312 -12.09375 14.078125 -10.695312 14.078125 -9.6875 C 14.078125 -9.09375 14.238281 -8.796875 14.5625 -8.796875 Z M 14.5625 -8.796875 "/></g></g></g><g fill="#000000" fill-opacity="1"><g transform="translate(428.515625, 448.115388)"><g><path d="M 8.5625 -2.875 C 8.394531 -3.195312 8.140625 -3.53125 7.796875 -3.875 C 7.453125 -4.226562 7.28125 -4.457031 7.28125 -4.5625 C 7.28125 -5.144531 7.144531 -5.597656 6.875 -5.921875 C 6.769531 -6.023438 6.71875 -6.265625 6.71875 -6.640625 C 6.71875 -7.492188 7.128906 -8.945312 7.953125 -11 C 8.785156 -13.050781 9.867188 -15.28125 11.203125 -17.6875 C 11.523438 -18 11.9375 -18.554688 12.4375 -19.359375 C 12.945312 -20.160156 13.28125 -20.613281 13.4375 -20.71875 C 13.4375 -20.9375 13.515625 -21.132812 13.671875 -21.3125 C 13.835938 -21.5 14.023438 -21.59375 14.234375 -21.59375 L 14.234375 -22.078125 C 14.234375 -22.554688 15.113281 -23.710938 16.875 -25.546875 C 18.632812 -27.390625 20.078125 -28.660156 21.203125 -29.359375 C 22.535156 -30.265625 23.894531 -30.71875 25.28125 -30.71875 C 26.238281 -30.71875 27.066406 -30.453125 27.765625 -29.921875 C 28.023438 -29.597656 29.25 -28.453125 31.4375 -26.484375 L 34.40625 -23.84375 L 32.953125 -19.84375 C 32.472656 -18.40625 32.234375 -17.097656 32.234375 -15.921875 C 32.234375 -13.890625 32.820312 -11.941406 34 -10.078125 C 34.269531 -9.492188 34.800781 -8.929688 35.59375 -8.390625 C 36.394531 -7.859375 37.195312 -7.539062 38 -7.4375 C 39.175781 -7.226562 39.765625 -6.644531 39.765625 -5.6875 C 39.765625 -4.613281 39.28125 -3.972656 38.3125 -3.765625 C 38.101562 -3.710938 37.785156 -3.6875 37.359375 -3.6875 C 34.210938 -3.6875 31.492188 -5.894531 29.203125 -10.3125 C 28.984375 -10.632812 28.703125 -11.222656 28.359375 -12.078125 C 28.015625 -12.929688 27.816406 -13.519531 27.765625 -13.84375 C 27.441406 -13.414062 27.039062 -12.90625 26.5625 -12.3125 C 26.082031 -11.726562 25.628906 -11.222656 25.203125 -10.796875 C 19.390625 -4.984375 14.800781 -2.078125 11.4375 -2.078125 C 10.375 -2.078125 9.414062 -2.34375 8.5625 -2.875 Z M 11.4375 -7.359375 C 11.4375 -7.085938 11.71875 -7.003906 12.28125 -7.109375 C 12.84375 -7.222656 13.535156 -7.492188 14.359375 -7.921875 C 15.179688 -8.347656 16.019531 -8.90625 16.875 -9.59375 C 21.46875 -13.539062 24.773438 -16.984375 26.796875 -19.921875 L 28.5625 -22.796875 C 28.03125 -23.921875 27.46875 -24.734375 26.875 -25.234375 C 26.289062 -25.742188 25.757812 -26 25.28125 -26 C 24.15625 -26 22.394531 -24.597656 20 -21.796875 C 17.601562 -18.992188 15.414062 -15.703125 13.4375 -11.921875 C 12.957031 -11.015625 12.53125 -10.09375 12.15625 -9.15625 C 11.78125 -8.226562 11.539062 -7.628906 11.4375 -7.359375 Z M 11.4375 -7.359375 "/></g></g></g><g fill="#000000" fill-opacity="1"><g transform="translate(463.472242, 448.115388)"><g><path d="M 4.234375 18 C 3.804688 18 3.460938 17.757812 3.203125 17.28125 C 2.929688 16.90625 2.796875 16.453125 2.796875 15.921875 C 2.796875 15.546875 2.929688 14.640625 3.203125 13.203125 C 3.785156 10.960938 4.078125 9.414062 4.078125 8.5625 C 4.078125 8.289062 4.128906 7.898438 4.234375 7.390625 C 4.347656 6.890625 4.429688 6.425781 4.484375 6 C 4.691406 5.625 4.890625 5.050781 5.078125 4.28125 C 5.265625 3.507812 5.359375 2.828125 5.359375 2.234375 C 5.359375 1.972656 5.453125 1.664062 5.640625 1.3125 C 5.828125 0.96875 6.050781 0.691406 6.3125 0.484375 C 6.3125 0.160156 6.390625 -0.332031 6.546875 -1 C 6.710938 -1.664062 6.820312 -2.132812 6.875 -2.40625 C 7.144531 -3.84375 8.1875 -7.253906 10 -12.640625 C 11.8125 -18.023438 13.359375 -22.375 14.640625 -25.6875 C 15.222656 -27.019531 15.644531 -28.242188 15.90625 -29.359375 C 16.175781 -30.484375 16.3125 -31.363281 16.3125 -32 C 16.3125 -32.207031 16.378906 -32.40625 16.515625 -32.59375 C 16.648438 -32.78125 16.878906 -33.035156 17.203125 -33.359375 C 17.578125 -33.734375 17.921875 -33.921875 18.234375 -33.921875 C 18.503906 -33.921875 18.796875 -33.8125 19.109375 -33.59375 C 19.429688 -33.382812 19.753906 -33.144531 20.078125 -32.875 C 20.398438 -32.394531 20.65625 -31.941406 20.84375 -31.515625 C 21.03125 -31.085938 21.125 -30.632812 21.125 -30.15625 C 21.125 -30 21.066406 -29.492188 20.953125 -28.640625 C 20.953125 -27.515625 20.710938 -26.59375 20.234375 -25.875 C 19.753906 -25.15625 19.570312 -24.820312 19.6875 -24.875 C 22.082031 -26 24.210938 -26.5625 26.078125 -26.5625 C 28.316406 -26.5625 30.0625 -25.835938 31.3125 -24.390625 C 32.570312 -22.953125 33.203125 -21.085938 33.203125 -18.796875 C 33.203125 -17.835938 32.921875 -16.675781 32.359375 -15.3125 C 31.796875 -13.957031 31.25 -13.039062 30.71875 -12.5625 C 30.394531 -12.5625 29.96875 -12 29.4375 -10.875 C 28.75 -10.019531 27.601562 -9.125 26 -8.1875 C 24.394531 -7.257812 23.273438 -6.90625 22.640625 -7.125 C 22.585938 -7.125 22.503906 -7.09375 22.390625 -7.03125 C 22.285156 -6.976562 22.234375 -6.847656 22.234375 -6.640625 C 22.234375 -6.421875 21.328125 -6.019531 19.515625 -5.4375 C 17.703125 -4.851562 16.210938 -4.5625 15.046875 -4.5625 C 14.398438 -4.5625 13.914062 -4.597656 13.59375 -4.671875 C 13.28125 -4.753906 12.960938 -4.929688 12.640625 -5.203125 C 12.265625 -4.828125 12.078125 -4.476562 12.078125 -4.15625 C 12.078125 -3.570312 11.8125 -2.503906 11.28125 -0.953125 C 10.75 0.585938 10.320312 1.359375 10 1.359375 C 9.945312 1.410156 9.878906 1.515625 9.796875 1.671875 C 9.722656 1.835938 9.789062 2.023438 10 2.234375 C 10 2.398438 9.972656 2.773438 9.921875 3.359375 C 9.867188 3.941406 9.734375 4.394531 9.515625 4.71875 C 9.515625 5.195312 9.4375 5.847656 9.28125 6.671875 C 9.125 7.503906 8.9375 8.132812 8.71875 8.5625 C 8.71875 9.195312 8.625 9.820312 8.4375 10.4375 C 8.25 11.050781 8.050781 11.359375 7.84375 11.359375 C 7.519531 11.460938 7.359375 12.238281 7.359375 13.6875 C 7.304688 15.019531 7.039062 16.054688 6.5625 16.796875 C 6.082031 17.546875 5.519531 17.921875 4.875 17.921875 Z M 14.5625 -8.796875 C 15.363281 -8.796875 16.976562 -9.207031 19.40625 -10.03125 C 21.832031 -10.863281 23.523438 -11.679688 24.484375 -12.484375 C 25.597656 -13.441406 26.5 -14.46875 27.1875 -15.5625 C 27.882812 -16.65625 28.234375 -17.757812 28.234375 -18.875 C 28.234375 -19.726562 27.992188 -20.503906 27.515625 -21.203125 C 27.140625 -21.785156 26.5 -22.078125 25.59375 -22.078125 C 24.53125 -22.078125 23.265625 -21.703125 21.796875 -20.953125 C 20.328125 -20.210938 18.984375 -19.226562 17.765625 -18 C 16.796875 -17.039062 15.9375 -15.664062 15.1875 -13.875 C 14.445312 -12.09375 14.078125 -10.695312 14.078125 -9.6875 C 14.078125 -9.09375 14.238281 -8.796875 14.5625 -8.796875 Z M 14.5625 -8.796875 "/></g></g></g><g fill="#000000" fill-opacity="1"><g transform="translate(493.709317, 448.115388)"><g><path d="M 22.078125 -2.796875 C 20.742188 -1.628906 19.144531 -1.046875 17.28125 -1.046875 C 15.945312 -1.046875 14.679688 -1.363281 13.484375 -2 C 12.285156 -2.632812 11.285156 -3.515625 10.484375 -4.640625 C 9.785156 -5.492188 9.273438 -6.453125 8.953125 -7.515625 C 8.640625 -8.585938 8.484375 -9.894531 8.484375 -11.4375 C 8.484375 -11.96875 8.535156 -13.035156 8.640625 -14.640625 C 8.796875 -16.609375 9.445312 -18.660156 10.59375 -20.796875 C 11.738281 -22.929688 13.164062 -24.835938 14.875 -26.515625 C 16.582031 -28.203125 18.265625 -29.363281 19.921875 -30 C 20.773438 -30.53125 21.546875 -30.796875 22.234375 -30.796875 C 22.609375 -30.796875 22.984375 -30.769531 23.359375 -30.71875 C 23.734375 -30.664062 24.132812 -30.613281 24.5625 -30.5625 C 25.726562 -30.394531 26.617188 -30.164062 27.234375 -29.875 C 27.847656 -29.582031 28.367188 -29.144531 28.796875 -28.5625 C 30.128906 -27.226562 30.796875 -25.679688 30.796875 -23.921875 C 30.585938 -22.640625 29.757812 -21.171875 28.3125 -19.515625 C 26.875 -17.867188 25.144531 -16.535156 23.125 -15.515625 C 22.164062 -15.203125 21.070312 -15.046875 19.84375 -15.046875 C 18.1875 -15.046875 16.851562 -15.390625 15.84375 -16.078125 C 15.363281 -16.234375 14.988281 -16.3125 14.71875 -16.3125 C 14.238281 -16.3125 13.878906 -15.992188 13.640625 -15.359375 C 13.398438 -14.722656 13.171875 -13.550781 12.953125 -11.84375 C 12.898438 -11.46875 12.875 -10.929688 12.875 -10.234375 C 12.875 -7.515625 13.78125 -6.023438 15.59375 -5.765625 C 16.820312 -5.492188 17.703125 -5.359375 18.234375 -5.359375 C 18.878906 -5.359375 19.601562 -5.570312 20.40625 -6 L 21.921875 -6.875 C 22.242188 -7.039062 22.535156 -7.253906 22.796875 -7.515625 C 23.066406 -7.785156 23.304688 -8.023438 23.515625 -8.234375 C 23.628906 -8.347656 23.789062 -8.523438 24 -8.765625 C 24.207031 -9.003906 24.40625 -9.160156 24.59375 -9.234375 C 24.78125 -9.316406 24.957031 -9.359375 25.125 -9.359375 C 25.332031 -9.359375 25.566406 -9.238281 25.828125 -9 C 26.097656 -8.757812 26.316406 -8.585938 26.484375 -8.484375 C 26.960938 -8.484375 27.066406 -8.148438 26.796875 -7.484375 C 26.535156 -6.816406 25.960938 -6.039062 25.078125 -5.15625 C 24.203125 -4.28125 23.203125 -3.492188 22.078125 -2.796875 Z M 22 -19.765625 C 22.90625 -20.128906 23.820312 -20.789062 24.75 -21.75 C 25.6875 -22.71875 26.15625 -23.519531 26.15625 -24.15625 C 26.15625 -24.800781 25.914062 -25.335938 25.4375 -25.765625 C 24.957031 -26.191406 24.289062 -26.40625 23.4375 -26.40625 C 22.800781 -26.40625 22.320312 -26.347656 22 -26.234375 C 21.25 -26.023438 20.367188 -25.453125 19.359375 -24.515625 C 18.347656 -23.585938 17.46875 -22.640625 16.71875 -21.671875 C 15.96875 -20.710938 15.675781 -20.15625 15.84375 -20 C 16.101562 -19.519531 17.140625 -19.28125 18.953125 -19.28125 C 20.179688 -19.28125 21.195312 -19.441406 22 -19.765625 Z M 22 -19.765625 "/></g></g></g><g fill="#000000" fill-opacity="1"><g transform="translate(519.70679, 448.115388)"><g><path d="M 9.515625 -2.796875 C 9.085938 -3.117188 8.796875 -3.410156 8.640625 -3.671875 C 8.484375 -3.941406 8.40625 -4.34375 8.40625 -4.875 C 8.40625 -5.351562 8.429688 -5.753906 8.484375 -6.078125 C 8.640625 -7.890625 9.039062 -10 9.6875 -12.40625 L 10.078125 -14 C 10.234375 -15.332031 11.164062 -18.128906 12.875 -22.390625 C 14.582031 -26.660156 15.972656 -29.570312 17.046875 -31.125 C 17.472656 -31.382812 17.925781 -31.515625 18.40625 -31.515625 C 19.09375 -31.515625 19.675781 -31.273438 20.15625 -30.796875 C 20.476562 -30.585938 20.640625 -30.1875 20.640625 -29.59375 C 20.640625 -29.0625 20.4375 -28.273438 20.03125 -27.234375 C 19.632812 -26.203125 18.957031 -24.671875 18 -22.640625 C 17.789062 -22.210938 17.429688 -21.410156 16.921875 -20.234375 C 16.410156 -19.066406 16.15625 -18.375 16.15625 -18.15625 C 16.15625 -18.050781 16.179688 -18 16.234375 -18 C 16.347656 -18 16.457031 -18.035156 16.5625 -18.109375 C 16.664062 -18.191406 16.769531 -18.257812 16.875 -18.3125 C 17.46875 -19.332031 18.894531 -20.722656 21.15625 -22.484375 C 23.425781 -24.242188 24.988281 -25.335938 25.84375 -25.765625 C 26.21875 -25.972656 26.695312 -26.179688 27.28125 -26.390625 C 27.863281 -26.609375 28.265625 -26.769531 28.484375 -26.875 C 29.335938 -27.300781 30.347656 -27.515625 31.515625 -27.515625 C 32.265625 -27.515625 32.914062 -27.394531 33.46875 -27.15625 C 34.03125 -26.914062 34.421875 -26.554688 34.640625 -26.078125 C 34.691406 -25.703125 34.835938 -25.40625 35.078125 -25.1875 C 35.316406 -24.976562 35.488281 -24.847656 35.59375 -24.796875 C 35.757812 -24.796875 35.867188 -24.726562 35.921875 -24.59375 C 35.972656 -24.46875 36 -24.375 36 -24.3125 C 36 -23.945312 35.785156 -23.722656 35.359375 -23.640625 C 34.929688 -23.554688 34.160156 -23.488281 33.046875 -23.4375 C 32.453125 -23.382812 31.832031 -23.25 31.1875 -23.03125 C 30.550781 -22.820312 29.914062 -22.554688 29.28125 -22.234375 C 26.289062 -20.535156 24.0625 -19.203125 22.59375 -18.234375 C 21.132812 -17.273438 19.65625 -15.96875 18.15625 -14.3125 C 17.570312 -13.675781 16.800781 -12.53125 15.84375 -10.875 C 15.46875 -10.5 15.078125 -9.523438 14.671875 -7.953125 C 14.273438 -6.378906 14.078125 -5.410156 14.078125 -5.046875 C 14.023438 -4.878906 13.914062 -4.566406 13.75 -4.109375 C 13.59375 -3.660156 13.359375 -3.222656 13.046875 -2.796875 C 12.398438 -1.941406 11.863281 -1.515625 11.4375 -1.515625 C 10.957031 -1.515625 10.316406 -1.941406 9.515625 -2.796875 Z M 9.515625 -2.796875 "/></g></g></g><g clip-path="url(#6d7e5fc57f)"><path fill="#000000" d="M 107.570312 193.488281 C 107.351562 192.835938 107.046875 192.273438 106.652344 191.859375 C 106.457031 191.644531 106.214844 191.425781 105.953125 191.253906 C 105.734375 191.101562 105.472656 190.96875 105.230469 190.863281 C 105.058594 190.796875 104.882812 190.730469 104.730469 190.667969 C 104.621094 190.621094 104.511719 190.578125 104.402344 190.535156 L 104.269531 190.472656 C 104.074219 190.382812 103.855469 190.296875 103.636719 190.230469 C 103.308594 190.167969 102.984375 190.125 102.675781 190.082031 C 102.394531 190.035156 102.109375 190.035156 101.78125 190.015625 C 101.714844 190.015625 101.628906 190.015625 101.5625 190.015625 C 101.082031 190.015625 100.578125 190.058594 99.988281 190.144531 C 99.488281 190.210938 98.964844 190.339844 98.460938 190.535156 C 98.199219 190.621094 97.9375 190.730469 97.71875 190.863281 C 97.476562 190.992188 97.238281 191.1875 97.019531 191.425781 C 96.800781 191.6875 96.605469 191.882812 96.453125 192.097656 C 96.386719 192.207031 96.296875 192.316406 96.234375 192.425781 C 96.1875 192.488281 96.144531 192.554688 96.101562 192.621094 C 95.992188 192.792969 95.882812 192.945312 95.816406 193.117188 C 95.730469 193.292969 95.644531 193.507812 95.578125 193.746094 C 95.535156 193.921875 95.492188 194.09375 95.46875 194.269531 C 95.445312 194.3125 95.445312 194.378906 95.425781 194.421875 C 95.359375 194.703125 95.316406 194.984375 95.273438 195.375 C 95.207031 195.917969 95.183594 196.480469 95.226562 197.109375 C 95.25 197.394531 95.273438 197.742188 95.359375 198.066406 C 95.445312 198.371094 95.554688 198.671875 95.707031 198.957031 C 95.839844 199.195312 96.015625 199.453125 96.253906 199.738281 C 96.386719 199.910156 96.5625 200.0625 96.714844 200.214844 L 96.84375 200.34375 C 97.257812 200.757812 97.761719 201.105469 98.375 201.40625 C 98.65625 201.539062 98.964844 201.644531 99.335938 201.753906 C 99.683594 201.839844 100.054688 201.90625 100.339844 201.949219 C 100.601562 201.992188 100.886719 201.992188 101.257812 202.015625 C 101.34375 202.015625 101.410156 202.015625 101.496094 202.015625 C 101.5625 202.015625 101.628906 202.015625 101.695312 202.015625 C 101.914062 202.015625 102.109375 201.972656 102.261719 201.949219 C 102.546875 201.90625 102.828125 201.839844 103.136719 201.734375 C 103.441406 201.644531 103.746094 201.496094 104.03125 201.363281 C 104.160156 201.300781 104.316406 201.234375 104.46875 201.148438 C 104.578125 201.082031 104.6875 201.015625 104.773438 200.953125 L 104.839844 200.910156 C 105.078125 200.734375 105.320312 200.539062 105.625 200.257812 C 105.886719 200.019531 106.085938 199.800781 106.257812 199.605469 C 106.5 199.347656 106.675781 199.019531 106.847656 198.738281 C 107.023438 198.433594 107.15625 198.109375 107.285156 197.804688 C 107.394531 197.546875 107.503906 197.261719 107.570312 197.003906 C 107.65625 196.699219 107.699219 196.375 107.746094 196.070312 C 107.765625 195.808594 107.789062 195.527344 107.808594 195.203125 C 107.808594 194.855469 107.765625 194.507812 107.722656 194.226562 C 107.722656 194.007812 107.65625 193.769531 107.570312 193.488281 Z M 107.570312 193.488281 " fill-opacity="1" fill-rule="nonzero"/></g></svg>