<svg xmlns="http://www.w3.org/2000/svg" xmlns:xlink="http://www.w3.org/1999/xlink" width="1080" zoomAndPan="magnify" viewBox="0 0 810 809.999993" height="1080" preserveAspectRatio="xMidYMid meet" version="1.0"><defs><filter x="0%" y="0%" width="100%" height="100%" id="e2617be95b"><feColorMatrix values="0 0 0 0 1 0 0 0 0 1 0 0 0 0 1 0 0 0 1 0" color-interpolation-filters="sRGB"/></filter><g/><mask id="e5a46cbd57"><g filter="url(#e2617be95b)"><rect x="-81" width="972" fill="#000000" y="-80.999999" height="971.999992" fill-opacity="0.898"/></g></mask><clipPath id="950ff6bdcd"><rect x="0" width="739" y="0" height="636"/></clipPath><clipPath id="137096cf0f"><path d="M 69 106.839844 L 109.347656 106.839844 L 109.347656 184 L 69 184 Z M 69 106.839844 " clip-rule="nonzero"/></clipPath><clipPath id="91f6f41856"><path d="M 114.617188 165.6875 L 127.367188 165.6875 L 127.367188 177.6875 L 114.617188 177.6875 Z M 114.617188 165.6875 " clip-rule="nonzero"/></clipPath></defs><g mask="url(#e5a46cbd57)"><g transform="matrix(1, 0, 0, 1, 36, 94)"><g clip-path="url(#950ff6bdcd)"><path fill="#dfcfb0" d="M 352.289062 92.261719 C 335.484375 77.832031 317.375 64.261719 297.359375 54.570312 C 194.246094 4.679688 110.691406 95.863281 61.695312 176.390625 C 23.769531 238.742188 0.226562 323.980469 60.960938 381.359375 C 108.25 426.042969 179.066406 387.726562 234.28125 407.625 C 336.332031 444.394531 400.671875 632.15625 532.175781 594.402344 C 578.875 580.996094 606.160156 542.03125 620.40625 497.386719 C 645.46875 418.875 640.757812 333.585938 667.15625 255.972656 C 679.996094 218.195312 728.9375 152.878906 696.273438 113.195312 C 667.382812 78.105469 611.15625 90.878906 573.992188 103.636719 C 484.5625 134.3125 434.347656 142.722656 352.289062 92.261719 Z M 352.289062 92.261719 " fill-opacity="1" fill-rule="evenodd"/><path fill="#010102" d="M 405.371094 98.617188 C 405.433594 98.742188 405.519531 98.851562 405.59375 98.953125 C 437.140625 136.570312 465.832031 157.191406 498.710938 168.328125 C 531.003906 179.269531 567.386719 180.988281 614.796875 180.464844 C 637.644531 180.191406 666.757812 181.921875 690.003906 192.089844 C 705.257812 198.769531 717.972656 209.136719 724.253906 225.308594 C 731.496094 243.761719 724.8125 262.015625 713.273438 279.261719 C 695.722656 305.503906 666.882812 329.414062 652.847656 348.152344 C 642.878906 361.472656 634.015625 375.464844 625.828125 389.894531 C 593.632812 446.613281 571.972656 509.960938 533.570312 563.3125 C 520.222656 581.867188 504.320312 598.152344 485.796875 609.589844 C 467.390625 620.964844 446.386719 627.53125 422.832031 626.710938 C 381.988281 625.289062 353.457031 606.027344 331.0625 578.242188 C 278.949219 513.597656 259.007812 404.023438 199.496094 357.808594 C 166.988281 332.578125 118.46875 331.917969 81.414062 314.4375 C 66.023438 307.171875 52.671875 296.878906 43.601562 280.234375 C 28.058594 251.738281 26.261719 223.167969 33.15625 196.191406 C 43.660156 154.996094 74.210938 117.503906 107.027344 89.296875 C 149.492188 52.800781 204.792969 16.417969 259.957031 10.136719 C 296.398438 5.988281 332.769531 15.097656 365.199219 46.222656 C 373.125 53.835938 380.304688 62.207031 386.910156 71.003906 C 393.566406 79.863281 399.660156 89.144531 405.371094 98.539062 Z M 409.519531 95.550781 C 403.6875 86.144531 397.605469 76.847656 390.960938 67.976562 C 384.207031 58.929688 376.867188 50.34375 368.765625 42.519531 C 335.101562 10.074219 297.273438 0.542969 259.347656 4.777344 C 203.132812 11.046875 146.613281 47.816406 103.261719 84.910156 C 69.472656 113.816406 38.164062 152.378906 27.273438 194.683594 C 19.945312 223.089844 21.777344 253.171875 38.089844 283.238281 C 47.824219 301.179688 62.121094 312.355469 78.683594 320.21875 C 115.265625 337.574219 163.324219 338.0625 195.40625 363.082031 C 254.496094 409.144531 273.765625 518.359375 325.464844 582.738281 C 349.109375 612.195312 379.347656 632.503906 422.558594 634.085938 C 447.683594 635.007812 470.082031 628.082031 489.75 615.984375 C 509.105469 604.070312 525.792969 587.125 539.765625 567.773438 C 578.390625 514.246094 600.289062 450.699219 632.683594 393.792969 C 640.734375 379.664062 649.421875 365.945312 659.207031 352.914062 C 675.746094 330.882812 712.488281 301.703125 727.929688 270.027344 C 735.484375 254.554688 738.101562 238.503906 731.78125 222.355469 C 724.601562 204.152344 710.367188 192.351562 693.117188 184.914062 C 668.828125 174.449219 638.492188 172.714844 614.683594 173.152344 C 568.195312 174.0625 532.488281 172.777344 500.71875 162.324219 C 468.648438 151.769531 440.640625 131.847656 409.519531 95.527344 Z M 409.519531 95.550781 " fill-opacity="1" fill-rule="evenodd"/></g></g></g><g clip-path="url(#137096cf0f)"><path fill="#000000" d="M 89.996094 107.066406 C 87.929688 107.917969 85.976562 108.863281 84.160156 110.179688 C 82.792969 111.164062 81.464844 112.222656 80.265625 113.40625 C 78.886719 114.765625 77.671875 116.289062 76.535156 117.855469 C 74.34375 120.898438 72.734375 124.367188 71.546875 127.914062 C 70.410156 131.308594 69.800781 134.847656 69.429688 138.402344 C 68.847656 144.058594 69.265625 149.75 70.175781 155.347656 C 70.699219 158.535156 71.488281 161.660156 72.410156 164.753906 C 73.230469 167.492188 74.226562 170.183594 75.453125 172.773438 C 76 173.921875 76.609375 175.035156 77.316406 176.09375 C 78.199219 177.402344 79.179688 178.699219 80.324219 179.789062 C 81.417969 180.832031 82.667969 181.8125 84.042969 182.472656 C 84.902344 182.882812 85.800781 183.277344 86.726562 183.523438 C 87.644531 183.765625 88.605469 183.882812 89.542969 183.964844 C 91.015625 184.089844 92.554688 183.882812 93.984375 183.539062 C 95.496094 183.175781 96.980469 182.535156 98.328125 181.769531 C 101.292969 180.070312 103.738281 177.515625 105.535156 174.632812 C 106.527344 173.039062 107.292969 171.277344 107.902344 169.5 C 108.179688 168.6875 108.410156 167.859375 108.574219 167.011719 C 109.074219 164.433594 109.347656 161.761719 109.222656 159.132812 C 109.125 157.167969 108.871094 155.175781 108.355469 153.28125 C 108.039062 152.105469 107.578125 150.992188 107.089844 149.882812 C 106.78125 149.179688 106.433594 148.5 106.015625 147.851562 C 105.113281 146.453125 104.03125 145.089844 102.71875 144.046875 C 101.945312 143.429688 101.167969 142.820312 100.304688 142.339844 C 99.449219 141.863281 98.527344 141.488281 97.609375 141.148438 C 96.152344 140.613281 94.574219 140.390625 93.035156 140.261719 C 91.425781 140.117188 89.867188 140.304688 88.269531 140.523438 C 85.570312 140.890625 82.941406 141.851562 80.542969 143.125 C 78.898438 143.992188 77.378906 145.136719 75.980469 146.359375 C 74.515625 147.644531 73.304688 149.128906 72.125 150.664062 C 71.359375 151.667969 70.660156 152.707031 70.023438 153.785156 C 69.394531 154.851562 69.214844 156.28125 69.542969 157.46875 C 69.847656 158.574219 70.707031 159.78125 71.742188 160.328125 C 72.851562 160.914062 74.195312 161.207031 75.425781 160.808594 C 76.617188 160.421875 77.640625 159.703125 78.289062 158.613281 C 78.9375 157.519531 79.640625 156.460938 80.421875 155.457031 C 80.171875 155.777344 79.917969 156.101562 79.671875 156.421875 C 80.847656 154.914062 82.171875 153.53125 83.683594 152.355469 C 83.359375 152.601562 83.035156 152.855469 82.714844 153.101562 C 84.007812 152.105469 85.414062 151.292969 86.917969 150.648438 C 86.539062 150.8125 86.160156 150.972656 85.773438 151.128906 C 87.390625 150.453125 89.085938 149.976562 90.824219 149.738281 C 90.398438 149.796875 89.976562 149.855469 89.550781 149.910156 C 90.914062 149.734375 92.296875 149.707031 93.660156 149.886719 C 93.234375 149.832031 92.8125 149.769531 92.386719 149.714844 C 93.488281 149.859375 94.554688 150.140625 95.578125 150.5625 C 95.199219 150.402344 94.820312 150.238281 94.433594 150.082031 C 95.300781 150.453125 96.121094 150.929688 96.863281 151.503906 C 96.539062 151.257812 96.21875 151.003906 95.898438 150.757812 C 96.648438 151.34375 97.3125 152.015625 97.894531 152.765625 C 97.644531 152.441406 97.390625 152.117188 97.144531 151.796875 C 97.851562 152.71875 98.417969 153.734375 98.878906 154.800781 C 98.71875 154.421875 98.554688 154.042969 98.398438 153.660156 C 99.039062 155.171875 99.433594 156.769531 99.65625 158.398438 C 99.601562 157.972656 99.539062 157.554688 99.484375 157.128906 C 99.792969 159.480469 99.746094 161.867188 99.433594 164.222656 C 99.488281 163.796875 99.550781 163.375 99.605469 162.953125 C 99.355469 164.792969 98.902344 166.5625 98.175781 168.28125 C 98.339844 167.902344 98.5 167.523438 98.65625 167.140625 C 98.035156 168.601562 97.246094 169.984375 96.28125 171.242188 C 96.53125 170.917969 96.785156 170.59375 97.03125 170.277344 C 96.195312 171.351562 95.238281 172.328125 94.164062 173.167969 C 94.488281 172.921875 94.8125 172.667969 95.132812 172.421875 C 94.203125 173.140625 93.1875 173.746094 92.105469 174.207031 C 92.484375 174.042969 92.863281 173.882812 93.25 173.726562 C 92.324219 174.109375 91.359375 174.386719 90.367188 174.519531 C 90.792969 174.464844 91.214844 174.402344 91.636719 174.347656 C 90.804688 174.453125 89.960938 174.460938 89.132812 174.351562 C 89.558594 174.410156 89.976562 174.46875 90.402344 174.523438 C 89.628906 174.417969 88.875 174.214844 88.148438 173.914062 C 88.527344 174.074219 88.910156 174.238281 89.292969 174.394531 C 88.515625 174.066406 87.789062 173.628906 87.117188 173.113281 C 87.441406 173.363281 87.765625 173.613281 88.082031 173.863281 C 87.140625 173.132812 86.320312 172.273438 85.597656 171.339844 C 85.84375 171.660156 86.097656 171.984375 86.347656 172.304688 C 84.984375 170.535156 83.945312 168.535156 83.078125 166.488281 C 83.242188 166.867188 83.402344 167.246094 83.5625 167.628906 C 82.460938 165.015625 81.636719 162.292969 80.902344 159.558594 C 80.492188 158.035156 80.113281 156.511719 79.804688 154.964844 C 79.539062 153.648438 79.320312 152.324219 79.144531 150.992188 C 79.199219 151.417969 79.261719 151.839844 79.316406 152.261719 C 78.800781 148.425781 78.609375 144.535156 78.832031 140.664062 C 78.90625 139.40625 79.023438 138.144531 79.191406 136.890625 C 79.132812 137.316406 79.074219 137.734375 79.019531 138.160156 C 79.5 134.613281 80.378906 131.128906 81.769531 127.828125 C 81.605469 128.207031 81.445312 128.585938 81.285156 128.96875 C 82.355469 126.449219 83.71875 124.058594 85.394531 121.886719 C 85.144531 122.210938 84.894531 122.535156 84.644531 122.855469 C 86.007812 121.097656 87.570312 119.511719 89.328125 118.152344 C 89.003906 118.398438 88.679688 118.652344 88.363281 118.898438 C 89.953125 117.675781 91.6875 116.636719 93.542969 115.859375 C 93.164062 116.019531 92.78125 116.183594 92.398438 116.339844 C 92.449219 116.320312 92.5 116.300781 92.550781 116.277344 C 93.171875 116.132812 93.714844 115.84375 94.175781 115.425781 C 94.699219 115.085938 95.109375 114.640625 95.40625 114.082031 C 95.757812 113.539062 95.941406 112.941406 95.972656 112.308594 C 96.117188 111.671875 96.089844 111.039062 95.886719 110.402344 C 95.511719 109.242188 94.792969 108.128906 93.691406 107.542969 C 93.308594 107.382812 92.929688 107.21875 92.546875 107.0625 C 91.695312 106.839844 90.847656 106.839844 89.996094 107.066406 Z M 89.996094 107.066406 " fill-opacity="1" fill-rule="nonzero"/></g><g fill="#000000" fill-opacity="1"><g transform="translate(121.003766, 325.97306)"><g><path d="M 17.125 3.046875 L 17.203125 2.796875 C 17.203125 2.265625 16.75 1.972656 15.84375 1.921875 C 14.71875 1.222656 13.710938 0.316406 12.828125 -0.796875 C 11.953125 -1.921875 11.359375 -2.910156 11.046875 -3.765625 C 10.671875 -4.617188 10.484375 -5.070312 10.484375 -5.125 C 10.484375 -5.28125 10.578125 -5.410156 10.765625 -5.515625 C 10.953125 -5.628906 11.175781 -5.765625 11.4375 -5.921875 C 11.757812 -6.179688 12.109375 -6.3125 12.484375 -6.3125 C 12.691406 -6.3125 12.890625 -6.191406 13.078125 -5.953125 C 13.265625 -5.710938 13.519531 -5.300781 13.84375 -4.71875 C 14.476562 -3.601562 15.566406 -2.710938 17.109375 -2.046875 C 18.660156 -1.378906 20.425781 -1.046875 22.40625 -1.046875 C 24.800781 -1.046875 27.039062 -1.523438 29.125 -2.484375 C 30.507812 -3.066406 31.519531 -3.640625 32.15625 -4.203125 C 32.800781 -4.765625 33.125 -5.390625 33.125 -6.078125 C 33.125 -6.722656 32.828125 -7.5 32.234375 -8.40625 C 32.078125 -8.832031 31.851562 -9.21875 31.5625 -9.5625 C 31.269531 -9.90625 30.851562 -10.316406 30.3125 -10.796875 C 30 -11.066406 29.390625 -11.65625 28.484375 -12.5625 C 27.628906 -12.882812 26.75 -13.3125 25.84375 -13.84375 L 24.15625 -14.640625 C 22.71875 -15.273438 21.050781 -16.378906 19.15625 -17.953125 C 17.257812 -19.523438 15.992188 -20.898438 15.359375 -22.078125 C 14.609375 -22.773438 14.019531 -23.734375 13.59375 -24.953125 C 13.164062 -26.179688 12.953125 -27.515625 12.953125 -28.953125 C 12.953125 -30.878906 13.351562 -32.640625 14.15625 -34.234375 C 14.800781 -35.679688 16.21875 -37.679688 18.40625 -40.234375 C 20.59375 -42.796875 22.269531 -44.476562 23.4375 -45.28125 L 25.515625 -47.28125 C 25.566406 -47.488281 25.644531 -47.609375 25.75 -47.640625 C 25.863281 -47.671875 25.945312 -47.6875 26 -47.6875 C 26.15625 -47.789062 26.710938 -48.039062 27.671875 -48.4375 C 28.640625 -48.84375 29.65625 -49.550781 30.71875 -50.5625 C 34.34375 -52.320312 37.257812 -53.585938 39.46875 -54.359375 C 41.6875 -55.128906 43.515625 -55.515625 44.953125 -55.515625 C 46.984375 -55.410156 48.703125 -54.785156 50.109375 -53.640625 C 51.523438 -52.492188 52.367188 -50.988281 52.640625 -49.125 C 52.742188 -48.800781 52.796875 -48.320312 52.796875 -47.6875 C 52.796875 -45.757812 52.101562 -43.6875 50.71875 -41.46875 C 49.332031 -39.257812 47.757812 -37.648438 46 -36.640625 C 44.664062 -36.054688 43.734375 -35.765625 43.203125 -35.765625 C 42.828125 -35.765625 42.570312 -35.894531 42.4375 -36.15625 C 42.300781 -36.425781 42.257812 -36.851562 42.3125 -37.4375 C 42.3125 -37.914062 42.484375 -38.460938 42.828125 -39.078125 C 43.179688 -39.691406 43.972656 -40.691406 45.203125 -42.078125 C 47.390625 -45.222656 48.484375 -47.570312 48.484375 -49.125 C 48.484375 -50.03125 48.082031 -50.507812 47.28125 -50.5625 C 46.695312 -50.71875 45.21875 -50.582031 42.84375 -50.15625 C 40.46875 -49.726562 39.28125 -49.382812 39.28125 -49.125 C 39.28125 -49.070312 39.265625 -48.976562 39.234375 -48.84375 C 39.210938 -48.707031 39.117188 -48.664062 38.953125 -48.71875 C 38.742188 -48.769531 36.769531 -47.660156 33.03125 -45.390625 C 29.300781 -43.128906 27.382812 -41.863281 27.28125 -41.59375 C 27.226562 -41.332031 27.023438 -41.050781 26.671875 -40.75 C 26.328125 -40.457031 25.914062 -40.207031 25.4375 -40 C 24.425781 -39.414062 23.492188 -38.5625 22.640625 -37.4375 C 21.785156 -36.320312 20.769531 -34.722656 19.59375 -32.640625 C 18.957031 -31.734375 18.4375 -30.742188 18.03125 -29.671875 C 17.632812 -28.609375 17.4375 -27.648438 17.4375 -26.796875 C 17.4375 -26.210938 17.519531 -25.707031 17.6875 -25.28125 C 17.945312 -24.375 18.769531 -23.265625 20.15625 -21.953125 C 21.539062 -20.648438 23.273438 -19.382812 25.359375 -18.15625 C 28.078125 -16.613281 30.351562 -15.109375 32.1875 -13.640625 C 34.03125 -12.171875 35.195312 -10.929688 35.6875 -9.921875 C 36.90625 -8.210938 37.515625 -6.316406 37.515625 -4.234375 C 37.515625 -3.492188 37.4375 -2.800781 37.28125 -2.15625 C 36.851562 -1.25 36.1875 -0.359375 35.28125 0.515625 C 34.375 1.398438 33.597656 1.816406 32.953125 1.765625 C 32.421875 1.921875 31.96875 2.117188 31.59375 2.359375 C 31.226562 2.597656 30.910156 2.769531 30.640625 2.875 C 30.054688 3.25 28.65625 3.554688 26.4375 3.796875 C 24.226562 4.035156 22.1875 4.101562 20.3125 4 Z M 17.125 3.046875 "/></g></g></g><g fill="#000000" fill-opacity="1"><g transform="translate(159.879985, 325.97306)"><g><path d="M 14.3125 -0.5625 C 13.46875 -0.71875 12.601562 -1.289062 11.71875 -2.28125 C 10.84375 -3.269531 10.269531 -4.191406 10 -5.046875 C 10 -5.148438 9.945312 -5.265625 9.84375 -5.390625 C 9.738281 -5.523438 9.65625 -5.625 9.59375 -5.6875 C 9.382812 -5.84375 9.28125 -6.71875 9.28125 -8.3125 C 9.28125 -9.59375 9.347656 -10.925781 9.484375 -12.3125 C 9.617188 -13.707031 9.789062 -14.832031 10 -15.6875 L 11.4375 -19.921875 L 12.5625 -23.125 L 14.71875 -27.765625 L 11.515625 -28.640625 C 11.140625 -28.691406 10.832031 -28.878906 10.59375 -29.203125 C 10.351562 -29.523438 10.234375 -29.816406 10.234375 -30.078125 C 10.234375 -30.503906 10.457031 -31.023438 10.90625 -31.640625 C 11.363281 -32.253906 11.726562 -32.5625 12 -32.5625 C 12.15625 -32.507812 12.582031 -32.484375 13.28125 -32.484375 C 14.882812 -32.484375 16.082031 -32.5625 16.875 -32.71875 C 17.414062 -32.9375 17.789062 -33.363281 18 -34 C 18.207031 -34.425781 18.457031 -34.957031 18.75 -35.59375 C 19.050781 -36.238281 19.332031 -36.828125 19.59375 -37.359375 C 19.757812 -37.679688 20.015625 -38.175781 20.359375 -38.84375 C 20.703125 -39.507812 21.144531 -40.269531 21.6875 -41.125 C 21.789062 -41.28125 22.023438 -41.664062 22.390625 -42.28125 C 22.765625 -42.894531 23.222656 -43.414062 23.765625 -43.84375 C 24.128906 -44.21875 24.582031 -44.40625 25.125 -44.40625 C 25.65625 -44.40625 26.347656 -44.054688 27.203125 -43.359375 C 27.304688 -43.203125 27.453125 -42.988281 27.640625 -42.71875 C 27.828125 -42.445312 27.921875 -42.207031 27.921875 -42 C 27.921875 -41.789062 27.707031 -41.335938 27.28125 -40.640625 C 26.957031 -40.003906 26.648438 -39.429688 26.359375 -38.921875 C 26.066406 -38.410156 25.8125 -37.96875 25.59375 -37.59375 C 24.957031 -36.53125 24.503906 -35.734375 24.234375 -35.203125 C 23.703125 -34.503906 23.4375 -33.96875 23.4375 -33.59375 C 23.4375 -33.226562 23.785156 -33.046875 24.484375 -33.046875 C 25.222656 -33.046875 26.472656 -33.203125 28.234375 -33.515625 C 28.984375 -33.628906 29.492188 -33.6875 29.765625 -33.6875 C 31.628906 -33.6875 32.640625 -32.910156 32.796875 -31.359375 C 32.847656 -31.035156 32.875 -30.660156 32.875 -30.234375 C 32.875 -29.492188 32.617188 -29.039062 32.109375 -28.875 C 31.609375 -28.71875 30.476562 -28.640625 28.71875 -28.640625 C 27.007812 -28.367188 25.25 -28.234375 23.4375 -28.234375 C 23.113281 -28.234375 22.753906 -28.21875 22.359375 -28.1875 C 21.960938 -28.164062 21.550781 -28.101562 21.125 -28 C 20.695312 -27.894531 20.390625 -27.734375 20.203125 -27.515625 C 20.015625 -27.304688 19.8125 -26.960938 19.59375 -26.484375 C 19.4375 -26.316406 19.066406 -25.703125 18.484375 -24.640625 C 17.734375 -23.085938 17.253906 -22.15625 17.046875 -21.84375 C 15.597656 -17.570312 14.53125 -13.195312 13.84375 -8.71875 C 13.738281 -7.863281 13.6875 -7.332031 13.6875 -7.125 C 13.6875 -6.320312 13.953125 -5.757812 14.484375 -5.4375 C 15.015625 -5.113281 15.921875 -4.953125 17.203125 -4.953125 C 19.015625 -4.953125 20.585938 -5.140625 21.921875 -5.515625 C 23.515625 -6.210938 24.710938 -6.800781 25.515625 -7.28125 C 25.992188 -7.550781 26.429688 -7.804688 26.828125 -8.046875 C 27.234375 -8.285156 27.519531 -8.457031 27.6875 -8.5625 C 27.84375 -8.882812 28.023438 -9.046875 28.234375 -9.046875 C 28.660156 -9.046875 29.035156 -8.617188 29.359375 -7.765625 C 29.359375 -6.910156 29.171875 -6.160156 28.796875 -5.515625 C 28.421875 -4.878906 27.488281 -4.132812 26 -3.28125 C 22.90625 -1.300781 19.8125 -0.3125 16.71875 -0.3125 C 15.863281 -0.3125 15.0625 -0.394531 14.3125 -0.5625 Z M 14.3125 -0.5625 "/></g></g></g><g fill="#000000" fill-opacity="1"><g transform="translate(186.357412, 325.97306)"><g><path d="M 8.5625 -2.875 C 8.394531 -3.195312 8.140625 -3.53125 7.796875 -3.875 C 7.453125 -4.226562 7.28125 -4.457031 7.28125 -4.5625 C 7.28125 -5.144531 7.144531 -5.597656 6.875 -5.921875 C 6.769531 -6.023438 6.71875 -6.265625 6.71875 -6.640625 C 6.71875 -7.492188 7.128906 -8.945312 7.953125 -11 C 8.785156 -13.050781 9.867188 -15.28125 11.203125 -17.6875 C 11.523438 -18 11.9375 -18.554688 12.4375 -19.359375 C 12.945312 -20.160156 13.28125 -20.613281 13.4375 -20.71875 C 13.4375 -20.9375 13.515625 -21.132812 13.671875 -21.3125 C 13.835938 -21.5 14.023438 -21.59375 14.234375 -21.59375 L 14.234375 -22.078125 C 14.234375 -22.554688 15.113281 -23.710938 16.875 -25.546875 C 18.632812 -27.390625 20.078125 -28.660156 21.203125 -29.359375 C 22.535156 -30.265625 23.894531 -30.71875 25.28125 -30.71875 C 26.238281 -30.71875 27.066406 -30.453125 27.765625 -29.921875 C 28.023438 -29.597656 29.25 -28.453125 31.4375 -26.484375 L 34.40625 -23.84375 L 32.953125 -19.84375 C 32.472656 -18.40625 32.234375 -17.097656 32.234375 -15.921875 C 32.234375 -13.890625 32.820312 -11.941406 34 -10.078125 C 34.269531 -9.492188 34.800781 -8.929688 35.59375 -8.390625 C 36.394531 -7.859375 37.195312 -7.539062 38 -7.4375 C 39.175781 -7.226562 39.765625 -6.644531 39.765625 -5.6875 C 39.765625 -4.613281 39.28125 -3.972656 38.3125 -3.765625 C 38.101562 -3.710938 37.785156 -3.6875 37.359375 -3.6875 C 34.210938 -3.6875 31.492188 -5.894531 29.203125 -10.3125 C 28.984375 -10.632812 28.703125 -11.222656 28.359375 -12.078125 C 28.015625 -12.929688 27.816406 -13.519531 27.765625 -13.84375 C 27.441406 -13.414062 27.039062 -12.90625 26.5625 -12.3125 C 26.082031 -11.726562 25.628906 -11.222656 25.203125 -10.796875 C 19.390625 -4.984375 14.800781 -2.078125 11.4375 -2.078125 C 10.375 -2.078125 9.414062 -2.34375 8.5625 -2.875 Z M 11.4375 -7.359375 C 11.4375 -7.085938 11.71875 -7.003906 12.28125 -7.109375 C 12.84375 -7.222656 13.535156 -7.492188 14.359375 -7.921875 C 15.179688 -8.347656 16.019531 -8.90625 16.875 -9.59375 C 21.46875 -13.539062 24.773438 -16.984375 26.796875 -19.921875 L 28.5625 -22.796875 C 28.03125 -23.921875 27.46875 -24.734375 26.875 -25.234375 C 26.289062 -25.742188 25.757812 -26 25.28125 -26 C 24.15625 -26 22.394531 -24.597656 20 -21.796875 C 17.601562 -18.992188 15.414062 -15.703125 13.4375 -11.921875 C 12.957031 -11.015625 12.53125 -10.09375 12.15625 -9.15625 C 11.78125 -8.226562 11.539062 -7.628906 11.4375 -7.359375 Z M 11.4375 -7.359375 "/></g></g></g><g fill="#000000" fill-opacity="1"><g transform="translate(221.314018, 325.97306)"><g><path d="M 31.359375 -29.515625 C 32.210938 -28.660156 32.640625 -27.78125 32.640625 -26.875 C 32.640625 -25.914062 32 -24.238281 30.71875 -21.84375 C 30.289062 -20.613281 29.820312 -19.460938 29.3125 -18.390625 C 28.8125 -17.328125 28.425781 -16.632812 28.15625 -16.3125 L 26.3125 -12.078125 C 25.519531 -10.316406 24.535156 -8.265625 23.359375 -5.921875 C 21.921875 -2.929688 20.90625 -0.71875 20.3125 0.71875 L 19.28125 2.40625 C 16.613281 6.664062 14.5625 9.648438 13.125 11.359375 C 10.1875 13.972656 7.914062 15.492188 6.3125 15.921875 C 5.625 16.128906 4.800781 16.234375 3.84375 16.234375 C 2.082031 16.234375 0.414062 15.847656 -1.15625 15.078125 C -2.726562 14.304688 -3.625 13.414062 -3.84375 12.40625 C -3.894531 12.03125 -3.757812 11.628906 -3.4375 11.203125 C -3.113281 10.773438 -2.769531 10.5625 -2.40625 10.5625 C -2.132812 10.5625 -1.921875 10.664062 -1.765625 10.875 C -1.335938 11.195312 -0.710938 11.503906 0.109375 11.796875 C 0.941406 12.085938 1.835938 12.234375 2.796875 12.234375 C 3.171875 12.234375 3.675781 12.179688 4.3125 12.078125 C 5.382812 11.867188 6.503906 11.226562 7.671875 10.15625 C 8.847656 9.09375 9.914062 7.921875 10.875 6.640625 C 12.6875 3.972656 14.632812 0.640625 16.71875 -3.359375 C 15.96875 -3.578125 15.242188 -4.097656 14.546875 -4.921875 C 13.859375 -5.742188 13.3125 -6.609375 12.90625 -7.515625 C 12.507812 -8.421875 12.367188 -9.085938 12.484375 -9.515625 L 12.484375 -10.40625 C 12.003906 -10.40625 11.613281 -11.3125 11.3125 -13.125 C 11.019531 -14.9375 10.875 -17.039062 10.875 -19.4375 C 10.875 -20.34375 10.929688 -21.488281 11.046875 -22.875 C 11.253906 -23.726562 11.367188 -24.78125 11.390625 -26.03125 C 11.421875 -27.289062 11.4375 -28.109375 11.4375 -28.484375 L 11.4375 -28.796875 C 11.4375 -29.441406 11.503906 -29.894531 11.640625 -30.15625 C 11.773438 -30.425781 12 -30.664062 12.3125 -30.875 C 12.738281 -31.09375 13.164062 -31.203125 13.59375 -31.203125 C 15.09375 -31.203125 15.84375 -29.226562 15.84375 -25.28125 C 15.84375 -24.695312 15.789062 -23.550781 15.6875 -21.84375 C 15.625 -21.09375 15.59375 -19.972656 15.59375 -18.484375 C 15.59375 -15.703125 15.832031 -13.242188 16.3125 -11.109375 C 16.800781 -8.984375 17.523438 -7.519531 18.484375 -6.71875 L 18.953125 -7.84375 C 19.546875 -9.382812 20 -10.367188 20.3125 -10.796875 C 21.0625 -12.347656 21.488281 -13.335938 21.59375 -13.765625 C 21.707031 -14.128906 22.003906 -14.738281 22.484375 -15.59375 L 23.515625 -17.765625 C 23.628906 -18.078125 23.976562 -19.097656 24.5625 -20.828125 C 25.144531 -22.566406 25.726562 -23.972656 26.3125 -25.046875 C 26.53125 -25.472656 26.851562 -26.097656 27.28125 -26.921875 C 27.707031 -27.742188 28.050781 -28.34375 28.3125 -28.71875 C 28.582031 -29.09375 28.878906 -29.332031 29.203125 -29.4375 C 29.628906 -29.8125 29.972656 -30 30.234375 -30 C 30.453125 -30 30.828125 -29.835938 31.359375 -29.515625 Z M 31.359375 -29.515625 "/></g></g></g><g fill="#000000" fill-opacity="1"><g transform="translate(248.591364, 325.97306)"><g/></g></g><g fill="#000000" fill-opacity="1"><g transform="translate(267.94948, 325.97306)"><g><path d="M 16.71875 -0.875 C 15.96875 -0.769531 15.410156 -0.71875 15.046875 -0.71875 C 13.066406 -0.71875 11.4375 -1.332031 10.15625 -2.5625 C 8.875 -3.789062 8.234375 -5.5 8.234375 -7.6875 C 8.023438 -10.03125 8.546875 -12.929688 9.796875 -16.390625 C 11.054688 -19.859375 12.644531 -22.769531 14.5625 -25.125 C 15.894531 -26.664062 17.039062 -27.914062 18 -28.875 C 18.957031 -29.832031 19.835938 -30.472656 20.640625 -30.796875 C 21.753906 -31.273438 23.007812 -31.515625 24.40625 -31.515625 C 25.363281 -31.304688 26.304688 -30.90625 27.234375 -30.3125 C 28.171875 -29.726562 28.640625 -29.144531 28.640625 -28.5625 L 29.046875 -28.15625 C 29.359375 -28.15625 29.644531 -27.769531 29.90625 -27 C 30.175781 -26.226562 30.3125 -25.390625 30.3125 -24.484375 C 30.3125 -23.734375 30.179688 -23.09375 29.921875 -22.5625 C 29.703125 -21.550781 29.335938 -20.671875 28.828125 -19.921875 C 28.328125 -19.171875 27.835938 -18.796875 27.359375 -18.796875 C 26.773438 -18.796875 26.484375 -18.632812 26.484375 -18.3125 C 26.484375 -18.101562 26.375 -18 26.15625 -18 C 25.894531 -18 25.578125 -18.15625 25.203125 -18.46875 C 24.828125 -18.789062 24.5625 -19.164062 24.40625 -19.59375 C 24.40625 -19.757812 24.507812 -20.210938 24.71875 -20.953125 C 24.9375 -21.703125 25.148438 -22.53125 25.359375 -23.4375 C 25.515625 -24.082031 25.59375 -24.644531 25.59375 -25.125 C 25.59375 -26.1875 25.195312 -26.71875 24.40625 -26.71875 C 23.976562 -26.71875 23.550781 -26.613281 23.125 -26.40625 C 20.988281 -25.226562 19.09375 -23.359375 17.4375 -20.796875 C 15.78125 -18.234375 14.394531 -14.710938 13.28125 -10.234375 C 13.007812 -9.066406 12.875 -8.132812 12.875 -7.4375 C 12.875 -6.90625 12.914062 -6.476562 13 -6.15625 C 13.082031 -5.84375 13.175781 -5.65625 13.28125 -5.59375 C 13.550781 -5.488281 14.109375 -5.4375 14.953125 -5.4375 C 16.929688 -5.4375 18.320312 -5.675781 19.125 -6.15625 C 20.832031 -7.0625 22.722656 -8.289062 24.796875 -9.84375 C 25.015625 -10 25.335938 -10.273438 25.765625 -10.671875 C 26.191406 -11.078125 26.585938 -11.359375 26.953125 -11.515625 C 27.328125 -12.109375 27.675781 -12.46875 28 -12.59375 C 28.320312 -12.726562 28.828125 -12.796875 29.515625 -12.796875 C 30.210938 -12.585938 30.773438 -12.304688 31.203125 -11.953125 C 31.628906 -11.609375 31.628906 -11.332031 31.203125 -11.125 C 31.035156 -11.125 30.925781 -11.066406 30.875 -10.953125 C 30.820312 -10.847656 30.796875 -10.769531 30.796875 -10.71875 C 30.898438 -10.445312 30.472656 -9.78125 29.515625 -8.71875 C 28.554688 -7.65625 27.488281 -6.65625 26.3125 -5.71875 C 25.144531 -4.78125 24.347656 -4.3125 23.921875 -4.3125 C 23.703125 -4.3125 23.515625 -4.285156 23.359375 -4.234375 C 23.203125 -4.179688 23.125 -4.050781 23.125 -3.84375 C 23.125 -3.625 22.304688 -3.128906 20.671875 -2.359375 C 19.046875 -1.585938 17.726562 -1.09375 16.71875 -0.875 Z M 16.71875 -0.875 "/></g></g></g><g fill="#000000" fill-opacity="1"><g transform="translate(296.346721, 325.97306)"><g><path d="M 8.5625 -2.875 C 8.394531 -3.195312 8.140625 -3.53125 7.796875 -3.875 C 7.453125 -4.226562 7.28125 -4.457031 7.28125 -4.5625 C 7.28125 -5.144531 7.144531 -5.597656 6.875 -5.921875 C 6.769531 -6.023438 6.71875 -6.265625 6.71875 -6.640625 C 6.71875 -7.492188 7.128906 -8.945312 7.953125 -11 C 8.785156 -13.050781 9.867188 -15.28125 11.203125 -17.6875 C 11.523438 -18 11.9375 -18.554688 12.4375 -19.359375 C 12.945312 -20.160156 13.28125 -20.613281 13.4375 -20.71875 C 13.4375 -20.9375 13.515625 -21.132812 13.671875 -21.3125 C 13.835938 -21.5 14.023438 -21.59375 14.234375 -21.59375 L 14.234375 -22.078125 C 14.234375 -22.554688 15.113281 -23.710938 16.875 -25.546875 C 18.632812 -27.390625 20.078125 -28.660156 21.203125 -29.359375 C 22.535156 -30.265625 23.894531 -30.71875 25.28125 -30.71875 C 26.238281 -30.71875 27.066406 -30.453125 27.765625 -29.921875 C 28.023438 -29.597656 29.25 -28.453125 31.4375 -26.484375 L 34.40625 -23.84375 L 32.953125 -19.84375 C 32.472656 -18.40625 32.234375 -17.097656 32.234375 -15.921875 C 32.234375 -13.890625 32.820312 -11.941406 34 -10.078125 C 34.269531 -9.492188 34.800781 -8.929688 35.59375 -8.390625 C 36.394531 -7.859375 37.195312 -7.539062 38 -7.4375 C 39.175781 -7.226562 39.765625 -6.644531 39.765625 -5.6875 C 39.765625 -4.613281 39.28125 -3.972656 38.3125 -3.765625 C 38.101562 -3.710938 37.785156 -3.6875 37.359375 -3.6875 C 34.210938 -3.6875 31.492188 -5.894531 29.203125 -10.3125 C 28.984375 -10.632812 28.703125 -11.222656 28.359375 -12.078125 C 28.015625 -12.929688 27.816406 -13.519531 27.765625 -13.84375 C 27.441406 -13.414062 27.039062 -12.90625 26.5625 -12.3125 C 26.082031 -11.726562 25.628906 -11.222656 25.203125 -10.796875 C 19.390625 -4.984375 14.800781 -2.078125 11.4375 -2.078125 C 10.375 -2.078125 9.414062 -2.34375 8.5625 -2.875 Z M 11.4375 -7.359375 C 11.4375 -7.085938 11.71875 -7.003906 12.28125 -7.109375 C 12.84375 -7.222656 13.535156 -7.492188 14.359375 -7.921875 C 15.179688 -8.347656 16.019531 -8.90625 16.875 -9.59375 C 21.46875 -13.539062 24.773438 -16.984375 26.796875 -19.921875 L 28.5625 -22.796875 C 28.03125 -23.921875 27.46875 -24.734375 26.875 -25.234375 C 26.289062 -25.742188 25.757812 -26 25.28125 -26 C 24.15625 -26 22.394531 -24.597656 20 -21.796875 C 17.601562 -18.992188 15.414062 -15.703125 13.4375 -11.921875 C 12.957031 -11.015625 12.53125 -10.09375 12.15625 -9.15625 C 11.78125 -8.226562 11.539062 -7.628906 11.4375 -7.359375 Z M 11.4375 -7.359375 "/></g></g></g><g fill="#000000" fill-opacity="1"><g transform="translate(331.303316, 325.97306)"><g><path d="M 10.40625 0 C 10.238281 0.0507812 9.96875 0.078125 9.59375 0.078125 C 8.738281 0.078125 8.070312 -0.347656 7.59375 -1.203125 C 7.113281 -2.054688 6.875 -3.226562 6.875 -4.71875 C 6.875 -5.945312 7.035156 -7.359375 7.359375 -8.953125 C 7.941406 -10.503906 8.234375 -11.625 8.234375 -12.3125 C 8.398438 -13.332031 8.945312 -15.160156 9.875 -17.796875 C 10.8125 -20.441406 11.414062 -22.03125 11.6875 -22.5625 C 11.894531 -22.5625 12.078125 -22.734375 12.234375 -23.078125 C 12.398438 -23.421875 12.484375 -23.804688 12.484375 -24.234375 C 12.484375 -24.710938 12.578125 -25.207031 12.765625 -25.71875 C 12.953125 -26.226562 13.148438 -26.585938 13.359375 -26.796875 C 13.359375 -26.960938 13.425781 -27.253906 13.5625 -27.671875 C 13.695312 -28.097656 13.765625 -28.394531 13.765625 -28.5625 C 13.765625 -28.664062 13.828125 -28.863281 13.953125 -29.15625 C 14.085938 -29.445312 14.15625 -29.675781 14.15625 -29.84375 C 15.007812 -31.488281 16.503906 -35.207031 18.640625 -41 C 20.773438 -46.789062 21.84375 -50.003906 21.84375 -50.640625 C 21.84375 -51.492188 22.269531 -51.921875 23.125 -51.921875 C 23.382812 -52.179688 23.8125 -52.3125 24.40625 -52.3125 L 25.6875 -51.046875 C 26.050781 -50.671875 26.285156 -50.28125 26.390625 -49.875 C 26.503906 -49.476562 26.5625 -48.878906 26.5625 -48.078125 C 26.5625 -47.273438 26.453125 -46.582031 26.234375 -46 C 26.023438 -45.414062 25.492188 -44.21875 24.640625 -42.40625 C 24.484375 -42.03125 24.269531 -41.585938 24 -41.078125 C 23.726562 -40.566406 23.4375 -39.941406 23.125 -39.203125 C 23.007812 -38.929688 22.582031 -37.96875 21.84375 -36.3125 C 21.3125 -35.25 21.046875 -34.640625 21.046875 -34.484375 C 21.046875 -34.316406 20.9375 -33.976562 20.71875 -33.46875 C 20.507812 -32.96875 20.320312 -32.453125 20.15625 -31.921875 C 19.726562 -31.066406 19.046875 -29.554688 18.109375 -27.390625 C 17.179688 -25.234375 16.71875 -24.050781 16.71875 -23.84375 C 16.71875 -23.25 16.582031 -22.820312 16.3125 -22.5625 C 16.15625 -22.5625 16.050781 -22.441406 16 -22.203125 C 15.945312 -21.960938 15.921875 -21.789062 15.921875 -21.6875 C 15.921875 -21.144531 15.492188 -19.726562 14.640625 -17.4375 L 13.921875 -15.125 C 12.910156 -11.65625 12.203125 -9.117188 11.796875 -7.515625 C 11.398438 -5.921875 11.203125 -4.5625 11.203125 -3.4375 C 11.203125 -2.101562 11.160156 -1.25 11.078125 -0.875 C 10.992188 -0.5 10.769531 -0.207031 10.40625 0 Z M 10.40625 0 "/></g></g></g><g fill="#000000" fill-opacity="1"><g transform="translate(344.821992, 325.97306)"><g><path d="M 44.078125 -3.359375 C 43.328125 -3.628906 42.617188 -4.28125 41.953125 -5.3125 C 41.285156 -6.351562 40.953125 -8.050781 40.953125 -10.40625 L 41.046875 -14.078125 C 41.046875 -14.722656 41.003906 -15.175781 40.921875 -15.4375 C 40.835938 -15.707031 40.691406 -15.84375 40.484375 -15.84375 C 39.785156 -15.84375 38.300781 -14.9375 36.03125 -13.125 C 33.769531 -11.3125 31.492188 -9.148438 29.203125 -6.640625 C 28.929688 -6.367188 28.566406 -5.976562 28.109375 -5.46875 C 27.660156 -4.96875 27.25 -4.597656 26.875 -4.359375 C 26.5 -4.117188 26.15625 -4 25.84375 -4 C 25.363281 -4 24.910156 -4.1875 24.484375 -4.5625 L 23.59375 -5.28125 C 23.226562 -5.601562 23.046875 -5.976562 23.046875 -6.40625 L 23.203125 -7.125 L 25.046875 -12.40625 C 26.210938 -15.125 26.898438 -16.84375 27.109375 -17.5625 C 27.328125 -18.28125 27.304688 -18.613281 27.046875 -18.5625 C 26.554688 -18.507812 25.882812 -18.253906 25.03125 -17.796875 C 24.1875 -17.347656 23.65625 -16.910156 23.4375 -16.484375 C 23.332031 -16.484375 22.984375 -16.203125 22.390625 -15.640625 C 21.804688 -15.078125 21.300781 -14.664062 20.875 -14.40625 C 20.394531 -13.707031 19.222656 -12.453125 17.359375 -10.640625 L 15.4375 -8.796875 C 14.632812 -8.160156 13.515625 -6.851562 12.078125 -4.875 C 11.328125 -3.914062 10.898438 -3.4375 10.796875 -3.4375 C 9.140625 -3.4375 8.101562 -4.238281 7.6875 -5.84375 C 7.46875 -6.21875 7.359375 -6.722656 7.359375 -7.359375 C 7.359375 -8.210938 7.675781 -9.972656 8.3125 -12.640625 C 8.800781 -14.453125 9.070312 -15.570312 9.125 -16 L 9.515625 -17.59375 C 9.628906 -18.289062 9.867188 -19.117188 10.234375 -20.078125 C 10.609375 -21.035156 11.25 -22.554688 12.15625 -24.640625 C 12.6875 -26.128906 12.953125 -27.25 12.953125 -28 C 12.953125 -28.695312 13.191406 -29.242188 13.671875 -29.640625 C 14.160156 -30.035156 14.695312 -30.234375 15.28125 -30.234375 C 16.03125 -30.234375 16.671875 -29.941406 17.203125 -29.359375 C 17.734375 -28.773438 18 -28.003906 18 -27.046875 C 18 -26.140625 17.785156 -25.203125 17.359375 -24.234375 L 16.484375 -22.078125 C 16.054688 -21.222656 15.507812 -19.847656 14.84375 -17.953125 C 14.175781 -16.066406 13.84375 -15.015625 13.84375 -14.796875 C 13.894531 -14.640625 14.078125 -14.679688 14.390625 -14.921875 C 14.710938 -15.160156 15.085938 -15.46875 15.515625 -15.84375 C 15.992188 -16.320312 16.554688 -16.800781 17.203125 -17.28125 C 18.796875 -18.769531 20.695312 -20.207031 22.90625 -21.59375 C 25.125 -22.988281 26.820312 -23.867188 28 -24.234375 C 28.695312 -24.234375 29.21875 -24.140625 29.5625 -23.953125 C 29.90625 -23.773438 30.289062 -23.457031 30.71875 -23 C 31.144531 -22.539062 31.46875 -22.207031 31.6875 -22 C 32.164062 -21.519531 32.40625 -20.828125 32.40625 -19.921875 C 32.40625 -19.648438 32.347656 -19.300781 32.234375 -18.875 C 32.023438 -18.132812 31.742188 -17.226562 31.390625 -16.15625 C 31.046875 -15.09375 30.796875 -14.320312 30.640625 -13.84375 C 31.015625 -14.15625 31.679688 -14.710938 32.640625 -15.515625 C 33.597656 -16.316406 34.476562 -17.066406 35.28125 -17.765625 C 37.945312 -19.835938 40.050781 -20.875 41.59375 -20.875 C 42.71875 -20.875 43.679688 -20.289062 44.484375 -19.125 C 44.960938 -18.644531 45.253906 -18.148438 45.359375 -17.640625 C 45.460938 -17.128906 45.515625 -16.445312 45.515625 -15.59375 C 45.515625 -14.738281 45.515625 -14.070312 45.515625 -13.59375 C 45.566406 -13.226562 45.59375 -12.59375 45.59375 -11.6875 C 45.65625 -11.257812 45.722656 -10.429688 45.796875 -9.203125 C 45.878906 -7.972656 46 -7.28125 46.15625 -7.125 C 46.425781 -6.800781 47.332031 -6.503906 48.875 -6.234375 C 49.832031 -6.078125 50.3125 -5.648438 50.3125 -4.953125 C 50.3125 -4.472656 49.96875 -3.992188 49.28125 -3.515625 C 48.582031 -3.085938 47.726562 -2.875 46.71875 -2.875 C 45.757812 -2.875 44.878906 -3.035156 44.078125 -3.359375 Z M 44.078125 -3.359375 "/></g></g></g><g fill="#000000" fill-opacity="1"><g transform="translate(389.617644, 325.97306)"><g/></g></g><g fill="#000000" fill-opacity="1"><g transform="translate(408.975759, 325.97306)"><g><path d="M 8.5625 -2.875 C 8.394531 -3.195312 8.140625 -3.53125 7.796875 -3.875 C 7.453125 -4.226562 7.28125 -4.457031 7.28125 -4.5625 C 7.28125 -5.144531 7.144531 -5.597656 6.875 -5.921875 C 6.769531 -6.023438 6.71875 -6.265625 6.71875 -6.640625 C 6.71875 -7.492188 7.128906 -8.945312 7.953125 -11 C 8.785156 -13.050781 9.867188 -15.28125 11.203125 -17.6875 C 11.523438 -18 11.9375 -18.554688 12.4375 -19.359375 C 12.945312 -20.160156 13.28125 -20.613281 13.4375 -20.71875 C 13.4375 -20.9375 13.515625 -21.132812 13.671875 -21.3125 C 13.835938 -21.5 14.023438 -21.59375 14.234375 -21.59375 L 14.234375 -22.078125 C 14.234375 -22.554688 15.113281 -23.710938 16.875 -25.546875 C 18.632812 -27.390625 20.078125 -28.660156 21.203125 -29.359375 C 22.535156 -30.265625 23.894531 -30.71875 25.28125 -30.71875 C 26.238281 -30.71875 27.066406 -30.453125 27.765625 -29.921875 C 28.023438 -29.597656 29.25 -28.453125 31.4375 -26.484375 L 34.40625 -23.84375 L 32.953125 -19.84375 C 32.472656 -18.40625 32.234375 -17.097656 32.234375 -15.921875 C 32.234375 -13.890625 32.820312 -11.941406 34 -10.078125 C 34.269531 -9.492188 34.800781 -8.929688 35.59375 -8.390625 C 36.394531 -7.859375 37.195312 -7.539062 38 -7.4375 C 39.175781 -7.226562 39.765625 -6.644531 39.765625 -5.6875 C 39.765625 -4.613281 39.28125 -3.972656 38.3125 -3.765625 C 38.101562 -3.710938 37.785156 -3.6875 37.359375 -3.6875 C 34.210938 -3.6875 31.492188 -5.894531 29.203125 -10.3125 C 28.984375 -10.632812 28.703125 -11.222656 28.359375 -12.078125 C 28.015625 -12.929688 27.816406 -13.519531 27.765625 -13.84375 C 27.441406 -13.414062 27.039062 -12.90625 26.5625 -12.3125 C 26.082031 -11.726562 25.628906 -11.222656 25.203125 -10.796875 C 19.390625 -4.984375 14.800781 -2.078125 11.4375 -2.078125 C 10.375 -2.078125 9.414062 -2.34375 8.5625 -2.875 Z M 11.4375 -7.359375 C 11.4375 -7.085938 11.71875 -7.003906 12.28125 -7.109375 C 12.84375 -7.222656 13.535156 -7.492188 14.359375 -7.921875 C 15.179688 -8.347656 16.019531 -8.90625 16.875 -9.59375 C 21.46875 -13.539062 24.773438 -16.984375 26.796875 -19.921875 L 28.5625 -22.796875 C 28.03125 -23.921875 27.46875 -24.734375 26.875 -25.234375 C 26.289062 -25.742188 25.757812 -26 25.28125 -26 C 24.15625 -26 22.394531 -24.597656 20 -21.796875 C 17.601562 -18.992188 15.414062 -15.703125 13.4375 -11.921875 C 12.957031 -11.015625 12.53125 -10.09375 12.15625 -9.15625 C 11.78125 -8.226562 11.539062 -7.628906 11.4375 -7.359375 Z M 11.4375 -7.359375 "/></g></g></g><g fill="#000000" fill-opacity="1"><g transform="translate(443.932354, 325.97306)"><g><path d="M 36.3125 -3.6875 C 35.25 -3.6875 34.367188 -3.910156 33.671875 -4.359375 C 32.984375 -4.816406 32.398438 -5.578125 31.921875 -6.640625 C 31.441406 -8.347656 31.203125 -10.054688 31.203125 -11.765625 C 31.203125 -12.554688 31.28125 -13.113281 31.4375 -13.4375 C 31.65625 -13.65625 31.75 -14.125 31.71875 -14.84375 C 31.695312 -15.5625 31.6875 -16.082031 31.6875 -16.40625 C 31.625 -17.625 31.25 -18.234375 30.5625 -18.234375 C 30.082031 -18.234375 29.546875 -18.050781 28.953125 -17.6875 C 25.972656 -15.8125 23.46875 -14.207031 21.4375 -12.875 C 19.414062 -11.539062 17.46875 -10.050781 15.59375 -8.40625 C 14.851562 -7.550781 14.296875 -6.800781 13.921875 -6.15625 C 13.546875 -5.519531 13.273438 -5.082031 13.109375 -4.84375 C 12.953125 -4.601562 12.742188 -4.484375 12.484375 -4.484375 C 12.160156 -4.367188 11.945312 -4.3125 11.84375 -4.3125 C 11.570312 -4.3125 11.25 -4.457031 10.875 -4.75 C 10.5 -5.050781 10.257812 -5.253906 10.15625 -5.359375 C 9.945312 -5.578125 9.601562 -5.9375 9.125 -6.4375 C 8.644531 -6.945312 8.375 -7.304688 8.3125 -7.515625 C 8.3125 -7.941406 8.484375 -8.925781 8.828125 -10.46875 C 9.179688 -12.019531 9.46875 -13.007812 9.6875 -13.4375 C 9.84375 -13.4375 10.078125 -13.769531 10.390625 -14.4375 C 10.710938 -15.101562 11.007812 -15.625 11.28125 -16 C 11.4375 -16.800781 12.128906 -18.640625 13.359375 -21.515625 C 14.109375 -22.796875 14.628906 -23.863281 14.921875 -24.71875 C 15.210938 -25.570312 15.410156 -26.640625 15.515625 -27.921875 L 15.515625 -28.078125 C 15.515625 -28.296875 15.59375 -28.46875 15.75 -28.59375 C 15.914062 -28.726562 16.078125 -28.796875 16.234375 -28.796875 C 16.609375 -29.066406 16.957031 -29.203125 17.28125 -29.203125 C 17.96875 -29.203125 18.660156 -28.773438 19.359375 -27.921875 C 20.160156 -26.910156 20.5625 -25.84375 20.5625 -24.71875 C 20.5625 -23.332031 19.679688 -21.144531 17.921875 -18.15625 C 17.765625 -17.78125 17.535156 -17.242188 17.234375 -16.546875 C 16.941406 -15.859375 16.796875 -15.382812 16.796875 -15.125 L 21.28125 -18.15625 C 21.707031 -18.632812 22.851562 -19.488281 24.71875 -20.71875 C 26.582031 -21.945312 27.890625 -22.640625 28.640625 -22.796875 C 29.921875 -23.390625 30.722656 -23.6875 31.046875 -23.6875 C 31.679688 -23.6875 32.546875 -23.203125 33.640625 -22.234375 C 34.734375 -21.273438 35.382812 -20.476562 35.59375 -19.84375 C 35.59375 -19.25 35.648438 -18.820312 35.765625 -18.5625 C 36.023438 -17.488281 36.15625 -16.234375 36.15625 -14.796875 C 36.15625 -13.835938 36.085938 -12.972656 35.953125 -12.203125 C 35.828125 -11.429688 35.65625 -10.988281 35.4375 -10.875 C 35.4375 -10.820312 35.460938 -10.742188 35.515625 -10.640625 C 35.566406 -10.535156 35.675781 -10.484375 35.84375 -10.484375 L 35.84375 -10.078125 C 35.414062 -10.078125 35.359375 -9.625 35.671875 -8.71875 C 35.992188 -7.8125 36.421875 -7.117188 36.953125 -6.640625 C 37.492188 -6.109375 37.765625 -5.578125 37.765625 -5.046875 C 37.765625 -4.398438 37.28125 -3.945312 36.3125 -3.6875 Z M 36.3125 -3.6875 "/></g></g></g><g fill="#000000" fill-opacity="1"><g transform="translate(479.928873, 325.97306)"><g><path d="M 28.953125 1.515625 C 27.617188 1.835938 26.710938 1.253906 26.234375 -0.234375 C 25.492188 -2.316406 25.125 -4.503906 25.125 -6.796875 C 25.125 -7.441406 25.148438 -7.894531 25.203125 -8.15625 L 25.359375 -9.84375 L 22.234375 -7.359375 C 20.535156 -5.867188 18.84375 -4.75 17.15625 -4 C 15.476562 -3.25 13.945312 -2.875 12.5625 -2.875 C 11.65625 -3.039062 10.785156 -3.425781 9.953125 -4.03125 C 9.128906 -4.644531 8.53125 -5.378906 8.15625 -6.234375 C 7.945312 -6.660156 7.84375 -7.300781 7.84375 -8.15625 C 7.84375 -10.132812 8.375 -12.46875 9.4375 -15.15625 C 10.507812 -17.851562 11.84375 -20.082031 13.4375 -21.84375 C 15.726562 -25.3125 18.289062 -27.046875 21.125 -27.046875 C 22.457031 -27.046875 23.789062 -26.644531 25.125 -25.84375 C 26.457031 -25.3125 27.226562 -25.046875 27.4375 -25.046875 C 27.757812 -25.046875 28 -25.175781 28.15625 -25.4375 C 28.320312 -25.707031 28.484375 -26.1875 28.640625 -26.875 C 29.222656 -29.332031 29.78125 -31.390625 30.3125 -33.046875 C 31.488281 -36.554688 32.503906 -39.378906 33.359375 -41.515625 C 34.210938 -43.648438 35.253906 -46 36.484375 -48.5625 C 37.015625 -49.675781 37.476562 -50.40625 37.875 -50.75 C 38.28125 -51.101562 38.722656 -51.253906 39.203125 -51.203125 C 40.367188 -51.203125 41.273438 -50.398438 41.921875 -48.796875 C 42.078125 -48.421875 42.15625 -48.050781 42.15625 -47.6875 C 42.15625 -47.3125 42 -46.800781 41.6875 -46.15625 C 40.289062 -43.757812 38.578125 -39.835938 36.546875 -34.390625 C 34.523438 -28.953125 32.957031 -24.234375 31.84375 -20.234375 C 31.363281 -18.472656 30.945312 -15.941406 30.59375 -12.640625 C 30.25 -9.335938 30.078125 -6.59375 30.078125 -4.40625 C 30.078125 -3.4375 30.128906 -2.738281 30.234375 -2.3125 C 30.503906 -1.40625 30.640625 -0.609375 30.640625 0.078125 C 30.640625 0.609375 30.503906 0.96875 30.234375 1.15625 C 29.972656 1.34375 29.546875 1.460938 28.953125 1.515625 Z M 15.4375 -7.359375 C 16.664062 -7.628906 18.160156 -8.429688 19.921875 -9.765625 C 20.242188 -9.972656 21.015625 -10.53125 22.234375 -11.4375 C 23.460938 -12.34375 24.394531 -13.300781 25.03125 -14.3125 C 25.675781 -15.332031 26.132812 -16.484375 26.40625 -17.765625 C 26.457031 -18.722656 26.363281 -19.507812 26.125 -20.125 C 25.882812 -20.738281 25.414062 -21.335938 24.71875 -21.921875 C 24.1875 -22.296875 23.519531 -22.484375 22.71875 -22.484375 C 21.28125 -22.484375 19.945312 -21.894531 18.71875 -20.71875 C 17.28125 -19.4375 16 -17.78125 14.875 -15.75 C 13.757812 -13.726562 12.90625 -11.382812 12.3125 -8.71875 C 12.15625 -7.707031 12.691406 -7.203125 13.921875 -7.203125 C 14.554688 -7.203125 15.0625 -7.253906 15.4375 -7.359375 Z M 15.4375 -7.359375 "/></g></g></g><g fill="#000000" fill-opacity="1"><g transform="translate(511.355309, 325.97306)"><g/></g></g><g fill="#000000" fill-opacity="1"><g transform="translate(15.652209, 437.723055)"><g/></g></g><g fill="#000000" fill-opacity="1"><g transform="translate(35.010324, 437.723055)"><g/></g></g><g fill="#000000" fill-opacity="1"><g transform="translate(54.36844, 437.723055)"><g/></g></g><g fill="#000000" fill-opacity="1"><g transform="translate(73.726555, 437.723055)"><g/></g></g><g fill="#000000" fill-opacity="1"><g transform="translate(93.084671, 437.723055)"><g/></g></g><g fill="#000000" fill-opacity="1"><g transform="translate(112.442786, 437.723055)"><g/></g></g><g fill="#000000" fill-opacity="1"><g transform="translate(131.800902, 437.723055)"><g/></g></g><g fill="#000000" fill-opacity="1"><g transform="translate(151.159017, 437.723055)"><g/></g></g><g fill="#000000" fill-opacity="1"><g transform="translate(170.517133, 437.723055)"><g/></g></g><g fill="#000000" fill-opacity="1"><g transform="translate(189.875248, 437.723055)"><g/></g></g><g fill="#000000" fill-opacity="1"><g transform="translate(209.233364, 437.723055)"><g/></g></g><g fill="#000000" fill-opacity="1"><g transform="translate(228.591479, 437.723055)"><g/></g></g><g fill="#000000" fill-opacity="1"><g transform="translate(247.949595, 437.723055)"><g/></g></g><g fill="#000000" fill-opacity="1"><g transform="translate(267.307711, 437.723055)"><g/></g></g><g fill="#000000" fill-opacity="1"><g transform="translate(286.660008, 437.723055)"><g><path d="M 8.953125 -0.40625 C 8.316406 -0.613281 7.648438 -1.238281 6.953125 -2.28125 C 6.265625 -3.320312 5.921875 -4.269531 5.921875 -5.125 L 7.046875 -8.484375 L 8.5625 -13.28125 C 9.039062 -13.96875 9.425781 -14.804688 9.71875 -15.796875 C 10.007812 -16.785156 10.179688 -17.359375 10.234375 -17.515625 C 10.773438 -18.535156 11.84375 -20.988281 13.4375 -24.875 L 14.953125 -28.5625 C 16.453125 -31.757812 17.679688 -34.640625 18.640625 -37.203125 L 19.921875 -40.15625 L 21.4375 -43.6875 C 23.300781 -48.21875 24.34375 -50.851562 24.5625 -51.59375 C 24.5625 -52.019531 24.65625 -52.335938 24.84375 -52.546875 C 25.03125 -52.765625 25.226562 -52.875 25.4375 -52.875 C 25.707031 -53.144531 26.132812 -53.28125 26.71875 -53.28125 C 26.988281 -53.28125 27.414062 -52.863281 28 -52.03125 C 28.582031 -51.207031 28.875 -50.503906 28.875 -49.921875 C 28.875 -49.015625 28.445312 -47.375 27.59375 -45 C 26.738281 -42.625 25.59375 -40 24.15625 -37.125 C 18.925781 -25.863281 16.523438 -20.019531 16.953125 -19.59375 C 17.171875 -19.707031 17.625 -19.9375 18.3125 -20.28125 C 19.007812 -20.625 19.734375 -21.0625 20.484375 -21.59375 C 20.960938 -21.863281 21.414062 -22.144531 21.84375 -22.4375 C 22.269531 -22.726562 22.640625 -22.984375 22.953125 -23.203125 C 24.609375 -24.316406 25.625 -24.929688 26 -25.046875 C 26.320312 -25.253906 26.9375 -25.625 27.84375 -26.15625 C 28.800781 -26.800781 29.304688 -27.148438 29.359375 -27.203125 C 29.992188 -27.523438 30.523438 -27.6875 30.953125 -27.6875 C 31.273438 -27.6875 31.566406 -27.578125 31.828125 -27.359375 C 32.097656 -27.148438 32.421875 -26.832031 32.796875 -26.40625 C 33.117188 -26.03125 33.28125 -25.65625 33.28125 -25.28125 C 33.28125 -24.90625 33.066406 -24.515625 32.640625 -24.109375 C 32.210938 -23.710938 31.492188 -23.195312 30.484375 -22.5625 C 29.785156 -22.082031 29.0625 -21.628906 28.3125 -21.203125 C 27.570312 -20.773438 26.851562 -20.347656 26.15625 -19.921875 C 22.320312 -17.578125 20.347656 -16.320312 20.234375 -16.15625 C 20.347656 -15.945312 20.601562 -15.46875 21 -14.71875 C 21.394531 -13.96875 21.78125 -13.328125 22.15625 -12.796875 L 23.359375 -10.71875 C 23.992188 -9.8125 24.3125 -9.222656 24.3125 -8.953125 C 24.800781 -7.617188 25.457031 -6.578125 26.28125 -5.828125 C 27.101562 -5.085938 27.992188 -4.71875 28.953125 -4.71875 C 29.441406 -4.71875 30.003906 -4.851562 30.640625 -5.125 C 31.441406 -5.4375 32.082031 -5.59375 32.5625 -5.59375 C 33.3125 -5.59375 33.816406 -5.164062 34.078125 -4.3125 C 34.234375 -4 34.3125 -3.757812 34.3125 -3.59375 C 34.3125 -3.382812 33.941406 -2.90625 33.203125 -2.15625 C 31.816406 -0.769531 30.398438 -0.078125 28.953125 -0.078125 C 28.472656 -0.078125 27.914062 -0.210938 27.28125 -0.484375 C 26.476562 -0.429688 25.476562 -0.960938 24.28125 -2.078125 C 23.082031 -3.203125 21.414062 -5.148438 19.28125 -7.921875 C 19.28125 -8.128906 18.988281 -8.820312 18.40625 -10 C 18.1875 -10.476562 17.941406 -10.914062 17.671875 -11.3125 C 17.410156 -11.71875 17.226562 -12 17.125 -12.15625 C 17.125 -12.375 17.003906 -12.65625 16.765625 -13 C 16.523438 -13.34375 16.347656 -13.625 16.234375 -13.84375 C 15.648438 -14 15.179688 -13.941406 14.828125 -13.671875 C 14.484375 -13.410156 14.164062 -13.039062 13.875 -12.5625 C 13.582031 -12.082031 13.359375 -11.734375 13.203125 -11.515625 C 12.671875 -10.128906 12.132812 -8.4375 11.59375 -6.4375 C 11.0625 -4.4375 10.878906 -3.144531 11.046875 -2.5625 C 11.046875 -1.707031 10.910156 -1.132812 10.640625 -0.84375 C 10.367188 -0.550781 9.804688 -0.40625 8.953125 -0.40625 Z M 8.953125 -0.40625 "/></g></g></g><g fill="#000000" fill-opacity="1"><g transform="translate(315.857169, 437.723055)"><g><path d="M 22.078125 -2.796875 C 20.742188 -1.628906 19.144531 -1.046875 17.28125 -1.046875 C 15.945312 -1.046875 14.679688 -1.363281 13.484375 -2 C 12.285156 -2.632812 11.285156 -3.515625 10.484375 -4.640625 C 9.785156 -5.492188 9.273438 -6.453125 8.953125 -7.515625 C 8.640625 -8.585938 8.484375 -9.894531 8.484375 -11.4375 C 8.484375 -11.96875 8.535156 -13.035156 8.640625 -14.640625 C 8.796875 -16.609375 9.445312 -18.660156 10.59375 -20.796875 C 11.738281 -22.929688 13.164062 -24.835938 14.875 -26.515625 C 16.582031 -28.203125 18.265625 -29.363281 19.921875 -30 C 20.773438 -30.53125 21.546875 -30.796875 22.234375 -30.796875 C 22.609375 -30.796875 22.984375 -30.769531 23.359375 -30.71875 C 23.734375 -30.664062 24.132812 -30.613281 24.5625 -30.5625 C 25.726562 -30.394531 26.617188 -30.164062 27.234375 -29.875 C 27.847656 -29.582031 28.367188 -29.144531 28.796875 -28.5625 C 30.128906 -27.226562 30.796875 -25.679688 30.796875 -23.921875 C 30.585938 -22.640625 29.757812 -21.171875 28.3125 -19.515625 C 26.875 -17.867188 25.144531 -16.535156 23.125 -15.515625 C 22.164062 -15.203125 21.070312 -15.046875 19.84375 -15.046875 C 18.1875 -15.046875 16.851562 -15.390625 15.84375 -16.078125 C 15.363281 -16.234375 14.988281 -16.3125 14.71875 -16.3125 C 14.238281 -16.3125 13.878906 -15.992188 13.640625 -15.359375 C 13.398438 -14.722656 13.171875 -13.550781 12.953125 -11.84375 C 12.898438 -11.46875 12.875 -10.929688 12.875 -10.234375 C 12.875 -7.515625 13.78125 -6.023438 15.59375 -5.765625 C 16.820312 -5.492188 17.703125 -5.359375 18.234375 -5.359375 C 18.878906 -5.359375 19.601562 -5.570312 20.40625 -6 L 21.921875 -6.875 C 22.242188 -7.039062 22.535156 -7.253906 22.796875 -7.515625 C 23.066406 -7.785156 23.304688 -8.023438 23.515625 -8.234375 C 23.628906 -8.347656 23.789062 -8.523438 24 -8.765625 C 24.207031 -9.003906 24.40625 -9.160156 24.59375 -9.234375 C 24.78125 -9.316406 24.957031 -9.359375 25.125 -9.359375 C 25.332031 -9.359375 25.566406 -9.238281 25.828125 -9 C 26.097656 -8.757812 26.316406 -8.585938 26.484375 -8.484375 C 26.960938 -8.484375 27.066406 -8.148438 26.796875 -7.484375 C 26.535156 -6.816406 25.960938 -6.039062 25.078125 -5.15625 C 24.203125 -4.28125 23.203125 -3.492188 22.078125 -2.796875 Z M 22 -19.765625 C 22.90625 -20.128906 23.820312 -20.789062 24.75 -21.75 C 25.6875 -22.71875 26.15625 -23.519531 26.15625 -24.15625 C 26.15625 -24.800781 25.914062 -25.335938 25.4375 -25.765625 C 24.957031 -26.191406 24.289062 -26.40625 23.4375 -26.40625 C 22.800781 -26.40625 22.320312 -26.347656 22 -26.234375 C 21.25 -26.023438 20.367188 -25.453125 19.359375 -24.515625 C 18.347656 -23.585938 17.46875 -22.640625 16.71875 -21.671875 C 15.96875 -20.710938 15.675781 -20.15625 15.84375 -20 C 16.101562 -19.519531 17.140625 -19.28125 18.953125 -19.28125 C 20.179688 -19.28125 21.195312 -19.441406 22 -19.765625 Z M 22 -19.765625 "/></g></g></g><g fill="#000000" fill-opacity="1"><g transform="translate(341.854642, 437.723055)"><g><path d="M 22.078125 -2.796875 C 20.742188 -1.628906 19.144531 -1.046875 17.28125 -1.046875 C 15.945312 -1.046875 14.679688 -1.363281 13.484375 -2 C 12.285156 -2.632812 11.285156 -3.515625 10.484375 -4.640625 C 9.785156 -5.492188 9.273438 -6.453125 8.953125 -7.515625 C 8.640625 -8.585938 8.484375 -9.894531 8.484375 -11.4375 C 8.484375 -11.96875 8.535156 -13.035156 8.640625 -14.640625 C 8.796875 -16.609375 9.445312 -18.660156 10.59375 -20.796875 C 11.738281 -22.929688 13.164062 -24.835938 14.875 -26.515625 C 16.582031 -28.203125 18.265625 -29.363281 19.921875 -30 C 20.773438 -30.53125 21.546875 -30.796875 22.234375 -30.796875 C 22.609375 -30.796875 22.984375 -30.769531 23.359375 -30.71875 C 23.734375 -30.664062 24.132812 -30.613281 24.5625 -30.5625 C 25.726562 -30.394531 26.617188 -30.164062 27.234375 -29.875 C 27.847656 -29.582031 28.367188 -29.144531 28.796875 -28.5625 C 30.128906 -27.226562 30.796875 -25.679688 30.796875 -23.921875 C 30.585938 -22.640625 29.757812 -21.171875 28.3125 -19.515625 C 26.875 -17.867188 25.144531 -16.535156 23.125 -15.515625 C 22.164062 -15.203125 21.070312 -15.046875 19.84375 -15.046875 C 18.1875 -15.046875 16.851562 -15.390625 15.84375 -16.078125 C 15.363281 -16.234375 14.988281 -16.3125 14.71875 -16.3125 C 14.238281 -16.3125 13.878906 -15.992188 13.640625 -15.359375 C 13.398438 -14.722656 13.171875 -13.550781 12.953125 -11.84375 C 12.898438 -11.46875 12.875 -10.929688 12.875 -10.234375 C 12.875 -7.515625 13.78125 -6.023438 15.59375 -5.765625 C 16.820312 -5.492188 17.703125 -5.359375 18.234375 -5.359375 C 18.878906 -5.359375 19.601562 -5.570312 20.40625 -6 L 21.921875 -6.875 C 22.242188 -7.039062 22.535156 -7.253906 22.796875 -7.515625 C 23.066406 -7.785156 23.304688 -8.023438 23.515625 -8.234375 C 23.628906 -8.347656 23.789062 -8.523438 24 -8.765625 C 24.207031 -9.003906 24.40625 -9.160156 24.59375 -9.234375 C 24.78125 -9.316406 24.957031 -9.359375 25.125 -9.359375 C 25.332031 -9.359375 25.566406 -9.238281 25.828125 -9 C 26.097656 -8.757812 26.316406 -8.585938 26.484375 -8.484375 C 26.960938 -8.484375 27.066406 -8.148438 26.796875 -7.484375 C 26.535156 -6.816406 25.960938 -6.039062 25.078125 -5.15625 C 24.203125 -4.28125 23.203125 -3.492188 22.078125 -2.796875 Z M 22 -19.765625 C 22.90625 -20.128906 23.820312 -20.789062 24.75 -21.75 C 25.6875 -22.71875 26.15625 -23.519531 26.15625 -24.15625 C 26.15625 -24.800781 25.914062 -25.335938 25.4375 -25.765625 C 24.957031 -26.191406 24.289062 -26.40625 23.4375 -26.40625 C 22.800781 -26.40625 22.320312 -26.347656 22 -26.234375 C 21.25 -26.023438 20.367188 -25.453125 19.359375 -24.515625 C 18.347656 -23.585938 17.46875 -22.640625 16.71875 -21.671875 C 15.96875 -20.710938 15.675781 -20.15625 15.84375 -20 C 16.101562 -19.519531 17.140625 -19.28125 18.953125 -19.28125 C 20.179688 -19.28125 21.195312 -19.441406 22 -19.765625 Z M 22 -19.765625 "/></g></g></g><g fill="#000000" fill-opacity="1"><g transform="translate(367.852116, 437.723055)"><g><path d="M 4.234375 18 C 3.804688 18 3.460938 17.757812 3.203125 17.28125 C 2.929688 16.90625 2.796875 16.453125 2.796875 15.921875 C 2.796875 15.546875 2.929688 14.640625 3.203125 13.203125 C 3.785156 10.960938 4.078125 9.414062 4.078125 8.5625 C 4.078125 8.289062 4.128906 7.898438 4.234375 7.390625 C 4.347656 6.890625 4.429688 6.425781 4.484375 6 C 4.691406 5.625 4.890625 5.050781 5.078125 4.28125 C 5.265625 3.507812 5.359375 2.828125 5.359375 2.234375 C 5.359375 1.972656 5.453125 1.664062 5.640625 1.3125 C 5.828125 0.96875 6.050781 0.691406 6.3125 0.484375 C 6.3125 0.160156 6.390625 -0.332031 6.546875 -1 C 6.710938 -1.664062 6.820312 -2.132812 6.875 -2.40625 C 7.144531 -3.84375 8.1875 -7.253906 10 -12.640625 C 11.8125 -18.023438 13.359375 -22.375 14.640625 -25.6875 C 15.222656 -27.019531 15.644531 -28.242188 15.90625 -29.359375 C 16.175781 -30.484375 16.3125 -31.363281 16.3125 -32 C 16.3125 -32.207031 16.378906 -32.40625 16.515625 -32.59375 C 16.648438 -32.78125 16.878906 -33.035156 17.203125 -33.359375 C 17.578125 -33.734375 17.921875 -33.921875 18.234375 -33.921875 C 18.503906 -33.921875 18.796875 -33.8125 19.109375 -33.59375 C 19.429688 -33.382812 19.753906 -33.144531 20.078125 -32.875 C 20.398438 -32.394531 20.65625 -31.941406 20.84375 -31.515625 C 21.03125 -31.085938 21.125 -30.632812 21.125 -30.15625 C 21.125 -30 21.066406 -29.492188 20.953125 -28.640625 C 20.953125 -27.515625 20.710938 -26.59375 20.234375 -25.875 C 19.753906 -25.15625 19.570312 -24.820312 19.6875 -24.875 C 22.082031 -26 24.210938 -26.5625 26.078125 -26.5625 C 28.316406 -26.5625 30.0625 -25.835938 31.3125 -24.390625 C 32.570312 -22.953125 33.203125 -21.085938 33.203125 -18.796875 C 33.203125 -17.835938 32.921875 -16.675781 32.359375 -15.3125 C 31.796875 -13.957031 31.25 -13.039062 30.71875 -12.5625 C 30.394531 -12.5625 29.96875 -12 29.4375 -10.875 C 28.75 -10.019531 27.601562 -9.125 26 -8.1875 C 24.394531 -7.257812 23.273438 -6.90625 22.640625 -7.125 C 22.585938 -7.125 22.503906 -7.09375 22.390625 -7.03125 C 22.285156 -6.976562 22.234375 -6.847656 22.234375 -6.640625 C 22.234375 -6.421875 21.328125 -6.019531 19.515625 -5.4375 C 17.703125 -4.851562 16.210938 -4.5625 15.046875 -4.5625 C 14.398438 -4.5625 13.914062 -4.597656 13.59375 -4.671875 C 13.28125 -4.753906 12.960938 -4.929688 12.640625 -5.203125 C 12.265625 -4.828125 12.078125 -4.476562 12.078125 -4.15625 C 12.078125 -3.570312 11.8125 -2.503906 11.28125 -0.953125 C 10.75 0.585938 10.320312 1.359375 10 1.359375 C 9.945312 1.410156 9.878906 1.515625 9.796875 1.671875 C 9.722656 1.835938 9.789062 2.023438 10 2.234375 C 10 2.398438 9.972656 2.773438 9.921875 3.359375 C 9.867188 3.941406 9.734375 4.394531 9.515625 4.71875 C 9.515625 5.195312 9.4375 5.847656 9.28125 6.671875 C 9.125 7.503906 8.9375 8.132812 8.71875 8.5625 C 8.71875 9.195312 8.625 9.820312 8.4375 10.4375 C 8.25 11.050781 8.050781 11.359375 7.84375 11.359375 C 7.519531 11.460938 7.359375 12.238281 7.359375 13.6875 C 7.304688 15.019531 7.039062 16.054688 6.5625 16.796875 C 6.082031 17.546875 5.519531 17.921875 4.875 17.921875 Z M 14.5625 -8.796875 C 15.363281 -8.796875 16.976562 -9.207031 19.40625 -10.03125 C 21.832031 -10.863281 23.523438 -11.679688 24.484375 -12.484375 C 25.597656 -13.441406 26.5 -14.46875 27.1875 -15.5625 C 27.882812 -16.65625 28.234375 -17.757812 28.234375 -18.875 C 28.234375 -19.726562 27.992188 -20.503906 27.515625 -21.203125 C 27.140625 -21.785156 26.5 -22.078125 25.59375 -22.078125 C 24.53125 -22.078125 23.265625 -21.703125 21.796875 -20.953125 C 20.328125 -20.210938 18.984375 -19.226562 17.765625 -18 C 16.796875 -17.039062 15.9375 -15.664062 15.1875 -13.875 C 14.445312 -12.09375 14.078125 -10.695312 14.078125 -9.6875 C 14.078125 -9.09375 14.238281 -8.796875 14.5625 -8.796875 Z M 14.5625 -8.796875 "/></g></g></g><g fill="#000000" fill-opacity="1"><g transform="translate(398.089179, 437.723055)"><g/></g></g><g fill="#000000" fill-opacity="1"><g transform="translate(417.447294, 437.723055)"><g><path d="M 10.40625 0 C 10.238281 0.0507812 9.96875 0.078125 9.59375 0.078125 C 8.738281 0.078125 8.070312 -0.347656 7.59375 -1.203125 C 7.113281 -2.054688 6.875 -3.226562 6.875 -4.71875 C 6.875 -5.945312 7.035156 -7.359375 7.359375 -8.953125 C 7.941406 -10.503906 8.234375 -11.625 8.234375 -12.3125 C 8.398438 -13.332031 8.945312 -15.160156 9.875 -17.796875 C 10.8125 -20.441406 11.414062 -22.03125 11.6875 -22.5625 C 11.894531 -22.5625 12.078125 -22.734375 12.234375 -23.078125 C 12.398438 -23.421875 12.484375 -23.804688 12.484375 -24.234375 C 12.484375 -24.710938 12.578125 -25.207031 12.765625 -25.71875 C 12.953125 -26.226562 13.148438 -26.585938 13.359375 -26.796875 C 13.359375 -26.960938 13.425781 -27.253906 13.5625 -27.671875 C 13.695312 -28.097656 13.765625 -28.394531 13.765625 -28.5625 C 13.765625 -28.664062 13.828125 -28.863281 13.953125 -29.15625 C 14.085938 -29.445312 14.15625 -29.675781 14.15625 -29.84375 C 15.007812 -31.488281 16.503906 -35.207031 18.640625 -41 C 20.773438 -46.789062 21.84375 -50.003906 21.84375 -50.640625 C 21.84375 -51.492188 22.269531 -51.921875 23.125 -51.921875 C 23.382812 -52.179688 23.8125 -52.3125 24.40625 -52.3125 L 25.6875 -51.046875 C 26.050781 -50.671875 26.285156 -50.28125 26.390625 -49.875 C 26.503906 -49.476562 26.5625 -48.878906 26.5625 -48.078125 C 26.5625 -47.273438 26.453125 -46.582031 26.234375 -46 C 26.023438 -45.414062 25.492188 -44.21875 24.640625 -42.40625 C 24.484375 -42.03125 24.269531 -41.585938 24 -41.078125 C 23.726562 -40.566406 23.4375 -39.941406 23.125 -39.203125 C 23.007812 -38.929688 22.582031 -37.96875 21.84375 -36.3125 C 21.3125 -35.25 21.046875 -34.640625 21.046875 -34.484375 C 21.046875 -34.316406 20.9375 -33.976562 20.71875 -33.46875 C 20.507812 -32.96875 20.320312 -32.453125 20.15625 -31.921875 C 19.726562 -31.066406 19.046875 -29.554688 18.109375 -27.390625 C 17.179688 -25.234375 16.71875 -24.050781 16.71875 -23.84375 C 16.71875 -23.25 16.582031 -22.820312 16.3125 -22.5625 C 16.15625 -22.5625 16.050781 -22.441406 16 -22.203125 C 15.945312 -21.960938 15.921875 -21.789062 15.921875 -21.6875 C 15.921875 -21.144531 15.492188 -19.726562 14.640625 -17.4375 L 13.921875 -15.125 C 12.910156 -11.65625 12.203125 -9.117188 11.796875 -7.515625 C 11.398438 -5.921875 11.203125 -4.5625 11.203125 -3.4375 C 11.203125 -2.101562 11.160156 -1.25 11.078125 -0.875 C 10.992188 -0.5 10.769531 -0.207031 10.40625 0 Z M 10.40625 0 "/></g></g></g><g fill="#000000" fill-opacity="1"><g transform="translate(430.965982, 437.723055)"><g><path d="M 22.078125 -2.796875 C 20.742188 -1.628906 19.144531 -1.046875 17.28125 -1.046875 C 15.945312 -1.046875 14.679688 -1.363281 13.484375 -2 C 12.285156 -2.632812 11.285156 -3.515625 10.484375 -4.640625 C 9.785156 -5.492188 9.273438 -6.453125 8.953125 -7.515625 C 8.640625 -8.585938 8.484375 -9.894531 8.484375 -11.4375 C 8.484375 -11.96875 8.535156 -13.035156 8.640625 -14.640625 C 8.796875 -16.609375 9.445312 -18.660156 10.59375 -20.796875 C 11.738281 -22.929688 13.164062 -24.835938 14.875 -26.515625 C 16.582031 -28.203125 18.265625 -29.363281 19.921875 -30 C 20.773438 -30.53125 21.546875 -30.796875 22.234375 -30.796875 C 22.609375 -30.796875 22.984375 -30.769531 23.359375 -30.71875 C 23.734375 -30.664062 24.132812 -30.613281 24.5625 -30.5625 C 25.726562 -30.394531 26.617188 -30.164062 27.234375 -29.875 C 27.847656 -29.582031 28.367188 -29.144531 28.796875 -28.5625 C 30.128906 -27.226562 30.796875 -25.679688 30.796875 -23.921875 C 30.585938 -22.640625 29.757812 -21.171875 28.3125 -19.515625 C 26.875 -17.867188 25.144531 -16.535156 23.125 -15.515625 C 22.164062 -15.203125 21.070312 -15.046875 19.84375 -15.046875 C 18.1875 -15.046875 16.851562 -15.390625 15.84375 -16.078125 C 15.363281 -16.234375 14.988281 -16.3125 14.71875 -16.3125 C 14.238281 -16.3125 13.878906 -15.992188 13.640625 -15.359375 C 13.398438 -14.722656 13.171875 -13.550781 12.953125 -11.84375 C 12.898438 -11.46875 12.875 -10.929688 12.875 -10.234375 C 12.875 -7.515625 13.78125 -6.023438 15.59375 -5.765625 C 16.820312 -5.492188 17.703125 -5.359375 18.234375 -5.359375 C 18.878906 -5.359375 19.601562 -5.570312 20.40625 -6 L 21.921875 -6.875 C 22.242188 -7.039062 22.535156 -7.253906 22.796875 -7.515625 C 23.066406 -7.785156 23.304688 -8.023438 23.515625 -8.234375 C 23.628906 -8.347656 23.789062 -8.523438 24 -8.765625 C 24.207031 -9.003906 24.40625 -9.160156 24.59375 -9.234375 C 24.78125 -9.316406 24.957031 -9.359375 25.125 -9.359375 C 25.332031 -9.359375 25.566406 -9.238281 25.828125 -9 C 26.097656 -8.757812 26.316406 -8.585938 26.484375 -8.484375 C 26.960938 -8.484375 27.066406 -8.148438 26.796875 -7.484375 C 26.535156 -6.816406 25.960938 -6.039062 25.078125 -5.15625 C 24.203125 -4.28125 23.203125 -3.492188 22.078125 -2.796875 Z M 22 -19.765625 C 22.90625 -20.128906 23.820312 -20.789062 24.75 -21.75 C 25.6875 -22.71875 26.15625 -23.519531 26.15625 -24.15625 C 26.15625 -24.800781 25.914062 -25.335938 25.4375 -25.765625 C 24.957031 -26.191406 24.289062 -26.40625 23.4375 -26.40625 C 22.800781 -26.40625 22.320312 -26.347656 22 -26.234375 C 21.25 -26.023438 20.367188 -25.453125 19.359375 -24.515625 C 18.347656 -23.585938 17.46875 -22.640625 16.71875 -21.671875 C 15.96875 -20.710938 15.675781 -20.15625 15.84375 -20 C 16.101562 -19.519531 17.140625 -19.28125 18.953125 -19.28125 C 20.179688 -19.28125 21.195312 -19.441406 22 -19.765625 Z M 22 -19.765625 "/></g></g></g><g fill="#000000" fill-opacity="1"><g transform="translate(456.963456, 437.723055)"><g><path d="M 8.5625 -2.875 C 8.394531 -3.195312 8.140625 -3.53125 7.796875 -3.875 C 7.453125 -4.226562 7.28125 -4.457031 7.28125 -4.5625 C 7.28125 -5.144531 7.144531 -5.597656 6.875 -5.921875 C 6.769531 -6.023438 6.71875 -6.265625 6.71875 -6.640625 C 6.71875 -7.492188 7.128906 -8.945312 7.953125 -11 C 8.785156 -13.050781 9.867188 -15.28125 11.203125 -17.6875 C 11.523438 -18 11.9375 -18.554688 12.4375 -19.359375 C 12.945312 -20.160156 13.28125 -20.613281 13.4375 -20.71875 C 13.4375 -20.9375 13.515625 -21.132812 13.671875 -21.3125 C 13.835938 -21.5 14.023438 -21.59375 14.234375 -21.59375 L 14.234375 -22.078125 C 14.234375 -22.554688 15.113281 -23.710938 16.875 -25.546875 C 18.632812 -27.390625 20.078125 -28.660156 21.203125 -29.359375 C 22.535156 -30.265625 23.894531 -30.71875 25.28125 -30.71875 C 26.238281 -30.71875 27.066406 -30.453125 27.765625 -29.921875 C 28.023438 -29.597656 29.25 -28.453125 31.4375 -26.484375 L 34.40625 -23.84375 L 32.953125 -19.84375 C 32.472656 -18.40625 32.234375 -17.097656 32.234375 -15.921875 C 32.234375 -13.890625 32.820312 -11.941406 34 -10.078125 C 34.269531 -9.492188 34.800781 -8.929688 35.59375 -8.390625 C 36.394531 -7.859375 37.195312 -7.539062 38 -7.4375 C 39.175781 -7.226562 39.765625 -6.644531 39.765625 -5.6875 C 39.765625 -4.613281 39.28125 -3.972656 38.3125 -3.765625 C 38.101562 -3.710938 37.785156 -3.6875 37.359375 -3.6875 C 34.210938 -3.6875 31.492188 -5.894531 29.203125 -10.3125 C 28.984375 -10.632812 28.703125 -11.222656 28.359375 -12.078125 C 28.015625 -12.929688 27.816406 -13.519531 27.765625 -13.84375 C 27.441406 -13.414062 27.039062 -12.90625 26.5625 -12.3125 C 26.082031 -11.726562 25.628906 -11.222656 25.203125 -10.796875 C 19.390625 -4.984375 14.800781 -2.078125 11.4375 -2.078125 C 10.375 -2.078125 9.414062 -2.34375 8.5625 -2.875 Z M 11.4375 -7.359375 C 11.4375 -7.085938 11.71875 -7.003906 12.28125 -7.109375 C 12.84375 -7.222656 13.535156 -7.492188 14.359375 -7.921875 C 15.179688 -8.347656 16.019531 -8.90625 16.875 -9.59375 C 21.46875 -13.539062 24.773438 -16.984375 26.796875 -19.921875 L 28.5625 -22.796875 C 28.03125 -23.921875 27.46875 -24.734375 26.875 -25.234375 C 26.289062 -25.742188 25.757812 -26 25.28125 -26 C 24.15625 -26 22.394531 -24.597656 20 -21.796875 C 17.601562 -18.992188 15.414062 -15.703125 13.4375 -11.921875 C 12.957031 -11.015625 12.53125 -10.09375 12.15625 -9.15625 C 11.78125 -8.226562 11.539062 -7.628906 11.4375 -7.359375 Z M 11.4375 -7.359375 "/></g></g></g><g fill="#000000" fill-opacity="1"><g transform="translate(491.920062, 437.723055)"><g><path d="M 9.515625 -2.796875 C 9.085938 -3.117188 8.796875 -3.410156 8.640625 -3.671875 C 8.484375 -3.941406 8.40625 -4.34375 8.40625 -4.875 C 8.40625 -5.351562 8.429688 -5.753906 8.484375 -6.078125 C 8.640625 -7.890625 9.039062 -10 9.6875 -12.40625 L 10.078125 -14 C 10.234375 -15.332031 11.164062 -18.128906 12.875 -22.390625 C 14.582031 -26.660156 15.972656 -29.570312 17.046875 -31.125 C 17.472656 -31.382812 17.925781 -31.515625 18.40625 -31.515625 C 19.09375 -31.515625 19.675781 -31.273438 20.15625 -30.796875 C 20.476562 -30.585938 20.640625 -30.1875 20.640625 -29.59375 C 20.640625 -29.0625 20.4375 -28.273438 20.03125 -27.234375 C 19.632812 -26.203125 18.957031 -24.671875 18 -22.640625 C 17.789062 -22.210938 17.429688 -21.410156 16.921875 -20.234375 C 16.410156 -19.066406 16.15625 -18.375 16.15625 -18.15625 C 16.15625 -18.050781 16.179688 -18 16.234375 -18 C 16.347656 -18 16.457031 -18.035156 16.5625 -18.109375 C 16.664062 -18.191406 16.769531 -18.257812 16.875 -18.3125 C 17.46875 -19.332031 18.894531 -20.722656 21.15625 -22.484375 C 23.425781 -24.242188 24.988281 -25.335938 25.84375 -25.765625 C 26.21875 -25.972656 26.695312 -26.179688 27.28125 -26.390625 C 27.863281 -26.609375 28.265625 -26.769531 28.484375 -26.875 C 29.335938 -27.300781 30.347656 -27.515625 31.515625 -27.515625 C 32.265625 -27.515625 32.914062 -27.394531 33.46875 -27.15625 C 34.03125 -26.914062 34.421875 -26.554688 34.640625 -26.078125 C 34.691406 -25.703125 34.835938 -25.40625 35.078125 -25.1875 C 35.316406 -24.976562 35.488281 -24.847656 35.59375 -24.796875 C 35.757812 -24.796875 35.867188 -24.726562 35.921875 -24.59375 C 35.972656 -24.46875 36 -24.375 36 -24.3125 C 36 -23.945312 35.785156 -23.722656 35.359375 -23.640625 C 34.929688 -23.554688 34.160156 -23.488281 33.046875 -23.4375 C 32.453125 -23.382812 31.832031 -23.25 31.1875 -23.03125 C 30.550781 -22.820312 29.914062 -22.554688 29.28125 -22.234375 C 26.289062 -20.535156 24.0625 -19.203125 22.59375 -18.234375 C 21.132812 -17.273438 19.65625 -15.96875 18.15625 -14.3125 C 17.570312 -13.675781 16.800781 -12.53125 15.84375 -10.875 C 15.46875 -10.5 15.078125 -9.523438 14.671875 -7.953125 C 14.273438 -6.378906 14.078125 -5.410156 14.078125 -5.046875 C 14.023438 -4.878906 13.914062 -4.566406 13.75 -4.109375 C 13.59375 -3.660156 13.359375 -3.222656 13.046875 -2.796875 C 12.398438 -1.941406 11.863281 -1.515625 11.4375 -1.515625 C 10.957031 -1.515625 10.316406 -1.941406 9.515625 -2.796875 Z M 9.515625 -2.796875 "/></g></g></g><g fill="#000000" fill-opacity="1"><g transform="translate(520.717264, 437.723055)"><g><path d="M 36.3125 -3.6875 C 35.25 -3.6875 34.367188 -3.910156 33.671875 -4.359375 C 32.984375 -4.816406 32.398438 -5.578125 31.921875 -6.640625 C 31.441406 -8.347656 31.203125 -10.054688 31.203125 -11.765625 C 31.203125 -12.554688 31.28125 -13.113281 31.4375 -13.4375 C 31.65625 -13.65625 31.75 -14.125 31.71875 -14.84375 C 31.695312 -15.5625 31.6875 -16.082031 31.6875 -16.40625 C 31.625 -17.625 31.25 -18.234375 30.5625 -18.234375 C 30.082031 -18.234375 29.546875 -18.050781 28.953125 -17.6875 C 25.972656 -15.8125 23.46875 -14.207031 21.4375 -12.875 C 19.414062 -11.539062 17.46875 -10.050781 15.59375 -8.40625 C 14.851562 -7.550781 14.296875 -6.800781 13.921875 -6.15625 C 13.546875 -5.519531 13.273438 -5.082031 13.109375 -4.84375 C 12.953125 -4.601562 12.742188 -4.484375 12.484375 -4.484375 C 12.160156 -4.367188 11.945312 -4.3125 11.84375 -4.3125 C 11.570312 -4.3125 11.25 -4.457031 10.875 -4.75 C 10.5 -5.050781 10.257812 -5.253906 10.15625 -5.359375 C 9.945312 -5.578125 9.601562 -5.9375 9.125 -6.4375 C 8.644531 -6.945312 8.375 -7.304688 8.3125 -7.515625 C 8.3125 -7.941406 8.484375 -8.925781 8.828125 -10.46875 C 9.179688 -12.019531 9.46875 -13.007812 9.6875 -13.4375 C 9.84375 -13.4375 10.078125 -13.769531 10.390625 -14.4375 C 10.710938 -15.101562 11.007812 -15.625 11.28125 -16 C 11.4375 -16.800781 12.128906 -18.640625 13.359375 -21.515625 C 14.109375 -22.796875 14.628906 -23.863281 14.921875 -24.71875 C 15.210938 -25.570312 15.410156 -26.640625 15.515625 -27.921875 L 15.515625 -28.078125 C 15.515625 -28.296875 15.59375 -28.46875 15.75 -28.59375 C 15.914062 -28.726562 16.078125 -28.796875 16.234375 -28.796875 C 16.609375 -29.066406 16.957031 -29.203125 17.28125 -29.203125 C 17.96875 -29.203125 18.660156 -28.773438 19.359375 -27.921875 C 20.160156 -26.910156 20.5625 -25.84375 20.5625 -24.71875 C 20.5625 -23.332031 19.679688 -21.144531 17.921875 -18.15625 C 17.765625 -17.78125 17.535156 -17.242188 17.234375 -16.546875 C 16.941406 -15.859375 16.796875 -15.382812 16.796875 -15.125 L 21.28125 -18.15625 C 21.707031 -18.632812 22.851562 -19.488281 24.71875 -20.71875 C 26.582031 -21.945312 27.890625 -22.640625 28.640625 -22.796875 C 29.921875 -23.390625 30.722656 -23.6875 31.046875 -23.6875 C 31.679688 -23.6875 32.546875 -23.203125 33.640625 -22.234375 C 34.734375 -21.273438 35.382812 -20.476562 35.59375 -19.84375 C 35.59375 -19.25 35.648438 -18.820312 35.765625 -18.5625 C 36.023438 -17.488281 36.15625 -16.234375 36.15625 -14.796875 C 36.15625 -13.835938 36.085938 -12.972656 35.953125 -12.203125 C 35.828125 -11.429688 35.65625 -10.988281 35.4375 -10.875 C 35.4375 -10.820312 35.460938 -10.742188 35.515625 -10.640625 C 35.566406 -10.535156 35.675781 -10.484375 35.84375 -10.484375 L 35.84375 -10.078125 C 35.414062 -10.078125 35.359375 -9.625 35.671875 -8.71875 C 35.992188 -7.8125 36.421875 -7.117188 36.953125 -6.640625 C 37.492188 -6.109375 37.765625 -5.578125 37.765625 -5.046875 C 37.765625 -4.398438 37.28125 -3.945312 36.3125 -3.6875 Z M 36.3125 -3.6875 "/></g></g></g><g fill="#000000" fill-opacity="1"><g transform="translate(556.713782, 437.723055)"><g><path d="M 16.640625 -35.046875 C 16.265625 -35.410156 15.941406 -36.046875 15.671875 -36.953125 C 15.410156 -37.859375 15.414062 -38.3125 15.6875 -38.3125 C 16.101562 -38.375 16.59375 -38.84375 17.15625 -39.71875 C 17.71875 -40.601562 17.972656 -41.335938 17.921875 -41.921875 C 17.921875 -42.128906 18 -42.328125 18.15625 -42.515625 C 18.320312 -42.703125 18.507812 -42.820312 18.71875 -42.875 C 19.144531 -43.144531 19.519531 -43.28125 19.84375 -43.28125 C 20.75 -43.28125 21.570312 -42.640625 22.3125 -41.359375 C 22.632812 -40.660156 22.796875 -40.046875 22.796875 -39.515625 C 22.796875 -39.035156 22.660156 -38.539062 22.390625 -38.03125 C 22.128906 -37.53125 21.648438 -36.878906 20.953125 -36.078125 C 20.046875 -34.847656 19.195312 -34.234375 18.40625 -34.234375 C 17.863281 -34.234375 17.273438 -34.503906 16.640625 -35.046875 Z M 8.875 -2.5625 C 8.132812 -3.3125 7.765625 -4.378906 7.765625 -5.765625 C 7.765625 -6.503906 7.894531 -7.144531 8.15625 -7.6875 C 8.15625 -7.945312 8.207031 -8.265625 8.3125 -8.640625 C 8.425781 -9.015625 8.484375 -9.253906 8.484375 -9.359375 C 8.429688 -9.679688 8.644531 -10.5625 9.125 -12 C 10.082031 -14.132812 11.359375 -17.894531 12.953125 -23.28125 C 12.953125 -23.550781 13.054688 -23.773438 13.265625 -23.953125 C 13.484375 -24.140625 13.804688 -24.257812 14.234375 -24.3125 C 14.660156 -24.425781 14.957031 -24.484375 15.125 -24.484375 C 15.4375 -24.484375 15.710938 -24.363281 15.953125 -24.125 C 16.191406 -23.882812 16.523438 -23.441406 16.953125 -22.796875 C 17.273438 -22.472656 17.4375 -21.992188 17.4375 -21.359375 C 17.4375 -20.347656 17.09375 -19.125 16.40625 -17.6875 C 15.707031 -16.132812 15.253906 -14.800781 15.046875 -13.6875 C 14.398438 -12.238281 13.890625 -10.90625 13.515625 -9.6875 C 13.410156 -9.363281 13.25 -8.71875 13.03125 -7.75 C 12.820312 -6.789062 12.53125 -6.019531 12.15625 -5.4375 C 11.84375 -3.945312 11.550781 -2.90625 11.28125 -2.3125 C 11.007812 -1.726562 10.71875 -1.4375 10.40625 -1.4375 C 10.03125 -1.4375 9.519531 -1.8125 8.875 -2.5625 Z M 8.875 -2.5625 "/></g></g></g><g fill="#000000" fill-opacity="1"><g transform="translate(571.672331, 437.723055)"><g><path d="M 36.3125 -3.6875 C 35.25 -3.6875 34.367188 -3.910156 33.671875 -4.359375 C 32.984375 -4.816406 32.398438 -5.578125 31.921875 -6.640625 C 31.441406 -8.347656 31.203125 -10.054688 31.203125 -11.765625 C 31.203125 -12.554688 31.28125 -13.113281 31.4375 -13.4375 C 31.65625 -13.65625 31.75 -14.125 31.71875 -14.84375 C 31.695312 -15.5625 31.6875 -16.082031 31.6875 -16.40625 C 31.625 -17.625 31.25 -18.234375 30.5625 -18.234375 C 30.082031 -18.234375 29.546875 -18.050781 28.953125 -17.6875 C 25.972656 -15.8125 23.46875 -14.207031 21.4375 -12.875 C 19.414062 -11.539062 17.46875 -10.050781 15.59375 -8.40625 C 14.851562 -7.550781 14.296875 -6.800781 13.921875 -6.15625 C 13.546875 -5.519531 13.273438 -5.082031 13.109375 -4.84375 C 12.953125 -4.601562 12.742188 -4.484375 12.484375 -4.484375 C 12.160156 -4.367188 11.945312 -4.3125 11.84375 -4.3125 C 11.570312 -4.3125 11.25 -4.457031 10.875 -4.75 C 10.5 -5.050781 10.257812 -5.253906 10.15625 -5.359375 C 9.945312 -5.578125 9.601562 -5.9375 9.125 -6.4375 C 8.644531 -6.945312 8.375 -7.304688 8.3125 -7.515625 C 8.3125 -7.941406 8.484375 -8.925781 8.828125 -10.46875 C 9.179688 -12.019531 9.46875 -13.007812 9.6875 -13.4375 C 9.84375 -13.4375 10.078125 -13.769531 10.390625 -14.4375 C 10.710938 -15.101562 11.007812 -15.625 11.28125 -16 C 11.4375 -16.800781 12.128906 -18.640625 13.359375 -21.515625 C 14.109375 -22.796875 14.628906 -23.863281 14.921875 -24.71875 C 15.210938 -25.570312 15.410156 -26.640625 15.515625 -27.921875 L 15.515625 -28.078125 C 15.515625 -28.296875 15.59375 -28.46875 15.75 -28.59375 C 15.914062 -28.726562 16.078125 -28.796875 16.234375 -28.796875 C 16.609375 -29.066406 16.957031 -29.203125 17.28125 -29.203125 C 17.96875 -29.203125 18.660156 -28.773438 19.359375 -27.921875 C 20.160156 -26.910156 20.5625 -25.84375 20.5625 -24.71875 C 20.5625 -23.332031 19.679688 -21.144531 17.921875 -18.15625 C 17.765625 -17.78125 17.535156 -17.242188 17.234375 -16.546875 C 16.941406 -15.859375 16.796875 -15.382812 16.796875 -15.125 L 21.28125 -18.15625 C 21.707031 -18.632812 22.851562 -19.488281 24.71875 -20.71875 C 26.582031 -21.945312 27.890625 -22.640625 28.640625 -22.796875 C 29.921875 -23.390625 30.722656 -23.6875 31.046875 -23.6875 C 31.679688 -23.6875 32.546875 -23.203125 33.640625 -22.234375 C 34.734375 -21.273438 35.382812 -20.476562 35.59375 -19.84375 C 35.59375 -19.25 35.648438 -18.820312 35.765625 -18.5625 C 36.023438 -17.488281 36.15625 -16.234375 36.15625 -14.796875 C 36.15625 -13.835938 36.085938 -12.972656 35.953125 -12.203125 C 35.828125 -11.429688 35.65625 -10.988281 35.4375 -10.875 C 35.4375 -10.820312 35.460938 -10.742188 35.515625 -10.640625 C 35.566406 -10.535156 35.675781 -10.484375 35.84375 -10.484375 L 35.84375 -10.078125 C 35.414062 -10.078125 35.359375 -9.625 35.671875 -8.71875 C 35.992188 -7.8125 36.421875 -7.117188 36.953125 -6.640625 C 37.492188 -6.109375 37.765625 -5.578125 37.765625 -5.046875 C 37.765625 -4.398438 37.28125 -3.945312 36.3125 -3.6875 Z M 36.3125 -3.6875 "/></g></g></g><g fill="#000000" fill-opacity="1"><g transform="translate(607.668828, 437.723055)"><g><path d="M 30.875 -24.15625 C 31.195312 -23.519531 31.359375 -22.90625 31.359375 -22.3125 C 31.359375 -21.519531 31.039062 -20.722656 30.40625 -19.921875 C 30.238281 -19.648438 29.941406 -19.234375 29.515625 -18.671875 C 29.085938 -18.117188 28.710938 -17.546875 28.390625 -16.953125 C 28.078125 -16.367188 27.84375 -15.703125 27.6875 -14.953125 C 27.46875 -13.734375 26.828125 -11.125 25.765625 -7.125 L 24.875 -4 L 23.59375 0.953125 C 21.195312 9.222656 18.800781 14 16.40625 15.28125 C 15.707031 15.550781 15.039062 15.6875 14.40625 15.6875 C 13.226562 15.6875 12.007812 15.296875 10.75 14.515625 C 9.5 13.742188 8.421875 12.691406 7.515625 11.359375 C 6.984375 10.609375 6.460938 9.421875 5.953125 7.796875 C 5.453125 6.171875 5.363281 5.253906 5.6875 5.046875 C 5.789062 4.929688 5.972656 4.875 6.234375 4.875 C 6.609375 4.875 7.007812 4.992188 7.4375 5.234375 C 7.863281 5.472656 8.128906 5.753906 8.234375 6.078125 C 8.453125 6.660156 8.90625 7.429688 9.59375 8.390625 C 10.289062 9.359375 10.800781 9.867188 11.125 9.921875 C 11.976562 10.347656 12.695312 10.5625 13.28125 10.5625 C 13.757812 10.5625 14.210938 10.398438 14.640625 10.078125 C 15.492188 9.390625 16.226562 8.5 16.84375 7.40625 C 17.457031 6.3125 18.132812 4.5625 18.875 2.15625 L 19.515625 -0.15625 C 20.796875 -4.851562 21.726562 -7.894531 22.3125 -9.28125 C 22.582031 -10.132812 22.851562 -10.800781 23.125 -11.28125 L 21.6875 -10 C 21.039062 -9.414062 20.367188 -8.851562 19.671875 -8.3125 C 18.984375 -7.78125 18.265625 -7.359375 17.515625 -7.046875 C 17.140625 -6.554688 16.207031 -6.3125 14.71875 -6.3125 C 13.65625 -6.3125 12.585938 -6.472656 11.515625 -6.796875 C 10.398438 -7.390625 9.707031 -7.84375 9.4375 -8.15625 C 9.175781 -8.476562 8.800781 -9.226562 8.3125 -10.40625 C 8.101562 -10.832031 8 -11.5 8 -12.40625 C 8 -14.695312 8.53125 -17.148438 9.59375 -19.765625 C 10.613281 -21.835938 12.21875 -24.046875 14.40625 -26.390625 C 16.59375 -28.742188 18.484375 -30.160156 20.078125 -30.640625 C 20.722656 -30.960938 21.3125 -31.125 21.84375 -31.125 C 22.425781 -31.125 23.039062 -31.015625 23.6875 -30.796875 C 24.53125 -30.691406 25.191406 -30.503906 25.671875 -30.234375 C 26.160156 -29.972656 26.960938 -29.363281 28.078125 -28.40625 C 29.359375 -27.125 30.289062 -25.707031 30.875 -24.15625 Z M 22.078125 -16.234375 C 22.984375 -17.460938 23.625 -18.78125 24 -20.1875 C 24.375 -21.601562 24.507812 -23.007812 24.40625 -24.40625 C 24.34375 -25.144531 24.234375 -25.660156 24.078125 -25.953125 C 23.921875 -26.253906 23.628906 -26.40625 23.203125 -26.40625 C 22.191406 -26.40625 21.019531 -25.921875 19.6875 -24.953125 C 18.351562 -23.992188 17.070312 -22.742188 15.84375 -21.203125 C 15.039062 -20.128906 14.375 -18.847656 13.84375 -17.359375 C 13.195312 -15.546875 12.875 -13.863281 12.875 -12.3125 C 12.875 -11.144531 13.085938 -10.476562 13.515625 -10.3125 C 15.171875 -10.375 16.675781 -10.859375 18.03125 -11.765625 C 19.394531 -12.671875 20.742188 -14.160156 22.078125 -16.234375 Z M 22.078125 -16.234375 "/></g></g></g><g clip-path="url(#91f6f41856)"><path fill="#000000" d="M 127.0625 169.160156 C 126.84375 168.507812 126.539062 167.945312 126.144531 167.53125 C 125.949219 167.316406 125.710938 167.097656 125.449219 166.925781 C 125.230469 166.773438 124.96875 166.644531 124.726562 166.535156 C 124.550781 166.46875 124.378906 166.402344 124.222656 166.339844 C 124.113281 166.296875 124.003906 166.253906 123.898438 166.207031 L 123.765625 166.144531 C 123.570312 166.058594 123.351562 165.96875 123.132812 165.90625 C 122.804688 165.839844 122.476562 165.796875 122.171875 165.753906 C 121.886719 165.710938 121.601562 165.710938 121.277344 165.6875 C 121.210938 165.6875 121.121094 165.6875 121.058594 165.6875 C 120.578125 165.6875 120.074219 165.730469 119.484375 165.816406 C 118.980469 165.882812 118.457031 166.011719 117.957031 166.207031 C 117.691406 166.296875 117.429688 166.402344 117.210938 166.535156 C 116.972656 166.664062 116.730469 166.859375 116.515625 167.097656 C 116.296875 167.359375 116.097656 167.554688 115.945312 167.769531 C 115.878906 167.878906 115.792969 167.988281 115.726562 168.097656 C 115.683594 168.160156 115.640625 168.226562 115.597656 168.292969 C 115.488281 168.464844 115.378906 168.617188 115.3125 168.789062 C 115.226562 168.964844 115.136719 169.179688 115.070312 169.421875 C 115.027344 169.59375 114.984375 169.765625 114.964844 169.941406 C 114.941406 169.984375 114.941406 170.050781 114.917969 170.09375 C 114.855469 170.375 114.808594 170.65625 114.765625 171.046875 C 114.699219 171.589844 114.679688 172.15625 114.722656 172.785156 C 114.746094 173.066406 114.765625 173.414062 114.855469 173.738281 C 114.941406 174.042969 115.050781 174.347656 115.203125 174.628906 C 115.335938 174.867188 115.507812 175.128906 115.75 175.410156 C 115.878906 175.582031 116.054688 175.734375 116.207031 175.886719 L 116.339844 176.015625 C 116.753906 176.429688 117.257812 176.777344 117.867188 177.082031 C 118.152344 177.210938 118.457031 177.320312 118.828125 177.425781 C 119.179688 177.515625 119.550781 177.578125 119.832031 177.621094 C 120.097656 177.667969 120.378906 177.667969 120.75 177.6875 C 120.839844 177.6875 120.902344 177.6875 120.992188 177.6875 C 121.058594 177.6875 121.121094 177.6875 121.1875 177.6875 C 121.40625 177.6875 121.601562 177.644531 121.757812 177.621094 C 122.039062 177.578125 122.324219 177.515625 122.628906 177.40625 C 122.933594 177.320312 123.242188 177.167969 123.523438 177.035156 C 123.65625 176.972656 123.808594 176.90625 123.960938 176.820312 C 124.070312 176.753906 124.179688 176.691406 124.269531 176.625 L 124.332031 176.582031 C 124.574219 176.40625 124.8125 176.210938 125.121094 175.929688 C 125.382812 175.691406 125.578125 175.472656 125.753906 175.277344 C 125.992188 175.019531 126.167969 174.691406 126.34375 174.410156 C 126.519531 174.105469 126.648438 173.78125 126.78125 173.476562 C 126.890625 173.21875 127 172.9375 127.0625 172.675781 C 127.152344 172.371094 127.195312 172.046875 127.238281 171.742188 C 127.261719 171.480469 127.28125 171.199219 127.304688 170.875 C 127.304688 170.527344 127.261719 170.179688 127.214844 169.898438 C 127.214844 169.679688 127.152344 169.441406 127.0625 169.160156 Z M 127.0625 169.160156 " fill-opacity="1" fill-rule="nonzero"/></g></svg>