<svg xmlns="http://www.w3.org/2000/svg" xmlns:xlink="http://www.w3.org/1999/xlink" width="500" zoomAndPan="magnify" viewBox="0 0 375 374.999991" height="500" preserveAspectRatio="xMidYMid meet" version="1.0"><defs><filter x="0%" y="0%" width="100%" height="100%" id="dcb5c2d15f"><feColorMatrix values="0 0 0 0 1 0 0 0 0 1 0 0 0 0 1 0 0 0 1 0" color-interpolation-filters="sRGB"/></filter><mask id="31b884cd54"><g filter="url(#dcb5c2d15f)"><rect x="-37.5" width="450" fill="#000000" y="-37.499999" height="449.999989" fill-opacity="0.5686"/></g></mask><clipPath id="9351db273c"><path d="M 51 65 L 306 65 L 306 341 L 51 341 Z M 51 65 " clip-rule="nonzero"/></clipPath><clipPath id="e9a3800545"><path d="M 357.917969 116.992188 L 221.847656 375.066406 L 0.261719 258.238281 L 136.328125 0.160156 Z M 357.917969 116.992188 " clip-rule="nonzero"/></clipPath><clipPath id="b813d065dd"><path d="M 357.917969 116.992188 L 221.847656 375.066406 L 0.261719 258.238281 L 136.328125 0.160156 Z M 357.917969 116.992188 " clip-rule="nonzero"/></clipPath><clipPath id="f57ce2200c"><path d="M 357.917969 116.992188 L 221.847656 375.066406 L 0.261719 258.238281 L 136.328125 0.160156 Z M 357.917969 116.992188 " clip-rule="nonzero"/></clipPath><clipPath id="a726eb654e"><path d="M 52 78 L 314 78 L 314 333 L 52 333 Z M 52 78 " clip-rule="nonzero"/></clipPath><clipPath id="d423da6b6d"><path d="M 357.917969 116.992188 L 221.847656 375.066406 L 0.261719 258.238281 L 136.328125 0.160156 Z M 357.917969 116.992188 " clip-rule="nonzero"/></clipPath><clipPath id="540c526a8d"><path d="M 357.917969 116.992188 L 221.847656 375.066406 L 0.261719 258.238281 L 136.328125 0.160156 Z M 357.917969 116.992188 " clip-rule="nonzero"/></clipPath><clipPath id="1442f03689"><path d="M 357.917969 116.992188 L 221.847656 375.066406 L 0.261719 258.238281 L 136.328125 0.160156 Z M 357.917969 116.992188 " clip-rule="nonzero"/></clipPath><clipPath id="87fa0a1eb8"><rect x="0" width="359" y="0" height="375"/></clipPath></defs><g mask="url(#31b884cd54)"><g transform="matrix(1, 0, 0, 1, 0, 0)"><g clip-path="url(#87fa0a1eb8)"><g clip-path="url(#9351db273c)"><g clip-path="url(#e9a3800545)"><g clip-path="url(#b813d065dd)"><g clip-path="url(#f57ce2200c)"><path fill="#ffffff" d="M 260.964844 223.25 C 269.101562 220.03125 277.179688 216.199219 284.253906 210.984375 C 320.6875 184.109375 304.25 138.101562 285.160156 106.140625 C 270.378906 81.398438 244.953125 57.46875 213.714844 68.144531 C 189.390625 76.453125 189.714844 108.273438 172.585938 123.917969 C 140.929688 152.835938 63.492188 140.761719 52.433594 193.699219 C 48.503906 212.5 57.082031 229.214844 70.046875 242.417969 C 92.84375 265.640625 123.496094 279.695312 145.734375 303.21875 C 156.5625 314.664062 170.347656 343.804688 190.230469 339.691406 C 207.8125 336.046875 213.71875 314.035156 216.113281 298.6875 C 221.886719 261.765625 228.210938 242.65625 260.964844 223.25 Z M 260.964844 223.25 " fill-opacity="1" fill-rule="evenodd"/></g></g></g></g><g clip-path="url(#a726eb654e)"><g clip-path="url(#d423da6b6d)"><g clip-path="url(#540c526a8d)"><g clip-path="url(#1442f03689)"><path fill="#ebc5b3" d="M 248.957031 240.644531 C 248.902344 240.644531 248.847656 240.652344 248.796875 240.660156 C 229.84375 244.765625 217.351562 251.003906 207.402344 260.449219 C 197.625 269.726562 190.316406 282.132812 181.757812 298.8125 C 177.640625 306.851562 171.667969 316.714844 163.832031 322.96875 C 158.6875 327.074219 152.722656 329.613281 145.917969 328.832031 C 138.136719 327.964844 132.992188 322.269531 129.101562 315.058594 C 123.171875 304.089844 120.136719 289.601562 116.179688 281.242188 C 113.367188 275.300781 110.113281 269.625 106.585938 264.105469 C 92.714844 242.40625 74.585938 223.164062 63.03125 199.914062 C 59.015625 191.828125 56.257812 183.269531 55.679688 174.6875 C 55.101562 166.152344 56.679688 157.601562 61.308594 149.515625 C 69.335938 135.492188 81.324219 129.0625 95.15625 126.347656 C 127.339844 120.027344 169.285156 133.226562 196.398438 120.925781 C 211.203125 114.203125 220.378906 97.355469 233.316406 87.617188 C 238.691406 83.570312 244.746094 80.800781 252.230469 80.691406 C 265.050781 80.503906 275.359375 85.136719 283.507812 92.511719 C 295.957031 103.773438 303.417969 121.359375 307.21875 138.027344 C 312.136719 159.597656 314.644531 185.636719 306.667969 206.085938 C 301.398438 219.59375 291.511719 230.632812 274.660156 236.246094 C 270.542969 237.613281 266.292969 238.582031 262.003906 239.273438 C 257.683594 239.96875 253.316406 240.390625 248.984375 240.660156 Z M 249.261719 242.660156 C 253.625 242.351562 257.992188 241.9375 262.3125 241.246094 C 266.71875 240.550781 271.070312 239.566406 275.296875 238.171875 C 292.835938 232.375 303.136719 220.902344 308.652344 206.859375 C 316.828125 186.046875 314.40625 159.507812 309.445312 137.519531 C 305.578125 120.382812 297.882812 102.332031 285.121094 90.734375 C 276.550781 82.941406 265.707031 78.042969 252.199219 78.210938 C 244.136719 78.3125 237.597656 81.253906 231.800781 85.597656 C 218.992188 95.195312 209.960938 111.914062 195.308594 118.523438 C 168.328125 130.707031 126.632812 117.335938 94.617188 123.5625 C 79.972656 126.40625 67.304688 133.238281 58.785156 148.058594 C 53.828125 156.675781 52.121094 165.785156 52.71875 174.890625 C 53.308594 183.851562 56.152344 192.808594 60.332031 201.257812 C 71.90625 224.621094 90.058594 243.980469 103.960938 265.785156 C 107.410156 271.203125 110.597656 276.765625 113.347656 282.589844 C 117.992188 292.429688 121.40625 310.652344 129.621094 321.882812 C 133.632812 327.375 138.753906 331.242188 145.558594 332.007812 C 153.242188 332.847656 159.988281 330.042969 165.765625 325.382812 C 173.898438 318.8125 180.097656 308.523438 184.332031 300.117188 C 192.585938 283.695312 199.621094 271.441406 209.128906 262.257812 C 218.726562 252.984375 230.847656 246.859375 249.269531 242.664062 Z M 249.261719 242.660156 " fill-opacity="1" fill-rule="evenodd"/></g></g></g></g></g></g></g></svg>