<svg xmlns="http://www.w3.org/2000/svg" xmlns:xlink="http://www.w3.org/1999/xlink" width="1080" zoomAndPan="magnify" viewBox="0 0 810 809.999993" height="1080" preserveAspectRatio="xMidYMid meet" version="1.0"><defs><g/><clipPath id="3bdac7490f"><path d="M 55 216 L 768 216 L 768 638.863281 L 55 638.863281 Z M 55 216 " clip-rule="nonzero"/></clipPath></defs><g clip-path="url(#3bdac7490f)"><path fill="#ffffff" d="M 683.628906 228.671875 C 633.019531 214.21875 571.570312 225.054688 519.160156 221.445312 C 399.871094 210.601562 280.578125 219.640625 161.289062 219.640625 L 157.679688 221.445312 C 54.652344 221.445312 52.847656 313.585938 56.464844 398.503906 C 58.269531 434.644531 58.269531 481.617188 81.769531 512.328125 C 99.839844 535.820312 121.53125 534.007812 148.644531 537.625 C 269.734375 555.695312 390.828125 552.078125 511.925781 541.242188 C 538.632812 537.597656 566.164062 536.40625 593.402344 536.011719 C 609.777344 565.539062 596.371094 613.003906 584.222656 638.804688 C 612.726562 615.265625 634.425781 575.585938 644.09375 536.074219 C 673.195312 537.230469 713.742188 541.328125 736.039062 528.59375 C 759.539062 514.136719 764.960938 478.003906 766.769531 450.902344 C 770.386719 378.628906 770.386719 250.351562 683.628906 228.671875 " fill-opacity="1" fill-rule="nonzero"/></g><g fill="#000000" fill-opacity="1"><g transform="translate(177.121989, 380.797921)"><g><path d="M 43.414062 -56.4375 C 42.59375 -59.957031 41.183594 -62.890625 39.308594 -65.121094 C 37.3125 -67.351562 35.082031 -69.109375 32.503906 -70.402344 C 29.921875 -71.574219 27.222656 -72.394531 24.40625 -72.867188 C 21.589844 -73.335938 18.890625 -73.570312 16.308594 -73.570312 C 13.023438 -73.570312 10.207031 -73.335938 8.097656 -72.984375 C 6.804688 -72.75 5.632812 -72.632812 4.695312 -72.394531 C 3.871094 -65.707031 3.285156 -58.667969 2.816406 -51.160156 C 2.347656 -44.585938 2.113281 -37.195312 1.996094 -28.980469 C 1.761719 -20.769531 1.996094 -12.085938 2.464844 -3.167969 L 13.023438 -3.871094 C 12.789062 -5.867188 12.671875 -8.097656 12.671875 -10.441406 C 12.4375 -12.4375 12.320312 -14.785156 12.320312 -17.601562 C 12.203125 -20.300781 12.085938 -23.234375 12.085938 -26.285156 C 12.4375 -26.285156 12.789062 -26.164062 13.140625 -26.164062 C 13.492188 -26.164062 13.84375 -26.164062 14.316406 -26.164062 C 19.476562 -26.164062 24.171875 -26.988281 28.160156 -28.863281 C 32.148438 -30.625 35.316406 -32.972656 37.898438 -35.789062 C 40.480469 -38.605469 42.242188 -41.890625 43.179688 -45.527344 C 44.117188 -49.164062 44.117188 -52.800781 43.414062 -56.4375 Z M 34.027344 -49.867188 C 33.441406 -44.46875 31.445312 -40.480469 28.160156 -37.78125 C 24.757812 -35.082031 20.066406 -33.792969 14.199219 -33.792969 C 13.726562 -33.792969 13.375 -33.792969 13.023438 -33.792969 C 12.671875 -33.792969 12.320312 -33.910156 11.96875 -33.910156 C 11.96875 -36.84375 11.96875 -39.777344 11.96875 -42.828125 C 11.96875 -45.878906 12.085938 -48.695312 12.203125 -51.511719 C 12.320312 -54.328125 12.554688 -56.90625 12.789062 -59.253906 C 13.023438 -61.601562 13.257812 -63.714844 13.726562 -65.589844 C 14.902344 -65.824219 16.074219 -65.941406 17.25 -65.941406 C 19.359375 -65.941406 21.472656 -65.589844 23.585938 -64.886719 C 25.695312 -64.183594 27.574219 -63.246094 29.214844 -61.953125 C 30.859375 -60.546875 32.148438 -58.902344 33.089844 -56.90625 C 34.027344 -54.914062 34.261719 -52.566406 34.027344 -49.867188 Z M 34.027344 -49.867188 "/></g></g></g><g fill="#000000" fill-opacity="1"><g transform="translate(234.146431, 380.797921)"><g><path d="M 0.703125 -1.878906 L 14.082031 -0.46875 C 14.550781 -1.878906 15.019531 -3.519531 15.605469 -5.398438 C 16.542969 -8.449219 17.71875 -12.671875 19.242188 -17.953125 L 41.417969 -16.074219 L 44.585938 -1.878906 C 45.761719 -1.878906 47.050781 -1.878906 48.34375 -1.996094 C 49.398438 -1.996094 50.570312 -2.113281 51.980469 -2.230469 C 53.386719 -2.347656 54.679688 -2.464844 56.085938 -2.699219 C 54.210938 -9.972656 52.214844 -17.25 49.867188 -24.757812 C 48.8125 -27.925781 47.636719 -31.210938 46.347656 -34.730469 C 45.058594 -38.25 43.648438 -41.773438 42.242188 -45.410156 C 40.714844 -49.046875 39.074219 -52.683594 37.429688 -56.320312 C 35.671875 -59.839844 33.792969 -63.363281 31.914062 -66.648438 C 31.679688 -66.648438 31.5625 -66.648438 31.328125 -66.765625 L 29.921875 -66.765625 C 29.335938 -66.765625 28.746094 -66.648438 28.160156 -66.648438 C 27.457031 -66.53125 26.871094 -66.414062 26.285156 -66.175781 C 24.40625 -59.839844 22.175781 -53.035156 19.59375 -45.996094 C 17.367188 -39.894531 14.667969 -33.089844 11.617188 -25.460938 C 8.449219 -17.71875 4.8125 -9.855469 0.703125 -1.878906 Z M 29.214844 -58.082031 C 30.15625 -55.96875 30.976562 -53.621094 31.914062 -51.042969 C 32.738281 -48.460938 33.558594 -45.644531 34.496094 -42.828125 C 35.316406 -40.011719 36.140625 -37.078125 36.960938 -34.027344 C 37.664062 -30.976562 38.484375 -28.042969 39.191406 -25.109375 L 21.121094 -24.40625 C 22.527344 -29.570312 23.9375 -35.199219 25.34375 -41.066406 C 26.753906 -46.933594 28.042969 -52.566406 29.214844 -58.082031 Z M 29.214844 -58.082031 "/></g></g></g><g fill="#000000" fill-opacity="1"><g transform="translate(302.904038, 380.797921)"><g><path d="M 1.171875 -24.054688 C 5.867188 -23.820312 10.558594 -23.703125 15.019531 -23.46875 C 18.890625 -23.234375 22.878906 -22.996094 27.105469 -22.761719 C 31.210938 -22.527344 34.730469 -22.175781 37.78125 -21.824219 C 37.78125 -22.644531 37.898438 -23.585938 37.898438 -24.523438 L 37.898438 -27.222656 C 37.898438 -28.160156 37.78125 -28.980469 37.664062 -29.921875 C 35.199219 -30.039062 32.738281 -30.15625 30.15625 -30.390625 C 27.808594 -30.390625 25.34375 -30.507812 22.644531 -30.625 C 19.828125 -30.625 17.132812 -30.742188 14.433594 -30.742188 C 11.617188 -30.742188 9.152344 -30.625 6.804688 -30.507812 C 4.457031 -30.390625 2.699219 -30.15625 1.289062 -29.921875 C 0.9375 -27.808594 0.820312 -26.285156 0.9375 -25.460938 C 0.9375 -24.757812 0.9375 -24.289062 1.171875 -24.054688 Z M 1.171875 -24.054688 "/></g></g></g><g fill="#000000" fill-opacity="1"><g transform="translate(353.475228, 380.797921)"><g><path d="M -0.703125 -1.40625 L 11.148438 -1.40625 C 11.265625 -3.285156 11.382812 -5.398438 11.617188 -7.746094 C 11.734375 -9.738281 11.851562 -12.085938 11.96875 -14.667969 C 11.96875 -17.25 12.085938 -19.945312 12.320312 -22.996094 C 12.90625 -22.996094 13.492188 -22.878906 14.082031 -22.878906 C 14.667969 -22.878906 15.253906 -22.878906 15.957031 -22.878906 C 18.070312 -22.878906 20.417969 -22.996094 22.761719 -23.234375 C 24.171875 -20.652344 25.460938 -18.070312 26.753906 -15.371094 C 28.042969 -12.671875 29.214844 -10.207031 30.390625 -7.980469 C 31.5625 -5.28125 32.738281 -2.699219 33.910156 -0.234375 C 36.726562 -0.46875 39.191406 -0.585938 41.183594 -0.703125 C 43.179688 -0.703125 44.824219 -0.820312 46.113281 -0.820312 L 48.460938 -0.820312 C 48.695312 -0.703125 49.046875 -0.703125 49.28125 -0.703125 C 43.179688 -7.273438 38.484375 -12.671875 35.433594 -16.777344 C 32.265625 -20.886719 30.273438 -23.46875 29.570312 -24.640625 C 31.679688 -25.226562 33.675781 -26.046875 35.554688 -27.105469 C 37.429688 -28.160156 39.191406 -29.570312 40.597656 -31.210938 C 42.007812 -32.855469 43.296875 -34.964844 44.234375 -37.3125 C 45.175781 -39.660156 45.644531 -42.359375 45.878906 -45.527344 C 46.113281 -50.453125 45.410156 -54.445312 43.882812 -57.496094 C 42.242188 -60.546875 40.128906 -63.007812 37.546875 -64.769531 C 34.964844 -66.53125 31.914062 -67.703125 28.628906 -68.40625 C 25.34375 -68.992188 22.058594 -69.34375 18.773438 -69.34375 C 15.488281 -69.34375 12.554688 -69.109375 9.738281 -68.757812 C 6.921875 -68.40625 4.695312 -68.054688 2.933594 -67.703125 C 3.167969 -59.722656 3.285156 -51.863281 3.285156 -44 C 3.167969 -40.597656 3.050781 -37.078125 2.933594 -33.441406 C 2.699219 -29.6875 2.464844 -26.046875 2.230469 -22.292969 C 1.996094 -18.539062 1.523438 -14.902344 1.054688 -11.382812 C 0.585938 -7.863281 0 -4.457031 -0.703125 -1.40625 Z M 11.734375 -61.132812 C 13.492188 -61.367188 15.371094 -61.484375 17.25 -61.484375 C 19.476562 -61.484375 21.707031 -61.25 24.054688 -60.78125 C 26.285156 -60.3125 28.277344 -59.605469 30.15625 -58.550781 C 31.914062 -57.378906 33.324219 -55.96875 34.496094 -54.09375 C 35.554688 -52.214844 36.023438 -49.75 36.023438 -46.933594 C 35.90625 -43.53125 35.199219 -40.832031 33.792969 -38.722656 C 32.386719 -36.609375 30.507812 -34.847656 28.277344 -33.675781 C 26.046875 -32.386719 23.585938 -31.5625 20.769531 -31.09375 C 17.953125 -30.625 15.253906 -30.390625 12.554688 -30.390625 C 12.671875 -33.441406 12.789062 -36.609375 12.789062 -39.660156 C 12.789062 -42.710938 12.789062 -45.644531 12.789062 -48.460938 C 12.671875 -51.160156 12.554688 -53.621094 12.4375 -55.851562 C 12.203125 -57.964844 11.96875 -59.722656 11.734375 -61.132812 Z M 11.734375 -61.132812 "/></g></g></g><g fill="#000000" fill-opacity="1"><g transform="translate(412.846298, 380.797921)"><g><path d="M 0.703125 -1.878906 L 14.082031 -0.46875 C 14.550781 -1.878906 15.019531 -3.519531 15.605469 -5.398438 C 16.542969 -8.449219 17.71875 -12.671875 19.242188 -17.953125 L 41.417969 -16.074219 L 44.585938 -1.878906 C 45.761719 -1.878906 47.050781 -1.878906 48.34375 -1.996094 C 49.398438 -1.996094 50.570312 -2.113281 51.980469 -2.230469 C 53.386719 -2.347656 54.679688 -2.464844 56.085938 -2.699219 C 54.210938 -9.972656 52.214844 -17.25 49.867188 -24.757812 C 48.8125 -27.925781 47.636719 -31.210938 46.347656 -34.730469 C 45.058594 -38.25 43.648438 -41.773438 42.242188 -45.410156 C 40.714844 -49.046875 39.074219 -52.683594 37.429688 -56.320312 C 35.671875 -59.839844 33.792969 -63.363281 31.914062 -66.648438 C 31.679688 -66.648438 31.5625 -66.648438 31.328125 -66.765625 L 29.921875 -66.765625 C 29.335938 -66.765625 28.746094 -66.648438 28.160156 -66.648438 C 27.457031 -66.53125 26.871094 -66.414062 26.285156 -66.175781 C 24.40625 -59.839844 22.175781 -53.035156 19.59375 -45.996094 C 17.367188 -39.894531 14.667969 -33.089844 11.617188 -25.460938 C 8.449219 -17.71875 4.8125 -9.855469 0.703125 -1.878906 Z M 29.214844 -58.082031 C 30.15625 -55.96875 30.976562 -53.621094 31.914062 -51.042969 C 32.738281 -48.460938 33.558594 -45.644531 34.496094 -42.828125 C 35.316406 -40.011719 36.140625 -37.078125 36.960938 -34.027344 C 37.664062 -30.976562 38.484375 -28.042969 39.191406 -25.109375 L 21.121094 -24.40625 C 22.527344 -29.570312 23.9375 -35.199219 25.34375 -41.066406 C 26.753906 -46.933594 28.042969 -52.566406 29.214844 -58.082031 Z M 29.214844 -58.082031 "/></g></g></g><g fill="#000000" fill-opacity="1"><g transform="translate(481.603916, 380.797921)"><g><path d="M 1.171875 -24.054688 C 5.867188 -23.820312 10.558594 -23.703125 15.019531 -23.46875 C 18.890625 -23.234375 22.878906 -22.996094 27.105469 -22.761719 C 31.210938 -22.527344 34.730469 -22.175781 37.78125 -21.824219 C 37.78125 -22.644531 37.898438 -23.585938 37.898438 -24.523438 L 37.898438 -27.222656 C 37.898438 -28.160156 37.78125 -28.980469 37.664062 -29.921875 C 35.199219 -30.039062 32.738281 -30.15625 30.15625 -30.390625 C 27.808594 -30.390625 25.34375 -30.507812 22.644531 -30.625 C 19.828125 -30.625 17.132812 -30.742188 14.433594 -30.742188 C 11.617188 -30.742188 9.152344 -30.625 6.804688 -30.507812 C 4.457031 -30.390625 2.699219 -30.15625 1.289062 -29.921875 C 0.9375 -27.808594 0.820312 -26.285156 0.9375 -25.460938 C 0.9375 -24.757812 0.9375 -24.289062 1.171875 -24.054688 Z M 1.171875 -24.054688 "/></g></g></g><g fill="#000000" fill-opacity="1"><g transform="translate(532.175098, 380.797921)"><g><path d="M 43.414062 -56.4375 C 42.59375 -59.957031 41.183594 -62.890625 39.308594 -65.121094 C 37.3125 -67.351562 35.082031 -69.109375 32.503906 -70.402344 C 29.921875 -71.574219 27.222656 -72.394531 24.40625 -72.867188 C 21.589844 -73.335938 18.890625 -73.570312 16.308594 -73.570312 C 13.023438 -73.570312 10.207031 -73.335938 8.097656 -72.984375 C 6.804688 -72.75 5.632812 -72.632812 4.695312 -72.394531 C 3.871094 -65.707031 3.285156 -58.667969 2.816406 -51.160156 C 2.347656 -44.585938 2.113281 -37.195312 1.996094 -28.980469 C 1.761719 -20.769531 1.996094 -12.085938 2.464844 -3.167969 L 13.023438 -3.871094 C 12.789062 -5.867188 12.671875 -8.097656 12.671875 -10.441406 C 12.4375 -12.4375 12.320312 -14.785156 12.320312 -17.601562 C 12.203125 -20.300781 12.085938 -23.234375 12.085938 -26.285156 C 12.4375 -26.285156 12.789062 -26.164062 13.140625 -26.164062 C 13.492188 -26.164062 13.84375 -26.164062 14.316406 -26.164062 C 19.476562 -26.164062 24.171875 -26.988281 28.160156 -28.863281 C 32.148438 -30.625 35.316406 -32.972656 37.898438 -35.789062 C 40.480469 -38.605469 42.242188 -41.890625 43.179688 -45.527344 C 44.117188 -49.164062 44.117188 -52.800781 43.414062 -56.4375 Z M 34.027344 -49.867188 C 33.441406 -44.46875 31.445312 -40.480469 28.160156 -37.78125 C 24.757812 -35.082031 20.066406 -33.792969 14.199219 -33.792969 C 13.726562 -33.792969 13.375 -33.792969 13.023438 -33.792969 C 12.671875 -33.792969 12.320312 -33.910156 11.96875 -33.910156 C 11.96875 -36.84375 11.96875 -39.777344 11.96875 -42.828125 C 11.96875 -45.878906 12.085938 -48.695312 12.203125 -51.511719 C 12.320312 -54.328125 12.554688 -56.90625 12.789062 -59.253906 C 13.023438 -61.601562 13.257812 -63.714844 13.726562 -65.589844 C 14.902344 -65.824219 16.074219 -65.941406 17.25 -65.941406 C 19.359375 -65.941406 21.472656 -65.589844 23.585938 -64.886719 C 25.695312 -64.183594 27.574219 -63.246094 29.214844 -61.953125 C 30.859375 -60.546875 32.148438 -58.902344 33.089844 -56.90625 C 34.027344 -54.914062 34.261719 -52.566406 34.027344 -49.867188 Z M 34.027344 -49.867188 "/></g></g></g><g fill="#000000" fill-opacity="1"><g transform="translate(589.199535, 380.797921)"><g><path d="M 0.703125 -1.878906 L 14.082031 -0.46875 C 14.550781 -1.878906 15.019531 -3.519531 15.605469 -5.398438 C 16.542969 -8.449219 17.71875 -12.671875 19.242188 -17.953125 L 41.417969 -16.074219 L 44.585938 -1.878906 C 45.761719 -1.878906 47.050781 -1.878906 48.34375 -1.996094 C 49.398438 -1.996094 50.570312 -2.113281 51.980469 -2.230469 C 53.386719 -2.347656 54.679688 -2.464844 56.085938 -2.699219 C 54.210938 -9.972656 52.214844 -17.25 49.867188 -24.757812 C 48.8125 -27.925781 47.636719 -31.210938 46.347656 -34.730469 C 45.058594 -38.25 43.648438 -41.773438 42.242188 -45.410156 C 40.714844 -49.046875 39.074219 -52.683594 37.429688 -56.320312 C 35.671875 -59.839844 33.792969 -63.363281 31.914062 -66.648438 C 31.679688 -66.648438 31.5625 -66.648438 31.328125 -66.765625 L 29.921875 -66.765625 C 29.335938 -66.765625 28.746094 -66.648438 28.160156 -66.648438 C 27.457031 -66.53125 26.871094 -66.414062 26.285156 -66.175781 C 24.40625 -59.839844 22.175781 -53.035156 19.59375 -45.996094 C 17.367188 -39.894531 14.667969 -33.089844 11.617188 -25.460938 C 8.449219 -17.71875 4.8125 -9.855469 0.703125 -1.878906 Z M 29.214844 -58.082031 C 30.15625 -55.96875 30.976562 -53.621094 31.914062 -51.042969 C 32.738281 -48.460938 33.558594 -45.644531 34.496094 -42.828125 C 35.316406 -40.011719 36.140625 -37.078125 36.960938 -34.027344 C 37.664062 -30.976562 38.484375 -28.042969 39.191406 -25.109375 L 21.121094 -24.40625 C 22.527344 -29.570312 23.9375 -35.199219 25.34375 -41.066406 C 26.753906 -46.933594 28.042969 -52.566406 29.214844 -58.082031 Z M 29.214844 -58.082031 "/></g></g></g><g fill="#000000" fill-opacity="1"><g transform="translate(239.896178, 484.20688)"><g><path d="M 43.414062 -56.4375 C 42.59375 -59.957031 41.183594 -62.890625 39.308594 -65.121094 C 37.3125 -67.351562 35.082031 -69.109375 32.503906 -70.402344 C 29.921875 -71.574219 27.222656 -72.394531 24.40625 -72.867188 C 21.589844 -73.335938 18.890625 -73.570312 16.308594 -73.570312 C 13.023438 -73.570312 10.207031 -73.335938 8.097656 -72.984375 C 6.804688 -72.75 5.632812 -72.632812 4.695312 -72.394531 C 3.871094 -65.707031 3.285156 -58.667969 2.816406 -51.160156 C 2.347656 -44.585938 2.113281 -37.195312 1.996094 -28.980469 C 1.761719 -20.769531 1.996094 -12.085938 2.464844 -3.167969 L 13.023438 -3.871094 C 12.789062 -5.867188 12.671875 -8.097656 12.671875 -10.441406 C 12.4375 -12.4375 12.320312 -14.785156 12.320312 -17.601562 C 12.203125 -20.300781 12.085938 -23.234375 12.085938 -26.285156 C 12.4375 -26.285156 12.789062 -26.164062 13.140625 -26.164062 C 13.492188 -26.164062 13.84375 -26.164062 14.316406 -26.164062 C 19.476562 -26.164062 24.171875 -26.988281 28.160156 -28.863281 C 32.148438 -30.625 35.316406 -32.972656 37.898438 -35.789062 C 40.480469 -38.605469 42.242188 -41.890625 43.179688 -45.527344 C 44.117188 -49.164062 44.117188 -52.800781 43.414062 -56.4375 Z M 34.027344 -49.867188 C 33.441406 -44.46875 31.445312 -40.480469 28.160156 -37.78125 C 24.757812 -35.082031 20.066406 -33.792969 14.199219 -33.792969 C 13.726562 -33.792969 13.375 -33.792969 13.023438 -33.792969 C 12.671875 -33.792969 12.320312 -33.910156 11.96875 -33.910156 C 11.96875 -36.84375 11.96875 -39.777344 11.96875 -42.828125 C 11.96875 -45.878906 12.085938 -48.695312 12.203125 -51.511719 C 12.320312 -54.328125 12.554688 -56.90625 12.789062 -59.253906 C 13.023438 -61.601562 13.257812 -63.714844 13.726562 -65.589844 C 14.902344 -65.824219 16.074219 -65.941406 17.25 -65.941406 C 19.359375 -65.941406 21.472656 -65.589844 23.585938 -64.886719 C 25.695312 -64.183594 27.574219 -63.246094 29.214844 -61.953125 C 30.859375 -60.546875 32.148438 -58.902344 33.089844 -56.90625 C 34.027344 -54.914062 34.261719 -52.566406 34.027344 -49.867188 Z M 34.027344 -49.867188 "/></g></g></g><g fill="#000000" fill-opacity="1"><g transform="translate(296.920619, 484.20688)"><g><path d="M 0.703125 -1.878906 L 14.082031 -0.46875 C 14.550781 -1.878906 15.019531 -3.519531 15.605469 -5.398438 C 16.542969 -8.449219 17.71875 -12.671875 19.242188 -17.953125 L 41.417969 -16.074219 L 44.585938 -1.878906 C 45.761719 -1.878906 47.050781 -1.878906 48.34375 -1.996094 C 49.398438 -1.996094 50.570312 -2.113281 51.980469 -2.230469 C 53.386719 -2.347656 54.679688 -2.464844 56.085938 -2.699219 C 54.210938 -9.972656 52.214844 -17.25 49.867188 -24.757812 C 48.8125 -27.925781 47.636719 -31.210938 46.347656 -34.730469 C 45.058594 -38.25 43.648438 -41.773438 42.242188 -45.410156 C 40.714844 -49.046875 39.074219 -52.683594 37.429688 -56.320312 C 35.671875 -59.839844 33.792969 -63.363281 31.914062 -66.648438 C 31.679688 -66.648438 31.5625 -66.648438 31.328125 -66.765625 L 29.921875 -66.765625 C 29.335938 -66.765625 28.746094 -66.648438 28.160156 -66.648438 C 27.457031 -66.53125 26.871094 -66.414062 26.285156 -66.175781 C 24.40625 -59.839844 22.175781 -53.035156 19.59375 -45.996094 C 17.367188 -39.894531 14.667969 -33.089844 11.617188 -25.460938 C 8.449219 -17.71875 4.8125 -9.855469 0.703125 -1.878906 Z M 29.214844 -58.082031 C 30.15625 -55.96875 30.976562 -53.621094 31.914062 -51.042969 C 32.738281 -48.460938 33.558594 -45.644531 34.496094 -42.828125 C 35.316406 -40.011719 36.140625 -37.078125 36.960938 -34.027344 C 37.664062 -30.976562 38.484375 -28.042969 39.191406 -25.109375 L 21.121094 -24.40625 C 22.527344 -29.570312 23.9375 -35.199219 25.34375 -41.066406 C 26.753906 -46.933594 28.042969 -52.566406 29.214844 -58.082031 Z M 29.214844 -58.082031 "/></g></g></g><g fill="#000000" fill-opacity="1"><g transform="translate(365.678227, 484.20688)"><g><path d="M -0.703125 -1.40625 L 11.148438 -1.40625 C 11.265625 -3.285156 11.382812 -5.398438 11.617188 -7.746094 C 11.734375 -9.738281 11.851562 -12.085938 11.96875 -14.667969 C 11.96875 -17.25 12.085938 -19.945312 12.320312 -22.996094 C 12.90625 -22.996094 13.492188 -22.878906 14.082031 -22.878906 C 14.667969 -22.878906 15.253906 -22.878906 15.957031 -22.878906 C 18.070312 -22.878906 20.417969 -22.996094 22.761719 -23.234375 C 24.171875 -20.652344 25.460938 -18.070312 26.753906 -15.371094 C 28.042969 -12.671875 29.214844 -10.207031 30.390625 -7.980469 C 31.5625 -5.28125 32.738281 -2.699219 33.910156 -0.234375 C 36.726562 -0.46875 39.191406 -0.585938 41.183594 -0.703125 C 43.179688 -0.703125 44.824219 -0.820312 46.113281 -0.820312 L 48.460938 -0.820312 C 48.695312 -0.703125 49.046875 -0.703125 49.28125 -0.703125 C 43.179688 -7.273438 38.484375 -12.671875 35.433594 -16.777344 C 32.265625 -20.886719 30.273438 -23.46875 29.570312 -24.640625 C 31.679688 -25.226562 33.675781 -26.046875 35.554688 -27.105469 C 37.429688 -28.160156 39.191406 -29.570312 40.597656 -31.210938 C 42.007812 -32.855469 43.296875 -34.964844 44.234375 -37.3125 C 45.175781 -39.660156 45.644531 -42.359375 45.878906 -45.527344 C 46.113281 -50.453125 45.410156 -54.445312 43.882812 -57.496094 C 42.242188 -60.546875 40.128906 -63.007812 37.546875 -64.769531 C 34.964844 -66.53125 31.914062 -67.703125 28.628906 -68.40625 C 25.34375 -68.992188 22.058594 -69.34375 18.773438 -69.34375 C 15.488281 -69.34375 12.554688 -69.109375 9.738281 -68.757812 C 6.921875 -68.40625 4.695312 -68.054688 2.933594 -67.703125 C 3.167969 -59.722656 3.285156 -51.863281 3.285156 -44 C 3.167969 -40.597656 3.050781 -37.078125 2.933594 -33.441406 C 2.699219 -29.6875 2.464844 -26.046875 2.230469 -22.292969 C 1.996094 -18.539062 1.523438 -14.902344 1.054688 -11.382812 C 0.585938 -7.863281 0 -4.457031 -0.703125 -1.40625 Z M 11.734375 -61.132812 C 13.492188 -61.367188 15.371094 -61.484375 17.25 -61.484375 C 19.476562 -61.484375 21.707031 -61.25 24.054688 -60.78125 C 26.285156 -60.3125 28.277344 -59.605469 30.15625 -58.550781 C 31.914062 -57.378906 33.324219 -55.96875 34.496094 -54.09375 C 35.554688 -52.214844 36.023438 -49.75 36.023438 -46.933594 C 35.90625 -43.53125 35.199219 -40.832031 33.792969 -38.722656 C 32.386719 -36.609375 30.507812 -34.847656 28.277344 -33.675781 C 26.046875 -32.386719 23.585938 -31.5625 20.769531 -31.09375 C 17.953125 -30.625 15.253906 -30.390625 12.554688 -30.390625 C 12.671875 -33.441406 12.789062 -36.609375 12.789062 -39.660156 C 12.789062 -42.710938 12.789062 -45.644531 12.789062 -48.460938 C 12.671875 -51.160156 12.554688 -53.621094 12.4375 -55.851562 C 12.203125 -57.964844 11.96875 -59.722656 11.734375 -61.132812 Z M 11.734375 -61.132812 "/></g></g></g><g fill="#000000" fill-opacity="1"><g transform="translate(425.049306, 484.20688)"><g><path d="M 3.167969 -3.050781 C 5.632812 -2.582031 8.214844 -2.347656 11.03125 -2.230469 C 13.726562 -1.996094 16.425781 -1.996094 19.242188 -1.996094 C 22.527344 -1.996094 25.578125 -1.996094 28.628906 -2.230469 C 31.679688 -2.347656 34.378906 -2.582031 36.726562 -2.816406 C 39.425781 -2.933594 42.007812 -3.167969 44.46875 -3.519531 L 44.234375 -13.023438 C 40.949219 -12.320312 37.78125 -11.734375 34.496094 -11.265625 C 31.679688 -10.796875 28.628906 -10.324219 25.34375 -9.972656 C 22.058594 -9.503906 19.007812 -9.386719 16.191406 -9.386719 C 15.488281 -9.386719 14.785156 -9.386719 14.082031 -9.386719 C 13.375 -9.386719 12.789062 -9.503906 12.203125 -9.621094 C 11.851562 -17.132812 11.851562 -24.523438 12.203125 -31.914062 C 12.4375 -39.308594 12.789062 -45.996094 13.257812 -52.097656 C 13.726562 -59.136719 14.433594 -65.824219 15.253906 -72.277344 L 3.871094 -72.394531 C 3.167969 -65.238281 2.582031 -57.847656 2.347656 -50.101562 C 2.113281 -43.414062 1.996094 -36.023438 1.996094 -27.808594 C 1.996094 -19.59375 2.347656 -11.265625 3.167969 -3.050781 Z M 3.167969 -3.050781 "/></g></g></g><g fill="#000000" fill-opacity="1"><g transform="translate(482.073743, 484.20688)"><g><path d="M 1.644531 -4.222656 L 4.105469 -4.222656 C 7.507812 -4.222656 11.265625 -3.988281 15.488281 -3.636719 C 19.59375 -3.167969 23.585938 -2.699219 27.339844 -2.230469 C 31.679688 -1.644531 36.023438 -0.9375 40.480469 -0.234375 L 40.128906 -10.558594 L 11.03125 -11.382812 L 12.789062 -35.671875 L 34.964844 -34.027344 L 34.730469 -43.414062 C 33.910156 -43.296875 32.738281 -43.179688 31.09375 -43.0625 C 29.453125 -42.945312 27.691406 -42.828125 25.695312 -42.828125 C 23.703125 -42.710938 21.589844 -42.59375 19.476562 -42.59375 C 17.25 -42.476562 15.136719 -42.359375 13.257812 -42.359375 L 14.902344 -65.003906 L 41.535156 -63.007812 L 41.417969 -72.632812 C 40.597656 -72.515625 39.542969 -72.394531 38.132812 -72.394531 C 36.726562 -72.277344 35.082031 -72.160156 33.324219 -72.160156 C 31.445312 -72.042969 29.570312 -71.925781 27.574219 -71.925781 C 25.578125 -71.925781 23.585938 -71.808594 21.589844 -71.808594 C 16.777344 -71.691406 11.617188 -71.574219 6.21875 -71.574219 C 5.28125 -64.183594 4.457031 -56.671875 3.753906 -48.929688 C 3.402344 -45.644531 3.050781 -42.125 2.816406 -38.484375 C 2.582031 -34.730469 2.347656 -30.976562 2.113281 -27.105469 C 1.878906 -23.234375 1.761719 -19.359375 1.644531 -15.488281 C 1.523438 -11.617188 1.523438 -7.863281 1.644531 -4.222656 Z M 1.644531 -4.222656 "/></g></g></g><g fill="#000000" fill-opacity="1"><g transform="translate(535.812886, 484.20688)"><g><path d="M -0.703125 -1.40625 L 11.148438 -1.40625 C 11.265625 -3.285156 11.382812 -5.398438 11.617188 -7.746094 C 11.734375 -9.738281 11.851562 -12.085938 11.96875 -14.667969 C 11.96875 -17.25 12.085938 -19.945312 12.320312 -22.996094 C 12.90625 -22.996094 13.492188 -22.878906 14.082031 -22.878906 C 14.667969 -22.878906 15.253906 -22.878906 15.957031 -22.878906 C 18.070312 -22.878906 20.417969 -22.996094 22.761719 -23.234375 C 24.171875 -20.652344 25.460938 -18.070312 26.753906 -15.371094 C 28.042969 -12.671875 29.214844 -10.207031 30.390625 -7.980469 C 31.5625 -5.28125 32.738281 -2.699219 33.910156 -0.234375 C 36.726562 -0.46875 39.191406 -0.585938 41.183594 -0.703125 C 43.179688 -0.703125 44.824219 -0.820312 46.113281 -0.820312 L 48.460938 -0.820312 C 48.695312 -0.703125 49.046875 -0.703125 49.28125 -0.703125 C 43.179688 -7.273438 38.484375 -12.671875 35.433594 -16.777344 C 32.265625 -20.886719 30.273438 -23.46875 29.570312 -24.640625 C 31.679688 -25.226562 33.675781 -26.046875 35.554688 -27.105469 C 37.429688 -28.160156 39.191406 -29.570312 40.597656 -31.210938 C 42.007812 -32.855469 43.296875 -34.964844 44.234375 -37.3125 C 45.175781 -39.660156 45.644531 -42.359375 45.878906 -45.527344 C 46.113281 -50.453125 45.410156 -54.445312 43.882812 -57.496094 C 42.242188 -60.546875 40.128906 -63.007812 37.546875 -64.769531 C 34.964844 -66.53125 31.914062 -67.703125 28.628906 -68.40625 C 25.34375 -68.992188 22.058594 -69.34375 18.773438 -69.34375 C 15.488281 -69.34375 12.554688 -69.109375 9.738281 -68.757812 C 6.921875 -68.40625 4.695312 -68.054688 2.933594 -67.703125 C 3.167969 -59.722656 3.285156 -51.863281 3.285156 -44 C 3.167969 -40.597656 3.050781 -37.078125 2.933594 -33.441406 C 2.699219 -29.6875 2.464844 -26.046875 2.230469 -22.292969 C 1.996094 -18.539062 1.523438 -14.902344 1.054688 -11.382812 C 0.585938 -7.863281 0 -4.457031 -0.703125 -1.40625 Z M 11.734375 -61.132812 C 13.492188 -61.367188 15.371094 -61.484375 17.25 -61.484375 C 19.476562 -61.484375 21.707031 -61.25 24.054688 -60.78125 C 26.285156 -60.3125 28.277344 -59.605469 30.15625 -58.550781 C 31.914062 -57.378906 33.324219 -55.96875 34.496094 -54.09375 C 35.554688 -52.214844 36.023438 -49.75 36.023438 -46.933594 C 35.90625 -43.53125 35.199219 -40.832031 33.792969 -38.722656 C 32.386719 -36.609375 30.507812 -34.847656 28.277344 -33.675781 C 26.046875 -32.386719 23.585938 -31.5625 20.769531 -31.09375 C 17.953125 -30.625 15.253906 -30.390625 12.554688 -30.390625 C 12.671875 -33.441406 12.789062 -36.609375 12.789062 -39.660156 C 12.789062 -42.710938 12.789062 -45.644531 12.789062 -48.460938 C 12.671875 -51.160156 12.554688 -53.621094 12.4375 -55.851562 C 12.203125 -57.964844 11.96875 -59.722656 11.734375 -61.132812 Z M 11.734375 -61.132812 "/></g></g></g></svg>