<svg xmlns="http://www.w3.org/2000/svg" xmlns:xlink="http://www.w3.org/1999/xlink" width="940" zoomAndPan="magnify" viewBox="0 0 705 591.000005" height="788" preserveAspectRatio="xMidYMid meet" version="1.0"><defs><clipPath id="9759d5f79d"><path d="M 326.511719 282.007812 L 352.5 282.007812 L 352.5 307.992188 L 326.511719 307.992188 Z M 326.511719 282.007812 " clip-rule="nonzero"/></clipPath><clipPath id="072c189906"><path d="M 339.507812 282.007812 C 332.332031 282.007812 326.511719 287.824219 326.511719 295 C 326.511719 302.175781 332.332031 307.992188 339.507812 307.992188 C 346.683594 307.992188 352.5 302.175781 352.5 295 C 352.5 287.824219 346.683594 282.007812 339.507812 282.007812 " clip-rule="nonzero"/></clipPath><clipPath id="a89935406b"><path d="M 332.785156 288.53125 L 346.273438 288.53125 L 346.273438 301.457031 L 332.785156 301.457031 Z M 332.785156 288.53125 " clip-rule="nonzero"/></clipPath><clipPath id="083b4820e3"><path d="M 559 0 L 704.402344 0 L 704.402344 185 L 559 185 Z M 559 0 " clip-rule="nonzero"/></clipPath><clipPath id="eaad5486b9"><path d="M 849.953125 35.699219 L 736.050781 191.71875 L 499 18.660156 L 612.898438 -137.359375 Z M 849.953125 35.699219 " clip-rule="nonzero"/></clipPath><clipPath id="c92b7cb726"><path d="M 849.953125 35.699219 L 736.050781 191.71875 L 499 18.660156 L 612.898438 -137.359375 Z M 849.953125 35.699219 " clip-rule="nonzero"/></clipPath><clipPath id="5dec638b96"><path d="M 0.59375 458 L 169 458 L 169 590 L 0.59375 590 Z M 0.59375 458 " clip-rule="nonzero"/></clipPath><clipPath id="331f0918ec"><path d="M 206.9375 536.304688 L 150.097656 720.929688 L -130.414062 634.570312 L -73.574219 449.949219 Z M 206.9375 536.304688 " clip-rule="nonzero"/></clipPath><clipPath id="59853f545e"><path d="M 206.9375 536.304688 L 150.097656 720.929688 L -130.414062 634.570312 L -73.574219 449.949219 Z M 206.9375 536.304688 " clip-rule="nonzero"/></clipPath></defs><g clip-path="url(#9759d5f79d)"><g clip-path="url(#072c189906)"><path fill="#ff5757" d="M 326.511719 282.007812 L 352.5 282.007812 L 352.5 307.992188 L 326.511719 307.992188 Z M 326.511719 282.007812 " fill-opacity="1" fill-rule="nonzero"/></g></g><g clip-path="url(#a89935406b)"><path fill="#ffffff" d="M 346.164062 290.058594 C 346.113281 290.039062 346.074219 290 346.035156 289.960938 C 345.992188 289.921875 345.953125 289.875 345.917969 289.832031 C 345.871094 289.769531 345.832031 289.699219 345.777344 289.644531 C 345.726562 289.589844 345.667969 289.527344 345.601562 289.507812 C 345.46875 289.464844 345.445312 289.414062 345.472656 289.28125 C 345.503906 289.140625 345.539062 288.984375 345.507812 288.847656 C 345.453125 288.621094 345.195312 288.527344 344.960938 288.621094 C 344.664062 288.734375 344.375 288.847656 344.109375 289.042969 C 343.234375 289.6875 341.511719 291.195312 339.632812 292.910156 C 338.125 291.332031 336.816406 290.203125 335.847656 289.417969 C 335.6875 289.335938 335.398438 289.253906 335.152344 289.214844 C 334.917969 289.175781 334.71875 289.246094 334.53125 289.347656 C 334.414062 289.414062 334.316406 289.523438 334.300781 289.679688 C 334.300781 289.710938 334.265625 289.738281 334.25 289.765625 C 334.171875 289.875 334.050781 289.898438 333.929688 289.917969 C 333.777344 289.945312 333.703125 290.019531 333.699219 290.183594 C 333.699219 290.257812 333.660156 290.375 333.609375 290.394531 C 333.339844 290.5 333.398438 290.753906 333.332031 290.945312 C 333.328125 290.960938 333.347656 291 333.363281 291.003906 C 333.519531 291.058594 333.453125 291.167969 333.4375 291.269531 C 333.425781 291.335938 333.421875 291.414062 333.449219 291.472656 C 333.519531 291.632812 333.59375 291.78125 333.457031 291.949219 C 333.441406 291.96875 333.457031 292.039062 333.480469 292.070312 C 333.667969 292.324219 333.859375 292.570312 334.050781 292.816406 C 334.070312 292.84375 334.128906 292.871094 334.144531 292.859375 C 335.203125 293.554688 336.203125 294.394531 337.105469 295.265625 C 335.4375 296.847656 333.886719 298.367188 332.941406 299.375 C 332.882812 299.464844 332.839844 299.566406 332.792969 299.667969 C 332.785156 299.683594 332.792969 299.710938 332.796875 299.730469 C 332.808594 299.851562 332.820312 299.96875 332.835938 300.085938 C 332.839844 300.109375 332.855469 300.148438 332.871094 300.152344 C 332.992188 300.179688 332.960938 300.269531 332.957031 300.347656 C 332.949219 300.449219 332.929688 300.550781 332.929688 300.652344 C 332.929688 300.71875 332.933594 300.792969 332.964844 300.84375 C 333.050781 300.996094 333.136719 301.152344 333.25 301.285156 C 333.316406 301.359375 333.445312 301.457031 333.523438 301.441406 C 333.65625 301.410156 333.769531 301.296875 333.910156 301.210938 C 333.972656 301.257812 334.039062 301.238281 334.101562 301.152344 C 334.117188 301.132812 334.15625 301.128906 334.183594 301.117188 C 334.25 301.09375 334.328125 301.078125 334.382812 301.035156 C 334.527344 300.929688 334.648438 300.792969 334.839844 300.761719 C 334.875 300.757812 334.914062 300.722656 334.941406 300.695312 C 335.5 300.113281 337.019531 298.667969 338.785156 297.027344 C 340.503906 298.976562 341.636719 300.703125 341.824219 300.917969 C 341.863281 300.960938 341.957031 300.960938 342.023438 300.984375 C 342.054688 300.992188 342.101562 300.992188 342.113281 301.011719 C 342.253906 301.265625 342.476562 301.253906 342.710938 301.195312 C 342.746094 301.1875 342.804688 301.179688 342.816406 301.199219 C 342.859375 301.257812 342.90625 301.285156 342.960938 301.230469 C 343.011719 301.175781 343.046875 301.109375 343.089844 301.046875 C 343.09375 301.027344 343.128906 301.023438 343.15625 301.035156 C 343.28125 301.09375 343.339844 301.054688 343.402344 300.929688 C 343.464844 300.789062 343.605469 300.734375 343.769531 300.742188 C 343.835938 300.746094 343.921875 300.71875 343.972656 300.671875 C 344.085938 300.574219 344.203125 300.523438 344.351562 300.503906 C 344.421875 300.492188 344.496094 300.4375 344.550781 300.382812 C 344.640625 300.292969 344.722656 300.191406 344.792969 300.085938 C 344.824219 300.046875 344.839844 299.980469 344.832031 299.929688 C 344.824219 299.898438 344.769531 299.867188 344.730469 299.847656 C 344.695312 299.832031 344.648438 299.832031 344.621094 299.828125 C 344.613281 299.742188 344.597656 299.671875 344.597656 299.601562 C 344.601562 299.53125 344.609375 299.457031 344.640625 299.398438 C 344.707031 299.285156 344.769531 299.183594 344.617188 299.089844 C 344.597656 299.078125 344.585938 299.054688 344.574219 299.03125 C 343.441406 297.382812 342.332031 295.957031 341.285156 294.734375 C 343.082031 293.109375 344.8125 291.585938 345.832031 290.785156 C 345.894531 290.730469 345.957031 290.671875 346.015625 290.613281 C 346.042969 290.582031 346.070312 290.546875 346.089844 290.507812 C 346.132812 290.429688 346.164062 290.339844 346.214844 290.265625 C 346.273438 290.1875 346.25 290.097656 346.164062 290.058594 " fill-opacity="1" fill-rule="nonzero"/></g><g clip-path="url(#083b4820e3)"><g clip-path="url(#eaad5486b9)"><g clip-path="url(#c92b7cb726)"><path fill="#ffffff" d="M 739.945312 178.847656 C 740.4375 178.269531 740.886719 177.65625 741.285156 177.011719 C 741.914062 175.800781 742.472656 174.5625 742.964844 173.292969 C 743.503906 171.835938 743.949219 170.347656 744.296875 168.832031 L 744.460938 168.605469 C 744.683594 167.789062 744.859375 166.960938 744.988281 166.125 L 745.085938 165.453125 L 745.179688 164.78125 L 745.3125 163.789062 L 745.207031 161.835938 L 745.265625 161.285156 L 745.40625 161.089844 L 745.574219 159.238281 L 745.613281 158.574219 C 745.699219 158.046875 745.742188 157.519531 745.738281 156.984375 L 745.839844 155.082031 L 745.890625 153.933594 L 745.890625 153.390625 L 746.03125 153.199219 L 746.085938 151.703125 L 746.0625 149.710938 L 746.070312 147.738281 L 745.777344 147.527344 C 745.425781 147.269531 744.78125 147.339844 744.332031 147.210938 L 743.148438 146.941406 L 741.273438 146.460938 L 741.050781 146.296875 C 740.757812 146.085938 740.304688 146.101562 739.945312 145.984375 L 738.414062 145.511719 L 736.851562 145.011719 L 736.5625 144.800781 C 735.960938 144.722656 735.378906 144.574219 734.808594 144.363281 L 732.019531 143.3125 L 730.960938 142.9375 L 729.929688 142.527344 C 729.855469 142.46875 729.78125 142.414062 729.703125 142.363281 L 729.089844 141.917969 L 728.445312 141.445312 L 727.347656 140.992188 C 726.511719 140.378906 725.414062 140.121094 724.429688 139.648438 C 723.441406 139.175781 722.574219 138.738281 721.675781 138.28125 L 721.09375 137.859375 L 720.835938 137.667969 C 720.578125 137.480469 720.355469 137.316406 720.097656 137.128906 C 719.839844 136.941406 718.9375 136.28125 718.191406 136.085938 L 717.355469 135.472656 L 715.484375 134.453125 C 714.648438 133.84375 713.644531 133.457031 712.738281 132.941406 L 712.480469 132.753906 L 711.511719 132.046875 C 706.972656 129.476562 702.375 126.710938 697.714844 123.902344 L 695.253906 122.402344 C 694.375 121.761719 693.457031 121.191406 692.503906 120.691406 L 691.214844 119.75 C 690.089844 118.929688 688.992188 118.128906 687.855469 117.59375 L 687.144531 117.078125 C 686.242188 116.417969 685.34375 115.757812 684.441406 115.101562 L 683.023438 114.066406 C 682.058594 113.363281 681.089844 112.65625 680.15625 111.972656 L 678.644531 110.871094 L 675.875 108.847656 C 674.972656 108.1875 674.070312 107.53125 673.203125 106.894531 L 660.382812 97.539062 C 659.546875 96.929688 658.742188 96.339844 657.9375 95.753906 L 656.90625 95 C 655.972656 94.316406 655.039062 93.636719 654.136719 92.976562 C 654.414062 93.4375 654.660156 93.914062 654.871094 94.40625 L 655.273438 95.140625 C 655.546875 95.777344 655.851562 96.394531 656.1875 96.996094 L 657.316406 99.105469 L 658.410156 101.1875 C 659.210938 102.664062 660.074219 104.183594 660.898438 105.625 L 661.136719 106.042969 L 661.992188 107.507812 L 662.921875 109.078125 L 663.144531 109.242188 L 663.457031 109.765625 L 664.261719 111.09375 L 665.417969 113.023438 C 665.496094 113.195312 665.597656 113.351562 665.71875 113.492188 L 665.945312 113.65625 L 666.296875 114.257812 L 667.238281 115.738281 L 668.183594 117.21875 C 668.828125 118.230469 669.492188 119.210938 670.160156 120.191406 L 670.382812 120.355469 L 670.578125 120.496094 L 671.023438 121.171875 C 671.660156 122.128906 672.292969 123.085938 672.949219 124.007812 L 674.960938 130.320312 C 675.136719 130.585938 675.328125 130.839844 675.535156 131.085938 L 675.890625 131.34375 L 676.96875 132.773438 L 678.015625 134.179688 C 678.820312 135.3125 679.671875 136.375 680.53125 137.5 L 681.097656 138.207031 C 681.777344 139.101562 682.460938 139.996094 683.195312 140.878906 L 684.890625 142.953125 L 686.527344 145.039062 C 687.042969 145.414062 687.359375 145.992188 687.78125 146.5 L 688.105469 146.734375 L 688.875 147.640625 L 689.453125 148.066406 L 690.8125 149.652344 L 691.582031 150.558594 L 692.035156 150.886719 C 693.28125 152.289062 694.46875 153.703125 695.738281 155.074219 L 696.46875 155.902344 C 697.027344 156.558594 697.609375 157.179688 698.191406 157.804688 C 698.773438 158.425781 700.105469 159.84375 700.941406 160.800781 C 701.773438 161.753906 703.113281 163.027344 704.195312 164.117188 C 704.742188 164.515625 705.117188 165.085938 705.617188 165.546875 C 706.117188 166.011719 706.457031 166.160156 706.90625 166.488281 L 707.679688 167.054688 L 708.257812 167.476562 C 708.679688 167.78125 709.097656 168.089844 709.515625 168.394531 L 710.964844 169.453125 L 712.414062 170.507812 L 712.898438 170.863281 C 713.089844 171.003906 713.25 171.121094 713.410156 171.238281 L 714.605469 172.109375 C 715.117188 172.484375 715.632812 172.859375 716.117188 173.214844 L 716.375 173.402344 C 716.523438 173.535156 716.683594 173.652344 716.859375 173.753906 L 718.757812 175.140625 C 718.960938 175.3125 719.175781 175.46875 719.402344 175.609375 L 719.980469 176.035156 L 720.5625 176.457031 L 721.011719 176.785156 C 721.207031 176.929688 721.398438 177.070312 721.558594 177.1875 L 722.785156 178.078125 L 724.007812 178.972656 C 724.851562 179.433594 725.714844 179.851562 726.597656 180.222656 C 727.703125 180.703125 728.835938 181.089844 730.003906 181.375 C 730.5625 181.488281 731.125 181.597656 731.675781 181.65625 C 732.304688 181.765625 732.9375 181.800781 733.574219 181.757812 C 734.019531 181.746094 734.460938 181.707031 734.898438 181.636719 C 735.277344 181.601562 735.644531 181.527344 736.003906 181.40625 L 736.121094 181.789062 L 737.3125 181.371094 C 737.667969 181.152344 738 180.898438 738.308594 180.617188 L 739.136719 179.886719 Z M 773.359375 64.035156 L 771.902344 59.265625 L 771.578125 58.289062 L 771.324219 58.101562 L 770.761719 56.503906 L 770.207031 54.964844 L 769.347656 52.558594 L 769.15625 52.074219 L 768.6875 50.890625 L 768.308594 49.921875 L 768.152344 49.460938 C 767.894531 48.730469 767.605469 47.976562 767.292969 47.253906 L 766.101562 44.359375 L 764.949219 41.539062 C 764.578125 40.628906 764.152344 39.722656 763.726562 38.820312 L 763.242188 37.726562 L 760.238281 31.429688 L 759.1875 29.28125 C 759.015625 28.90625 758.851562 28.589844 758.65625 28.25 L 758.445312 27.796875 L 756.980469 25 L 755.382812 22.054688 L 755.21875 21.933594 L 754.953125 21.492188 C 754.316406 20.335938 753.6875 19.234375 753.003906 18.140625 L 751.753906 15.996094 L 750.527344 13.960938 L 748.816406 11.230469 L 748.230469 9.667969 L 747.472656 8.472656 L 747.3125 8.355469 L 745.882812 6.125 L 744.207031 3.617188 C 743.074219 1.851562 741.855469 0.0742188 740.765625 -1.613281 L 739.238281 -3.914062 C 738.011719 -5.75 736.910156 -7.492188 735.5 -9.410156 L 734.085938 -11.53125 C 732.792969 -13.414062 731.476562 -15.261719 730.164062 -17.113281 L 729.472656 -18.0625 L 729.152344 -18.296875 C 727.59375 -20.421875 726.015625 -22.660156 724.402344 -24.777344 L 722.699219 -27.109375 L 720.9375 -29.429688 C 720.46875 -30.070312 719.972656 -30.679688 719.480469 -31.285156 L 719.191406 -31.496094 L 718.371094 -32.539062 L 717.480469 -33.683594 L 717.191406 -33.898438 C 716.65625 -34.585938 716.085938 -35.292969 715.527344 -35.949219 C 714.394531 -37.371094 713.234375 -38.761719 712.101562 -40.179688 C 710.335938 -42.359375 708.523438 -44.472656 706.859375 -46.527344 L 705.984375 -47.5625 C 704.683594 -49.15625 703.332031 -50.6875 701.96875 -52.273438 L 701.488281 -52.625 L 699.988281 -54.359375 C 698.144531 -56.496094 696.273438 -58.605469 694.375 -60.734375 C 692.472656 -62.863281 690.746094 -65.703125 688.789062 -67.824219 C 688.914062 -67.386719 688.984375 -66.941406 689.109375 -66.304688 C 689.136719 -66.089844 689.09375 -65.894531 688.976562 -65.710938 L 688.855469 -65.550781 L 689.507812 -64.480469 L 690.167969 -63.359375 C 690.582031 -62.710938 690.976562 -62.027344 691.335938 -61.371094 C 691.695312 -60.714844 691.652344 -60.792969 691.839844 -60.507812 L 692.066406 -60.34375 L 693.519531 -57.601562 L 694.941406 -54.882812 L 696.03125 -52.65625 L 696.253906 -52.492188 L 696.730469 -51.453125 L 697.28125 -50.308594 L 698.089844 -48.582031 L 698.382812 -48.367188 L 698.773438 -47.488281 L 700.292969 -44.15625 L 701.039062 -42.476562 L 701.253906 -42.023438 L 701.476562 -41.859375 C 701.832031 -41.058594 702.207031 -40.289062 702.535156 -39.453125 L 704.066406 -35.867188 L 705 -33.703125 C 705.898438 -31.617188 706.808594 -29.417969 707.601562 -27.257812 L 708.550781 -24.835938 L 709.546875 -22.277344 L 709.714844 -21.761719 L 710.078125 -19.222656 L 711.449219 -15.554688 L 712.226562 -13.304688 L 712.59375 -12.25 L 713.289062 -10.160156 L 714.488281 -6.664062 L 715.234375 -4.441406 L 715.585938 -3.09375 L 716.484375 -0.265625 L 717.402344 2.53125 C 718.039062 4.429688 718.644531 6.304688 719.230469 8.210938 L 719.652344 9.457031 L 720.332031 11.636719 L 721.007812 13.957031 L 721.3125 14.824219 L 721.90625 16.984375 L 723.0625 20.746094 L 723.578125 22.605469 L 723.746094 23.121094 L 723.898438 23.726562 L 725.632812 29.9375 L 727.597656 37.050781 L 728.179688 39.160156 L 730.164062 46.585938 L 730.609375 48.34375 L 732.699219 56.640625 L 732.882812 57.46875 C 734.195312 62.773438 735.535156 68.445312 737.222656 75.804688 L 738.980469 83.808594 L 739.097656 84.390625 L 739.226562 85.027344 L 739.457031 86.132812 L 739.558594 86.601562 L 739.945312 88.367188 L 740.527344 91.359375 L 741.105469 94.351562 C 741.707031 97.3125 742.292969 100.164062 742.773438 103.230469 L 742.859375 103.785156 C 743.296875 106.230469 743.6875 108.738281 744.097656 111.214844 L 744.445312 113.246094 L 744.898438 116.542969 L 745.269531 119.285156 L 745.730469 122.4375 L 746.035156 125.132812 L 746.195312 126.335938 L 746.320312 127.511719 L 746.179688 127.707031 C 746.292969 128.632812 746.402344 129.5 746.460938 130.433594 L 746.992188 136.058594 L 747.214844 139.136719 L 747.320312 140.546875 L 747.351562 141.65625 L 747.363281 142.113281 L 747.46875 145.351562 L 748.714844 145.46875 L 749.207031 145.535156 C 750.34375 145.640625 751.484375 145.683594 752.625 145.65625 C 755.207031 145.597656 757.75 145.246094 760.253906 144.605469 L 762.34375 143.90625 C 763.253906 143.511719 764.132812 143.070312 764.992188 142.578125 C 765.6875 142.132812 766.355469 141.648438 766.992188 141.121094 C 767.636719 140.621094 768.238281 140.070312 768.792969 139.472656 C 769.441406 138.679688 770.046875 137.851562 770.601562 136.988281 C 771.332031 135.988281 772.085938 134.957031 772.449219 133.988281 C 773.242188 132.492188 773.976562 130.949219 774.679688 129.242188 L 775.9375 127.246094 C 776.167969 126.523438 776.386719 125.890625 776.535156 125.210938 L 777.03125 123.25 L 777.699219 121.316406 L 777.953125 119.820312 L 778.117188 118.851562 L 778.273438 118.027344 L 778.421875 117.148438 L 778.632812 116.859375 L 778.808594 115.402344 L 778.980469 113.949219 L 779.117188 112.8125 L 778.863281 112.28125 L 779.03125 112.058594 L 779.117188 110.246094 L 779.210938 109.175781 L 779.308594 107.417969 L 779.324219 106.984375 L 779.371094 101.582031 L 779.128906 97.652344 L 779.179688 95.761719 L 779.105469 94.570312 L 778.777344 91.167969 L 778.746094 90.601562 L 778.757812 89.574219 L 778.234375 87.113281 L 778.082031 85.964844 C 777.949219 84.929688 777.785156 83.871094 777.597656 82.84375 L 777.023438 79.707031 L 776.894531 79.070312 L 776.664062 77.765625 L 776.179688 75.386719 L 776.003906 74.613281 L 775.671875 73.039062 L 775.304688 71.582031 L 775.09375 70.789062 L 774.992188 70.320312 L 774.632812 68.917969 L 773.269531 64.019531 Z M 685.855469 -70.363281 L 685.140625 -71.820312 L 684.851562 -72.035156 L 684.402344 -72.363281 L 683.949219 -72.691406 C 684.132812 -72.578125 684.304688 -72.453125 684.464844 -72.316406 L 685.359375 -70.972656 Z M 656.871094 -96.460938 C 655.082031 -97.402344 653.246094 -98.25 651.367188 -98.996094 C 649.371094 -99.789062 647.328125 -100.4375 645.242188 -100.949219 C 643.34375 -101.394531 641.429688 -101.722656 639.492188 -101.9375 C 637.46875 -102.15625 635.4375 -102.238281 633.402344 -102.179688 L 631.304688 -102.082031 C 630.628906 -102.03125 629.894531 -101.976562 629.226562 -101.871094 L 627.160156 -101.746094 L 625.128906 -101.402344 L 624.351562 -101.277344 L 623.992188 -101.195312 L 621.675781 -100.660156 L 621.535156 -100.464844 C 621.253906 -100.433594 620.976562 -100.371094 620.707031 -100.28125 L 619.207031 -99.84375 L 616.933594 -99.230469 L 612.707031 -97.769531 L 612.277344 -97.589844 L 611.445312 -97.257812 L 610.878906 -97.027344 L 609.753906 -96.566406 L 608.320312 -96.226562 L 608.132812 -95.96875 L 607.386719 -95.625 L 607.246094 -95.429688 L 607.050781 -94.488281 L 607.335938 -92.648438 L 608.21875 -86.417969 C 608.785156 -82.597656 609.378906 -78.605469 610.039062 -74.710938 C 610.703125 -70.820312 611.214844 -68.273438 611.816406 -65.3125 C 612.421875 -62.351562 612.679688 -60.878906 613.167969 -58.640625 L 613.671875 -56.152344 C 614.796875 -50.929688 615.996094 -45.410156 617.527344 -38.511719 L 617.882812 -36.964844 C 618.511719 -34.382812 619.054688 -31.8125 619.695312 -29.171875 C 620.332031 -26.53125 621.09375 -22.910156 621.734375 -19.726562 L 622.761719 -14.03125 L 623.511719 -10.324219 L 624.367188 -6.289062 L 624.605469 -5.128906 C 624.882812 -3.886719 625.128906 -2.667969 625.351562 -1.417969 C 626.25 2.894531 627.070312 7.25 627.917969 11.769531 L 628.949219 17.121094 C 630.171875 23.695312 631.59375 30.265625 632.683594 35.265625 L 632.917969 36.226562 C 633.167969 37.445312 633.4375 38.628906 633.738281 39.839844 L 634.015625 41.078125 C 634.253906 42.242188 634.546875 43.394531 634.808594 44.523438 L 635.15625 46.011719 C 635.449219 47.164062 635.710938 48.296875 636.058594 49.441406 L 636.746094 52.015625 L 637.457031 54.5625 L 638.074219 56.691406 L 638.40625 57.921875 L 638.847656 59.28125 C 639.121094 60.324219 639.476562 61.324219 639.777344 62.335938 L 640.242188 63.660156 C 640.679688 65.019531 641.121094 66.378906 641.617188 67.726562 L 643.070312 71.753906 L 643.558594 73.050781 C 643.914062 74.050781 644.300781 75.074219 644.710938 76.066406 L 646.824219 81.21875 L 648.117188 84.183594 L 648.738281 85.628906 L 650.316406 89.152344 L 650.574219 89.339844 L 652.667969 90.867188 L 655.144531 92.675781 C 655.347656 92.851562 655.5625 93.007812 655.789062 93.148438 L 656.371094 93.570312 L 657.753906 94.582031 L 659.171875 95.617188 C 660.265625 96.414062 661.359375 97.214844 662.390625 97.96875 L 663.230469 98.578125 C 664.097656 99.214844 664.9375 99.824219 665.804688 100.460938 C 668.640625 102.527344 671.503906 104.621094 674.371094 106.714844 C 677.238281 108.804688 679.136719 110.191406 681.039062 111.578125 L 683.164062 113.132812 L 685.289062 114.683594 C 686.289062 115.410156 687.285156 116.140625 688.285156 116.871094 L 689.605469 117.832031 C 690.441406 118.445312 691.246094 119.03125 692.050781 119.621094 L 693.113281 120.394531 C 694.242188 121.21875 695.367188 122.042969 696.5 122.519531 L 697.789062 123.460938 L 705.296875 128.054688 L 706.746094 129.113281 C 707.742188 129.839844 708.710938 130.546875 709.886719 130.960938 C 711.066406 131.375 711.746094 132.070312 712.683594 132.609375 L 713.359375 133.101562 C 713.746094 133.382812 714.167969 133.6875 714.671875 133.808594 L 718.414062 135.851562 L 721.207031 137.296875 L 723.59375 138.496094 L 723.914062 138.730469 C 724.097656 138.886719 724.289062 139.027344 724.492188 139.152344 C 726.027344 139.828125 727.503906 140.507812 729.035156 141.183594 C 729.710938 141.675781 730.589844 141.824219 731.375 142.101562 L 732.226562 142.425781 L 732.707031 142.777344 C 733.527344 143.078125 734.34375 143.378906 735.183594 143.648438 C 736.023438 143.914062 736.84375 144.214844 737.683594 144.484375 L 738.070312 144.765625 C 738.359375 144.976562 738.648438 145.1875 739.0625 145.09375 L 741.738281 144.476562 L 743.015625 144.820312 L 744.386719 145.175781 L 744.953125 145.34375 L 745.898438 145.539062 L 746.015625 145.378906 L 745.972656 144.554688 L 745.855469 141.40625 L 745.765625 140.105469 L 745.726562 139.484375 L 745.632812 138.328125 L 745.570312 136.996094 L 745.199219 135.539062 L 745.136719 134.949219 L 744.949219 132.640625 L 744.808594 131.546875 L 744.496094 128.257812 L 744.425781 127.808594 L 743.890625 122.726562 L 743.734375 121.722656 L 743.679688 121.1875 L 743.328125 117.816406 L 743.164062 116.757812 L 742.835938 114.097656 L 742.324219 111.007812 L 741.824219 107.972656 C 741.425781 105.410156 740.941406 102.832031 740.476562 100.21875 L 740.160156 98.554688 C 739.765625 96.191406 739.289062 93.867188 738.835938 91.511719 L 738.359375 89.1875 C 737.925781 86.941406 737.433594 84.707031 736.96875 82.4375 L 736.371094 79.875 C 735.933594 77.632812 735.390625 75.40625 734.875 73.203125 L 734.308594 70.664062 C 733.003906 65.015625 731.621094 59.261719 730.246094 53.710938 L 730.144531 53.242188 L 729.859375 52.144531 L 728.066406 45.203125 L 727.496094 43.007812 L 725.429688 35.421875 L 724.996094 33.917969 L 723.453125 27.851562 L 723.167969 26.753906 L 721.832031 21.824219 L 720.09375 15.613281 L 719.167969 12.417969 L 718.28125 9.644531 L 717.867188 8.453125 L 716.914062 5.433594 L 716.207031 3.289062 C 714.296875 -2.75 712.21875 -8.765625 710.203125 -14.585938 C 710.132812 -14.816406 710.050781 -15.042969 709.953125 -15.261719 L 709.695312 -15.449219 L 709.109375 -17.015625 L 708.554688 -18.554688 L 707.980469 -20.0625 L 707.433594 -21.546875 L 707.09375 -21.894531 L 706.765625 -22.730469 L 705.707031 -25.132812 L 704.765625 -27.5 L 704.289062 -28.738281 C 703.9375 -29.539062 703.640625 -30.347656 703.308594 -31.183594 L 701.859375 -35.007812 L 701.183594 -36.585938 L 701.003906 -37.015625 L 699.855469 -39.632812 L 698.550781 -42.515625 L 697.222656 -45.359375 C 696.777344 -46.375 696.277344 -47.382812 695.78125 -48.390625 L 693.257812 -53.589844 C 693.144531 -53.867188 693.007812 -54.132812 692.847656 -54.382812 L 692.527344 -54.621094 L 690.777344 -57.972656 L 690.066406 -59.429688 L 689.46875 -60.507812 C 689.351562 -60.757812 689.210938 -60.992188 689.046875 -61.210938 L 688.691406 -61.472656 L 687.300781 -63.824219 L 685.90625 -66.175781 L 683.324219 -70.480469 L 682.695312 -71.582031 C 681.988281 -72.640625 681.191406 -73.714844 680.535156 -74.640625 L 679.707031 -75.738281 L 679.050781 -76.664062 L 678.359375 -77.613281 L 678.003906 -77.871094 L 677.8125 -78.011719 L 676.582031 -79.503906 L 675.527344 -80.765625 L 674.445312 -82.054688 C 674.023438 -82.359375 673.714844 -82.882812 673.335938 -83.308594 L 673.011719 -83.542969 C 672.113281 -84.542969 671.105469 -85.527344 670.023438 -86.613281 C 668.070312 -88.433594 666.019531 -90.128906 663.863281 -91.703125 C 661.621094 -93.339844 659.277344 -94.820312 656.835938 -96.140625 Z M 646.195312 85.054688 L 645.6875 83.992188 L 644.078125 80.25 L 643.625 79.175781 L 643.445312 78.75 L 642.390625 76.199219 L 640.488281 71.300781 L 639.90625 70.136719 L 639.722656 69.507812 L 638.847656 67.191406 L 638.59375 66.460938 L 637.523438 63.257812 L 637.140625 62.089844 L 636.011719 58.296875 L 635.816406 58.15625 L 635.550781 57.371094 C 635.210938 56.28125 634.925781 55.183594 634.617188 54.121094 L 634.285156 52.886719 C 634 51.789062 633.65625 50.699219 633.40625 49.628906 L 632.160156 44.566406 C 631.96875 43.683594 631.742188 42.777344 631.570312 41.863281 L 631.410156 41.203125 L 631.007812 39.523438 L 630.328125 36.460938 L 630 34.886719 C 628.527344 28.175781 627.332031 23.054688 626.398438 17.433594 L 625.808594 14.183594 L 624.652344 7.113281 C 624.121094 4.253906 623.460938 1.304688 622.835938 -2.167969 L 621.710938 -7.386719 L 620.957031 -10.953125 L 620.015625 -15.542969 L 619.0625 -20.191406 C 617.722656 -26.605469 616.234375 -32.882812 614.851562 -38.089844 C 613.320312 -44.445312 612.011719 -50.296875 610.832031 -55.847656 L 610.621094 -57.042969 C 609.539062 -62.328125 608.292969 -68.328125 607.375 -74.238281 L 605.953125 -83.378906 L 605.769531 -84.550781 C 605.34375 -87.28125 604.902344 -90.125 604.441406 -92.738281 L 604.351562 -93.292969 L 604.265625 -93.851562 L 604.054688 -93.5625 L 603.429688 -93.179688 L 602.792969 -92.851562 L 601.773438 -92.261719 L 600.394531 -92.132812 L 598.390625 -90.875 L 597.402344 -90.265625 L 595.417969 -88.898438 L 595.203125 -88.605469 L 594.507812 -88.128906 L 594.34375 -87.902344 C 593.992188 -87.417969 593.285156 -87.191406 592.777344 -86.769531 L 590.832031 -85.324219 L 589.585938 -84.359375 L 589.183594 -83.808594 L 588.902344 -83.421875 L 587 -81.898438 L 584.984375 -80.15625 L 584.867188 -79.992188 L 584.238281 -79.464844 L 582.589844 -77.953125 L 580.222656 -75.726562 L 579.964844 -75.371094 L 578.300781 -73.570312 L 578.019531 -73.183594 C 577.761719 -72.828125 577.480469 -72.441406 577.195312 -72.054688 L 576.207031 -70.699219 L 575.242188 -69.378906 L 571.289062 -63.964844 L 570.726562 -63.191406 C 569.855469 -61.996094 569.253906 -60.703125 568.53125 -59.304688 L 567.472656 -57.113281 L 567.167969 -56.695312 L 566.789062 -56.179688 L 566.320312 -55.535156 L 565.992188 -55.082031 L 565.730469 -54.726562 L 565.074219 -53.082031 L 564.796875 -52.296875 L 564.5625 -51.976562 L 564.292969 -51.132812 L 563.886719 -49.898438 L 563.695312 -49.097656 L 563.558594 -48.507812 L 563.308594 -47.554688 L 563.171875 -46.960938 L 563.007812 -45.992188 L 562.820312 -44.992188 L 562.550781 -43.609375 L 562.433594 -43.449219 L 562.363281 -42.808594 L 562.3125 -42.203125 L 562.21875 -41.332031 L 562.117188 -40.515625 L 561.976562 -40.320312 L 561.890625 -39.050781 L 561.878906 -38.566406 L 561.808594 -37.382812 L 561.789062 -36.75 L 561.808594 -36.097656 L 561.824219 -34.703125 L 562.058594 -31.367188 L 561.941406 -31.207031 L 562.039062 -30.394531 L 562.097656 -30.003906 L 562.195312 -29.390625 L 562.328125 -28.15625 L 562.472656 -27.40625 L 562.59375 -26.828125 L 562.796875 -25.886719 L 562.964844 -24.972656 C 563.007812 -24.695312 563.109375 -24.425781 563.183594 -24.121094 C 563.257812 -23.9375 563.316406 -23.746094 563.359375 -23.550781 L 563.777344 -21.957031 L 564.773438 -18.859375 C 564.996094 -18.152344 565.246094 -17.476562 565.523438 -16.777344 L 565.863281 -15.890625 C 566.109375 -15.214844 566.351562 -14.59375 566.644531 -13.984375 L 566.84375 -13.445312 L 568.066406 -10.722656 C 568.386719 -9.945312 568.761719 -9.175781 569.109375 -8.433594 L 570.199219 -5.460938 L 571.238281 -3.367188 L 571.6875 -2.496094 C 572.035156 -1.894531 572.363281 -1.261719 572.691406 -0.628906 L 573.652344 0.964844 L 574.394531 2.246094 L 574.746094 2.847656 C 575.355469 3.839844 575.996094 4.851562 576.632812 5.808594 L 577.007812 6.378906 L 577.972656 7.824219 C 578.285156 8.347656 578.640625 8.804688 578.972656 9.296875 L 579.558594 10.117188 C 580.257812 11.121094 580.980469 12.09375 581.699219 13.066406 L 582.324219 13.769531 C 583.152344 14.867188 583.976562 15.964844 584.863281 17.054688 C 588.488281 21.824219 592.453125 26.945312 596.710938 32.128906 C 600.972656 37.316406 605.0625 42.128906 608.640625 46.222656 L 609.304688 47.003906 L 609.59375 47.214844 C 611.261719 49.125 612.925781 51.035156 614.652344 52.933594 C 616.898438 55.464844 619.179688 58.019531 621.453125 60.519531 L 624.25 63.453125 L 625.449219 64.71875 L 627.863281 67.226562 L 628.089844 67.390625 L 629.488281 68.855469 C 630.035156 69.253906 630.582031 69.65625 630.972656 70.335938 L 631.488281 70.710938 L 633.65625 72.886719 C 634.503906 73.753906 635.375 74.585938 636.214844 75.398438 L 637.691406 76.824219 L 640.628906 79.558594 L 641.4375 80.148438 L 643.734375 82.273438 L 644.703125 82.976562 L 644.925781 83.140625 C 645.042969 84.066406 645.628906 84.542969 646.195312 85.054688 Z M 664.59375 -96.558594 C 664.535156 -96.589844 664.480469 -96.628906 664.433594 -96.675781 L 664.144531 -96.886719 C 663.691406 -97.214844 663.242188 -97.542969 662.757812 -97.898438 C 662.273438 -98.25 662.050781 -98.414062 661.664062 -98.695312 L 660.664062 -99.425781 C 659.410156 -100.34375 658.152344 -101.257812 657.089844 -102.035156 C 654.675781 -103.796875 651.957031 -105.484375 649.230469 -107.230469 C 646.503906 -108.972656 643.804688 -110.546875 641.296875 -111.984375 L 640.011719 -112.921875 C 637.839844 -114.210938 635.644531 -115.464844 633.484375 -116.699219 C 633 -117.050781 632.488281 -117.425781 632.003906 -117.78125 L 631.519531 -118.132812 L 631.003906 -118.507812 C 630.296875 -119.027344 629.480469 -119.328125 628.707031 -119.691406 L 628.320312 -119.972656 L 628.097656 -120.136719 L 627.550781 -120.539062 L 625.898438 -121.25 L 625.640625 -121.4375 C 625.347656 -121.648438 624.941406 -121.699219 624.582031 -121.816406 L 624.195312 -122.097656 C 623.808594 -122.378906 623.28125 -122.46875 622.800781 -122.621094 L 622.382812 -122.925781 C 622.09375 -123.136719 621.652344 -123.210938 621.269531 -123.292969 L 619.835938 -123.699219 L 619.511719 -123.933594 L 618.328125 -124.203125 L 617.769531 -124.316406 C 616.480469 -124.574219 615.179688 -124.683594 613.863281 -124.648438 C 612.988281 -124.605469 612.121094 -124.480469 611.269531 -124.269531 C 610.761719 -124.046875 610.277344 -123.859375 609.855469 -123.621094 C 609.378906 -123.332031 608.933594 -122.996094 608.527344 -122.613281 L 607.421875 -121.097656 L 606.832031 -119.75 L 606.644531 -119.492188 L 606.480469 -119.265625 L 606.191406 -118.191406 L 605.941406 -116.839844 L 605.855469 -116.3125 L 605.820312 -115.792969 L 605.761719 -115.242188 L 605.550781 -114.953125 C 605.492188 -113.859375 605.503906 -112.859375 605.511719 -111.71875 L 605.558594 -111.042969 L 605.105469 -108.457031 L 605.574219 -105.992188 C 605.703125 -104.613281 605.886719 -103.242188 606.097656 -101.902344 L 606.742188 -97.378906 L 607.671875 -97.839844 L 608.042969 -98.011719 L 608.183594 -98.207031 L 609.582031 -98.765625 L 610.390625 -99.066406 L 611.789062 -99.625 L 612.226562 -99.75 L 614.417969 -100.523438 L 616.046875 -101.0625 L 617.144531 -101.347656 L 618.265625 -101.667969 L 619.710938 -102.09375 L 620.597656 -102.089844 L 621.949219 -102.386719 L 622.835938 -102.582031 L 623.496094 -102.742188 L 623.941406 -102.8125 C 624.375 -102.941406 624.816406 -103.03125 625.269531 -103.078125 L 628.191406 -103.5625 C 629.449219 -103.734375 630.796875 -103.886719 632.238281 -103.96875 C 636.519531 -104.214844 640.757812 -103.886719 644.949219 -102.984375 C 649.140625 -102.078125 653.136719 -100.632812 656.933594 -98.640625 C 657.511719 -98.21875 658.179688 -97.980469 658.773438 -97.644531 C 658.632812 -97.722656 658.503906 -97.816406 658.386719 -97.925781 C 658.0625 -98.160156 657.773438 -98.375 657.484375 -98.585938 L 654.585938 -100.699219 C 654.320312 -100.921875 654.039062 -101.125 653.75 -101.3125 L 651.109375 -103.238281 L 648.660156 -105.027344 L 647.695312 -105.730469 C 647.40625 -105.945312 647.148438 -106.132812 646.855469 -106.34375 L 646.46875 -106.625 C 645.859375 -107.070312 645.246094 -107.519531 644.515625 -107.804688 C 643.789062 -108.089844 642.902344 -108.636719 642.125 -109.058594 C 640.433594 -109.9375 638.667969 -110.632812 636.832031 -111.140625 C 636.273438 -111.253906 635.714844 -111.367188 635.160156 -111.421875 C 634.464844 -111.511719 633.765625 -111.542969 633.0625 -111.523438 C 632.90625 -111.558594 632.789062 -111.644531 632.707031 -111.78125 C 632.574219 -111.933594 632.507812 -112.113281 632.511719 -112.320312 L 632.699219 -112.578125 C 632.851562 -112.757812 633.046875 -112.84375 633.285156 -112.839844 C 634.207031 -112.851562 635.128906 -112.804688 636.046875 -112.703125 C 636.859375 -112.558594 637.65625 -112.367188 638.449219 -112.136719 C 640.058594 -111.632812 641.605469 -110.980469 643.089844 -110.179688 L 644.027344 -109.496094 L 644.890625 -109.0625 C 645.085938 -108.921875 645.277344 -108.78125 645.472656 -108.640625 C 645.664062 -108.496094 646.46875 -107.910156 646.953125 -107.558594 L 647.148438 -107.417969 L 648.273438 -106.59375 L 649.59375 -105.628906 L 650.882812 -104.6875 C 651.816406 -104.007812 652.75 -103.324219 653.652344 -102.667969 L 654.648438 -101.9375 C 654.972656 -101.703125 655.292969 -101.46875 655.617188 -101.234375 L 658.484375 -99.140625 C 658.835938 -98.882812 659.160156 -98.648438 659.511719 -98.386719 L 660.996094 -97.308594 L 662.25 -96.390625 C 663.28125 -95.636719 664.136719 -94.714844 665.066406 -93.890625 L 665.582031 -93.515625 C 665.96875 -93.230469 666.355469 -92.949219 666.742188 -92.667969 C 667.125 -92.386719 667.804688 -91.890625 668.320312 -91.515625 C 669.832031 -90.410156 671.328125 -88.875 672.855469 -87.316406 C 673.722656 -86.679688 674.347656 -85.777344 675.070312 -85.007812 C 675.789062 -84.234375 675.925781 -84.082031 676.316406 -83.601562 L 676.894531 -83.179688 L 677.3125 -82.875 C 677.894531 -82.449219 678.363281 -81.808594 678.882812 -81.234375 L 679.332031 -80.90625 C 680.148438 -80.0625 680.964844 -79.21875 681.757812 -78.34375 C 681.46875 -78.554688 681.261719 -78.953125 681.019531 -79.226562 L 679.988281 -79.4375 C 678.902344 -80.722656 677.785156 -82.035156 676.679688 -83.289062 L 675.210938 -85 L 674.792969 -85.304688 C 673.359375 -86.996094 671.863281 -88.730469 670.320312 -90.402344 C 669.558594 -91.253906 668.742188 -92.097656 667.925781 -92.9375 L 667.636719 -93.148438 C 666.917969 -93.921875 666.195312 -94.695312 665.453125 -95.433594 L 665.292969 -95.554688 L 665.097656 -95.695312 C 664.929688 -95.800781 664.769531 -95.917969 664.617188 -96.046875 Z M 604.808594 -122.859375 L 605.113281 -123.277344 C 605.621094 -123.871094 606.195312 -124.390625 606.839844 -124.832031 C 607.527344 -125.292969 608.261719 -125.664062 609.035156 -125.949219 C 610.082031 -126.300781 611.152344 -126.507812 612.253906 -126.566406 C 613.152344 -126.597656 614.054688 -126.566406 614.949219 -126.472656 C 615.71875 -126.414062 616.476562 -126.304688 617.226562 -126.144531 L 617.550781 -125.910156 L 618.527344 -125.691406 C 618.808594 -125.644531 619.085938 -125.574219 619.359375 -125.480469 L 620.015625 -125.296875 C 620.453125 -125.1875 620.882812 -125.054688 621.304688 -124.898438 L 621.90625 -124.707031 C 622.386719 -124.355469 622.960938 -124.332031 623.476562 -124.152344 L 623.992188 -123.777344 L 625.425781 -123.175781 L 626.21875 -122.84375 C 626.605469 -122.558594 626.992188 -122.277344 627.542969 -122.222656 L 628.5625 -121.722656 L 629.582031 -121.226562 C 629.90625 -120.992188 630.226562 -120.757812 630.550781 -120.523438 L 630.808594 -120.332031 L 631.417969 -119.886719 C 632.480469 -119.109375 633.789062 -118.601562 634.921875 -117.921875 L 635.628906 -117.40625 C 636.984375 -116.417969 638.546875 -115.722656 639.960938 -114.886719 L 641.054688 -114.085938 L 643.441406 -112.691406 C 646.917969 -111.835938 649.386719 -110.28125 651.925781 -108.621094 C 654.46875 -106.964844 656.949219 -104.953125 659.398438 -103.167969 L 661.234375 -101.828125 C 661.8125 -101.402344 662.359375 -101.003906 662.941406 -100.582031 L 663.617188 -100.085938 C 664.003906 -99.804688 664.390625 -99.523438 664.808594 -99.21875 C 665.226562 -98.910156 666.160156 -98.230469 666.671875 -97.511719 C 667.183594 -96.792969 668.667969 -95.511719 669.726562 -94.390625 C 670.710938 -93.375 671.652344 -92.292969 672.613281 -91.246094 C 673.578125 -90.199219 675.074219 -88.460938 676.265625 -87.050781 C 676.894531 -86.292969 677.550781 -85.566406 678.183594 -84.808594 L 679.058594 -83.773438 C 680.753906 -81.917969 682.351562 -79.980469 683.84375 -77.957031 C 684.710938 -76.832031 685.492188 -75.648438 686.195312 -74.414062 C 686.898438 -73.234375 687.496094 -72.003906 687.996094 -70.726562 C 688.382812 -70.445312 688.703125 -70.210938 688.871094 -69.691406 C 690.898438 -67.46875 692.9375 -65.191406 694.945312 -62.933594 L 695.511719 -62.222656 L 697.949219 -59.40625 L 698.847656 -58.40625 C 699.617188 -57.5 700.410156 -56.625 701.179688 -55.714844 L 703.265625 -53.300781 L 707.039062 -48.867188 L 707.882812 -47.859375 L 713.121094 -41.511719 L 714.933594 -39.398438 L 716.703125 -37.21875 C 717.332031 -36.460938 717.910156 -35.695312 718.484375 -34.925781 L 719.335938 -33.863281 L 720.1875 -32.796875 L 720.445312 -32.609375 L 722.019531 -30.570312 C 723.136719 -29.0625 724.28125 -27.582031 725.398438 -26.074219 L 725.839844 -25.257812 L 726.195312 -25 C 726.742188 -24.601562 727.054688 -23.878906 727.460938 -23.285156 L 731.164062 -18.210938 L 734.957031 -12.722656 L 735.375 -12.417969 L 736.617188 -10.671875 C 737.859375 -8.921875 739.015625 -7.191406 740.199219 -5.4375 L 740.683594 -5.082031 L 742.089844 -3.019531 C 743.242188 -1.285156 744.460938 0.492188 745.59375 2.257812 L 747.3125 5.242188 C 747.898438 6.066406 748.402344 6.929688 748.964844 7.78125 L 749.691406 8.953125 L 750.445312 10.148438 L 750.703125 10.335938 C 751.222656 11.113281 751.6875 11.894531 752.175781 12.648438 L 752.371094 12.789062 L 752.53125 12.90625 L 753.523438 14.519531 L 755.339844 17.578125 L 755.566406 17.742188 C 756.1875 18.785156 756.804688 19.832031 757.402344 20.910156 L 758.039062 22.066406 C 758.511719 22.90625 758.960938 23.777344 759.402344 24.59375 L 759.59375 24.734375 L 760.214844 25.976562 L 761.074219 27.644531 C 761.363281 27.855469 761.441406 28.355469 761.613281 28.730469 L 761.867188 29.261719 L 764.179688 34.007812 L 764.605469 34.914062 L 764.796875 35.054688 L 765.027344 35.617188 C 765.503906 36.65625 766.003906 37.664062 766.445312 38.679688 C 766.890625 39.695312 767.242188 40.496094 767.644531 41.433594 L 767.984375 42.320312 L 768.476562 43.472656 L 769.621094 46.234375 L 771.179688 50.386719 L 771.714844 51.816406 C 772.144531 52.921875 772.515625 54.03125 772.914062 55.113281 L 772.898438 57.027344 L 773.054688 57.488281 L 773.328125 58.332031 L 773.777344 59.746094 L 774.167969 61.167969 L 774.585938 62.558594 L 774.851562 63.347656 L 775.25 64.824219 L 775.351562 65.292969 L 775.527344 65.867188 L 775.6875 66.527344 L 776.566406 69.785156 L 776.648438 70.144531 L 777.238281 72.453125 L 777.5 73.78125 L 777.652344 74.386719 L 777.8125 74.503906 L 777.886719 74.804688 C 778.167969 76.046875 778.421875 77.320312 778.644531 78.570312 L 778.832031 79.597656 L 779.226562 81.761719 L 779.425781 82.84375 L 780.292969 88.417969 L 780.382812 89.375 L 780.410156 89.742188 C 780.503906 90.898438 780.601562 92.054688 780.75 93.199219 L 780.585938 93.425781 L 780.660156 94.273438 L 780.6875 95.179688 L 780.785156 97.277344 L 780.855469 99.75 L 780.886719 101.058594 L 780.878906 101.546875 L 780.929688 103.90625 C 780.9375 105.050781 780.941406 106.191406 780.859375 107.316406 L 780.824219 108.179688 L 780.691406 110.457031 L 780.683594 110.941406 L 780.5625 112.1875 L 780.625 114.0625 L 780.5 114.910156 L 780.445312 115.660156 L 780.359375 116.390625 L 780.242188 116.550781 L 780.191406 116.957031 L 779.742188 119.398438 L 779.492188 120.894531 L 779.347656 121.085938 L 779.222656 121.734375 L 779.046875 122.988281 L 778.058594 126.914062 C 776.828125 131.082031 775.007812 134.976562 772.59375 138.589844 L 772.171875 139.171875 C 771.074219 140.640625 769.824219 141.96875 768.421875 143.15625 C 766.757812 144.511719 764.925781 145.578125 762.925781 146.355469 C 761.175781 146.988281 759.382812 147.441406 757.542969 147.714844 C 755.46875 148.023438 753.386719 148.152344 751.289062 148.09375 C 750.117188 148.074219 748.925781 147.949219 747.914062 147.851562 L 747.914062 150.417969 L 747.925781 150.875 L 747.9375 151.871094 L 747.855469 153.339844 L 747.800781 154.835938 L 747.785156 155.464844 L 747.726562 157.101562 L 747.398438 158.496094 L 747.296875 159.308594 L 747.242188 160.0625 L 747.082031 161.96875 L 746.914062 163.082031 L 746.757812 164.105469 L 746.429688 166.382812 L 746.265625 167.550781 L 746.03125 167.875 L 745.875 169.242188 C 745.59375 170.492188 745.253906 171.726562 744.851562 172.941406 C 744.25 174.804688 743.472656 176.59375 742.515625 178.304688 L 741.433594 179.785156 C 740.648438 180.898438 739.703125 181.855469 738.597656 182.65625 C 737.203125 183.5625 735.675781 184.097656 734.019531 184.257812 C 733.121094 184.371094 732.21875 184.386719 731.316406 184.308594 C 730.273438 184.210938 729.242188 184.019531 728.230469 183.738281 C 726.25 183.1875 724.363281 182.417969 722.5625 181.425781 C 722.5625 181.425781 722.273438 181.214844 722.109375 181.097656 L 721.917969 180.957031 L 720.726562 180.085938 L 720.402344 179.851562 C 719.921875 179.5 719.40625 179.121094 718.773438 178.90625 L 718.578125 178.765625 C 718.03125 178.414062 717.503906 178.03125 717 177.613281 L 715.808594 176.746094 L 714.941406 176.109375 C 714.789062 176.023438 714.648438 175.921875 714.523438 175.804688 L 712.460938 174.300781 C 712.105469 174.039062 711.785156 173.804688 711.429688 173.546875 L 708.730469 171.972656 L 708.40625 171.734375 C 708.085938 171.5 707.796875 171.289062 707.472656 171.054688 L 705.027344 169.265625 L 704.511719 168.890625 C 704.09375 168.585938 703.707031 168.304688 703.320312 168.019531 L 701.726562 166.414062 L 701.40625 166.179688 L 701.050781 165.921875 L 698.570312 163.367188 L 697.679688 162.421875 L 695.457031 160.058594 C 694.316406 158.78125 693.121094 157.511719 691.949219 156.210938 C 690.773438 154.910156 690.417969 154.453125 689.625 153.578125 L 688.621094 152.449219 C 687.957031 151.667969 687.328125 150.910156 686.671875 150.183594 L 686.035156 148.285156 L 683.378906 145.160156 L 682.601562 144.199219 C 681.894531 143.335938 681.167969 142.507812 680.519531 141.640625 L 677.179688 136.878906 C 677 136.691406 676.835938 136.488281 676.6875 136.273438 L 676.394531 136.0625 L 674.269531 133.226562 C 673.476562 132.148438 672.703125 131.042969 671.78125 129.875 L 670.96875 128.6875 C 670.367188 127.886719 669.78125 127.066406 669.214844 126.222656 C 668.132812 124.59375 667.050781 122.960938 665.945312 121.367188 C 665.320312 120.464844 664.75 119.554688 664.171875 118.589844 L 663.421875 117.449219 C 662.707031 116.332031 662.046875 115.210938 661.355469 114.0625 L 660.515625 112.707031 C 659.945312 111.796875 659.410156 110.910156 658.894531 109.992188 L 657.476562 107.472656 L 656 104.964844 C 655.453125 104.019531 654.933594 103.046875 654.410156 102.070312 L 653.917969 101.121094 L 653.332031 100.097656 L 652.769531 99.046875 L 652.277344 98.09375 L 651.992188 97.539062 L 651.277344 96.082031 L 650.535156 94.597656 L 650.339844 94.457031 C 650.167969 94.085938 649.941406 93.71875 649.769531 93.347656 L 648.605469 90.816406 L 644.546875 87.3125 L 642.152344 85.117188 L 640.894531 84.203125 L 637.957031 81.464844 C 636.765625 80.59375 635.796875 79.488281 634.722656 78.457031 C 633.648438 77.425781 633.203125 76.953125 632.4375 76.246094 L 631.984375 75.917969 C 631.597656 75.636719 631.246094 75.375 630.976562 74.933594 L 628.542969 72.515625 L 627.15625 71.105469 L 625.117188 69.027344 L 624.667969 68.695312 L 623.851562 67.855469 C 622.832031 66.8125 621.871094 65.765625 620.851562 64.726562 C 616.679688 60.296875 612.601562 55.738281 608.132812 50.5 C 604.535156 46.4375 600.648438 41.820312 595.835938 36.035156 C 594.046875 33.890625 592.304688 31.679688 590.640625 29.625 L 590 28.8125 C 588.195312 26.554688 586.433594 24.230469 584.652344 21.941406 L 584.167969 21.589844 C 582.511719 19.390625 580.617188 16.917969 578.773438 14.4375 C 577.757812 13.054688 576.800781 11.664062 575.820312 10.304688 L 574.925781 8.960938 L 574.441406 8.605469 L 573.515625 7.238281 L 573.257812 7.050781 L 573.03125 6.886719 C 572.242188 5.667969 571.445312 4.394531 570.800781 3.179688 L 570.488281 2.660156 C 570.222656 2.214844 569.984375 1.796875 569.738281 1.320312 L 568.929688 -0.210938 L 568.335938 -1.285156 C 568.042969 -1.5 567.96875 -2 567.792969 -2.375 L 567.582031 -2.824219 L 567.261719 -3.402344 C 567.011719 -3.871094 566.785156 -4.347656 566.582031 -4.839844 L 565.984375 -6.117188 L 565.417969 -7.367188 C 565.125 -7.980469 564.886719 -8.597656 564.621094 -9.1875 L 564.300781 -9.964844 C 564.011719 -10.175781 563.957031 -10.710938 563.808594 -11.113281 L 563.207031 -12.789062 L 562.808594 -13.871094 L 562.246094 -15.464844 L 561.878906 -16.722656 L 561.773438 -17.046875 L 561.664062 -17.375 L 561.398438 -18.160156 L 561.148438 -19.234375 C 560.871094 -20.277344 560.5625 -21.339844 560.339844 -22.390625 L 560.054688 -23.6875 L 559.824219 -24.996094 C 559.773438 -25.121094 559.753906 -25.25 559.761719 -25.382812 L 559.625 -26.277344 L 559.539062 -27.175781 C 559.421875 -27.757812 559.367188 -28.292969 559.304688 -28.882812 L 559.132812 -31.625 C 559.097656 -31.824219 559.097656 -32.023438 559.125 -32.222656 L 559.121094 -32.621094 L 559.101562 -34.21875 L 559.070312 -35.328125 L 559.089844 -35.957031 L 559.230469 -36.152344 L 559.257812 -37.070312 L 559.359375 -38.625 L 559.382812 -39.203125 L 559.546875 -39.425781 L 559.632812 -40.355469 L 559.773438 -41.289062 C 559.820312 -41.898438 559.933594 -42.457031 560.035156 -43.074219 L 560.132812 -43.742188 C 560.261719 -44.390625 560.355469 -45.0625 560.515625 -45.6875 L 561.136719 -48.296875 L 561.347656 -48.589844 L 561.582031 -48.910156 L 561.652344 -51.234375 L 561.839844 -51.492188 L 562.085938 -52.300781 L 562.582031 -53.863281 L 562.914062 -54.316406 L 563.078125 -54.539062 L 563.472656 -55.488281 L 563.773438 -56.304688 L 564.03125 -56.660156 L 564.269531 -56.984375 L 564.503906 -57.304688 L 564.738281 -57.628906 L 565.335938 -58.921875 L 565.96875 -60.191406 L 566.273438 -60.609375 L 566.414062 -60.800781 L 566.839844 -61.382812 L 567.285156 -61.996094 L 567.566406 -62.382812 L 568.484375 -63.640625 L 569.402344 -64.894531 L 570.25 -66.054688 L 573.261719 -70.183594 L 574.273438 -71.570312 L 574.746094 -72.214844 C 575.097656 -72.695312 575.453125 -73.179688 575.78125 -73.632812 L 575.902344 -75.421875 L 576.796875 -76.644531 L 577.125 -77.097656 L 577.738281 -77.933594 L 578.785156 -78.898438 L 580.136719 -80.136719 L 583.175781 -82.070312 L 584.058594 -82.808594 L 586.570312 -84.828125 L 587.773438 -85.730469 L 588.902344 -86.535156 L 589.589844 -87.070312 L 591.542969 -88.460938 L 592.289062 -89.007812 L 592.429688 -89.199219 L 592.6875 -89.554688 L 595.238281 -90.953125 L 596.171875 -91.558594 L 596.480469 -91.976562 L 597.683594 -92.679688 L 598.878906 -93.4375 L 600.058594 -94.105469 L 600.613281 -94.394531 L 603.0625 -95.71875 L 603.203125 -95.914062 L 603.320312 -96.074219 L 603.050781 -97.800781 L 602.476562 -101.878906 C 602.015625 -104.855469 601.734375 -107.847656 601.621094 -110.855469 C 601.636719 -112.429688 601.742188 -113.996094 601.945312 -115.558594 C 602.054688 -116.320312 602.191406 -117.109375 602.378906 -117.910156 L 602.667969 -118.984375 L 602.859375 -119.242188 L 603.242188 -120.246094 C 603.6875 -121.164062 604.253906 -122.003906 604.9375 -122.765625 Z M 604.808594 -122.859375 " fill-opacity="1" fill-rule="nonzero"/></g></g></g><g clip-path="url(#5dec638b96)"><g clip-path="url(#331f0918ec)"><g clip-path="url(#59853f545e)"><path fill="#ffffff" d="M 149.585938 707.492188 C 149.863281 706.78125 150.085938 706.058594 150.253906 705.316406 C 150.453125 703.96875 150.578125 702.617188 150.628906 701.253906 C 150.660156 699.699219 150.597656 698.148438 150.433594 696.601562 L 150.515625 696.335938 C 150.457031 695.488281 150.355469 694.652344 150.207031 693.816406 L 150.078125 693.152344 L 149.949219 692.484375 L 149.75 691.503906 L 149.015625 689.691406 L 148.886719 689.152344 L 148.957031 688.921875 L 148.515625 687.117188 L 148.335938 686.476562 C 148.246094 685.949219 148.109375 685.4375 147.933594 684.933594 L 147.414062 683.101562 L 147.085938 682 L 146.910156 681.484375 L 146.980469 681.257812 L 146.542969 679.828125 L 145.871094 677.949219 L 145.234375 676.085938 L 144.890625 675.976562 C 144.472656 675.847656 143.886719 676.128906 143.421875 676.152344 L 142.210938 676.28125 L 140.285156 676.441406 L 140.019531 676.359375 C 139.675781 676.253906 139.25 676.414062 138.871094 676.421875 L 137.273438 676.472656 L 135.632812 676.511719 L 135.289062 676.40625 C 134.695312 676.527344 134.097656 676.578125 133.488281 676.5625 L 130.511719 676.480469 L 129.386719 676.46875 L 128.277344 676.417969 C 128.191406 676.386719 128.101562 676.359375 128.011719 676.335938 L 127.285156 676.113281 L 126.523438 675.878906 L 125.335938 675.804688 C 124.347656 675.5 123.226562 675.613281 122.140625 675.488281 C 121.050781 675.363281 120.089844 675.234375 119.089844 675.09375 L 118.402344 674.882812 L 118.097656 674.789062 C 117.792969 674.695312 117.527344 674.613281 117.222656 674.519531 C 116.917969 674.425781 115.851562 674.09375 115.082031 674.152344 L 114.09375 673.847656 L 111.988281 673.492188 C 111 673.1875 109.925781 673.148438 108.898438 672.957031 L 108.59375 672.863281 L 107.453125 672.511719 C 102.320312 671.558594 97.074219 670.445312 91.75 669.308594 L 88.9375 668.691406 C 87.894531 668.371094 86.84375 668.128906 85.78125 667.96875 L 84.253906 667.5 C 82.921875 667.089844 81.625 666.691406 80.375 666.554688 L 79.535156 666.296875 C 78.46875 665.96875 77.402344 665.640625 76.335938 665.3125 L 74.65625 664.796875 C 73.515625 664.445312 72.371094 664.09375 71.265625 663.753906 L 69.476562 663.203125 L 66.199219 662.191406 C 65.128906 661.863281 64.0625 661.535156 63.035156 661.21875 L 47.867188 656.550781 C 46.878906 656.246094 45.925781 655.949219 44.972656 655.65625 L 43.753906 655.28125 C 42.648438 654.941406 41.542969 654.601562 40.476562 654.273438 C 40.886719 654.617188 41.273438 654.988281 41.636719 655.382812 L 42.253906 655.949219 C 42.71875 656.457031 43.210938 656.945312 43.726562 657.402344 L 45.476562 659.027344 L 47.191406 660.640625 C 48.429688 661.773438 49.742188 662.929688 50.988281 664.023438 L 51.351562 664.34375 L 52.636719 665.449219 L 54.027344 666.628906 L 54.292969 666.710938 L 54.757812 667.105469 L 55.953125 668.101562 L 57.675781 669.550781 C 57.804688 669.683594 57.949219 669.796875 58.113281 669.890625 L 58.378906 669.972656 L 58.90625 670.429688 L 60.28125 671.519531 L 61.65625 672.613281 C 62.59375 673.359375 63.542969 674.070312 64.492188 674.78125 L 64.757812 674.863281 L 64.988281 674.933594 L 65.628906 675.421875 C 66.539062 676.121094 67.453125 676.820312 68.375 677.480469 L 72.332031 682.789062 C 72.585938 682.984375 72.851562 683.164062 73.125 683.324219 L 73.542969 683.453125 L 75.03125 684.457031 L 76.476562 685.445312 C 77.605469 686.25 78.757812 686.980469 79.9375 687.761719 L 80.703125 688.25 C 81.640625 688.871094 82.574219 689.492188 83.558594 690.085938 L 85.835938 691.5 L 88.066406 692.9375 C 88.675781 693.125 89.164062 693.566406 89.726562 693.90625 L 90.109375 694.023438 L 91.128906 694.632812 L 91.816406 694.84375 L 93.617188 695.898438 L 94.640625 696.507812 L 95.175781 696.671875 C 96.8125 697.589844 98.398438 698.539062 100.042969 699.421875 L 101.003906 699.96875 C 101.742188 700.40625 102.496094 700.804688 103.25 701.203125 C 104.003906 701.601562 105.726562 702.507812 106.828125 703.136719 C 107.925781 703.769531 109.609375 704.539062 110.984375 705.210938 C 111.632812 705.410156 112.171875 705.828125 112.796875 706.105469 C 113.421875 706.378906 113.789062 706.410156 114.320312 706.574219 L 115.234375 706.855469 L 115.921875 707.066406 C 116.417969 707.21875 116.914062 707.371094 117.40625 707.523438 L 120.835938 708.578125 L 121.410156 708.753906 C 121.636719 708.824219 121.828125 708.882812 122.019531 708.945312 L 123.429688 709.378906 C 124.039062 709.566406 124.648438 709.753906 125.21875 709.929688 L 125.523438 710.023438 C 125.710938 710.101562 125.898438 710.160156 126.097656 710.199219 L 128.34375 710.890625 C 128.59375 710.988281 128.847656 711.066406 129.105469 711.125 L 130.480469 711.546875 L 131.011719 711.710938 C 131.242188 711.78125 131.46875 711.851562 131.660156 711.910156 L 133.109375 712.355469 L 134.554688 712.804688 C 135.503906 712.964844 136.457031 713.074219 137.414062 713.140625 C 138.613281 713.234375 139.8125 713.230469 141.007812 713.121094 C 141.574219 713.042969 142.140625 712.964844 142.679688 712.839844 C 143.3125 712.738281 143.921875 712.566406 144.511719 712.316406 C 144.925781 712.160156 145.328125 711.980469 145.722656 711.773438 C 146.066406 711.617188 146.390625 711.421875 146.691406 711.195312 L 146.925781 711.515625 L 147.917969 710.734375 C 148.179688 710.410156 148.414062 710.066406 148.613281 709.695312 L 149.160156 708.738281 Z M 143.757812 588.058594 L 140.828125 584.023438 L 140.203125 583.203125 L 139.898438 583.109375 L 138.84375 581.785156 L 137.820312 580.507812 L 136.222656 578.515625 L 135.886719 578.117188 L 135.058594 577.152344 L 134.382812 576.359375 L 134.082031 575.976562 C 133.601562 575.367188 133.085938 574.75 132.554688 574.167969 L 130.484375 571.820312 L 128.476562 569.53125 C 127.828125 568.789062 127.128906 568.074219 126.433594 567.355469 L 125.617188 566.480469 L 120.722656 561.507812 L 119.03125 559.816406 C 118.75 559.519531 118.492188 559.273438 118.195312 559.015625 L 117.847656 558.65625 L 115.550781 556.488281 L 113.078125 554.226562 L 112.886719 554.167969 L 112.488281 553.835938 C 111.511719 552.949219 110.558594 552.113281 109.554688 551.304688 L 107.675781 549.679688 L 105.851562 548.160156 L 103.34375 546.132812 L 102.28125 544.847656 L 101.175781 543.964844 L 100.984375 543.90625 L 98.90625 542.261719 L 96.503906 540.4375 C 94.859375 539.136719 93.128906 537.851562 91.550781 536.613281 L 89.355469 534.9375 C 87.59375 533.601562 85.988281 532.3125 84.027344 530.957031 L 82 529.414062 C 80.164062 528.058594 78.320312 526.738281 76.472656 525.417969 L 75.511719 524.746094 L 75.128906 524.628906 C 72.964844 523.125 70.746094 521.523438 68.53125 520.046875 L 66.160156 518.398438 L 63.738281 516.777344 C 63.085938 516.324219 62.417969 515.910156 61.753906 515.5 L 61.410156 515.394531 L 60.296875 514.675781 L 59.082031 513.882812 L 58.738281 513.777344 C 58.007812 513.300781 57.238281 512.8125 56.5 512.378906 C 54.960938 511.402344 53.414062 510.46875 51.878906 509.492188 C 49.5 508.007812 47.097656 506.601562 44.855469 505.203125 L 43.691406 504.507812 C 41.941406 503.425781 40.164062 502.421875 38.363281 501.363281 L 37.789062 501.1875 L 35.808594 500.035156 C 33.367188 498.617188 30.914062 497.234375 28.421875 495.839844 C 25.929688 494.449219 23.371094 492.324219 20.832031 490.957031 C 21.089844 491.328125 21.300781 491.726562 21.628906 492.289062 C 21.726562 492.480469 21.746094 492.683594 21.695312 492.894531 L 21.636719 493.082031 L 22.601562 493.882812 L 23.589844 494.730469 C 24.195312 495.207031 24.785156 495.722656 25.339844 496.230469 C 25.894531 496.734375 25.832031 496.671875 26.101562 496.878906 L 26.367188 496.960938 L 28.636719 499.082031 L 30.863281 501.1875 L 32.621094 502.9375 L 32.886719 503.019531 L 33.675781 503.847656 L 34.566406 504.75 L 35.898438 506.117188 L 36.238281 506.222656 L 36.898438 506.929688 L 39.417969 509.582031 L 40.671875 510.929688 L 41.023438 511.289062 L 41.289062 511.371094 C 41.882812 512.011719 42.492188 512.617188 43.074219 513.296875 L 45.6875 516.191406 L 47.277344 517.933594 C 48.804688 519.613281 50.386719 521.394531 51.839844 523.179688 L 53.523438 525.160156 L 55.300781 527.25 L 55.625 527.683594 L 56.800781 529.96875 L 59.289062 532.988281 L 60.757812 534.859375 L 61.445312 535.742188 L 62.785156 537.488281 L 65.058594 540.402344 L 66.488281 542.261719 L 67.257812 543.417969 L 69.027344 545.800781 L 70.8125 548.144531 C 72.03125 549.730469 73.214844 551.308594 74.386719 552.921875 L 75.195312 553.964844 L 76.546875 555.800781 L 77.941406 557.773438 L 78.515625 558.492188 L 79.78125 560.34375 L 82.097656 563.519531 L 83.191406 565.113281 L 83.519531 565.546875 L 83.859375 566.066406 L 87.523438 571.371094 L 91.699219 577.460938 L 92.9375 579.261719 L 97.234375 585.636719 L 98.226562 587.152344 L 102.90625 594.316406 L 103.351562 595.039062 C 106.320312 599.625 109.433594 604.550781 113.425781 610.960938 L 117.699219 617.953125 L 118 618.464844 L 118.328125 619.023438 L 118.90625 619.996094 L 119.152344 620.40625 L 120.097656 621.949219 L 123.144531 627.230469 C 124.679688 629.832031 126.160156 632.335938 127.613281 635.078125 L 127.875 635.578125 C 129.085938 637.746094 130.273438 639.992188 131.46875 642.195312 L 132.457031 644.003906 L 133.964844 646.972656 L 135.203125 649.445312 L 136.667969 652.273438 L 137.835938 654.722656 L 138.378906 655.808594 L 138.882812 656.882812 L 138.8125 657.109375 C 139.222656 657.945312 139.605469 658.730469 139.964844 659.59375 L 142.300781 664.742188 L 143.515625 667.578125 L 144.074219 668.878906 L 144.464844 669.917969 L 144.625 670.34375 L 145.777344 673.371094 L 146.996094 673.078125 L 147.484375 672.976562 C 148.59375 672.707031 149.683594 672.375 150.753906 671.980469 C 153.175781 671.082031 155.46875 669.921875 157.625 668.496094 L 159.371094 667.15625 C 160.101562 666.488281 160.792969 665.78125 161.445312 665.039062 C 161.957031 664.390625 162.429688 663.714844 162.859375 663.011719 C 163.304688 662.324219 163.695312 661.609375 164.023438 660.863281 C 164.378906 659.902344 164.679688 658.921875 164.925781 657.925781 C 165.289062 656.742188 165.667969 655.523438 165.691406 654.488281 C 165.957031 652.8125 166.144531 651.117188 166.253906 649.273438 L 166.796875 646.976562 C 166.777344 646.21875 166.777344 645.546875 166.695312 644.855469 L 166.523438 642.839844 L 166.527344 640.796875 L 166.28125 639.300781 L 166.117188 638.332031 L 166 637.5 L 165.851562 636.621094 L 165.957031 636.277344 L 165.648438 634.84375 L 165.339844 633.414062 L 165.097656 632.296875 L 164.683594 631.875 L 164.765625 631.609375 L 164.261719 629.867188 L 163.996094 628.824219 L 163.515625 627.132812 L 163.394531 626.71875 L 161.675781 621.59375 L 160.167969 617.957031 L 159.597656 616.152344 L 159.140625 615.050781 L 157.722656 611.941406 L 157.507812 611.417969 L 157.183594 610.441406 L 155.886719 608.285156 L 155.371094 607.25 C 154.90625 606.316406 154.40625 605.367188 153.894531 604.457031 L 152.328125 601.679688 L 152 601.121094 L 151.355469 599.960938 L 150.121094 597.867188 L 149.703125 597.195312 L 148.878906 595.816406 L 148.054688 594.558594 L 147.597656 593.875 L 147.347656 593.464844 L 146.550781 592.257812 L 143.667969 588.070312 Z M 17.226562 489.511719 L 16.078125 488.367188 L 15.738281 488.261719 L 14.667969 487.933594 C 14.878906 487.976562 15.082031 488.042969 15.28125 488.121094 L 16.5625 489.101562 Z M -18.675781 474.285156 C -20.675781 473.976562 -22.6875 473.777344 -24.707031 473.679688 C -26.851562 473.585938 -28.996094 473.636719 -31.136719 473.832031 C -33.074219 474.03125 -34.992188 474.34375 -36.890625 474.773438 C -38.875 475.226562 -40.824219 475.808594 -42.730469 476.527344 L -44.679688 477.304688 C -45.304688 477.570312 -45.976562 477.863281 -46.578125 478.179688 L -48.488281 478.96875 L -50.292969 479.960938 L -50.992188 480.328125 L -51.304688 480.527344 L -53.316406 481.785156 L -53.386719 482.015625 C -53.644531 482.140625 -53.882812 482.289062 -54.109375 482.460938 L -55.386719 483.359375 L -57.339844 484.679688 L -60.859375 487.441406 L -61.203125 487.75 L -61.882812 488.335938 L -62.34375 488.738281 L -63.257812 489.542969 L -64.5 490.328125 L -64.59375 490.632812 L -65.1875 491.203125 L -65.257812 491.429688 L -65.132812 492.386719 L -64.265625 494.035156 L -61.398438 499.632812 C -59.617188 503.0625 -57.757812 506.644531 -55.863281 510.109375 C -53.96875 513.574219 -52.65625 515.816406 -51.121094 518.417969 C -49.585938 521.019531 -48.859375 522.328125 -47.667969 524.28125 L -46.382812 526.472656 C -43.617188 531.042969 -40.679688 535.871094 -36.988281 541.894531 L -36.148438 543.238281 C -34.710938 545.476562 -33.359375 547.730469 -31.894531 550.019531 C -30.429688 552.308594 -28.527344 555.480469 -26.886719 558.285156 L -24.0625 563.328125 L -22.144531 566.59375 L -20.019531 570.128906 L -19.417969 571.148438 C -18.75 572.230469 -18.121094 573.300781 -17.5 574.410156 C -15.246094 578.195312 -13.050781 582.046875 -10.777344 586.042969 L -8.058594 590.765625 C -4.761719 596.582031 -1.273438 602.332031 1.386719 606.703125 L 1.921875 607.535156 C 2.550781 608.605469 3.191406 609.636719 3.871094 610.683594 L 4.539062 611.765625 C 5.144531 612.785156 5.796875 613.78125 6.414062 614.765625 L 7.226562 616.058594 C 7.878906 617.050781 8.492188 618.035156 9.195312 619.003906 L 10.683594 621.214844 L 12.183594 623.390625 L 13.460938 625.203125 L 14.179688 626.257812 L 15.039062 627.398438 C 15.640625 628.292969 16.300781 629.125 16.914062 629.980469 L 17.785156 631.085938 C 18.644531 632.226562 19.5 633.367188 20.410156 634.480469 L 23.097656 637.816406 L 23.980469 638.878906 C 24.640625 639.710938 25.339844 640.550781 26.054688 641.355469 L 29.730469 645.535156 L 31.917969 647.921875 L 32.976562 649.082031 L 35.613281 651.898438 L 35.921875 651.992188 L 38.398438 652.757812 L 41.332031 653.660156 C 41.578125 653.757812 41.832031 653.835938 42.09375 653.894531 L 42.78125 654.105469 L 44.417969 654.609375 L 46.09375 655.125 C 47.390625 655.523438 48.6875 655.925781 49.90625 656.300781 L 50.894531 656.605469 C 51.925781 656.921875 52.917969 657.226562 53.945312 657.542969 C 57.296875 658.574219 60.691406 659.621094 64.082031 660.664062 C 67.472656 661.707031 69.722656 662.398438 71.96875 663.09375 L 77 664.640625 C 78.179688 665.003906 79.363281 665.367188 80.542969 665.730469 L 82.105469 666.210938 C 83.097656 666.519531 84.050781 666.8125 85.003906 667.105469 L 86.261719 667.492188 C 87.59375 667.902344 88.929688 668.3125 90.152344 668.398438 L 91.679688 668.867188 L 100.273438 670.761719 L 101.988281 671.289062 C 103.167969 671.652344 104.3125 672.003906 105.5625 672.011719 C 106.808594 672.023438 107.679688 672.457031 108.742188 672.660156 L 109.542969 672.90625 C 110 673.046875 110.496094 673.199219 111.011719 673.148438 L 115.214844 673.859375 L 118.328125 674.316406 L 120.972656 674.671875 L 121.351562 674.789062 C 121.578125 674.875 121.804688 674.945312 122.039062 675 C 123.707031 675.136719 125.324219 675.300781 126.992188 675.4375 C 127.792969 675.683594 128.671875 675.539062 129.507812 675.542969 L 130.414062 675.574219 L 130.988281 675.75 C 131.859375 675.765625 132.726562 675.785156 133.609375 675.761719 C 134.492188 675.742188 135.363281 675.757812 136.246094 675.738281 L 136.703125 675.878906 C 137.046875 675.984375 137.390625 676.089844 137.75 675.867188 L 140.074219 674.414062 L 141.398438 674.316406 L 142.808594 674.210938 L 143.402344 674.183594 L 144.355469 674.058594 L 144.414062 673.867188 L 144.109375 673.105469 L 142.96875 670.167969 L 142.460938 668.964844 L 142.222656 668.390625 L 141.753906 667.328125 L 141.261719 666.089844 L 140.4375 664.835938 L 140.1875 664.296875 L 139.253906 662.175781 L 138.765625 661.1875 L 137.398438 658.179688 L 137.1875 657.777344 L 135.023438 653.144531 L 134.550781 652.25 L 134.324219 651.761719 L 132.890625 648.691406 L 132.390625 647.742188 L 131.214844 645.332031 L 129.726562 642.578125 L 128.261719 639.875 C 127.050781 637.578125 125.75 635.300781 124.460938 632.980469 L 123.621094 631.511719 C 122.476562 629.40625 121.269531 627.363281 120.074219 625.28125 L 118.867188 623.242188 C 117.722656 621.261719 116.53125 619.304688 115.351562 617.3125 L 113.949219 615.085938 C 112.808594 613.105469 111.566406 611.179688 110.359375 609.265625 L 109 607.046875 C 105.921875 602.132812 102.742188 597.148438 99.632812 592.347656 L 99.382812 591.9375 L 98.753906 590.992188 L 94.796875 585.011719 L 93.542969 583.121094 L 89.121094 576.625 L 88.21875 575.34375 L 84.78125 570.109375 L 84.15625 569.167969 L 81.285156 564.941406 L 77.621094 559.636719 L 75.703125 556.917969 L 73.960938 554.585938 L 73.179688 553.59375 L 71.292969 551.050781 L 69.929688 549.25 C 66.152344 544.164062 62.230469 539.15625 58.425781 534.308594 C 58.285156 534.113281 58.132812 533.925781 57.96875 533.75 L 57.664062 533.65625 L 56.601562 532.371094 L 55.574219 531.09375 L 54.539062 529.855469 L 53.539062 528.628906 L 53.105469 528.414062 L 52.523438 527.730469 L 50.738281 525.804688 L 49.078125 523.875 L 48.222656 522.859375 C 47.628906 522.214844 47.082031 521.546875 46.5 520.867188 L 43.878906 517.722656 L 42.730469 516.449219 L 42.417969 516.101562 L 40.480469 514 L 38.308594 511.703125 L 36.125 509.445312 C 35.375 508.628906 34.574219 507.839844 33.773438 507.050781 L 29.695312 502.957031 C 29.5 502.730469 29.285156 502.527344 29.050781 502.339844 L 28.667969 502.222656 L 25.921875 499.625 L 24.773438 498.476562 L 23.859375 497.652344 C 23.667969 497.457031 23.457031 497.28125 23.230469 497.125 L 22.808594 496.996094 L 18.644531 493.457031 L 14.796875 490.226562 L 13.84375 489.390625 C 12.832031 488.617188 11.730469 487.863281 10.804688 487.203125 L 9.664062 486.433594 L 8.742188 485.773438 L 7.78125 485.101562 L 7.363281 484.972656 L 7.132812 484.902344 L 5.484375 483.894531 L 4.078125 483.042969 L 2.632812 482.179688 C 2.136719 482.027344 1.671875 481.632812 1.175781 481.355469 L 0.792969 481.238281 C -0.382812 480.585938 -1.65625 479.984375 -3.035156 479.308594 C -5.472656 478.226562 -7.964844 477.289062 -10.515625 476.503906 C -13.167969 475.6875 -15.867188 475.050781 -18.605469 474.597656 Z M 30.386719 649.371094 L 29.558594 648.53125 L 26.816406 645.515625 L 26.039062 644.652344 L 25.730469 644.304688 L 23.902344 642.238281 L 20.507812 638.230469 L 19.578125 637.316406 L 19.199219 636.78125 L 17.617188 634.875 L 17.136719 634.269531 L 15.082031 631.589844 L 14.34375 630.609375 L 12.035156 627.394531 L 11.808594 627.324219 L 11.300781 626.667969 C 10.625 625.75 9.996094 624.804688 9.359375 623.898438 L 8.640625 622.839844 C 8.015625 621.898438 7.335938 620.976562 6.746094 620.046875 L 3.921875 615.667969 C 3.453125 614.894531 2.941406 614.113281 2.480469 613.304688 L 2.117188 612.730469 L 1.1875 611.277344 L -0.449219 608.601562 L -1.277344 607.21875 C -4.855469 601.355469 -7.65625 596.902344 -10.367188 591.890625 L -11.984375 589.011719 L -15.382812 582.707031 C -16.816406 580.175781 -18.398438 577.601562 -20.121094 574.523438 L -22.886719 569.953125 L -24.761719 566.828125 L -27.152344 562.796875 L -29.566406 558.710938 C -32.921875 553.085938 -36.375 547.636719 -39.378906 543.164062 C -42.898438 537.652344 -46.042969 532.550781 -48.964844 527.683594 L -49.558594 526.625 C -52.300781 521.980469 -55.433594 516.714844 -58.230469 511.425781 L -62.554688 503.246094 L -63.105469 502.199219 C -64.398438 499.753906 -65.742188 497.210938 -67.03125 494.894531 L -67.296875 494.394531 L -67.558594 493.894531 L -67.664062 494.238281 L -68.132812 494.804688 L -68.625 495.320312 L -69.398438 496.210938 L -70.660156 496.785156 L -72.144531 498.625 L -72.878906 499.523438 L -74.3125 501.464844 L -74.417969 501.808594 L -74.917969 502.488281 L -75 502.753906 C -75.175781 503.328125 -75.773438 503.769531 -76.113281 504.332031 L -77.480469 506.335938 L -78.34375 507.65625 L -78.546875 508.304688 L -78.6875 508.761719 L -79.988281 510.824219 L -81.324219 513.128906 L -81.382812 513.320312 L -81.808594 514.023438 L -82.871094 515.992188 L -84.382812 518.867188 L -84.511719 519.289062 L -85.496094 521.53125 L -85.636719 521.988281 C -85.765625 522.410156 -85.90625 522.867188 -86.046875 523.324219 L -86.542969 524.925781 L -87.023438 526.492188 L -88.996094 532.898438 L -89.277344 533.816406 C -89.710938 535.226562 -89.855469 536.644531 -90.085938 538.203125 L -90.371094 540.617188 L -90.523438 541.113281 L -90.710938 541.726562 L -90.945312 542.488281 L -91.109375 543.023438 L -91.238281 543.441406 L -91.324219 545.210938 L -91.332031 546.042969 L -91.449219 546.425781 L -91.429688 547.308594 L -91.414062 548.609375 L -91.332031 549.425781 L -91.265625 550.03125 L -91.191406 551.015625 L -91.128906 551.621094 L -90.96875 552.585938 L -90.820312 553.59375 L -90.625 554.992188 L -90.683594 555.179688 L -90.542969 555.808594 L -90.390625 556.398438 L -90.191406 557.253906 L -90.023438 558.054688 L -90.09375 558.285156 L -89.761719 559.515625 L -89.613281 559.976562 L -89.296875 561.121094 L -89.109375 561.722656 L -88.878906 562.335938 L -88.40625 563.648438 L -87.101562 566.722656 L -87.160156 566.914062 L -86.800781 567.652344 L -86.617188 568 L -86.328125 568.546875 L -85.796875 569.671875 L -85.417969 570.332031 L -85.117188 570.84375 L -84.617188 571.664062 L -84.15625 572.472656 C -84.027344 572.722656 -83.84375 572.945312 -83.675781 573.207031 C -83.542969 573.359375 -83.425781 573.519531 -83.324219 573.691406 L -82.40625 575.058594 L -80.457031 577.664062 C -80.015625 578.257812 -79.558594 578.816406 -79.066406 579.386719 L -78.457031 580.117188 C -78.003906 580.675781 -77.578125 581.183594 -77.097656 581.664062 L -76.734375 582.109375 L -74.691406 584.28125 C -74.136719 584.914062 -73.53125 585.519531 -72.960938 586.109375 L -70.960938 588.5625 L -69.296875 590.203125 L -68.589844 590.878906 C -68.0625 591.335938 -67.546875 591.828125 -67.03125 592.320312 L -65.601562 593.511719 L -64.484375 594.484375 L -63.957031 594.9375 C -63.054688 595.675781 -62.117188 596.421875 -61.207031 597.121094 L -60.667969 597.539062 L -59.28125 598.589844 C -58.816406 598.984375 -58.332031 599.300781 -57.855469 599.65625 L -57.035156 600.242188 C -56.046875 600.964844 -55.046875 601.648438 -54.050781 602.332031 L -53.230469 602.792969 C -52.089844 603.558594 -50.949219 604.328125 -49.761719 605.070312 C -44.777344 608.398438 -39.363281 611.945312 -33.644531 615.460938 C -27.925781 618.976562 -22.492188 622.195312 -17.773438 624.898438 L -16.894531 625.421875 L -16.550781 625.527344 C -14.351562 626.789062 -12.152344 628.050781 -9.90625 629.285156 C -6.953125 630.945312 -3.964844 632.617188 -1 634.238281 L 2.597656 636.097656 L 4.144531 636.90625 L 7.246094 638.488281 L 7.511719 638.570312 L 9.3125 639.5 C 9.957031 639.699219 10.605469 639.898438 11.199219 640.417969 L 11.808594 640.605469 L 14.5625 641.953125 C 15.648438 642.496094 16.746094 643 17.800781 643.492188 L 19.664062 644.359375 L 23.332031 645.988281 L 24.285156 646.28125 L 27.152344 647.542969 L 28.296875 647.894531 L 28.5625 647.976562 C 28.972656 648.8125 29.683594 649.074219 30.386719 649.371094 Z M -11.40625 471.675781 C -11.472656 471.667969 -11.535156 471.648438 -11.597656 471.617188 L -11.941406 471.511719 C -12.472656 471.347656 -13.007812 471.183594 -13.578125 471.007812 C -14.152344 470.832031 -14.417969 470.75 -14.875 470.609375 L -16.054688 470.246094 C -17.542969 469.789062 -19.027344 469.332031 -20.285156 468.945312 C -23.144531 468.0625 -26.261719 467.355469 -29.410156 466.59375 C -32.554688 465.835938 -35.621094 465.226562 -38.457031 464.6875 L -39.984375 464.21875 C -42.453125 463.707031 -44.9375 463.234375 -47.382812 462.773438 C -47.953125 462.597656 -48.5625 462.410156 -49.136719 462.234375 L -49.707031 462.058594 L -50.316406 461.871094 C -51.15625 461.613281 -52.023438 461.59375 -52.871094 461.5 L -53.328125 461.359375 L -53.597656 461.277344 L -54.246094 461.078125 L -56.039062 460.945312 L -56.34375 460.851562 C -56.6875 460.746094 -57.089844 460.828125 -57.464844 460.839844 L -57.921875 460.699219 C -58.382812 460.558594 -58.910156 460.644531 -59.414062 460.65625 L -59.910156 460.503906 C -60.25 460.398438 -60.691406 460.472656 -61.082031 460.519531 L -62.566406 460.605469 L -62.949219 460.488281 L -64.15625 460.617188 L -64.722656 460.691406 C -66.023438 460.871094 -67.292969 461.191406 -68.523438 461.652344 C -69.335938 461.980469 -70.113281 462.378906 -70.851562 462.855469 C -71.261719 463.230469 -71.65625 463.570312 -71.976562 463.929688 C -72.335938 464.359375 -72.644531 464.820312 -72.902344 465.316406 L -73.457031 467.109375 L -73.574219 468.574219 L -73.667969 468.878906 L -73.75 469.148438 L -73.675781 470.257812 L -73.464844 471.613281 L -73.378906 472.144531 L -73.242188 472.644531 L -73.117188 473.183594 L -73.222656 473.527344 C -72.917969 474.582031 -72.582031 475.519531 -72.203125 476.597656 L -71.9375 477.222656 L -71.527344 479.8125 L -70.277344 481.992188 C -69.707031 483.253906 -69.085938 484.488281 -68.453125 485.6875 L -66.367188 489.753906 L -65.640625 489.015625 L -65.34375 488.730469 L -65.273438 488.503906 L -64.136719 487.515625 L -63.46875 486.972656 L -62.328125 485.984375 L -61.957031 485.722656 L -61.347656 485.242188 L -60.136719 484.28125 L -58.773438 483.238281 L -57.828125 482.609375 L -56.871094 481.945312 L -55.640625 481.070312 L -54.804688 480.785156 L -53.621094 480.0625 L -52.851562 479.589844 L -52.277344 479.222656 L -51.878906 479.011719 C -51.511719 478.75 -51.121094 478.519531 -50.710938 478.328125 L -48.105469 476.917969 C -46.972656 476.347656 -45.75 475.761719 -44.410156 475.214844 C -40.445312 473.585938 -36.332031 472.515625 -32.074219 472.003906 C -27.816406 471.496094 -23.566406 471.558594 -19.328125 472.203125 C -18.644531 472.414062 -17.9375 472.421875 -17.265625 472.546875 C -17.421875 472.519531 -17.574219 472.472656 -17.722656 472.40625 C -18.105469 472.289062 -18.445312 472.183594 -18.789062 472.078125 L -22.21875 471.023438 C -22.542969 470.902344 -22.875 470.800781 -23.210938 470.714844 L -26.335938 469.753906 L -29.230469 468.863281 L -30.375 468.511719 C -30.71875 468.40625 -31.023438 468.3125 -31.363281 468.207031 L -31.824219 468.066406 C -32.546875 467.84375 -33.269531 467.621094 -34.054688 467.585938 C -34.835938 467.554688 -35.851562 467.328125 -36.722656 467.183594 C -38.609375 466.902344 -40.503906 466.820312 -42.40625 466.9375 C -42.972656 467.011719 -43.539062 467.089844 -44.078125 467.214844 C -44.765625 467.359375 -45.4375 467.554688 -46.09375 467.804688 C -46.253906 467.824219 -46.390625 467.78125 -46.511719 467.675781 C -46.691406 467.574219 -46.8125 467.425781 -46.875 467.230469 L -46.78125 466.925781 C -46.695312 466.707031 -46.539062 466.558594 -46.3125 466.484375 C -45.441406 466.175781 -44.558594 465.921875 -43.65625 465.714844 C -42.84375 465.589844 -42.023438 465.507812 -41.203125 465.46875 C -39.515625 465.421875 -37.839844 465.53125 -36.175781 465.808594 L -35.070312 466.148438 L -34.109375 466.277344 C -33.878906 466.347656 -33.652344 466.417969 -33.421875 466.488281 C -33.195312 466.558594 -32.242188 466.851562 -31.667969 467.027344 L -31.441406 467.097656 L -30.105469 467.507812 L -28.542969 467.988281 L -27.019531 468.457031 C -25.914062 468.796875 -24.808594 469.136719 -23.742188 469.46875 L -22.5625 469.832031 C -22.179688 469.949219 -21.800781 470.066406 -21.417969 470.183594 L -18.027344 471.226562 C -17.609375 471.355469 -17.226562 471.472656 -16.808594 471.601562 L -15.054688 472.140625 L -13.566406 472.597656 C -12.347656 472.972656 -11.238281 473.566406 -10.09375 474.046875 L -9.480469 474.234375 C -9.023438 474.375 -8.566406 474.515625 -8.109375 474.65625 C -7.652344 474.796875 -6.851562 475.042969 -6.242188 475.230469 C -4.453125 475.78125 -2.539062 476.746094 -0.585938 477.722656 C 0.441406 478.039062 1.328125 478.6875 2.261719 479.183594 C 3.191406 479.679688 3.371094 479.777344 3.894531 480.105469 L 4.582031 480.316406 L 5.078125 480.46875 C 5.761719 480.679688 6.417969 481.132812 7.09375 481.507812 L 7.628906 481.671875 C 8.671875 482.203125 9.71875 482.734375 10.753906 483.300781 C 10.410156 483.195312 10.089844 482.890625 9.769531 482.707031 L 8.726562 482.84375 C 7.28125 481.984375 5.796875 481.109375 4.339844 480.285156 L 2.398438 479.144531 L 1.902344 478.992188 C -0.00390625 477.859375 -1.984375 476.707031 -3.988281 475.632812 C -4.984375 475.074219 -6.03125 474.542969 -7.078125 474.011719 L -7.421875 473.90625 C -8.351562 473.410156 -9.285156 472.914062 -10.230469 472.457031 L -10.417969 472.398438 L -10.648438 472.328125 C -10.84375 472.285156 -11.035156 472.226562 -11.21875 472.152344 Z M -76.5 466.296875 L -76.347656 465.800781 C -76.0625 465.074219 -75.6875 464.394531 -75.222656 463.765625 C -74.722656 463.109375 -74.152344 462.519531 -73.507812 461.996094 C -72.636719 461.324219 -71.691406 460.777344 -70.671875 460.367188 C -69.828125 460.042969 -68.96875 459.777344 -68.089844 459.574219 C -67.347656 459.378906 -66.59375 459.234375 -65.828125 459.140625 L -65.449219 459.257812 L -64.453125 459.148438 C -64.171875 459.097656 -63.886719 459.074219 -63.597656 459.078125 L -62.917969 459.035156 C -62.46875 458.996094 -62.019531 458.980469 -61.570312 458.992188 L -60.941406 458.976562 C -60.367188 459.152344 -59.816406 458.988281 -59.273438 458.988281 L -58.664062 459.175781 L -57.109375 459.277344 L -56.25 459.332031 C -55.792969 459.472656 -55.335938 459.613281 -54.796875 459.488281 L -53.671875 459.625 L -52.546875 459.765625 C -52.164062 459.882812 -51.785156 460 -51.402344 460.117188 L -51.097656 460.210938 L -50.375 460.433594 C -49.117188 460.820312 -47.714844 460.875 -46.421875 461.148438 L -45.585938 461.40625 C -43.984375 461.898438 -42.277344 462.046875 -40.667969 462.378906 L -39.371094 462.777344 L -36.660156 463.320312 C -33.097656 462.996094 -30.257812 463.660156 -27.316406 464.398438 C -24.371094 465.140625 -21.371094 466.230469 -18.472656 467.121094 L -16.300781 467.789062 C -15.617188 468 -14.96875 468.199219 -14.28125 468.414062 L -13.480469 468.660156 C -13.023438 468.800781 -12.566406 468.941406 -12.070312 469.09375 C -11.578125 469.246094 -10.472656 469.585938 -9.753906 470.097656 C -9.035156 470.613281 -7.214844 471.339844 -5.847656 472.050781 C -4.585938 472.691406 -3.34375 473.40625 -2.09375 474.085938 C -0.84375 474.761719 1.140625 475.914062 2.722656 476.863281 C 3.570312 477.375 4.425781 477.847656 5.269531 478.355469 L 6.433594 479.046875 C 8.640625 480.25 10.78125 481.5625 12.855469 482.988281 C 14.039062 483.773438 15.164062 484.632812 16.230469 485.574219 C 17.277344 486.457031 18.246094 487.425781 19.132812 488.472656 C 19.59375 488.613281 19.972656 488.730469 20.296875 489.164062 C 22.941406 490.605469 25.613281 492.09375 28.246094 493.574219 L 29.011719 494.058594 L 32.234375 495.929688 L 33.410156 496.582031 C 34.433594 497.191406 35.464844 497.757812 36.488281 498.367188 L 39.25 499.96875 L 44.261719 502.929688 L 45.386719 503.609375 L 52.410156 507.902344 L 54.8125 509.3125 L 57.195312 510.796875 C 58.039062 511.304688 58.832031 511.84375 59.625 512.378906 L 61.929688 513.839844 L 62.234375 513.933594 L 64.386719 515.347656 C 65.9375 516.410156 67.5 517.433594 69.050781 518.496094 L 69.734375 519.125 L 70.152344 519.253906 C 70.800781 519.453125 71.328125 520.03125 71.90625 520.460938 L 77.058594 524.050781 L 82.433594 528.003906 L 82.929688 528.15625 L 84.675781 529.402344 C 86.417969 530.648438 88.074219 531.910156 89.769531 533.183594 L 90.339844 533.359375 L 92.339844 534.855469 C 93.996094 536.113281 95.730469 537.398438 97.375 538.699219 L 99.972656 540.960938 C 100.792969 541.546875 101.550781 542.199219 102.363281 542.824219 L 103.429688 543.695312 L 104.535156 544.578125 L 104.839844 544.671875 C 105.582031 545.234375 106.277344 545.824219 106.984375 546.378906 L 107.210938 546.449219 L 107.402344 546.507812 L 108.867188 547.707031 L 111.582031 550.007812 L 111.847656 550.089844 C 112.773438 550.875 113.699219 551.660156 114.613281 552.484375 L 115.59375 553.371094 C 116.316406 554.011719 117.023438 554.6875 117.707031 555.316406 L 117.9375 555.386719 L 118.929688 556.359375 L 120.28125 557.652344 C 120.625 557.761719 120.863281 558.207031 121.148438 558.503906 L 121.5625 558.925781 L 125.292969 562.664062 L 125.988281 563.378906 L 126.21875 563.449219 L 126.617188 563.90625 C 127.40625 564.734375 128.207031 565.523438 128.957031 566.339844 C 129.707031 567.152344 130.300781 567.796875 130.988281 568.550781 L 131.597656 569.28125 L 132.4375 570.207031 L 134.417969 572.445312 L 137.246094 575.863281 L 138.21875 577.039062 C 138.984375 577.945312 139.699219 578.875 140.425781 579.765625 L 141.035156 581.582031 L 141.335938 581.964844 L 141.867188 582.671875 L 142.753906 583.863281 L 143.585938 585.082031 L 144.433594 586.261719 L 144.941406 586.917969 L 145.804688 588.1875 L 146.050781 588.597656 L 146.402344 589.082031 L 146.769531 589.652344 L 148.664062 592.449219 L 148.859375 592.761719 L 150.164062 594.75 L 150.847656 595.921875 L 151.1875 596.441406 L 151.378906 596.5 L 151.546875 596.761719 C 152.214844 597.84375 152.871094 598.964844 153.492188 600.074219 L 154.003906 600.984375 L 155.082031 602.902344 L 155.621094 603.863281 L 158.257812 608.851562 L 158.65625 609.722656 L 158.800781 610.0625 C 159.265625 611.125 159.734375 612.1875 160.25 613.222656 L 160.167969 613.488281 L 160.511719 614.261719 L 160.835938 615.113281 L 161.609375 617.066406 L 162.484375 619.378906 L 162.941406 620.605469 L 163.089844 621.070312 L 163.910156 623.285156 C 164.285156 624.363281 164.664062 625.4375 164.953125 626.53125 L 165.199219 627.359375 L 165.816406 629.550781 L 165.96875 630.015625 L 166.261719 631.234375 L 166.929688 632.984375 L 167.089844 633.828125 L 167.28125 634.554688 L 167.4375 635.269531 L 167.378906 635.460938 L 167.460938 635.863281 L 167.835938 638.316406 L 168.082031 639.8125 L 168.011719 640.042969 L 168.101562 640.695312 L 168.347656 641.941406 L 168.691406 645.972656 C 168.886719 650.3125 168.433594 654.585938 167.328125 658.789062 L 167.117188 659.476562 C 166.5625 661.226562 165.8125 662.886719 164.875 664.464844 C 163.742188 666.289062 162.359375 667.894531 160.71875 669.285156 C 159.273438 670.453125 157.722656 671.464844 156.074219 672.320312 C 154.214844 673.292969 152.285156 674.089844 150.285156 674.714844 C 149.171875 675.082031 148.003906 675.351562 147.015625 675.589844 L 147.433594 676.800781 L 147.851562 678.015625 L 148.011719 678.441406 L 148.351562 679.382812 L 148.75 680.796875 L 149.183594 682.226562 L 149.375 682.828125 L 149.851562 684.394531 L 149.996094 685.820312 L 150.167969 686.621094 L 150.359375 687.351562 L 150.832031 689.207031 L 151.035156 690.3125 L 151.222656 691.332031 L 151.652344 693.59375 L 151.878906 694.75 L 151.761719 695.132812 L 152.058594 696.476562 C 152.203125 697.75 152.28125 699.027344 152.296875 700.308594 C 152.335938 702.265625 152.183594 704.210938 151.835938 706.136719 L 151.296875 707.890625 C 150.914062 709.203125 150.332031 710.414062 149.550781 711.53125 C 148.527344 712.84375 147.257812 713.84375 145.746094 714.535156 C 144.933594 714.9375 144.085938 715.246094 143.207031 715.464844 C 142.1875 715.710938 141.152344 715.867188 140.101562 715.929688 C 138.050781 716.054688 136.015625 715.945312 133.988281 715.59375 C 133.988281 715.59375 133.648438 715.488281 133.457031 715.429688 L 133.226562 715.359375 L 131.816406 714.925781 L 131.4375 714.808594 C 130.863281 714.632812 130.253906 714.445312 129.585938 714.445312 L 129.359375 714.375 C 128.722656 714.222656 128.101562 714.03125 127.492188 713.800781 L 126.082031 713.367188 L 125.050781 713.050781 C 124.878906 713.019531 124.714844 712.96875 124.554688 712.898438 L 122.117188 712.148438 C 121.699219 712.019531 121.316406 711.902344 120.898438 711.773438 L 117.832031 711.160156 L 117.449219 711.042969 C 117.070312 710.925781 116.726562 710.820312 116.34375 710.703125 L 114.898438 710.257812 L 113.449219 709.8125 L 112.839844 709.625 C 112.34375 709.472656 111.886719 709.332031 111.429688 709.191406 L 109.402344 708.191406 L 109.019531 708.074219 L 108.601562 707.945312 L 105.421875 706.339844 L 104.273438 705.734375 L 101.402344 704.226562 C 99.90625 703.390625 98.363281 702.578125 96.828125 701.730469 C 95.296875 700.882812 94.808594 700.566406 93.777344 699.996094 L 92.460938 699.257812 C 91.578125 698.738281 90.734375 698.226562 89.878906 697.753906 L 88.65625 696.167969 L 85.125 694.078125 L 84.078125 693.421875 C 83.128906 692.835938 82.171875 692.292969 81.273438 691.679688 L 76.566406 688.269531 C 76.335938 688.148438 76.113281 688.011719 75.902344 687.855469 L 75.558594 687.75 L 72.625 685.761719 C 71.523438 685.003906 70.433594 684.210938 69.179688 683.40625 L 68.023438 682.550781 C 67.195312 681.988281 66.375 681.402344 65.5625 680.789062 C 64.007812 679.601562 62.457031 678.414062 60.890625 677.261719 C 60.003906 676.613281 59.171875 675.941406 58.308594 675.214844 L 57.230469 674.382812 C 56.191406 673.558594 55.199219 672.710938 54.171875 671.851562 L 52.9375 670.847656 C 52.101562 670.171875 51.304688 669.507812 50.519531 668.808594 L 48.355469 666.890625 L 46.144531 664.996094 C 45.320312 664.285156 44.507812 663.53125 43.695312 662.78125 L 42.921875 662.042969 L 42.035156 661.269531 L 41.160156 660.457031 L 40.386719 659.714844 L 39.933594 659.285156 L 38.785156 658.136719 L 37.597656 656.980469 L 37.371094 656.910156 C 37.085938 656.613281 36.75 656.34375 36.464844 656.046875 L 34.542969 654.035156 L 29.5625 652.042969 L 26.582031 650.75 L 25.097656 650.289062 L 21.425781 648.660156 C 20.015625 648.226562 18.738281 647.5 17.386719 646.875 C 16.035156 646.25 15.460938 645.945312 14.507812 645.527344 L 13.972656 645.363281 C 13.515625 645.222656 13.097656 645.09375 12.699219 644.761719 L 9.609375 643.269531 L 7.839844 642.386719 L 5.234375 641.085938 L 4.703125 640.921875 L 3.65625 640.390625 C 2.355469 639.738281 1.101562 639.0625 -0.199219 638.410156 C -5.585938 635.582031 -10.925781 632.601562 -16.859375 629.105469 C -21.585938 626.4375 -26.765625 623.339844 -33.199219 619.441406 C -35.589844 617.992188 -37.960938 616.472656 -40.199219 615.070312 L -41.070312 614.511719 C -43.515625 612.964844 -45.933594 611.34375 -48.367188 609.757812 L -48.9375 609.582031 C -51.21875 608.046875 -53.820312 606.328125 -56.367188 604.582031 C -57.777344 603.605469 -59.140625 602.601562 -60.511719 601.636719 L -61.792969 600.65625 L -62.367188 600.480469 L -63.6875 599.488281 L -63.992188 599.394531 L -64.257812 599.3125 C -65.402344 598.417969 -66.570312 597.472656 -67.578125 596.539062 L -68.039062 596.144531 C -68.4375 595.8125 -68.796875 595.492188 -69.1875 595.125 L -70.449219 593.941406 L -71.363281 593.117188 C -71.707031 593.011719 -71.941406 592.5625 -72.226562 592.265625 L -72.578125 591.910156 L -73.066406 591.464844 C -73.457031 591.105469 -73.824219 590.726562 -74.175781 590.328125 L -75.15625 589.316406 L -76.101562 588.316406 C -76.578125 587.835938 -77.007812 587.328125 -77.445312 586.859375 L -78.003906 586.226562 C -78.347656 586.121094 -78.570312 585.636719 -78.84375 585.300781 L -79.960938 583.914062 L -80.6875 583.023438 L -81.738281 581.695312 L -82.496094 580.628906 L -82.910156 580.082031 L -83.417969 579.425781 L -84.007812 578.492188 C -84.609375 577.597656 -85.246094 576.691406 -85.796875 575.769531 L -86.492188 574.636719 L -87.136719 573.476562 C -87.222656 573.375 -87.285156 573.257812 -87.320312 573.128906 L -87.742188 572.332031 L -88.113281 571.507812 C -88.417969 570.996094 -88.640625 570.507812 -88.894531 569.972656 L -89.949219 567.433594 C -90.046875 567.257812 -90.113281 567.070312 -90.148438 566.871094 L -90.285156 566.496094 L -90.824219 564.992188 L -91.214844 563.953125 L -91.402344 563.351562 L -91.332031 563.125 L -91.605469 562.246094 L -92.019531 560.742188 L -92.183594 560.191406 L -92.101562 559.921875 L -92.324219 559.019531 L -92.496094 558.089844 C -92.648438 557.5 -92.722656 556.933594 -92.824219 556.316406 L -92.953125 555.652344 C -93.042969 554.996094 -93.171875 554.332031 -93.226562 553.6875 L -93.488281 551.019531 L -93.382812 550.675781 L -93.265625 550.292969 L -93.960938 548.074219 L -93.867188 547.769531 L -93.898438 546.925781 L -93.933594 545.285156 L -93.769531 544.75 L -93.6875 544.484375 L -93.625 543.460938 L -93.605469 542.589844 L -93.476562 542.167969 L -93.359375 541.789062 L -93.125 541.023438 L -92.980469 539.605469 L -92.796875 538.203125 L -92.644531 537.707031 L -92.574219 537.476562 L -92.363281 536.789062 L -92.140625 536.066406 L -92 535.609375 L -91.539062 534.121094 L -91.082031 532.632812 L -90.660156 531.257812 L -89.15625 526.375 L -88.652344 524.738281 L -88.417969 523.972656 C -88.242188 523.402344 -88.066406 522.828125 -87.898438 522.296875 L -88.367188 520.5625 L -87.921875 519.113281 L -87.757812 518.582031 L -87.453125 517.589844 L -86.773438 516.335938 L -85.902344 514.726562 L -83.660156 511.90625 L -83.0625 510.921875 L -81.347656 508.191406 L -80.507812 506.949219 L -79.699219 505.820312 L -79.222656 505.089844 L -77.832031 503.136719 L -77.304688 502.378906 L -77.234375 502.152344 L -77.105469 501.730469 L -75.148438 499.578125 L -74.464844 498.703125 L -74.308594 498.207031 L -73.402344 497.152344 L -72.519531 496.042969 L -71.621094 495.027344 L -71.191406 494.574219 L -69.304688 492.523438 L -69.234375 492.292969 L -69.175781 492.105469 L -69.996094 490.558594 L -71.871094 486.890625 C -73.273438 484.226562 -74.515625 481.492188 -75.601562 478.683594 C -76.101562 477.191406 -76.511719 475.671875 -76.828125 474.128906 C -76.96875 473.375 -77.101562 472.582031 -77.183594 471.765625 L -77.261719 470.65625 L -77.164062 470.351562 L -77.128906 469.277344 C -77.007812 468.261719 -76.746094 467.285156 -76.347656 466.34375 Z M -76.5 466.296875 " fill-opacity="1" fill-rule="nonzero"/></g></g></g></svg>