<svg xmlns="http://www.w3.org/2000/svg" xmlns:xlink="http://www.w3.org/1999/xlink" width="940" zoomAndPan="magnify" viewBox="0 0 705 591.000005" height="788" preserveAspectRatio="xMidYMid meet" version="1.0"><defs><clipPath id="dd8b937afc"><path d="M 59.59375 10.546875 L 627 10.546875 L 627 577.949219 L 59.59375 577.949219 Z M 59.59375 10.546875 " clip-rule="nonzero"/></clipPath><clipPath id="cadee3e3f8"><path d="M 343.296875 10.546875 C 186.613281 10.546875 59.59375 137.5625 59.59375 294.25 C 59.59375 450.933594 186.613281 577.949219 343.296875 577.949219 C 499.980469 577.949219 627 450.933594 627 294.25 C 627 137.5625 499.980469 10.546875 343.296875 10.546875 " clip-rule="nonzero"/></clipPath><clipPath id="2f00e52dbe"><path d="M 184.289062 152.953125 L 502.5625 152.953125 L 502.5625 434.949219 L 184.289062 434.949219 Z M 184.289062 152.953125 " clip-rule="nonzero"/></clipPath></defs><g clip-path="url(#dd8b937afc)"><g clip-path="url(#cadee3e3f8)"><path fill="#30a663" d="M 59.59375 10.546875 L 627 10.546875 L 627 577.949219 L 59.59375 577.949219 Z M 59.59375 10.546875 " fill-opacity="1" fill-rule="nonzero"/></g></g><g clip-path="url(#2f00e52dbe)"><path fill="#ffffff" d="M 307.796875 342.277344 C 275.246094 295.628906 247.722656 233.160156 184.289062 295.628906 C 229.355469 328.964844 254.390625 377.277344 273.578125 430.578125 C 274.425781 433.90625 278.605469 435.570312 281.941406 434.753906 C 296.125 431.425781 310.308594 428.097656 323.675781 424.742188 C 326.160156 423.921875 327.828125 423.078125 328.675781 420.597656 C 376.230469 323.972656 434.664062 239.816406 500.585938 164.855469 C 506.433594 159.015625 498.097656 149.851562 491.402344 154.023438 C 420.480469 199.007812 358.710938 261.476562 307.796875 342.277344 " fill-opacity="1" fill-rule="nonzero"/></g></svg>