<svg xmlns="http://www.w3.org/2000/svg" xmlns:xlink="http://www.w3.org/1999/xlink" width="940" zoomAndPan="magnify" viewBox="0 0 705 591.000005" height="788" preserveAspectRatio="xMidYMid meet" version="1.0"><defs><clipPath id="d7acbb4478"><path d="M 341.285156 301.703125 L 367.269531 301.703125 L 367.269531 327.691406 L 341.285156 327.691406 Z M 341.285156 301.703125 " clip-rule="nonzero"/></clipPath><clipPath id="94a03abc77"><path d="M 354.277344 301.703125 C 347.101562 301.703125 341.285156 307.519531 341.285156 314.695312 C 341.285156 321.871094 347.101562 327.691406 354.277344 327.691406 C 361.453125 327.691406 367.269531 321.871094 367.269531 314.695312 C 367.269531 307.519531 361.453125 301.703125 354.277344 301.703125 " clip-rule="nonzero"/></clipPath><clipPath id="068be9cc0e"><path d="M 346.996094 308.226562 L 361.574219 308.226562 L 361.574219 321.140625 L 346.996094 321.140625 Z M 346.996094 308.226562 " clip-rule="nonzero"/></clipPath></defs><g clip-path="url(#d7acbb4478)"><g clip-path="url(#94a03abc77)"><path fill="#30a663" d="M 341.285156 301.703125 L 367.269531 301.703125 L 367.269531 327.691406 L 341.285156 327.691406 Z M 341.285156 301.703125 " fill-opacity="1" fill-rule="nonzero"/></g></g><g clip-path="url(#068be9cc0e)"><path fill="#ffffff" d="M 352.652344 316.894531 C 351.160156 314.757812 349.902344 311.898438 346.996094 314.757812 C 349.058594 316.285156 350.207031 318.5 351.085938 320.941406 C 351.125 321.09375 351.316406 321.167969 351.46875 321.132812 C 352.117188 320.980469 352.765625 320.828125 353.378906 320.671875 C 353.492188 320.636719 353.570312 320.597656 353.609375 320.484375 C 355.785156 316.058594 358.460938 312.203125 361.480469 308.769531 C 361.75 308.503906 361.367188 308.082031 361.0625 308.273438 C 357.8125 310.335938 354.984375 313.195312 352.652344 316.894531 " fill-opacity="1" fill-rule="nonzero"/></g></svg>